<?xml version="1.0" encoding="utf-8"?>
<!-- Generator: Adobe Illustrator 19.1.0, SVG Export Plug-In . SVG Version: 6.00 Build 0)  -->
<!DOCTYPE svg PUBLIC "-//W3C//DTD SVG 1.1//EN" "http://www.w3.org/Graphics/SVG/1.1/DTD/svg11.dtd">
<svg version="1.1" id="Layer_1" xmlns="http://www.w3.org/2000/svg" xmlns:xlink="http://www.w3.org/1999/xlink" x="0px" y="0px"
	 viewBox="0 0 283.5 130.8" style="enable-background:new 0 0 283.5 130.8;" xml:space="preserve">
<style type="text/css">
	.st0{fill:#231F20;}
</style>
<g>
	<path class="st0" d="M103.9,56.5h7.9l-4.9,25.3c-0.6,3.1-1.8,5.3-3.6,6.7c-1.8,1.3-4.4,2-7.7,2h-2.3l1.3-6.7h1.2c2,0,3.2-1.3,3.6-4
		L103.9,56.5z M109.2,54.2c1.4,0,2.5-0.3,3.3-1c0.8-0.7,1.2-1.7,1.2-3c0-1.3-0.5-2.3-1.3-3c-0.8-0.7-1.9-1-3.3-1
		c-1.4,0-2.5,0.3-3.3,1c-0.8,0.7-1.2,1.7-1.2,3c0,1.3,0.4,2.3,1.3,3C106.8,53.8,107.9,54.2,109.2,54.2z M134.6,50.8
		c0.5-0.3,0.9-0.6,1.2-0.7c0.2-0.2,0.5-0.4,0.6-0.7c0.2-0.3,0.3-0.6,0.3-0.9c0-1-0.6-1.5-1.9-1.5h-2c-1.7,0-3,0.5-3.9,1.6l-4.2,5.4
		h4.3L134.6,50.8z M134.6,73.2l0.8,0.4l-2.8,6.2c-1.9,0-3.4-0.4-4.7-1.1c-1.2-0.7-2-1.6-2.4-2.7h-0.3c-1.6,2.5-3.9,3.8-6.6,3.8
		c-2.1,0-3.6-0.6-4.7-1.9c-1.1-1.3-1.6-3-1.6-5.3c0-2.7,0.4-5.2,1.3-7.7c0.9-2.4,2.1-4.4,3.7-5.8c2.3-2.1,5.6-3.1,9.8-3.1
		c1.5,0,3,0.1,4.5,0.4c1.5,0.3,2.6,0.6,3.3,0.8l1.1,0.4l-2.5,12.7c-0.2,0.9-0.2,1.5,0,1.8C133.8,72.6,134.1,72.9,134.6,73.2z
		 M127.2,62.8c-0.5-0.2-1-0.3-1.7-0.3c-1.2,0-2.2,0.5-3,1.5c-0.5,0.7-1,1.7-1.4,3.1c-0.4,1.4-0.6,2.7-0.6,3.9c0,1.6,0.6,2.4,1.9,2.4
		c0.8,0,1.6-0.4,2.2-1.2c0.6-0.8,1.1-2,1.4-3.5L127.2,62.8z M153.9,56.1h-0.8c-2.8,0-4.9,1.1-6.2,3.3h-0.3l-1-2.9h-5.2l-4.5,22.8
		h7.9l2.1-10.6c0.4-2.1,1-3.5,1.7-4.4c0.8-0.8,1.8-1.2,3.2-1.2h1.7L153.9,56.1z M174.5,49.4c0.2-0.3,0.3-0.6,0.3-0.9
		c0-1-0.6-1.5-1.9-1.5h-2c-1.7,0-3,0.5-3.9,1.6l-4.2,5.4h4.3l5.5-3.2c0.5-0.3,0.9-0.6,1.2-0.7C174.1,49.9,174.4,49.7,174.5,49.4z
		 M173.7,63.9c0.1,2.3-0.3,4.7-1.1,7.3c-0.8,2.6-2,4.7-3.7,6.2c-1.7,1.6-4.4,2.5-8,2.5c-2.6,0-4.7-0.7-6.3-2
		c-1.6-1.3-2.5-3.3-2.6-5.8c-0.1-2.1,0.3-4.5,1.1-7.3c0.8-2.8,2.1-4.9,3.7-6.3c1.9-1.6,4.5-2.4,7.8-2.4c2.7,0,4.8,0.6,6.4,1.9
		C172.8,59.2,173.6,61.2,173.7,63.9z M165.9,64.3c0-1.2-0.7-1.8-1.9-1.8c-1,0-1.7,0.3-2.2,1c-0.5,0.7-0.9,2-1.3,3.8
		c-0.4,1.8-0.6,3.2-0.6,4.3c0,0.6,0.2,1,0.5,1.3c0.4,0.3,0.8,0.5,1.4,0.5c1,0,1.7-0.3,2.2-1c0.5-0.7,0.9-2,1.3-3.8
		C165.7,66.7,165.9,65.3,165.9,64.3z M201,56.5h-9.2l-6.1,7.9H185l3.5-18.2h-7.9l-6.4,33.1h7.9l1.8-9.4l0.7,0l3.9,9.4h8.6l-5-11.5
		L201,56.5z M221.7,62.6c0,2.5-0.9,4.4-2.6,5.9c-1.7,1.4-4.3,2.2-7.8,2.2h-4.6c-0.1,0.3-0.1,0.6-0.1,0.9c0,0.7,0.3,1.1,0.8,1.4
		c0.6,0.3,1.5,0.4,2.9,0.4c2,0,4.4-0.4,7.1-1.2l0.6,5.6c-2.8,1.4-5.8,2-9.1,2c-6.8,0-10.2-2.6-10.3-7.8c0-2.1,0.4-4.4,1.2-6.9
		c0.8-2.5,1.8-4.5,3.1-5.7c2.2-2.2,5.4-3.3,9.7-3.3c2.9,0,5.2,0.6,6.7,1.7C221,58.9,221.7,60.5,221.7,62.6z M214,63.5
		c0-0.9-0.8-1.3-2.4-1.3c-1.3,0-2.3,0.3-2.9,0.9c-0.4,0.4-0.7,1.1-1,2h4.4c0.7,0,1.1-0.2,1.4-0.5C213.9,64.3,214,63.9,214,63.5z
		 M236.2,46.3h-7.9l-4.7,24c-0.3,1.7-0.5,3.2-0.5,4.3c0,1.8,0.6,3.1,1.7,4c1.1,0.9,3,1.3,5.5,1.3h2.3l1.8-6.7l-1.1-0.3
		c-0.6-0.2-1-0.4-1.3-0.6c-0.3-0.3-0.4-0.7-0.4-1.2c0-0.4,0.1-1.1,0.2-2L236.2,46.3z M260.9,47h-0.8c-1.7,0-3,0.5-3.9,1.6l-4.2,5.4
		h3.1l5.5-3.2c0.5-0.3,0.9-0.6,1.2-0.7c0.2-0.2,0.5-0.4,0.6-0.7c0.2-0.3,0.3-0.6,0.3-0.9C262.8,47.5,262.2,47,260.9,47z M258,63.9
		c0.1,2.3-0.3,4.7-1.1,7.3c-0.8,2.6-2,4.7-3.7,6.2c-1.7,1.6-4.4,2.5-8,2.5c-2.6,0-4.7-0.7-6.3-2c-1.6-1.3-2.5-3.3-2.6-5.8
		c-0.1-2.1,0.3-4.5,1.1-7.3c0.8-2.8,2.1-4.9,3.7-6.3c1.9-1.6,4.5-2.4,7.8-2.4c2.7,0,4.8,0.6,6.4,1.9C257.1,59.2,257.9,61.2,258,63.9
		z M250.2,64.3c0-1.2-0.7-1.8-1.9-1.8c-1,0-1.7,0.3-2.2,1c-0.5,0.7-0.9,2-1.3,3.8c-0.4,1.8-0.6,3.2-0.6,4.3c0,0.6,0.2,1,0.5,1.3
		c0.4,0.3,0.8,0.5,1.4,0.5c1,0,1.7-0.3,2.2-1c0.5-0.7,0.9-2,1.3-3.8C250,66.7,250.2,65.3,250.2,64.3z M251.8,50.8
		c0.5-0.3,0.9-0.6,1.2-0.7c0.2-0.2,0.5-0.4,0.6-0.7c0.2-0.3,0.3-0.6,0.3-0.9c0-1-0.6-1.5-1.9-1.5h-0.8c-1.7,0-3,0.5-3.9,1.6
		l-4.2,5.4h3.1L251.8,50.8z M49.6,42.1c0,3.9,3.2,7.1,7.1,7.1c3.9,0,7.1-3.2,7.1-7.1c0-3.9-3.2-7.1-7.1-7.1
		C52.7,35,49.6,38.2,49.6,42.1z M65.7,28.8l-2.2-1.3l-2.7,5.7l1.3,0.8L65.7,28.8z M53,33.4l-2.7-5.7l-2.2,1.3l3.6,5.1L53,33.4z
		 M70,39.6l-1.3,0l-0.1,6.8L68,46l-4.2,4.6l-2.7,0.1l-9,0.1l-7.6,6.6l0.2,7.7l3.2,0l1-6.1l3.5-2.5l0.5,7.8v3.5l-6.8,8.6l2.6,2.5
		l9.3-8.4l2.9,8.6l3.8-1.2l-3.9-17.7l0.6-4.9l5.3-0.7l4-6.6l-0.8-0.5L70,39.6z M71.5,41.1v0.7l3,0.3l0-1.2L71.5,41.1z M71.1,43.2
		l1.7,1.2l0.4-0.7l-1.8-0.9L71.1,43.2z M73.1,39.4l-0.4-0.7L71,39.8l0.2,0.4L73.1,39.4z M93.2,56.9c0,12.8-6.8,24.2-16.6,30.4
		l-19.7,22.7L37.2,87.4c-9.8-6.3-16.6-17.7-16.6-30.4c0-20,16.2-36.3,36.3-36.3C76.9,20.7,93.2,36.9,93.2,56.9z M87.9,56.9
		c0-16.6-13-30.1-29.3-31L58,32.6h-2.2L55.2,26c-16.3,0.9-29.3,14.4-29.3,31c0,17.1,13.9,31,31,31C74,87.9,87.9,74,87.9,56.9z"/>
</g>
</svg>
