<?xml version="1.0" encoding="utf-8"?>
<!-- Generator: Adobe Illustrator 19.0.0, SVG Export Plug-In . SVG Version: 6.00 Build 0)  -->
<svg version="1.1" id="Layer_1" xmlns="http://www.w3.org/2000/svg" xmlns:xlink="http://www.w3.org/1999/xlink" x="0px" y="0px"
	 viewBox="-453 254 53 53" style="enable-background:new -453 254 53 53;" xml:space="preserve">
<path id="behance" d="M-423.6,283.1c1,0.6,1.4,1.5,1.4,2.6c0,0.6-0.1,1.1-0.3,1.6s-0.5,0.9-1,1.2
	c-0.4,0.4-1,0.5-1.6,0.5h-1.8h-2.9v-6.4h3.2c0.5,0,1,0,1.5,0.1C-424.6,282.8-424.1,282.9-423.6,283.1L-423.6,283.1z M-424.9,277.6
	c-0.4,0.4-0.9,0.5-1.5,0.5h-1.6h-1.9v-5.6h1.4h1.8c0.7,0,1.2,0.1,1.5,0.3c0.9,0.6,1.3,1.4,1.3,2.3
	C-423.8,276.2-424.1,277.1-424.9,277.6L-424.9,277.6z M-409.3,254.1c1.2,0,2.4,0.2,3.6,0.7c1.1,0.5,2.1,1.1,3,2
	c0.8,0.8,1.5,1.8,2,2.9s0.7,2.3,0.7,3.6v34.2c0,1.3-0.2,2.5-0.7,3.7c-0.5,1.1-1.1,2.1-2,3c-0.8,0.8-1.8,1.5-3,2
	c-1.1,0.5-2.3,0.7-3.6,0.7h-34.3c-1.2,0-2.4-0.2-3.6-0.7c-1.1-0.5-2.1-1.1-3-2c-0.8-0.8-1.5-1.8-2-3c-0.5-1.1-0.7-2.4-0.7-3.7v-34.2
	c0-1.3,0.2-2.5,0.7-3.6s1.1-2.1,2-2.9c0.8-0.8,1.8-1.5,3-2c1.1-0.5,2.3-0.7,3.6-0.7H-409.3z M-425.1,293.9c1.6,0,3-0.2,4.2-0.7
	c1.2-0.5,2.1-1.1,2.9-1.8s1.3-1.6,1.6-2.5c0.3-1,0.5-1.9,0.5-2.9c0-2.1-0.5-3.5-1.5-4.5c-1-0.9-2.3-1.6-3.8-1.9v-0.1
	c1-0.4,1.9-1,2.6-2s1.1-2.2,1.1-3.6c0-1.9-0.7-3.4-2-4.4c-1.4-1-2.9-1.5-4.6-1.5h-11.8v26H-425.1z"/>
</svg>
