<?xml version="1.0" encoding="UTF-8" standalone="no"?>
<svg width="40px" height="35px" viewBox="0 0 40 35" version="1.1" xmlns="http://www.w3.org/2000/svg" xmlns:xlink="http://www.w3.org/1999/xlink">
    <!-- Generator: Sketch 3.8.3 (29802) - http://www.bohemiancoding.com/sketch -->
    <title>camera</title>
    <desc>Created with Sketch.</desc>
    <defs></defs>
    <g id="Mobil" stroke="none" stroke-width="1">
        <g id="Jarokelok_mobil_Bejelentes_hozzaszolasok" transform="translate(-310.000000, -628.000000)">
            <path d="M347.5,630.5 L328.515625,630.5 C328.385416,630.135415 328.203126,629.803387 327.96875,629.503906 C327.734374,629.204426 327.460939,628.937501 327.148438,628.703125 C326.861978,628.494791 326.53646,628.325521 326.171875,628.195312 C325.80729,628.065104 325.416669,628 325,628 L318.75,628 C318.333331,628 317.94271,628.065104 317.578125,628.195312 C317.21354,628.325521 316.888022,628.494791 316.601562,628.703125 C316.289061,628.937501 316.015626,629.204426 315.78125,629.503906 C315.546874,629.803387 315.364584,630.135415 315.234375,630.5 L312.5,630.5 C312.161457,630.5 311.835939,630.565104 311.523438,630.695312 C311.210936,630.825521 310.950522,631.007811 310.742188,631.242188 C310.507811,631.450522 310.325521,631.710936 310.195312,632.023438 C310.065104,632.335939 310,632.661457 310,633 L310,660.5 C310,660.838543 310.065104,661.164061 310.195312,661.476562 C310.325521,661.789064 310.507811,662.049478 310.742188,662.257812 C310.950522,662.492189 311.210936,662.674479 311.523438,662.804688 C311.835939,662.934896 312.161457,663 312.5,663 L347.5,663 C347.838543,663 348.164061,662.934896 348.476562,662.804688 C348.789064,662.674479 349.049478,662.492189 349.257812,662.257812 C349.492189,662.049478 349.674479,661.789064 349.804688,661.476562 C349.934896,661.164061 350,660.838543 350,660.5 L350,633 C350,632.661457 349.934896,632.335939 349.804688,632.023438 C349.674479,631.710936 349.492189,631.450522 349.257812,631.242188 C349.049478,631.007811 348.789064,630.825521 348.476562,630.695312 C348.164061,630.565104 347.838543,630.5 347.5,630.5 L347.5,630.5 Z M318.75,630.5 L325,630.5 C325.182293,630.5 325.345051,630.532552 325.488281,630.597656 C325.631511,630.662761 325.768229,630.747395 325.898438,630.851562 C326.002605,630.981771 326.087239,631.118489 326.152344,631.261719 C326.217448,631.404949 326.25,631.567707 326.25,631.75 C326.25,631.932293 326.217448,632.095051 326.152344,632.238281 C326.087239,632.381511 326.002605,632.518229 325.898438,632.648438 C325.768229,632.752605 325.631511,632.837239 325.488281,632.902344 C325.345051,632.967448 325.182293,633 325,633 L318.75,633 C318.567707,633 318.404949,632.967448 318.261719,632.902344 C318.118489,632.837239 317.981771,632.752605 317.851562,632.648438 C317.747395,632.518229 317.662761,632.381511 317.597656,632.238281 C317.532552,632.095051 317.5,631.932293 317.5,631.75 C317.5,631.567707 317.532552,631.404949 317.597656,631.261719 C317.662761,631.118489 317.747395,630.981771 317.851562,630.851562 C317.981771,630.747395 318.118489,630.662761 318.261719,630.597656 C318.404949,630.532552 318.567707,630.5 318.75,630.5 L318.75,630.5 Z M347.5,659.25 C347.5,659.432293 347.467448,659.595051 347.402344,659.738281 C347.337239,659.881511 347.252605,660.018229 347.148438,660.148438 C347.018229,660.252605 346.881511,660.337239 346.738281,660.402344 C346.595051,660.467448 346.432293,660.5 346.25,660.5 L313.75,660.5 C313.567707,660.5 313.404949,660.467448 313.261719,660.402344 C313.118489,660.337239 312.981771,660.252605 312.851562,660.148438 C312.747395,660.018229 312.662761,659.881511 312.597656,659.738281 C312.532552,659.595051 312.5,659.432293 312.5,659.25 L312.5,634.25 C312.5,634.067707 312.532552,633.904949 312.597656,633.761719 C312.662761,633.618489 312.747395,633.481771 312.851562,633.351562 C312.981771,633.247395 313.118489,633.162761 313.261719,633.097656 C313.404949,633.032552 313.567707,633 313.75,633 L315.234375,633 C315.364584,633.364585 315.546874,633.696613 315.78125,633.996094 C316.015626,634.295574 316.289061,634.562499 316.601562,634.796875 C316.888022,635.005209 317.21354,635.174479 317.578125,635.304688 C317.94271,635.434896 318.333331,635.5 318.75,635.5 L325,635.5 C325.416669,635.5 325.80729,635.434896 326.171875,635.304688 C326.53646,635.174479 326.861978,635.005209 327.148438,634.796875 C327.460939,634.562499 327.734374,634.295574 327.96875,633.996094 C328.203126,633.696613 328.385416,633.364585 328.515625,633 L346.25,633 C346.432293,633 346.595051,633.032552 346.738281,633.097656 C346.881511,633.162761 347.018229,633.247395 347.148438,633.351562 C347.252605,633.481771 347.337239,633.618489 347.402344,633.761719 C347.467448,633.904949 347.5,634.067707 347.5,634.25 L347.5,659.25 Z M330,638 C328.619785,638 327.324225,638.260414 326.113281,638.78125 C324.902338,639.302086 323.84115,640.018225 322.929688,640.929688 C322.018225,641.84115 321.302086,642.902338 320.78125,644.113281 C320.260414,645.324225 320,646.619785 320,648 C320,649.380215 320.260414,650.675775 320.78125,651.886719 C321.302086,653.097662 322.018225,654.15885 322.929688,655.070312 C323.84115,655.981775 324.902338,656.697914 326.113281,657.21875 C327.324225,657.739586 328.619785,658 330,658 C331.380215,658 332.675775,657.739586 333.886719,657.21875 C335.097662,656.697914 336.15885,655.981775 337.070312,655.070312 C337.981775,654.15885 338.697914,653.097662 339.21875,651.886719 C339.739586,650.675775 340,649.380215 340,648 C340,646.619785 339.739586,645.324225 339.21875,644.113281 C338.697914,642.902338 337.981775,641.84115 337.070312,640.929688 C336.15885,640.018225 335.097662,639.302086 333.886719,638.78125 C332.675775,638.260414 331.380215,638 330,638 L330,638 Z M330,655.5 C328.958328,655.5 327.981775,655.304689 327.070312,654.914062 C326.15885,654.523436 325.364587,653.989587 324.6875,653.3125 C324.010413,652.635413 323.476564,651.84115 323.085938,650.929688 C322.695311,650.018225 322.5,649.041672 322.5,648 C322.5,646.958328 322.695311,645.981775 323.085938,645.070312 C323.476564,644.15885 324.010413,643.364587 324.6875,642.6875 C325.364587,642.010413 326.15885,641.476564 327.070312,641.085938 C327.981775,640.695311 328.958328,640.5 330,640.5 C331.041672,640.5 332.018225,640.695311 332.929688,641.085938 C333.84115,641.476564 334.635413,642.010413 335.3125,642.6875 C335.989587,643.364587 336.523436,644.15885 336.914062,645.070312 C337.304689,645.981775 337.5,646.958328 337.5,648 C337.5,649.041672 337.304689,650.018225 336.914062,650.929688 C336.523436,651.84115 335.989587,652.635413 335.3125,653.3125 C334.635413,653.989587 333.84115,654.523436 332.929688,654.914062 C332.018225,655.304689 331.041672,655.5 330,655.5 L330,655.5 Z" id="camera"></path>
        </g>
    </g>
</svg>
