<?xml version="1.0" encoding="UTF-8" standalone="no"?>
<svg width="72px" height="72px" viewBox="0 0 72 72" version="1.1" xmlns="http://www.w3.org/2000/svg" xmlns:xlink="http://www.w3.org/1999/xlink">
    <path d="M0,18 L0,72 L72,72 L72,18 L0,18 Z M67.5,67.5 L4.5,67.5 L4.5,22.5 L67.5,22.5 L67.5,67.5 Z M15.75,4.5 L58.5,4.5 C58.8281266,4.5 59.1210925,4.44140684 59.3789062,4.32421875 C59.63672,4.20703066 59.8828113,4.05468844 60.1171875,3.8671875 C60.3046884,3.63281133 60.4570307,3.38672004 60.5742188,3.12890625 C60.6914068,2.87109246 60.75,2.57812664 60.75,2.25 C60.75,1.92187336 60.6914068,1.62890754 60.5742188,1.37109375 C60.4570307,1.11327996 60.3046884,0.867188672 60.1171875,0.6328125 C59.8828113,0.445311562 59.63672,0.292969336 59.3789062,0.17578125 C59.1210925,0.0585931641 58.8281266,0 58.5,0 L15.75,0 C15.4218734,0 15.1289075,0.0585931641 14.8710938,0.17578125 C14.61328,0.292969336 14.3671887,0.445311562 14.1328125,0.6328125 C13.9453116,0.867188672 13.7929693,1.11327996 13.6757812,1.37109375 C13.5585932,1.62890754 13.5,1.92187336 13.5,2.25 C13.5,2.57812664 13.5585932,2.87109246 13.6757812,3.12890625 C13.7929693,3.38672004 13.9453116,3.63281133 14.1328125,3.8671875 C14.3671887,4.05468844 14.61328,4.20703066 14.8710938,4.32421875 C15.1289075,4.44140684 15.4218734,4.5 15.75,4.5 L15.75,4.5 Z M6.75,13.5 L65.25,13.5 C65.5781266,13.5 65.8710925,13.4414068 66.1289062,13.3242188 C66.38672,13.2070307 66.6328113,13.0546884 66.8671875,12.8671875 C67.0546884,12.6328113 67.2070307,12.38672 67.3242188,12.1289062 C67.4414068,11.8710925 67.5,11.5781266 67.5,11.25 C67.5,10.9218734 67.4414068,10.6289075 67.3242188,10.3710938 C67.2070307,10.11328 67.0546884,9.86718867 66.8671875,9.6328125 C66.6328113,9.44531156 66.38672,9.29296934 66.1289062,9.17578125 C65.8710925,9.05859316 65.5781266,9 65.25,9 L6.75,9 C6.42187336,9 6.12890754,9.05859316 5.87109375,9.17578125 C5.61327996,9.29296934 5.36718867,9.44531156 5.1328125,9.6328125 C4.94531156,9.86718867 4.79296934,10.11328 4.67578125,10.3710938 C4.55859316,10.6289075 4.5,10.9218734 4.5,11.25 C4.5,11.5781266 4.55859316,11.8710925 4.67578125,12.1289062 C4.79296934,12.38672 4.94531156,12.6328113 5.1328125,12.8671875 C5.36718867,13.0546884 5.61327996,13.2070307 5.87109375,13.3242188 C6.12890754,13.4414068 6.42187336,13.5 6.75,13.5 L6.75,13.5 Z"></path>
</svg>