<?xml version="1.0" encoding="UTF-8" standalone="no"?>
<svg width="29px" height="31px" viewBox="0 0 29 31" version="1.1" xmlns="http://www.w3.org/2000/svg" xmlns:xlink="http://www.w3.org/1999/xlink">
    <!-- Generator: Sketch 39.1 (31720) - http://www.bohemiancoding.com/sketch -->
    <title>checked-document</title>
    <desc>Created with Sketch.</desc>
    <defs></defs>
    <g id="icons">
        <path d="M20.5625,4.625 L20.5625,2.75 L17.75,2.75 C17.75,2.49609248 17.7011724,2.2519543 17.6035156,2.01757812 C17.5058589,1.78320195 17.3691415,1.58789141 17.1933594,1.43164062 C17.0371086,1.2558585 16.841798,1.11914111 16.6074219,1.02148438 C16.3730457,0.923827637 16.1289075,0.875 15.875,0.875 L12.125,0.875 C11.8710925,0.875 11.6269543,0.923827637 11.3925781,1.02148438 C11.158202,1.11914111 10.9628914,1.2558585 10.8066406,1.43164062 C10.6308585,1.58789141 10.4941411,1.78320195 10.3964844,2.01757812 C10.2988276,2.2519543 10.25,2.49609248 10.25,2.75 L7.4375,2.75 L7.4375,4.625 L0.875,4.625 L0.875,30.875 L27.125,30.875 L27.125,4.625 L20.5625,4.625 Z M9.3125,4.625 L12.125,4.625 L12.125,3.6875 C12.125,3.55078057 12.1494138,3.42871147 12.1982422,3.32128906 C12.2470706,3.21386665 12.3105465,3.11132861 12.3886719,3.01367188 C12.4863286,2.93554648 12.5888667,2.87207056 12.6962891,2.82324219 C12.8037115,2.77441382 12.9257806,2.75 13.0625,2.75 L14.9375,2.75 C15.0742194,2.75 15.1962885,2.77441382 15.3037109,2.82324219 C15.4111333,2.87207056 15.5136714,2.93554648 15.6113281,3.01367188 C15.6894535,3.11132861 15.7529294,3.21386665 15.8017578,3.32128906 C15.8505862,3.42871147 15.875,3.55078057 15.875,3.6875 L15.875,4.625 L18.6875,4.625 L18.6875,8.375 L9.3125,8.375 L9.3125,4.625 Z M25.25,29 L2.75,29 L2.75,6.5 L7.4375,6.5 L7.4375,10.25 L20.5625,10.25 L20.5625,6.5 L25.25,6.5 L25.25,29 Z M19.859375,14.2636719 L12.9453125,22.90625 L9.92773438,19.8886719 C9.83007764,19.8105465 9.7275396,19.7470706 9.62011719,19.6982422 C9.51269478,19.6494138 9.40039121,19.625 9.28320312,19.625 C9.16601504,19.625 9.05371147,19.6494138 8.94628906,19.6982422 C8.83886665,19.7470706 8.73632861,19.8105465 8.63867188,19.8886719 C8.56054648,19.9863286 8.49707056,20.0888667 8.44824219,20.1962891 C8.39941382,20.3037115 8.375,20.416015 8.375,20.5332031 C8.375,20.6503912 8.39941382,20.7626948 8.44824219,20.8701172 C8.49707056,20.9775396 8.56054648,21.0800776 8.63867188,21.1777344 L12.359375,24.8984375 C12.3789063,24.8984375 12.3886719,24.9033203 12.3886719,24.9130859 L12.3886719,24.9570312 L12.4326172,24.9570312 C12.4423829,24.9570312 12.4472656,24.9667968 12.4472656,24.9863281 C12.5449224,25.0644535 12.6474604,25.1279294 12.7548828,25.1767578 C12.8623052,25.2255862 12.9746088,25.25 13.0917969,25.25 C13.208985,25.25 13.3212885,25.2255862 13.4287109,25.1767578 C13.5361333,25.1279294 13.6386714,25.0644535 13.7363281,24.9863281 L13.7363281,24.9716797 L13.7363281,24.9570312 L13.7363281,24.9570312 L21.2070312,15.6113281 C21.304688,15.5332027 21.3730467,15.4355475 21.4121094,15.3183594 C21.4511721,15.2011713 21.4707031,15.0742194 21.4707031,14.9375 C21.4707031,14.8203119 21.4511721,14.7031256 21.4121094,14.5859375 C21.3730467,14.4687494 21.304688,14.3613286 21.2070312,14.2636719 C21.1093745,14.1660151 21.0019537,14.0976564 20.8847656,14.0585938 C20.7675775,14.0195311 20.6503912,14 20.5332031,14 C20.3964837,14 20.2695318,14.0195311 20.1523438,14.0585938 C20.0351557,14.0976564 19.9375004,14.1660151 19.859375,14.2636719 L19.859375,14.2636719 Z" id="checked-document"></path>
    </g>
</svg>
