<?xml version="1.0" encoding="UTF-8" standalone="no"?>
<svg width="30px" height="27px" viewBox="0 0 30 27" version="1.1" xmlns="http://www.w3.org/2000/svg" xmlns:xlink="http://www.w3.org/1999/xlink">
    <!-- Generator: Sketch 39.1 (31720) - http://www.bohemiancoding.com/sketch -->
    <title>checked-mail</title>
    <desc>Created with Sketch.</desc>
    <defs></defs>
    <g id="Icons">
        <path d="M1.875,22.3417969 L1.875,3.62109375 L14.296875,13.5820312 L14.296875,13.5966797 L14.296875,13.640625 C14.3945317,13.7187504 14.5019525,13.7822263 14.6191406,13.8310547 C14.7363287,13.8798831 14.853515,13.9042969 14.9707031,13.9042969 C15.0878912,13.9042969 15.2050775,13.8798831 15.3222656,13.8310547 C15.4394537,13.7822263 15.5468745,13.7187504 15.6445312,13.640625 L15.6445312,13.5966797 C15.6445312,13.586914 15.6542968,13.5820312 15.6738281,13.5820312 L28.125,3.59179688 L28.125,17.6542969 L29.9707031,17.6542969 L29.9707031,1.71679688 C29.9707031,1.59960879 29.9462893,1.48242246 29.8974609,1.36523438 C29.8486326,1.24804629 29.7851566,1.15039102 29.7070312,1.07226562 C29.6289059,0.994140234 29.5312506,0.925781543 29.4140625,0.8671875 C29.2968744,0.808593457 29.1796881,0.779296875 29.0625,0.779296875 L29.0185547,0.779296875 L29.0039062,0.779296875 L0.966796875,0.779296875 C0.947265527,0.779296875 0.927734473,0.784179639 0.908203125,0.793945312 C0.888671777,0.803710986 0.869140723,0.80859375 0.849609375,0.80859375 C0.751952637,0.80859375 0.664062891,0.828124805 0.5859375,0.8671875 C0.507812109,0.906250195 0.429687891,0.955077832 0.3515625,1.01367188 L0.307617188,1.01367188 C0.297851514,1.01367188 0.283203223,1.0234374 0.263671875,1.04296875 L0.263671875,1.07226562 L0.263671875,1.1015625 C0.185546484,1.17968789 0.12695332,1.26757764 0.087890625,1.36523438 C0.0488279297,1.46289111 0.029296875,1.56054639 0.029296875,1.65820312 C0.029296875,1.67773447 0.0244141113,1.6875 0.0146484375,1.6875 C0.00488276367,1.6875 0,1.69726553 0,1.71679688 L0,1.71679688 L0,24.2167969 C0,24.3535163 0.0244138184,24.4755854 0.0732421875,24.5830078 C0.122070557,24.6904302 0.195312012,24.7929683 0.29296875,24.890625 C0.371094141,24.9687504 0.468749414,25.0322263 0.5859375,25.0810547 C0.703125586,25.1298831 0.820311914,25.1542969 0.9375,25.1542969 L16.875,25.1542969 L16.875,23.2792969 L2.8125,23.2792969 C2.67578057,23.2792969 2.55371147,23.2548831 2.44628906,23.2060547 C2.33886665,23.1572263 2.23632861,23.0937504 2.13867188,23.015625 C2.06054648,22.9179683 1.99707056,22.8154302 1.94824219,22.7080078 C1.89941382,22.6005854 1.875,22.4785163 1.875,22.3417969 L1.875,22.3417969 Z M26.3671875,2.65429688 L14.9707031,11.7949219 L3.60351562,2.65429688 L26.3671875,2.65429688 Z M29.7070312,19.7929688 C29.6093745,19.695312 29.5019537,19.6269533 29.3847656,19.5878906 C29.2675775,19.5488279 29.1503912,19.5292969 29.0332031,19.5292969 C28.916015,19.5292969 28.7939459,19.5488279 28.6669922,19.5878906 C28.5400384,19.6269533 28.4375004,19.695312 28.359375,19.7929688 L23.4082031,24.8027344 L20.390625,21.7558594 C20.2929683,21.6582026 20.1855475,21.5849612 20.0683594,21.5361328 C19.9511713,21.4873044 19.833985,21.4628906 19.7167969,21.4628906 C19.5996088,21.4628906 19.4824225,21.4873044 19.3652344,21.5361328 C19.2480463,21.5849612 19.1406255,21.6582026 19.0429688,21.7558594 C18.945312,21.8535161 18.8720706,21.9609369 18.8232422,22.078125 C18.7744138,22.1953131 18.75,22.3222649 18.75,22.4589844 C18.75,22.5761725 18.7744138,22.6933588 18.8232422,22.8105469 C18.8720706,22.927735 18.945312,23.0351558 19.0429688,23.1328125 L22.5585938,26.7070312 C22.6757818,26.8242193 22.8076165,26.9023436 22.9541016,26.9414062 C23.1005867,26.9804689 23.2519523,26.9804689 23.4082031,26.9414062 C23.5644539,26.9804689 23.7158196,26.9804689 23.8623047,26.9414062 C24.0087898,26.9023436 24.1406244,26.8242193 24.2578125,26.7070312 L29.7070312,21.1699219 C29.804688,21.0917965 29.8779294,20.9892584 29.9267578,20.8623047 C29.9755862,20.7353509 30,20.6132818 30,20.4960938 C30,20.3789057 29.9755862,20.2568366 29.9267578,20.1298828 C29.8779294,20.0029291 29.804688,19.8906255 29.7070312,19.7929688 L29.7070312,19.7929688 Z" id="checked-mail"></path>
    </g>
</svg>
