<?xml version="1.0" encoding="UTF-8" standalone="no"?>
<svg width="72px" height="72px" viewBox="0 0 72 72" version="1.1" xmlns="http://www.w3.org/2000/svg" xmlns:xlink="http://www.w3.org/1999/xlink">
    <!-- Generator: Sketch 3.8.3 (29802) - http://www.bohemiancoding.com/sketch -->
    <title>Jarokelo_icons_checkmark</title>
    <desc>Created with Sketch.</desc>
    <defs></defs>
    <g id="Icons" stroke="none" stroke-width="1">
        <g id="Jarokelo_icons_checkmark">
            <path d="M71.295499,11.6328125 C71.1076312,11.3984363 70.8727998,11.2343755 70.590998,11.140625 C70.3091962,11.0468745 70.0273987,11 69.7455969,11 C69.4637951,11 69.1819975,11.0468745 68.9001957,11.140625 C68.6183939,11.2343755 68.3600795,11.3984363 68.1252446,11.6328125 L24.6575342,55.015625 L3.80430528,34.2734375 C3.61643742,34.0390613 3.38160611,33.8750005 3.09980431,33.78125 C2.8180025,33.6874995 2.53620493,33.640625 2.25440313,33.640625 C1.92563436,33.640625 1.63209523,33.6874995 1.37377691,33.78125 C1.11545859,33.8750005 0.868885714,34.0390613 0.634050881,34.2734375 C0.399216047,34.5078137 0.234834129,34.7656236 0.140900196,35.046875 C0.0469662622,35.3281264 0,35.6093736 0,35.890625 C0,36.1718764 0.0469662622,36.4531236 0.140900196,36.734375 C0.234834129,37.0156264 0.399216047,37.2499991 0.634050881,37.4375 L22.9667319,59.7265625 L22.9667319,59.7617188 C22.9667319,59.7851564 22.990215,59.796875 23.037182,59.796875 L23.037182,59.796875 C23.2720168,60.0312512 23.5185897,60.195312 23.776908,60.2890625 C24.0352263,60.382813 24.3052823,60.4296875 24.5870841,60.4296875 C24.8688859,60.4296875 25.1506835,60.382813 25.4324853,60.2890625 C25.7142871,60.195312 25.9726016,60.0312512 26.2074364,59.796875 L71.295499,14.796875 C71.5303339,14.5624988 71.6947158,14.3046889 71.7886497,14.0234375 C71.8825836,13.7421861 71.9295499,13.4609389 71.9295499,13.1796875 C71.9295499,12.8984361 71.8825836,12.6289075 71.7886497,12.3710938 C71.6947158,12.11328 71.5303339,11.8671887 71.295499,11.6328125 L71.295499,11.6328125 Z" id=""></path>
        </g>
    </g>
</svg>
