<?xml version="1.0" encoding="utf-8"?>
<!-- Generator: Adobe Illustrator 19.0.0, SVG Export Plug-In . SVG Version: 6.00 Build 0)  -->
<svg version="1.1" id="Layer_1" xmlns="http://www.w3.org/2000/svg" xmlns:xlink="http://www.w3.org/1999/xlink" x="0px" y="0px"
	 viewBox="-474.5 275 7 12" style="enable-background:new -474.5 275 7 12;" xml:space="preserve">
<path id="chevron-right" d="M-467.6,280.6c0,0-1-0.9-3-2.8s-3-2.7-3-2.7c0,0-0.1-0.1-0.1-0.1s-0.1,0-0.2,0s-0.1,0-0.2,0
	s-0.1,0.1-0.2,0.1c0,0.1-0.1,0.1-0.1,0.2s0,0.1,0,0.2s0,0.1,0,0.2s0.1,0.1,0.1,0.1l5.7,5.2l-5.7,5.2c0,0-0.1,0.1-0.1,0.2
	s0,0.1,0,0.2c0,0.1,0,0.1,0,0.2s0.1,0.1,0.1,0.2c0.1,0,0.1,0.1,0.2,0.1s0.1,0,0.2,0s0.1,0,0.2,0s0.1-0.1,0.1-0.1c0,0,1-0.9,3-2.7
	s3-2.7,3-2.8c0-0.1,0.1-0.1,0.1-0.2s0-0.1,0-0.2s0-0.1,0-0.2S-467.6,280.7-467.6,280.6L-467.6,280.6z"/>
</svg>
