<?xml version="1.0" encoding="utf-8"?>
<!-- Generator: Adobe Illustrator 19.0.0, SVG Export Plug-In . SVG Version: 6.00 Build 0)  -->
<svg version="1.1" id="Layer_1" xmlns="http://www.w3.org/2000/svg" xmlns:xlink="http://www.w3.org/1999/xlink" x="0px" y="0px"
	 viewBox="-469.6 275.9 17.2 10.1" style="enable-background:new -469.6 275.9 17.2 10.1;" xml:space="preserve">
<path id="chevron-down" d="M-452.6,276.1c-0.1-0.1-0.2-0.1-0.2-0.1s-0.2-0.1-0.3-0.1s-0.2,0-0.3,0.1s-0.2,0.1-0.2,0.1
	l-7.5,8.1l-7.5-8.1c-0.1-0.1-0.1-0.1-0.2-0.1s-0.2-0.1-0.3-0.1s-0.2,0-0.3,0.1s-0.2,0.1-0.2,0.1c-0.1,0.1-0.1,0.2-0.1,0.2
	s-0.1,0.2-0.1,0.3s0,0.2,0.1,0.3s0.1,0.2,0.1,0.2c0,0,1.3,1.4,3.9,4.3s3.9,4.3,4,4.4c0.1,0.1,0.2,0.1,0.2,0.2s0.2,0,0.3,0
	s0.2,0,0.3,0s0.2-0.1,0.2-0.2c0,0,1.3-1.5,4-4.4s3.9-4.3,3.9-4.3c0.1-0.1,0.1-0.1,0.1-0.2s0.1-0.2,0.1-0.3s0-0.2-0.1-0.3
	S-452.5,276.2-452.6,276.1L-452.6,276.1z"/>
</svg>
