<?xml version="1.0" encoding="utf-8"?>
<!-- Generator: Adobe Illustrator 19.0.0, SVG Export Plug-In . SVG Version: 6.00 Build 0)  -->
<svg version="1.1" id="Layer_1" xmlns="http://www.w3.org/2000/svg" xmlns:xlink="http://www.w3.org/1999/xlink" x="0px" y="0px"
	 viewBox="-473 270 12 21" style="enable-background:new -473 270 12 21;" xml:space="preserve">
<path id="chevron-right" d="M-470.9,280.6l9.2-8.5c0.1-0.1,0.1-0.1,0.2-0.2s0.1-0.2,0.1-0.3s0-0.2-0.1-0.3
	s-0.1-0.2-0.2-0.3c-0.1-0.1-0.2-0.1-0.3-0.2s-0.2-0.1-0.3-0.1s-0.2,0-0.3,0.1s-0.2,0.1-0.2,0.2c0,0-1.6,1.5-4.9,4.5s-4.9,4.5-5,4.5
	c-0.1,0.1-0.1,0.2-0.2,0.3s-0.1,0.2-0.1,0.3s0,0.2,0.1,0.3s0.1,0.2,0.2,0.3c0,0,1.7,1.5,5,4.5s4.9,4.5,4.9,4.5
	c0.1,0.1,0.1,0.1,0.2,0.2s0.2,0.1,0.3,0.1s0.2,0,0.3-0.1s0.2-0.1,0.3-0.2c0.1-0.1,0.1-0.2,0.2-0.3s0.1-0.2,0.1-0.3s0-0.2-0.1-0.3
	s-0.1-0.2-0.2-0.2L-470.9,280.6z"/>
</svg>
