<?xml version="1.0" encoding="utf-8"?>
<!-- Generator: Adobe Illustrator 19.0.0, SVG Export Plug-In . SVG Version: 6.00 Build 0)  -->
<svg version="1.1" id="Layer_1" xmlns="http://www.w3.org/2000/svg" xmlns:xlink="http://www.w3.org/1999/xlink" x="0px" y="0px"
	 viewBox="-449 250 60 61" style="enable-background:new -449 250 60 61;" xml:space="preserve">
<path id="circle-user" d="M-419,250.8c-4.1,0-8,0.8-11.7,2.4s-6.8,3.7-9.5,6.4c-2.7,2.7-4.9,5.9-6.4,9.6
	s-2.3,7.5-2.3,11.7s0.8,8,2.3,11.7s3.7,6.8,6.4,9.5c2.7,2.7,5.9,4.9,9.5,6.4s7.5,2.3,11.7,2.3s8-0.8,11.7-2.3s6.8-3.7,9.5-6.4
	c2.7-2.7,4.9-5.9,6.4-9.5s2.3-7.5,2.3-11.7s-0.8-8-2.3-11.7s-3.7-6.8-6.4-9.6c-2.7-2.7-5.9-4.8-9.5-6.4S-414.9,250.8-419,250.8
	L-419,250.8z M-418.5,306.9h-0.4h-0.6c-1.5,0-2.9-0.2-4.3-0.5s-2.8-0.6-4.1-1.1c-1.3-0.5-2.6-1.1-3.8-1.8s-2.3-1.5-3.4-2.3
	c0.1-0.3,0.2-0.5,0.4-0.8s0.4-0.5,0.6-0.7c0.2-0.2,0.4-0.4,0.6-0.6s0.4-0.3,0.5-0.4c0.5-0.3,1.2-0.6,2.1-1.1s2-0.9,3-1.4
	c1.1-0.5,2.1-1,3-1.4s1.6-0.7,2-0.9l0.2-2v-3.8c-0.9-0.5-1.7-1.1-2.4-1.8s-1.3-1.6-1.8-2.6c-0.5-0.9-0.9-2-1.1-3.1s-0.4-2.4-0.4-3.7
	c0-2.3,0.1-4.2,0.4-5.7s0.8-2.6,1.5-3.4s1.7-1.4,2.9-1.7s2.8-0.4,4.6-0.4s3.4,0.1,4.6,0.4s2.2,0.8,2.9,1.7s1.2,2,1.5,3.4
	s0.4,3.4,0.4,5.7c0,1.3-0.1,2.6-0.4,3.7s-0.6,2.2-1.1,3.1c-0.5,1-1.1,1.8-1.8,2.6s-1.5,1.3-2.4,1.8v3.8l0.2,2
	c0.4,0.2,1.1,0.5,2.1,0.9s2.1,0.9,3.2,1.4c1.1,0.5,2.2,0.9,3.2,1.4s1.7,0.8,2.2,1.1c0.2,0.1,0.3,0.2,0.5,0.4s0.3,0.4,0.5,0.6
	s0.3,0.5,0.4,0.7s0.2,0.5,0.3,0.7c-1.1,0.9-2.2,1.6-3.5,2.3s-2.5,1.3-3.8,1.8c-1.3,0.5-2.7,0.8-4.1,1.1S-417,306.9-418.5,306.9
	L-418.5,306.9z M-400,298.7l-0.6-0.9c0-0.1-0.1-0.2-0.2-0.3s-0.2-0.2-0.2-0.3l-0.1-0.2v0.1c0-0.1-0.1-0.1-0.1-0.2s-0.1-0.1-0.1-0.2
	c-0.3-0.3-1.1-0.7-2.3-1.2s-2.5-1-3.8-1.4c-1.4-0.5-2.6-0.9-3.8-1.3s-1.8-0.6-2.1-0.6c1.1-0.8,2.2-1.7,3.1-2.8s1.7-2.3,2.4-3.5
	c0.6-1.2,1.1-2.6,1.5-4.1s0.6-3,0.6-4.6c0-1.9-0.2-3.7-0.5-5.5s-1-3.4-2-4.8c-0.9-1.4-2.3-2.5-4-3.4s-3.9-1.3-6.7-1.3
	c-2.6,0-4.7,0.4-6.4,1.3s-3,2-4,3.4s-1.7,3-2.1,4.8s-0.6,3.6-0.6,5.5c0,1.6,0.2,3.1,0.6,4.6s0.9,2.8,1.6,4.1
	c0.7,1.2,1.5,2.4,2.4,3.5s2,2,3.1,2.8c-0.3,0.1-2.2,0.7-5.8,1.9s-5.7,2.1-6.4,2.8c-0.1,0.1-0.2,0.2-0.3,0.3s-0.2,0.3-0.3,0.4v-0.1
	l-0.9,1.4c-1.1-1.2-2.1-2.4-3-3.8s-1.7-2.8-2.3-4.3c-0.6-1.5-1.1-3-1.4-4.7s-0.5-3.3-0.5-5.1c0-3.6,0.7-7,2.1-10.2s3.2-6,5.6-8.3
	s5.2-4.3,8.3-5.6s6.6-2.1,10.2-2.1s7,0.7,10.2,2.1s6,3.2,8.3,5.6s4.3,5.2,5.6,8.3s2.1,6.6,2.1,10.2c0,1.8-0.2,3.5-0.5,5.1
	s-0.8,3.2-1.4,4.7c-0.6,1.5-1.4,2.9-2.3,4.3S-398.9,297.5-400,298.7L-400,298.7z"/>
</svg>
