<?xml version="1.0" encoding="UTF-8" standalone="no"?>
<svg width="30px" height="31px" viewBox="0 0 30 31" version="1.1" xmlns="http://www.w3.org/2000/svg" xmlns:xlink="http://www.w3.org/1999/xlink">
    <!-- Generator: Sketch 39.1 (31720) - http://www.bohemiancoding.com/sketch -->
    <title>city</title>
    <desc>Created with Sketch.</desc>
    <defs></defs>
    <g id="icons">
        <path d="M13.125,4.625 L9.375,4.625 L9.375,8.375 L13.125,8.375 L13.125,4.625 Z M7.5,15.875 L3.75,15.875 L3.75,19.625 L7.5,19.625 L7.5,15.875 Z M13.125,10.25 L9.375,10.25 L9.375,14 L13.125,14 L13.125,10.25 Z M3.75,25.25 L7.5,25.25 L7.5,21.5 L3.75,21.5 L3.75,25.25 Z M9.375,25.25 L13.125,25.25 L13.125,21.5 L9.375,21.5 L9.375,25.25 Z M1.875,3.6875 C1.875,3.55078057 1.89941382,3.42871147 1.94824219,3.32128906 C1.99707056,3.21386665 2.06054648,3.11132861 2.13867188,3.01367188 C2.23632861,2.93554648 2.33886665,2.87207056 2.44628906,2.82324219 C2.55371147,2.77441382 2.67578057,2.75 2.8125,2.75 L14.0625,2.75 C14.1992194,2.75 14.3212885,2.77441382 14.4287109,2.82324219 C14.5361333,2.87207056 14.6386714,2.93554648 14.7363281,3.01367188 C14.8144535,3.11132861 14.8779294,3.21386665 14.9267578,3.32128906 C14.9755862,3.42871147 15,3.55078057 15,3.6875 L15,27.125 L16.875,27.125 L16.875,2.75 C16.875,2.49609248 16.8261724,2.2519543 16.7285156,2.01757812 C16.6308589,1.78320195 16.4941415,1.58789141 16.3183594,1.43164062 C16.1621086,1.2558585 15.966798,1.11914111 15.7324219,1.02148438 C15.4980457,0.923827637 15.2539075,0.875 15,0.875 L1.875,0.875 C1.62109248,0.875 1.3769543,0.923827637 1.14257812,1.02148438 C0.908201953,1.11914111 0.712891406,1.2558585 0.556640625,1.43164062 C0.380858496,1.58789141 0.244141113,1.78320195 0.146484375,2.01757812 C0.0488276367,2.2519543 0,2.49609248 0,2.75 L0,27.125 L1.875,27.125 L1.875,3.6875 Z M13.125,15.875 L9.375,15.875 L9.375,19.625 L13.125,19.625 L13.125,15.875 Z M7.5,4.625 L3.75,4.625 L3.75,8.375 L7.5,8.375 L7.5,4.625 Z M22.5,21.5 L26.25,21.5 L26.25,17.75 L22.5,17.75 L22.5,21.5 Z M28.125,2.75 L20.625,2.75 C20.3710925,2.75 20.1269543,2.79882764 19.8925781,2.89648438 C19.658202,2.99414111 19.4628914,3.1308585 19.3066406,3.30664062 C19.1308585,3.46289141 18.9941411,3.65820195 18.8964844,3.89257812 C18.7988276,4.1269543 18.75,4.37109248 18.75,4.625 L18.75,27.125 L20.625,27.125 L20.625,5.5625 C20.625,5.42578057 20.6494138,5.30371147 20.6982422,5.19628906 C20.7470706,5.08886665 20.8105465,4.98632861 20.8886719,4.88867188 C20.9863286,4.81054648 21.0888667,4.74707056 21.1962891,4.69824219 C21.3037115,4.64941382 21.4257806,4.625 21.5625,4.625 L27.1875,4.625 C27.3242194,4.625 27.4462885,4.64941382 27.5537109,4.69824219 C27.6611333,4.74707056 27.7636714,4.81054648 27.8613281,4.88867188 C27.9394535,4.98632861 28.0029294,5.08886665 28.0517578,5.19628906 C28.1005862,5.30371147 28.125,5.42578057 28.125,5.5625 L28.125,27.125 L30,27.125 L30,4.625 C30,4.37109248 29.9511724,4.1269543 29.8535156,3.89257812 C29.7558589,3.65820195 29.6191415,3.46289141 29.4433594,3.30664062 C29.2871086,3.1308585 29.091798,2.99414111 28.8574219,2.89648438 C28.6230457,2.79882764 28.3789075,2.75 28.125,2.75 L28.125,2.75 Z M26.25,6.5 L22.5,6.5 L22.5,10.25 L26.25,10.25 L26.25,6.5 Z M29.0625,29 L0.9375,29 C0.800780566,29 0.678711475,29.0244138 0.571289062,29.0732422 C0.46386665,29.1220706 0.361328613,29.1855465 0.263671875,29.2636719 C0.185546484,29.3613286 0.122070557,29.4638667 0.0732421875,29.5712891 C0.0244138184,29.6787115 0,29.8007806 0,29.9375 C0,30.0742194 0.0244138184,30.1962885 0.0732421875,30.3037109 C0.122070557,30.4111333 0.185546484,30.5136714 0.263671875,30.6113281 C0.361328613,30.6894535 0.46386665,30.7529294 0.571289062,30.8017578 C0.678711475,30.8505862 0.800780566,30.875 0.9375,30.875 L29.0625,30.875 C29.1992194,30.875 29.3212885,30.8505862 29.4287109,30.8017578 C29.5361333,30.7529294 29.6386714,30.6894535 29.7363281,30.6113281 C29.8144535,30.5136714 29.8779294,30.4111333 29.9267578,30.3037109 C29.9755862,30.1962885 30,30.0742194 30,29.9375 C30,29.8007806 29.9755862,29.6787115 29.9267578,29.5712891 C29.8779294,29.4638667 29.8144535,29.3613286 29.7363281,29.2636719 C29.6386714,29.1855465 29.5361333,29.1220706 29.4287109,29.0732422 C29.3212885,29.0244138 29.1992194,29 29.0625,29 L29.0625,29 Z M22.5,15.875 L26.25,15.875 L26.25,12.125 L22.5,12.125 L22.5,15.875 Z M7.5,10.25 L3.75,10.25 L3.75,14 L7.5,14 L7.5,10.25 Z" id="city"></path>
    </g>
</svg>
