<?xml version="1.0" encoding="UTF-8" standalone="no"?>
<svg width="30px" height="31px" viewBox="0 0 30 31" version="1.1" xmlns="http://www.w3.org/2000/svg" xmlns:xlink="http://www.w3.org/1999/xlink">
    <!-- Generator: Sketch 39.1 (31720) - http://www.bohemiancoding.com/sketch -->
    <title>clock</title>
    <desc>Created with Sketch.</desc>
    <defs></defs>
    <g id="Icons">
        <path d="M15,27.125 L16.875,27.125 L16.875,25.25 L15,25.25 L15,27.125 Z M15,15.875 L5.625,15.875 L5.625,17.75 L16.875,17.75 L16.875,4.625 L15,4.625 L15,15.875 Z M6.38671875,23.1699219 L7.70507812,24.4882812 L9.0234375,23.1699219 L7.70507812,21.8515625 L6.38671875,23.1699219 Z M9.0234375,8.58007812 L7.70507812,7.26171875 L6.38671875,8.58007812 L7.70507812,9.8984375 L9.0234375,8.58007812 Z M15,0.875 C12.9296771,0.875 10.9814544,1.26562109 9.15527344,2.046875 C7.32909243,2.82812891 5.74219424,3.90233691 4.39453125,5.26953125 C3.02733691,6.61719424 1.95312891,8.20409243 1.171875,10.0302734 C0.390621094,11.8564544 0,13.8046771 0,15.875 C0,17.9453229 0.390621094,19.8935456 1.171875,21.7197266 C1.95312891,23.5459076 3.02733691,25.1328058 4.39453125,26.4804688 C5.74219424,27.8476631 7.32909243,28.9218711 9.15527344,29.703125 C10.9814544,30.4843789 12.9296771,30.875 15,30.875 C17.0703229,30.875 19.0185456,30.4843789 20.8447266,29.703125 C22.6709076,28.9218711 24.2578058,27.8476631 25.6054688,26.4804688 C26.9726631,25.1328058 28.0468711,23.5459076 28.828125,21.7197266 C29.6093789,19.8935456 30,17.9453229 30,15.875 C30,13.8046771 29.6093789,11.8564544 28.828125,10.0302734 C28.0468711,8.20409243 26.9726631,6.61719424 25.6054688,5.26953125 C24.2578058,3.90233691 22.6709076,2.82812891 20.8447266,2.046875 C19.0185456,1.26562109 17.0703229,0.875 15,0.875 L15,0.875 Z M15,29 C13.1835847,29 11.4795001,28.6582065 9.88769531,27.9746094 C8.29589048,27.2910122 6.90430283,26.3535216 5.71289062,25.1621094 C4.52147842,23.9706972 3.58398779,22.5791095 2.90039062,20.9873047 C2.21679346,19.3954999 1.875,17.6914153 1.875,15.875 C1.875,14.0585847 2.21679346,12.3545001 2.90039062,10.7626953 C3.58398779,9.17089048 4.52147842,7.77930283 5.71289062,6.58789062 C6.90430283,5.39647842 8.29589048,4.45898779 9.88769531,3.77539062 C11.4795001,3.09179346 13.1835847,2.75 15,2.75 C16.8164153,2.75 18.5204999,3.09179346 20.1123047,3.77539062 C21.7041095,4.45898779 23.0956972,5.39647842 24.2871094,6.58789062 C25.4785216,7.77930283 26.4160122,9.17089048 27.0996094,10.7626953 C27.7832065,12.3545001 28.125,14.0585847 28.125,15.875 C28.125,17.6914153 27.7832065,19.3954999 27.0996094,20.9873047 C26.4160122,22.5791095 25.4785216,23.9706972 24.2871094,25.1621094 C23.0956972,26.3535216 21.7041095,27.2910122 20.1123047,27.9746094 C18.5204999,28.6582065 16.8164153,29 15,29 L15,29 Z M24.375,14 L24.375,15.875 L26.25,15.875 L26.25,14 L24.375,14 Z M21.5625,21.96875 L22.96875,23.375 L24.375,21.96875 L22.96875,20.5625 L21.5625,21.96875 Z M21.09375,6.5 L19.6875,7.90625 L21.09375,9.3125 L22.5,7.90625 L21.09375,6.5 Z" id="clock"></path>
    </g>
</svg>
