<?xml version="1.0" encoding="UTF-8" standalone="no"?>
<!-- Created with Inkscape (http://www.inkscape.org/) -->

<svg
   xmlns:dc="http://purl.org/dc/elements/1.1/"
   xmlns:cc="http://creativecommons.org/ns#"
   xmlns:rdf="http://www.w3.org/1999/02/22-rdf-syntax-ns#"
   xmlns:svg="http://www.w3.org/2000/svg"
   xmlns="http://www.w3.org/2000/svg"
   xmlns:sodipodi="http://sodipodi.sourceforge.net/DTD/sodipodi-0.dtd"
   xmlns:inkscape="http://www.inkscape.org/namespaces/inkscape"
   width="20.28237mm"
   height="20.164291mm"
   viewBox="0 0 71.866664 71.448276"
   id="svg2"
   version="1.1"
   inkscape:version="0.91 r13725"
   sodipodi:docname="close-white.svg">
  <defs
     id="defs4" />
  <sodipodi:namedview
     id="base"
     pagecolor="#ffffff"
     bordercolor="#666666"
     borderopacity="1.0"
     inkscape:pageopacity="0.0"
     inkscape:pageshadow="2"
     inkscape:zoom="1.4"
     inkscape:cx="-264.78095"
     inkscape:cy="81.438421"
     inkscape:document-units="px"
     inkscape:current-layer="svg2"
     showgrid="false"
     fit-margin-top="0"
     fit-margin-left="0"
     fit-margin-right="0"
     fit-margin-bottom="0"
     inkscape:window-width="1920"
     inkscape:window-height="1017"
     inkscape:window-x="-8"
     inkscape:window-y="-8"
     inkscape:window-maximized="1" />
  <metadata
     id="metadata7">
    <rdf:RDF>
      <cc:Work
         rdf:about="">
        <dc:format>image/svg+xml</dc:format>
        <dc:type
           rdf:resource="http://purl.org/dc/dcmitype/StillImage" />
        <dc:title></dc:title>
      </cc:Work>
    </rdf:RDF>
  </metadata>
  <g
     inkscape:label="1. réteg"
     inkscape:groupmode="layer"
     id="layer1"
     transform="translate(-135.49523,-542.35235)">
    <g
       font-weight="normal"
       font-size="32"
       id="Mobil"
       style="font-weight:normal;font-size:32px;font-family:icomoon;fill:none;fill-rule:evenodd;stroke:none;stroke-width:1">
      <g
         transform="translate(-580,-983)"
         id="Jarokelok_mobil_cookie"
         style="fill:#ffffff">
        <g
           transform="translate(0,956)"
           id="NOTIFICATION">
          <text
             id="">
            <tspan
               id="tspan3348"
               y="56"
               x="578.5"></tspan>
          </text>
        </g>
      </g>
    </g>
    <g
       id="Icons"
       style="fill:#ffffff;fill-rule:evenodd;stroke:none;stroke-width:1"
       transform="translate(135.3619,542.35235)">
      <g
         id="Jarokelo_icons_profil-Copy"
         style="fill:#ffffff">
        <path
           transform="matrix(-1,0,0,1,67,0)"
           id="-3"
           d="M 34.542708,35.724138 66.144792,4.3060345 c 0.267362,-0.2658059 0.454513,-0.5581881 0.561458,-0.8771552 0.106945,-0.3189671 0.160417,-0.6379294 0.160417,-0.9568965 0,-0.3189671 -0.05347,-0.6246394 -0.160417,-0.9170259 C 66.599305,1.2625704 66.412154,0.98347834 66.144792,0.71767241 65.877429,0.45186649 65.596703,0.26580513 65.302604,0.15948276 65.008505,0.05316039 64.701043,0 64.380208,0 64.059373,0 63.738543,0.05316039 63.417708,0.15948276 63.096873,0.26580513 62.829515,0.45186649 62.615625,0.71767241 L 30.933333,32.215517 -0.74895833,0.71767241 C -0.96284829,0.45186649 -1.2302067,0.26580513 -1.5510417,0.15948276 -1.8718766,0.05316039 -2.1927067,0 -2.5135417,0 -2.8343766,0 -3.1418388,0.05316039 -3.4359375,0.15948276 -3.7300362,0.26580513 -4.0107625,0.45186649 -4.278125,0.71767241 -4.5454875,0.98347834 -4.7326383,1.2625704 -4.8395833,1.5549569 -4.9465283,1.8473434 -5,2.1530157 -5,2.4719828 c 0,0.3189671 0.053472,0.6379294 0.1604167,0.9568965 0.106945,0.3189671 0.2940958,0.6113493 0.5614583,0.8771552 L 27.323958,35.724138 -4.278125,67.221983 c -0.2673625,0.212645 -0.4545133,0.478446 -0.5614583,0.797414 C -4.9465283,68.338364 -5,68.657326 -5,68.976293 c 0,0.318967 0.053472,0.624639 0.1604167,0.917026 0.106945,0.292386 0.2940958,0.571479 0.5614583,0.837284 0.2673625,0.265806 0.5480888,0.451868 0.8421875,0.55819 0.2940987,0.106323 0.6015609,0.159483 0.9223958,0.159483 0.320835,0 0.6416651,-0.05316 0.9625,-0.159483 0.320835,-0.106322 0.61492925,-0.292384 0.8822917,-0.55819 L 30.933333,39.3125 62.535417,70.730603 c 0.267362,0.265806 0.561456,0.451868 0.882291,0.55819 0.320835,0.106323 0.641665,0.159483 0.9625,0.159483 0.320835,0 0.628297,-0.05316 0.922396,-0.159483 0.294099,-0.106322 0.574825,-0.292384 0.842188,-0.55819 0.267362,-0.265805 0.454513,-0.544898 0.561458,-0.837284 0.106945,-0.292387 0.160417,-0.598059 0.160417,-0.917026 0,-0.318967 -0.05347,-0.637929 -0.160417,-0.956896 -0.106945,-0.318968 -0.294096,-0.584769 -0.561458,-0.797414 L 34.542708,35.724138 Z"
           inkscape:connector-curvature="0"
           style="fill:#ffffff" />
      </g>
    </g>
  </g>
</svg>
