<?xml version="1.0" encoding="UTF-8" standalone="no"?>
<svg width="72px" height="72px" viewBox="0 0 72 72" version="1.1" xmlns="http://www.w3.org/2000/svg" xmlns:xlink="http://www.w3.org/1999/xlink">
    <!-- Generator: Sketch 39 (31667) - http://www.bohemiancoding.com/sketch -->
    <title>Jarokelo_icons_profil Copy</title>
    <desc>Created with Sketch.</desc>
    <defs></defs>
    <g id="Icons" stroke="none" stroke-width="1">
        <g id="Jarokelo_icons_profil-Copy">
            <path d="M34.5427083,35.7241379 L66.1447917,4.30603448 C66.4121541,4.04022856 66.599305,3.74784642 66.70625,3.42887931 C66.813195,3.1099122 66.8666667,2.79094987 66.8666667,2.47198276 C66.8666667,2.15301565 66.813195,1.84734342 66.70625,1.5549569 C66.599305,1.26257038 66.4121541,0.983478341 66.1447917,0.717672414 C65.8774292,0.451866487 65.5967029,0.265805129 65.3026042,0.159482759 C65.0085055,0.0531603879 64.7010433,0 64.3802083,0 C64.0593734,0 63.7385433,0.0531603879 63.4177083,0.159482759 C63.0968734,0.265805129 62.829515,0.451866487 62.615625,0.717672414 L30.9333333,32.2155172 L-0.748958333,0.717672414 C-0.962848292,0.451866487 -1.23020673,0.265805129 -1.55104167,0.159482759 C-1.8718766,0.0531603879 -2.19270673,0 -2.51354167,0 C-2.8343766,0 -3.14183881,0.0531603879 -3.4359375,0.159482759 C-3.73003619,0.265805129 -4.01076255,0.451866487 -4.278125,0.717672414 C-4.54548745,0.983478341 -4.73263835,1.26257038 -4.83958333,1.5549569 C-4.94652831,1.84734342 -5,2.15301565 -5,2.47198276 C-5,2.79094987 -4.94652831,3.1099122 -4.83958333,3.42887931 C-4.73263835,3.74784642 -4.54548745,4.04022856 -4.278125,4.30603448 L27.3239583,35.7241379 L-4.278125,67.2219828 C-4.54548745,67.4346275 -4.73263835,67.7004294 -4.83958333,68.0193966 C-4.94652831,68.3383637 -5,68.657326 -5,68.9762931 C-5,69.2952602 -4.94652831,69.6009324 -4.83958333,69.893319 C-4.73263835,70.1857055 -4.54548745,70.4647975 -4.278125,70.7306034 C-4.01076255,70.9964094 -3.73003619,71.1824707 -3.4359375,71.2887931 C-3.14183881,71.3951155 -2.8343766,71.4482759 -2.51354167,71.4482759 C-2.19270673,71.4482759 -1.8718766,71.3951155 -1.55104167,71.2887931 C-1.23020673,71.1824707 -0.936112448,70.9964094 -0.66875,70.7306034 L30.9333333,39.3125 L62.5354167,70.7306034 C62.8027791,70.9964094 63.0968734,71.1824707 63.4177083,71.2887931 C63.7385433,71.3951155 64.0593734,71.4482759 64.3802083,71.4482759 C64.7010433,71.4482759 65.0085055,71.3951155 65.3026042,71.2887931 C65.5967029,71.1824707 65.8774292,70.9964094 66.1447917,70.7306034 C66.4121541,70.4647975 66.599305,70.1857055 66.70625,69.893319 C66.813195,69.6009324 66.8666667,69.2952602 66.8666667,68.9762931 C66.8666667,68.657326 66.813195,68.3383637 66.70625,68.0193966 C66.599305,67.7004294 66.4121541,67.4346275 66.1447917,67.2219828 L34.5427083,35.7241379 Z" id="" transform="translate(33.500000, 37.000000) scale(-1, 1) translate(-33.500000, -37.000000) "></path>
        </g>
    </g>
</svg>
