<?xml version="1.0" encoding="UTF-8" standalone="no"?>
<svg width="72px" height="72px" viewBox="0 0 72 72" version="1.1" xmlns="http://www.w3.org/2000/svg" xmlns:xlink="http://www.w3.org/1999/xlink">
    <!-- Generator: Sketch 3.8.3 (29802) - http://www.bohemiancoding.com/sketch -->
    <title>Jarokelo_icons_documents</title>
    <desc>Created with Sketch.</desc>
    <defs></defs>
    <g id="Icons" stroke="none" stroke-width="1" fill="none" fill-rule="evenodd">
        <g id="Jarokelo_icons_documents" fill="#5289C8">
            <path d="M47.5,0 L9.25,0 C8.92187336,0 8.62890754,0.0585931641 8.37109375,0.17578125 C8.11327996,0.292969336 7.86718867,0.445311562 7.6328125,0.6328125 C7.44531156,0.867188672 7.29296934,1.11327996 7.17578125,1.37109375 C7.05859316,1.62890754 7,1.92187336 7,2.25 L7,69.75 C7,70.0781266 7.05859316,70.3710925 7.17578125,70.6289062 C7.29296934,70.88672 7.44531156,71.1328113 7.6328125,71.3671875 C7.86718867,71.5546884 8.11327996,71.7070307 8.37109375,71.8242188 C8.62890754,71.9414068 8.92187336,72 9.25,72 L63.25,72 C63.5781266,72 63.8710925,71.9414068 64.1289062,71.8242188 C64.38672,71.7070307 64.6328113,71.5546884 64.8671875,71.3671875 C65.0546884,71.1328113 65.2070307,70.88672 65.3242188,70.6289062 C65.4414068,70.3710925 65.5,70.0781266 65.5,69.75 L65.5,18 L47.5,0 Z M47.5,8.15625 L57.34375,18 L47.5,18 L47.5,8.15625 Z M61,65.25 C61,65.5781266 60.9414068,65.8710925 60.8242188,66.1289062 C60.7070307,66.38672 60.5546884,66.6328113 60.3671875,66.8671875 C60.1328113,67.0546884 59.88672,67.2070307 59.6289062,67.3242188 C59.3710925,67.4414068 59.0781266,67.5 58.75,67.5 L13.75,67.5 C13.4218734,67.5 13.1289075,67.4414068 12.8710938,67.3242188 C12.61328,67.2070307 12.3671887,67.0546884 12.1328125,66.8671875 C11.9453116,66.6328113 11.7929693,66.38672 11.6757812,66.1289062 C11.5585932,65.8710925 11.5,65.5781266 11.5,65.25 L11.5,6.75 C11.5,6.42187336 11.5585932,6.12890754 11.6757812,5.87109375 C11.7929693,5.61327996 11.9453116,5.36718867 12.1328125,5.1328125 C12.3671887,4.94531156 12.61328,4.79296934 12.8710938,4.67578125 C13.1289075,4.55859316 13.4218734,4.5 13.75,4.5 L43,4.5 L43,22.5 L61,22.5 L61,65.25 Z" id=""></path>
        </g>
    </g>
</svg>