<?xml version="1.0" encoding="utf-8"?>
<!-- Generator: Adobe Illustrator 19.0.0, SVG Export Plug-In . SVG Version: 6.00 Build 0)  -->
<svg version="1.1" id="Layer_1" xmlns="http://www.w3.org/2000/svg" xmlns:xlink="http://www.w3.org/1999/xlink" x="0px" y="0px"
	 viewBox="-472 273 14 16" style="enable-background:new -472 273 14 16;" xml:space="preserve">
<path id="documents" d="M-462,276h-9c-0.1,0-0.3,0-0.4,0.1s-0.2,0.1-0.3,0.2c-0.1,0.1-0.2,0.2-0.2,0.3s-0.1,0.3-0.1,0.4
	v11c0,0.1,0,0.3,0.1,0.4s0.1,0.2,0.2,0.3c0.1,0.1,0.2,0.2,0.3,0.2s0.3,0.1,0.4,0.1h9c0.1,0,0.3,0,0.4-0.1s0.2-0.1,0.3-0.2
	c0.1-0.1,0.2-0.2,0.2-0.3s0.1-0.3,0.1-0.4v-11c0-0.1,0-0.3-0.1-0.4s-0.1-0.2-0.2-0.3c-0.1-0.1-0.2-0.2-0.3-0.2S-461.9,276-462,276
	L-462,276z M-462,287.5c0,0.1,0,0.1,0,0.2s-0.1,0.1-0.1,0.2c-0.1,0-0.1,0.1-0.2,0.1s-0.1,0-0.2,0h-8c-0.1,0-0.1,0-0.2,0
	s-0.1-0.1-0.2-0.1c0-0.1-0.1-0.1-0.1-0.2s0-0.1,0-0.2v-10c0-0.1,0-0.1,0-0.2s0.1-0.1,0.1-0.2c0.1,0,0.1-0.1,0.2-0.1s0.1,0,0.2,0h8
	c0.1,0,0.1,0,0.2,0s0.1,0.1,0.2,0.1c0,0.1,0.1,0.1,0.1,0.2s0,0.1,0,0.2V287.5z M-459,273h-8c-0.1,0-0.3,0-0.4,0.1s-0.2,0.1-0.3,0.2
	c-0.1,0.1-0.2,0.2-0.2,0.3s-0.1,0.2-0.1,0.4v1h1v-0.5c0-0.1,0-0.1,0-0.2s0.1-0.1,0.1-0.2c0.1,0,0.1-0.1,0.2-0.1s0.1,0,0.2,0h7
	c0.1,0,0.1,0,0.2,0s0.1,0.1,0.2,0.1c0,0.1,0.1,0.1,0.1,0.2s0,0.1,0,0.2v10c0,0.1,0,0.1,0,0.2s-0.1,0.1-0.1,0.2
	c-0.1,0-0.1,0.1-0.2,0.1s-0.1,0-0.2,0h-0.5v1h1c0.1,0,0.3,0,0.4-0.1s0.2-0.1,0.3-0.2c0.1-0.1,0.2-0.2,0.2-0.3s0.1-0.3,0.1-0.4v-11
	c0-0.1,0-0.3-0.1-0.4s-0.1-0.2-0.2-0.3c-0.1-0.1-0.2-0.2-0.3-0.2S-458.9,273-459,273L-459,273z"/>
</svg>
