<?xml version="1.0" encoding="UTF-8" standalone="no"?>
<svg width="72px" height="72px" viewBox="0 0 72 72" version="1.1" xmlns="http://www.w3.org/2000/svg" xmlns:xlink="http://www.w3.org/1999/xlink">
    <!-- Generator: Sketch 39.1 (31720) - http://www.bohemiancoding.com/sketch -->
    <title>Jarokelo_icons_download</title>
    <desc>Created with Sketch.</desc>
    <defs></defs>
    <g id="Icons" stroke="none" stroke-width="1" fill="none" fill-rule="evenodd">
        <g id="Jarokelo_icons_download" fill="#000000">
            <path d="M35.1640625,53.5078125 C35.3515634,53.6484382 35.5390616,53.7539059 35.7265625,53.8242188 C35.9140634,53.8945316 36.1249988,53.9531248 36.359375,54 L36.3945312,54 L36.4296875,54 L36.5,54 L36.5,54 L36.5703125,54 L36.640625,54 C36.8750012,53.9531248 37.1093738,53.882813 37.34375,53.7890625 C37.5781262,53.695312 37.7890616,53.5781257 37.9765625,53.4375 C38.0234377,53.3906248 38.0585936,53.3671875 38.0820312,53.3671875 L38.1171875,53.3671875 C38.1171875,53.3671875 39.9921688,51.468769 43.7421875,47.671875 C47.4922062,43.874981 49.3671875,41.9765625 49.3671875,41.9765625 C49.5546884,41.7890616 49.7070307,41.5546889 49.8242188,41.2734375 C49.9414068,40.9921861 50,40.7109389 50,40.4296875 C50,40.1484361 49.9414068,39.8789075 49.8242188,39.6210938 C49.7070307,39.36328 49.5546884,39.1171887 49.3671875,38.8828125 C49.1328113,38.6953116 48.88672,38.5429693 48.6289062,38.4257812 C48.3710925,38.3085932 48.1015639,38.25 47.8203125,38.25 C47.5390611,38.25 47.2578139,38.3085932 46.9765625,38.4257812 C46.6953111,38.5429693 46.4609384,38.6953116 46.2734375,38.8828125 L38.75,46.40625 L38.75,2.25 C38.75,1.92187336 38.6914068,1.62890754 38.5742188,1.37109375 C38.4570307,1.11327996 38.3046884,0.867188672 38.1171875,0.6328125 C37.8828113,0.445311562 37.63672,0.292969336 37.3789062,0.17578125 C37.1210925,0.0585931641 36.8281266,0 36.5,0 C36.1718734,0 35.8789075,0.0585931641 35.6210938,0.17578125 C35.36328,0.292969336 35.1171887,0.445311562 34.8828125,0.6328125 C34.6953116,0.867188672 34.5429693,1.11327996 34.4257812,1.37109375 C34.3085932,1.62890754 34.25,1.92187336 34.25,2.25 L34.25,46.40625 L26.7265625,38.8828125 C26.5390616,38.6953116 26.3046889,38.5429693 26.0234375,38.4257812 C25.7421861,38.3085932 25.4609389,38.25 25.1796875,38.25 C24.8984361,38.25 24.6289075,38.3085932 24.3710938,38.4257812 C24.11328,38.5429693 23.8671887,38.6953116 23.6328125,38.8828125 C23.4453116,39.1171887 23.2929693,39.36328 23.1757812,39.6210938 C23.0585932,39.8789075 23,40.1484361 23,40.4296875 C23,40.7109389 23.0585932,40.9921861 23.1757812,41.2734375 C23.2929693,41.5546889 23.4453116,41.7890616 23.6328125,41.9765625 L29.3632812,47.7070312 L35.1640625,53.5078125 L35.1640625,53.5078125 Z M54.25,18 L54.25,22.5 L58.75,22.5 C59.0781266,22.5 59.3710925,22.5585932 59.6289062,22.6757812 C59.88672,22.7929693 60.1328113,22.9453116 60.3671875,23.1328125 C60.5546884,23.3671887 60.7070307,23.61328 60.8242188,23.8710938 C60.9414068,24.1289075 61,24.4218734 61,24.75 L61,65.25 C61,65.5781266 60.9414068,65.8710925 60.8242188,66.1289062 C60.7070307,66.38672 60.5546884,66.6328113 60.3671875,66.8671875 C60.1328113,67.0546884 59.88672,67.2070307 59.6289062,67.3242188 C59.3710925,67.4414068 59.0781266,67.5 58.75,67.5 L13.75,67.5 C13.4218734,67.5 13.1289075,67.4414068 12.8710938,67.3242188 C12.61328,67.2070307 12.3671887,67.0546884 12.1328125,66.8671875 C11.9453116,66.6328113 11.7929693,66.38672 11.6757812,66.1289062 C11.5585932,65.8710925 11.5,65.5781266 11.5,65.25 L11.5,24.75 C11.5,24.4218734 11.5585932,24.1289075 11.6757812,23.8710938 C11.7929693,23.61328 11.9453116,23.3671887 12.1328125,23.1328125 C12.3671887,22.9453116 12.61328,22.7929693 12.8710938,22.6757812 C13.1289075,22.5585932 13.4218734,22.5 13.75,22.5 L18.25,22.5 L18.25,18 L11.5,18 C10.890622,18 10.3046903,18.1171863 9.7421875,18.3515625 C9.17968469,18.5859387 8.71093937,18.9140604 8.3359375,19.3359375 C7.91406039,19.7109394 7.58593867,20.1796847 7.3515625,20.7421875 C7.11718633,21.3046903 7,21.890622 7,22.5 L7,67.5 C7,68.109378 7.11718633,68.6953097 7.3515625,69.2578125 C7.58593867,69.8203153 7.91406039,70.2890606 8.3359375,70.6640625 C8.71093937,71.0859396 9.17968469,71.4140613 9.7421875,71.6484375 C10.3046903,71.8828137 10.890622,72 11.5,72 L61,72 C61.609378,72 62.1953097,71.8828137 62.7578125,71.6484375 C63.3203153,71.4140613 63.7890606,71.0859396 64.1640625,70.6640625 C64.5859396,70.2890606 64.9140613,69.8203153 65.1484375,69.2578125 C65.3828137,68.6953097 65.5,68.109378 65.5,67.5 L65.5,22.5 C65.5,21.890622 65.3828137,21.3046903 65.1484375,20.7421875 C64.9140613,20.1796847 64.5859396,19.7109394 64.1640625,19.3359375 C63.7890606,18.9140604 63.3203153,18.5859387 62.7578125,18.3515625 C62.1953097,18.1171863 61.609378,18 61,18 L54.25,18 Z" id=""></path>
        </g>
    </g>
</svg>