<?xml version="1.0" encoding="UTF-8" standalone="no"?>
<svg width="72px" height="72px" viewBox="0 0 72 72" version="1.1" xmlns="http://www.w3.org/2000/svg" xmlns:xlink="http://www.w3.org/1999/xlink">
    <!-- Generator: Sketch 3.8.3 (29802) - http://www.bohemiancoding.com/sketch -->
    <title>Jarokelo_icons_email</title>
    <desc>Created with Sketch.</desc>
    <defs></defs>
    <g id="Icons">
        <g id="Jarokelo_icons_email">
            <path d="M71.9296188,8.18865741 L71.9296188,8.11805556 C71.8826977,7.88271487 71.8123172,7.64737772 71.7184751,7.41203704 C71.624633,7.17669635 71.5073321,6.96489292 71.3665689,6.77662037 C71.3196479,6.77662037 71.2961877,6.75308666 71.2961877,6.70601852 L71.2961877,6.63541667 C71.2492666,6.58834853 71.2140764,6.56481481 71.1906158,6.56481481 L71.085044,6.56481481 C70.9442808,6.42361041 70.7683295,6.30594183 70.5571848,6.21180556 C70.34604,6.11766928 70.1231683,6.07060185 69.888563,6.07060185 C69.841642,6.07060185 69.7947216,6.05883499 69.7478006,6.03530093 C69.7008795,6.01176686 69.6774194,6 69.6774194,6 L2.25219941,6 C2.20527836,6 2.17008809,6.01176686 2.14662757,6.03530093 C2.12316704,6.05883499 2.08797677,6.07060185 2.04105572,6.07060185 C1.80645044,6.07060185 1.58357877,6.11766928 1.37243402,6.21180556 C1.16128927,6.30594183 0.985337947,6.42361041 0.84457478,6.56481481 L0.739002933,6.56481481 C0.715542405,6.56481481 0.680352141,6.58834853 0.633431085,6.63541667 L0.633431085,6.70601852 C0.633431085,6.75308666 0.609970909,6.77662037 0.563049853,6.77662037 C0.422286686,6.96489292 0.304985806,7.17669635 0.211143695,7.41203704 C0.117301584,7.64737772 0.0469210557,7.88271487 0,8.11805556 L0,8.18865741 L0,8.25925926 L0,8.25925926 L0,62.4814815 C0,62.8109584 0.0586504399,63.1051299 0.175953079,63.3640046 C0.293255718,63.6228794 0.445746862,63.8699834 0.633431085,64.1053241 C0.868036364,64.2935966 1.11436821,64.4465658 1.37243402,64.5642361 C1.63049982,64.6819065 1.92375202,64.7407407 2.25219941,64.7407407 L69.6774194,64.7407407 C70.0058667,64.7407407 70.2991189,64.6819065 70.5571848,64.5642361 C70.8152506,64.4465658 71.0615824,64.2935966 71.2961877,64.1053241 C71.4838719,63.8699834 71.636363,63.6228794 71.7536657,63.3640046 C71.8709683,63.1051299 71.9296188,62.8109584 71.9296188,62.4814815 L71.9296188,8.25925926 L71.9296188,8.18865741 L71.9296188,8.18865741 Z M63.3431085,10.5185185 L35.9648094,32.5462963 L8.58651026,10.5185185 L63.3431085,10.5185185 Z M67.4252199,57.962963 C67.4252199,58.2924399 67.3665695,58.5866114 67.2492669,58.8454861 C67.1319642,59.1043609 66.9794731,59.3514649 66.7917889,59.5868056 C66.5571836,59.7750781 66.3108517,59.9280473 66.0527859,60.0457176 C65.7947201,60.1633879 65.5014679,60.2222222 65.1730205,60.2222222 L6.75659824,60.2222222 C6.42815085,60.2222222 6.13489865,60.1633879 5.87683284,60.0457176 C5.61876704,59.9280473 5.37243519,59.7750781 5.13782991,59.5868056 C4.95014569,59.3514649 4.79765455,59.1043609 4.68035191,58.8454861 C4.56304927,58.5866114 4.50439883,58.2924399 4.50439883,57.962963 L4.50439883,12.8483796 L34.2756598,36.8530093 C34.3225809,36.8530093 34.3460411,36.8647761 34.3460411,36.8883102 L34.3460411,36.994213 C34.5806463,37.1824855 34.8387083,37.3354547 35.1202346,37.453125 C35.4017609,37.5707953 35.683283,37.6296296 35.9648094,37.6296296 C36.2463357,37.6296296 36.5278578,37.5707953 36.8093842,37.453125 C37.0909105,37.3354547 37.3489724,37.1824855 37.5835777,36.994213 L37.5835777,36.8883102 C37.5835777,36.8647761 37.6070379,36.8530093 37.6539589,36.8530093 L67.4252199,12.8483796 L67.4252199,57.962963 Z" id="email"></path>
        </g>
    </g>
</svg>
