<?xml version="1.0" encoding="UTF-8" standalone="no"?>
<svg width="30px" height="31px" viewBox="0 0 30 31" version="1.1" xmlns="http://www.w3.org/2000/svg" xmlns:xlink="http://www.w3.org/1999/xlink">
    <!-- Generator: Sketch 39.1 (31720) - http://www.bohemiancoding.com/sketch -->
    <title>email-open</title>
    <desc>Created with Sketch.</desc>
    <defs></defs>
    <g id="Icons">
        <path d="M15,0.875 L0,10.25 L0,30.875 L30,30.875 L30,10.25 L15,0.875 Z M15,2.75 L27.7441406,10.953125 L14.5605469,20.9140625 L11.25,18.2480469 L11.25,18.21875 L9.69726562,16.9882812 L2.2265625,10.953125 L15,2.75 Z M1.875,13.1210938 L8.52539062,18.4824219 L1.875,27.0664062 L1.875,13.1210938 Z M2.87109375,29 L10.078125,19.7421875 L14.0332031,22.9355469 L14.4726562,23.375 L14.53125,23.3457031 L14.5898438,23.375 L14.9121094,23.0527344 L19.6875,19.4199219 L27.1289062,29 L2.87109375,29 Z M28.125,27.0664062 L21.2695312,18.2480469 L28.125,13.0332031 L28.125,27.0664062 Z" id="email-open"></path>
    </g>
</svg>
