<?xml version="1.0" encoding="UTF-8" standalone="no"?>
<svg width="72px" height="72px" viewBox="0 0 72 72" version="1.1" xmlns="http://www.w3.org/2000/svg" xmlns:xlink="http://www.w3.org/1999/xlink">
    <!-- Generator: Sketch 3.8.3 (29802) - http://www.bohemiancoding.com/sketch -->
    <title>Jarokelo_icons_szem</title>
    <desc>Created with Sketch.</desc>
    <defs></defs>
    <g id="Icons" stroke="none" stroke-width="1" fill="none" fill-rule="evenodd">
        <g id="Jarokelo_icons_szem" fill="#8B65F2">
            <path d="M36,9 C26.0624503,9 17.5781602,13.499955 10.546875,22.5 L0,36 L10.546875,49.5 C17.5781602,58.500045 26.0624503,63 36,63 C45.9375497,63 54.4218398,58.500045 61.453125,49.5 C68.4844102,40.499955 72,36 72,36 C72,36 68.4844102,31.500045 61.453125,22.5 C54.4218398,13.499955 45.9375497,9 36,9 L36,9 Z M36,58.5 C27.9374597,58.5 20.6719073,54.7500375 14.203125,47.25 C7.73434266,39.7499625 4.5,36 4.5,36 C4.5,36 7.73434266,32.2500375 14.203125,24.75 C20.6719073,17.2499625 27.9374597,13.5 36,13.5 C44.0625403,13.5 51.3280927,17.2499625 57.796875,24.75 C64.2656573,32.2500375 67.5,36 67.5,36 C67.5,36 64.2656573,39.7499625 57.796875,47.25 C51.3280927,54.7500375 44.0625403,58.5 36,58.5 L36,58.5 Z M36,18 C33.5156126,18 31.1836046,18.4687453 29.0039062,19.40625 C26.8242079,20.3437547 24.9140707,21.6328043 23.2734375,23.2734375 C21.6328043,24.9140707 20.3437547,26.8242079 19.40625,29.0039062 C18.4687453,31.1836046 18,33.5156126 18,36 C18,38.4843874 18.4687453,40.8163954 19.40625,42.9960938 C20.3437547,45.1757921 21.6328043,47.0859293 23.2734375,48.7265625 C24.9140707,50.3671957 26.8242079,51.6562453 29.0039062,52.59375 C31.1836046,53.5312547 33.5156126,54 36,54 C38.4843874,54 40.8163954,53.5312547 42.9960938,52.59375 C45.1757921,51.6562453 47.0859293,50.3671957 48.7265625,48.7265625 C50.3671957,47.0859293 51.6562453,45.1757921 52.59375,42.9960938 C53.5312547,40.8163954 54,38.4843874 54,36 C54,33.5156126 53.5312547,31.1836046 52.59375,29.0039062 C51.6562453,26.8242079 50.3671957,24.9140707 48.7265625,23.2734375 C47.0859293,21.6328043 45.1757921,20.3437547 42.9960938,19.40625 C40.8163954,18.4687453 38.4843874,18 36,18 L36,18 Z M36,49.5 C34.1249906,49.5 32.3671957,49.148441 30.7265625,48.4453125 C29.0859293,47.742184 27.6562561,46.7812561 26.4375,45.5625 C25.2187439,44.3437439 24.257816,42.9140707 23.5546875,41.2734375 C22.851559,39.6328043 22.5,37.8750094 22.5,36 C22.5,34.1249906 22.851559,32.3671957 23.5546875,30.7265625 C24.257816,29.0859293 25.2187439,27.6562561 26.4375,26.4375 C27.6562561,25.2187439 29.0859293,24.257816 30.7265625,23.5546875 C32.3671957,22.851559 34.1249906,22.5 36,22.5 C37.8750094,22.5 39.6328043,22.851559 41.2734375,23.5546875 C42.9140707,24.257816 44.3437439,25.2187439 45.5625,26.4375 C46.7812561,27.6562561 47.742184,29.0859293 48.4453125,30.7265625 C49.148441,32.3671957 49.5,34.1249906 49.5,36 C49.5,37.8750094 49.148441,39.6328043 48.4453125,41.2734375 C47.742184,42.9140707 46.7812561,44.3437439 45.5625,45.5625 C44.3437439,46.7812561 42.9140707,47.742184 41.2734375,48.4453125 C39.6328043,49.148441 37.8750094,49.5 36,49.5 L36,49.5 Z" id=""></path>
        </g>
    </g>
</svg>