<?xml version="1.0" encoding="UTF-8" standalone="no"?>
<svg width="18px" height="33px" viewBox="0 0 18 33" version="1.1" xmlns="http://www.w3.org/2000/svg" xmlns:xlink="http://www.w3.org/1999/xlink">
    <!-- Generator: Sketch 3.8.3 (29802) - http://www.bohemiancoding.com/sketch -->
    <title>facebook-alt</title>
    <desc>Created with Sketch.</desc>
    <defs></defs>
    <g id="Mobil" stroke="none" stroke-width="1" fill="none" fill-rule="evenodd">
        <g id="Jarokelok_mobil_Bejelentes_informaciok" transform="translate(-440.000000, -2347.000000)" fill="#FFFFFF">
            <g id="Follow" transform="translate(45.000000, 2328.000000)">
                <path d="M413,25.21 L408.03,25.21 C407.703332,25.21 407.411668,25.3849982 407.155,25.735 C406.898332,26.0850017 406.77,26.5166641 406.77,27.03 L406.77,30.6 L413,30.6 L413,35.78 L406.77,35.78 L406.77,51.25 L400.82,51.25 L400.82,35.78 L395.5,35.78 L395.5,30.6 L400.82,30.6 L400.82,27.59 C400.82,25.3966557 401.49666,23.5416742 402.85,22.025 C404.20334,20.5083257 405.929989,19.75 408.03,19.75 L413,19.75 L413,25.21 Z" id="facebook-alt"></path>
            </g>
        </g>
    </g>
</svg>