<?xml version="1.0" encoding="utf-8"?>
<!-- Generator: Adobe Illustrator 19.0.0, SVG Export Plug-In . SVG Version: 6.00 Build 0)  -->
<svg version="1.1" id="Layer_1" xmlns="http://www.w3.org/2000/svg" xmlns:xlink="http://www.w3.org/1999/xlink" x="0px" y="0px"
	 viewBox="0 0 16.3 16.3" enable-background="new 0 0 16.3 16.3" xml:space="preserve">
<path id="XMLID_2_" d="M14.3,0c0.6,0,1.1,0.2,1.5,0.6C16.1,1,16.3,1.5,16.3,2v12.3c0,0.6-0.2,1-0.6,1.4
	c-0.4,0.4-0.9,0.6-1.5,0.6h-3.1v-5.9h2.2V7.9h-2.2V6.6c0-0.4,0.2-0.6,0.5-0.6h1.6V3.1h-1.8c-0.9,0-1.7,0.3-2.4,1
	C8.6,4.8,8.2,5.7,8.2,6.6v1.3h-2v2.5h2v5.9H2.1c-0.6,0-1.1-0.2-1.5-0.6C0.2,15.3,0,14.8,0,14.3V2c0-0.6,0.2-1,0.6-1.4
	C1,0.2,1.5,0,2.1,0H14.3L14.3,0z"/>
</svg>
