<?xml version="1.0" encoding="UTF-8" standalone="no"?>
<svg width="29px" height="31px" viewBox="0 0 29 31" version="1.1" xmlns="http://www.w3.org/2000/svg" xmlns:xlink="http://www.w3.org/1999/xlink">
    <!-- Generator: Sketch 39.1 (31720) - http://www.bohemiancoding.com/sketch -->
    <title>flag</title>
    <desc>Created with Sketch.</desc>
    <defs></defs>
    <g id="icons">
        <path d="M17.75,2.75 C13.1210706,0.699208496 9.15138374,0.186518311 5.84082031,1.21191406 C2.53025688,2.23730981 0.875,2.75 0.875,2.75 L0.875,29.9375 C0.875,30.0742194 0.899413818,30.1962885 0.948242188,30.3037109 C0.997070557,30.4111333 1.06054648,30.5136714 1.13867188,30.6113281 C1.23632861,30.6894535 1.33886665,30.7529294 1.44628906,30.8017578 C1.55371147,30.8505862 1.67578057,30.875 1.8125,30.875 C1.94921943,30.875 2.07128853,30.8505862 2.17871094,30.8017578 C2.28613335,30.7529294 2.38867139,30.6894535 2.48632812,30.6113281 C2.56445352,30.5136714 2.62792944,30.4111333 2.67675781,30.3037109 C2.72558618,30.1962885 2.75,30.0742194 2.75,29.9375 L2.75,18.1308594 C3.45312852,17.9550772 4.32226045,17.7988288 5.35742188,17.6621094 C6.3925833,17.5253899 7.56444658,17.4863278 8.87304688,17.5449219 C10.1621158,17.5839846 11.5585862,17.7597641 13.0625,18.0722656 C14.5664138,18.3847672 16.1288981,18.9023401 17.75,19.625 C21.9687711,21.5000094 24.8984293,21.6562578 26.5390625,20.09375 C28.1796957,18.5312422 29,17.75 29,17.75 L29,0.875 C29,0.875 28.1796957,1.65624219 26.5390625,3.21875 C24.8984293,4.78125781 21.9687711,4.62500937 17.75,2.75 L17.75,2.75 Z M27.125,17.75 C27.125,17.75 26.2265715,18.101559 24.4296875,18.8046875 C22.6328035,19.507816 20.0937664,19.156257 16.8125,17.75 C15.2304608,17.0664028 13.7265696,16.5732437 12.3007812,16.2705078 C10.8749929,15.9677719 9.56641221,15.7871097 8.375,15.7285156 C7.16405645,15.6699216 6.08496567,15.6992182 5.13769531,15.8164062 C4.19042495,15.9335943 3.39453447,16.0703117 2.75,16.2265625 L2.75,3.8046875 C3.39453447,3.57031133 4.19042495,3.35546973 5.13769531,3.16015625 C6.08496567,2.96484277 7.16405645,2.8671875 8.375,2.8671875 C9.56641221,2.84765615 10.8749929,2.96484248 12.3007812,3.21875 C13.7265696,3.47265752 15.2304608,3.94140283 16.8125,4.625 C20.0937664,6.03125703 22.6328035,6.38281602 24.4296875,5.6796875 C26.2265715,4.97655898 27.125,4.625 27.125,4.625 L27.125,17.75 Z" id="flag"></path>
    </g>
</svg>
