<?xml version="1.0" encoding="UTF-8" standalone="no"?>
<svg width="72px" height="72px" viewBox="0 0 72 72" version="1.1" xmlns="http://www.w3.org/2000/svg" xmlns:xlink="http://www.w3.org/1999/xlink">
    <!-- Generator: Sketch 3.8.3 (29802) - http://www.bohemiancoding.com/sketch -->
    <title>general-info</title>
    <desc>Created with Sketch.</desc>
    <defs></defs>
    <g id="Icons" stroke="none" stroke-width="1">
        <g id="general-info">
            <path d="M51.75,54 L20.25,54 C19.9218734,54 19.6289075,54.0585932 19.3710938,54.1757812 C19.11328,54.2929693 18.8671887,54.4453116 18.6328125,54.6328125 C18.4453116,54.8671887 18.2929693,55.11328 18.1757812,55.3710938 C18.0585932,55.6289075 18,55.9218734 18,56.25 C18,56.5781266 18.0585932,56.8710925 18.1757812,57.1289062 C18.2929693,57.38672 18.4453116,57.6328113 18.6328125,57.8671875 C18.8671887,58.0546884 19.11328,58.2070307 19.3710938,58.3242188 C19.6289075,58.4414068 19.9218734,58.5 20.25,58.5 L51.75,58.5 C52.0781266,58.5 52.3710925,58.4414068 52.6289062,58.3242188 C52.88672,58.2070307 53.1328113,58.0546884 53.3671875,57.8671875 C53.5546884,57.6328113 53.7070307,57.38672 53.8242188,57.1289062 C53.9414068,56.8710925 54,56.5781266 54,56.25 C54,55.9218734 53.9414068,55.6289075 53.8242188,55.3710938 C53.7070307,55.11328 53.5546884,54.8671887 53.3671875,54.6328125 C53.1328113,54.4453116 52.88672,54.2929693 52.6289062,54.1757812 C52.3710925,54.0585932 52.0781266,54 51.75,54 L51.75,54 Z M63,0 L9,0 C7.78124391,0 6.62109926,0.234372656 5.51953125,0.703125 C4.41796324,1.17187734 3.46875398,1.82812078 2.671875,2.671875 C1.82812078,3.46875398 1.17187734,4.41796324 0.703125,5.51953125 C0.234372656,6.62109926 0,7.78124391 0,9 L0,63 C0,64.2656313 0.234372656,65.4374946 0.703125,66.515625 C1.17187734,67.5937554 1.82812078,68.5546833 2.671875,69.3984375 C3.46875398,70.1953165 4.41796324,70.8281227 5.51953125,71.296875 C6.62109926,71.7656273 7.78124391,72 9,72 L63,72 C64.2187561,72 65.3789007,71.7656273 66.4804688,71.296875 C67.5820368,70.8281227 68.531246,70.1953165 69.328125,69.3984375 C70.1718792,68.5546833 70.8281227,67.5937554 71.296875,66.515625 C71.7656273,65.4374946 72,64.2656313 72,63 L72,9 C72,7.78124391 71.7656273,6.62109926 71.296875,5.51953125 C70.8281227,4.41796324 70.1718792,3.46875398 69.328125,2.671875 C68.531246,1.82812078 67.5820368,1.17187734 66.4804688,0.703125 C65.3789007,0.234372656 64.2187561,0 63,0 L63,0 Z M67.5,63 C67.5,63.609378 67.3828137,64.1953097 67.1484375,64.7578125 C66.9140613,65.3203153 66.5859396,65.7890606 66.1640625,66.1640625 C65.7890606,66.5859396 65.3203153,66.9140613 64.7578125,67.1484375 C64.1953097,67.3828137 63.609378,67.5 63,67.5 L9,67.5 C8.39062195,67.5 7.80469031,67.3828137 7.2421875,67.1484375 C6.67968469,66.9140613 6.21093938,66.5859396 5.8359375,66.1640625 C5.41406039,65.7890606 5.08593867,65.3203153 4.8515625,64.7578125 C4.61718633,64.1953097 4.5,63.609378 4.5,63 L4.5,9 C4.5,8.39062195 4.61718633,7.80469031 4.8515625,7.2421875 C5.08593867,6.67968469 5.41406039,6.21093937 5.8359375,5.8359375 C6.21093938,5.41406039 6.67968469,5.08593867 7.2421875,4.8515625 C7.80469031,4.61718633 8.39062195,4.5 9,4.5 L63,4.5 C63.609378,4.5 64.1953097,4.61718633 64.7578125,4.8515625 C65.3203153,5.08593867 65.7890606,5.41406039 66.1640625,5.8359375 C66.5859396,6.21093937 66.9140613,6.67968469 67.1484375,7.2421875 C67.3828137,7.80469031 67.5,8.39062195 67.5,9 L67.5,63 Z M51.75,40.5 L20.25,40.5 C19.9218734,40.5 19.6289075,40.5585932 19.3710938,40.6757812 C19.11328,40.7929693 18.8671887,40.9453116 18.6328125,41.1328125 C18.4453116,41.3671887 18.2929693,41.61328 18.1757812,41.8710938 C18.0585932,42.1289075 18,42.4218734 18,42.75 C18,43.0781266 18.0585932,43.3710925 18.1757812,43.6289062 C18.2929693,43.88672 18.4453116,44.1328113 18.6328125,44.3671875 C18.8671887,44.5546884 19.11328,44.7070307 19.3710938,44.8242188 C19.6289075,44.9414068 19.9218734,45 20.25,45 L51.75,45 C52.0781266,45 52.3710925,44.9414068 52.6289062,44.8242188 C52.88672,44.7070307 53.1328113,44.5546884 53.3671875,44.3671875 C53.5546884,44.1328113 53.7070307,43.88672 53.8242188,43.6289062 C53.9414068,43.3710925 54,43.0781266 54,42.75 C54,42.4218734 53.9414068,42.1289075 53.8242188,41.8710938 C53.7070307,41.61328 53.5546884,41.3671887 53.3671875,41.1328125 C53.1328113,40.9453116 52.88672,40.7929693 52.6289062,40.6757812 C52.3710925,40.5585932 52.0781266,40.5 51.75,40.5 L51.75,40.5 Z M51.75,13.5 L20.25,13.5 C19.9218734,13.5 19.6289075,13.5585932 19.3710938,13.6757812 C19.11328,13.7929693 18.8671887,13.9453116 18.6328125,14.1328125 C18.4453116,14.3671887 18.2929693,14.61328 18.1757812,14.8710938 C18.0585932,15.1289075 18,15.4218734 18,15.75 C18,16.0781266 18.0585932,16.3710925 18.1757812,16.6289062 C18.2929693,16.88672 18.4453116,17.1328113 18.6328125,17.3671875 C18.8671887,17.5546884 19.11328,17.7070307 19.3710938,17.8242188 C19.6289075,17.9414068 19.9218734,18 20.25,18 L51.75,18 C52.0781266,18 52.3710925,17.9414068 52.6289062,17.8242188 C52.88672,17.7070307 53.1328113,17.5546884 53.3671875,17.3671875 C53.5546884,17.1328113 53.7070307,16.88672 53.8242188,16.6289062 C53.9414068,16.3710925 54,16.0781266 54,15.75 C54,15.4218734 53.9414068,15.1289075 53.8242188,14.8710938 C53.7070307,14.61328 53.5546884,14.3671887 53.3671875,14.1328125 C53.1328113,13.9453116 52.88672,13.7929693 52.6289062,13.6757812 C52.3710925,13.5585932 52.0781266,13.5 51.75,13.5 L51.75,13.5 Z M51.75,27 L20.25,27 C19.9218734,27 19.6289075,27.0585932 19.3710938,27.1757812 C19.11328,27.2929693 18.8671887,27.4453116 18.6328125,27.6328125 C18.4453116,27.8671887 18.2929693,28.11328 18.1757812,28.3710938 C18.0585932,28.6289075 18,28.9218734 18,29.25 C18,29.5781266 18.0585932,29.8710925 18.1757812,30.1289062 C18.2929693,30.38672 18.4453116,30.6328113 18.6328125,30.8671875 C18.8671887,31.0546884 19.11328,31.2070307 19.3710938,31.3242188 C19.6289075,31.4414068 19.9218734,31.5 20.25,31.5 L51.75,31.5 C52.0781266,31.5 52.3710925,31.4414068 52.6289062,31.3242188 C52.88672,31.2070307 53.1328113,31.0546884 53.3671875,30.8671875 C53.5546884,30.6328113 53.7070307,30.38672 53.8242188,30.1289062 C53.9414068,29.8710925 54,29.5781266 54,29.25 C54,28.9218734 53.9414068,28.6289075 53.8242188,28.3710938 C53.7070307,28.11328 53.5546884,27.8671887 53.3671875,27.6328125 C53.1328113,27.4453116 52.88672,27.2929693 52.6289062,27.1757812 C52.3710925,27.0585932 52.0781266,27 51.75,27 L51.75,27 Z" id=""></path>
        </g>
    </g>
</svg>
