<?xml version="1.0" encoding="UTF-8" standalone="no"?>
<svg width="72px" height="72px" viewBox="0 0 72 72" version="1.1" xmlns="http://www.w3.org/2000/svg" xmlns:xlink="http://www.w3.org/1999/xlink">
       <path d="M4.21875,18 C4.21875,24.0937805 6.37497844,28.4531119 10.6875,31.078125 C13.3125131,32.671883 16.5468558,33.46875 20.390625,33.46875 C20.5781259,33.46875 20.8124986,33.3750009 21.09375,33.1875 C21.3750014,32.9999991 21.515625,32.90625 21.515625,32.90625 C21.1406231,34.9687603 22.0312392,37.499985 24.1875,40.5 L24.046875,40.5 C22.5468675,40.5 20.9531334,40.5937491 19.265625,40.78125 C17.5781166,40.9687509 15.5390745,41.3906217 13.1484375,42.046875 C10.7578005,42.7031283 8.62500937,43.5703071 6.75,44.6484375 C4.87499062,45.7265679 3.28125656,47.2734274 1.96875,49.2890625 C0.656243438,51.3046976 0,53.6249869 0,56.25 C0,58.9687636 0.609368906,61.3593647 1.828125,63.421875 C3.04688109,65.4843853 4.4765543,67.0312448 6.1171875,68.0625 C7.7578207,69.0937552 9.63280195,69.9374967 11.7421875,70.59375 C13.851573,71.2500033 15.5390562,71.6484368 16.8046875,71.7890625 C18.0703188,71.9296882 19.2187448,72 20.25,72 L20.671875,72 L21.375,72 C26.1562739,72 30.4687308,71.1093839 34.3125,69.328125 C41.1562842,66.2343595 44.578125,60.9375375 44.578125,53.4375 C44.578125,51.2812392 44.0156306,49.1718853 42.890625,47.109375 C41.7656194,45.0468647 40.7109424,43.5234424 39.7265625,42.5390625 C38.7421826,41.5546826 37.3593839,40.3125075 35.578125,38.8125 C32.6718605,36.4687383 31.21875,34.7343806 31.21875,33.609375 C31.21875,32.5781198 32.2968642,31.1250094 34.453125,29.25 C38.3906447,25.9687336 40.359375,21.6562767 40.359375,16.3125 C40.359375,13.0312336 39.9609415,10.4296971 39.1640625,8.5078125 C38.3671835,6.58592789 36.7968867,5.01563109 34.453125,3.796875 C34.6406259,3.70312453 35.8124892,3.51562641 37.96875,3.234375 L38.53125,3.234375 C42.8437716,2.67187219 45,1.73438156 45,0.421875 L45,0 L24.46875,0 C23.9062472,0 23.1328174,0.0468745312 22.1484375,0.140625 C21.1640576,0.234375469 19.5468863,0.632808984 17.296875,1.3359375 C15.0468637,2.03906602 13.0078216,2.97655664 11.1796875,4.1484375 C9.35155336,5.32031836 7.73438203,7.10155055 6.328125,9.4921875 C4.92186797,11.8828245 4.21875,14.7187336 4.21875,18 L4.21875,18 Z M36.5625,54.84375 C36.7500009,57.6562641 35.6718867,60.0468652 33.328125,62.015625 C30.9843633,63.9843848 27.7968952,65.1093736 23.765625,65.390625 C19.7343548,65.6718764 16.2890768,65.015633 13.4296875,63.421875 C10.5702982,61.828117 9.04687594,59.6250141 8.859375,56.8125 C8.67187406,53.9062355 9.89061188,51.3750108 12.515625,49.21875 C15.1406381,46.9687387 18.4218553,45.7031264 22.359375,45.421875 C22.9218778,45.3281245 23.3906231,45.28125 23.765625,45.28125 C27.4218933,45.28125 30.4218633,46.1718661 32.765625,47.953125 C35.1093867,49.7343839 36.3749991,52.0312359 36.5625,54.84375 L36.5625,54.84375 Z M31.359375,14.0625 C32.2968797,17.2500159 32.1796934,20.2968605 31.0078125,23.203125 C29.8359316,26.1093895 28.0312622,27.8906217 25.59375,28.546875 C25.0312472,28.7343759 24.4687528,28.828125 23.90625,28.828125 C21.7499892,28.828125 19.7109471,27.8906344 17.7890625,26.015625 C15.8671779,24.1406156 14.4843792,21.7968891 13.640625,18.984375 C12.7968708,15.8906095 12.8906198,12.9843886 13.921875,10.265625 C14.9531302,7.54686141 16.6406133,5.90625281 18.984375,5.34375 C19.5468778,5.15624906 20.1093722,5.0625 20.671875,5.0625 C23.3906386,5.0625 25.5937416,5.71874344 27.28125,7.03125 C28.9687584,8.34375656 30.3281198,10.6874831 31.359375,14.0625 L31.359375,14.0625 Z M63,27 L63,18 L54,18 L54,27 L45,27 L45,36 L54,36 L54,45 L63,45 L63,36 L72,36 L72,27 L63,27 Z"></path>

</svg>
