<?xml version="1.0" encoding="UTF-8" standalone="no"?>
<svg width="72px" height="72px" viewBox="0 0 72 72" version="1.1" xmlns="http://www.w3.org/2000/svg" xmlns:xlink="http://www.w3.org/1999/xlink">
    <!-- Generator: Sketch 3.8.3 (29802) - http://www.bohemiancoding.com/sketch -->
    <title>images</title>
    <desc>Created with Sketch.</desc>
    <defs></defs>
    <g id="Icons" stroke="none" stroke-width="1">
        <g id="Jarokelo_icons_kepek">
            <path d="M20.25,13.5 C19.3124953,13.5 18.4335979,13.6757795 17.6132812,14.0273438 C16.7929646,14.378908 16.078128,14.859372 15.46875,15.46875 C14.859372,16.078128 14.378908,16.7929646 14.0273438,17.6132812 C13.6757795,18.4335979 13.5,19.3124953 13.5,20.25 C13.5,21.1875047 13.6757795,22.0664021 14.0273438,22.8867188 C14.378908,23.7070354 14.859372,24.421872 15.46875,25.03125 C16.078128,25.640628 16.7929646,26.121092 17.6132812,26.4726562 C18.4335979,26.8242205 19.3124953,27 20.25,27 C21.1875047,27 22.0664021,26.8242205 22.8867188,26.4726562 C23.7070354,26.121092 24.421872,25.640628 25.03125,25.03125 C25.640628,24.421872 26.121092,23.7070354 26.4726562,22.8867188 C26.8242205,22.0664021 27,21.1875047 27,20.25 C27,19.3124953 26.8242205,18.4335979 26.4726562,17.6132812 C26.121092,16.7929646 25.640628,16.078128 25.03125,15.46875 C24.421872,14.859372 23.7070354,14.378908 22.8867188,14.0273438 C22.0664021,13.6757795 21.1875047,13.5 20.25,13.5 L20.25,13.5 Z M20.0390625,22.5703125 C19.7578111,22.5703125 19.4765639,22.5117193 19.1953125,22.3945312 C18.9140611,22.2773432 18.6796884,22.1250009 18.4921875,21.9375 C18.2578113,21.7499991 18.0820318,21.5156264 17.9648438,21.234375 C17.8476557,20.9531236 17.7890625,20.6484391 17.7890625,20.3203125 C17.7890625,20.0390611 17.8476557,19.7578139 17.9648438,19.4765625 C18.0820318,19.1953111 18.2578113,18.9609384 18.4921875,18.7734375 C18.6796884,18.5859366 18.9140611,18.4218757 19.1953125,18.28125 C19.4765639,18.1406243 19.7578111,18.0703125 20.0390625,18.0703125 C20.3671891,18.0703125 20.6718736,18.1406243 20.953125,18.28125 C21.2343764,18.4218757 21.4687491,18.5859366 21.65625,18.7734375 C21.8437509,18.9609384 21.9960932,19.1953111 22.1132812,19.4765625 C22.2304693,19.7578139 22.2890625,20.0390611 22.2890625,20.3203125 C22.2890625,20.6484391 22.2304693,20.9531236 22.1132812,21.234375 C21.9960932,21.5156264 21.8437509,21.7499991 21.65625,21.9375 C21.4687491,22.1250009 21.2343764,22.2773432 20.953125,22.3945312 C20.6718736,22.5117193 20.3671891,22.5703125 20.0390625,22.5703125 L20.0390625,22.5703125 Z M67.5,0 L4.5,0 C3.89062195,0 3.30469031,0.117186328 2.7421875,0.3515625 C2.17968469,0.585938672 1.71093938,0.914060391 1.3359375,1.3359375 C0.914060391,1.71093937 0.585938672,2.17968469 0.3515625,2.7421875 C0.117186328,3.30469031 0,3.89062195 0,4.5 L0,67.5 C0,68.109378 0.117186328,68.6953097 0.3515625,69.2578125 C0.585938672,69.8203153 0.914060391,70.2890606 1.3359375,70.6640625 C1.71093938,71.0859396 2.17968469,71.4140613 2.7421875,71.6484375 C3.30469031,71.8828137 3.89062195,72 4.5,72 L67.5,72 C68.109378,72 68.6953097,71.8828137 69.2578125,71.6484375 C69.8203153,71.4140613 70.2890606,71.0859396 70.6640625,70.6640625 C71.0859396,70.2890606 71.4140613,69.8203153 71.6484375,69.2578125 C71.8828137,68.6953097 72,68.109378 72,67.5 L72,4.5 C72,3.89062195 71.8828137,3.30469031 71.6484375,2.7421875 C71.4140613,2.17968469 71.0859396,1.71093937 70.6640625,1.3359375 C70.2890606,0.914060391 69.8203153,0.585938672 69.2578125,0.3515625 C68.6953097,0.117186328 68.109378,0 67.5,0 L67.5,0 Z M67.5,65.25 C67.5,65.5781266 67.4414068,65.8710925 67.3242188,66.1289062 C67.2070307,66.38672 67.0546884,66.6328113 66.8671875,66.8671875 C66.6328113,67.0546884 66.38672,67.2070307 66.1289062,67.3242188 C65.8710925,67.4414068 65.5781266,67.5 65.25,67.5 L6.75,67.5 C6.42187336,67.5 6.12890754,67.4414068 5.87109375,67.3242188 C5.61327996,67.2070307 5.36718867,67.0546884 5.1328125,66.8671875 C4.94531156,66.6328113 4.79296934,66.38672 4.67578125,66.1289062 C4.55859316,65.8710925 4.5,65.5781266 4.5,65.25 L4.5,58.5 L67.5,58.5 L67.5,65.25 Z M67.5,54 L15.9609375,54 L29.6015625,36.9140625 L45.4921875,48.796875 C45.7734389,49.0312512 46.0546861,49.195312 46.3359375,49.2890625 C46.6171889,49.382813 46.9218734,49.4296875 47.25,49.4296875 C47.5781266,49.4296875 47.8828111,49.382813 48.1640625,49.2890625 C48.4453139,49.195312 48.7265611,49.0312512 49.0078125,48.796875 L67.5,19.0546875 L67.5,54 Z M67.5,10.40625 L46.6875,43.8046875 L31.078125,32.1328125 C30.7968736,31.8984363 30.5039078,31.7343755 30.1992188,31.640625 C29.8945297,31.5468745 29.5781266,31.5 29.25,31.5 C28.9218734,31.5 28.6054703,31.5468745 28.3007812,31.640625 C27.9960922,31.7343755 27.7031264,31.8984363 27.421875,32.1328125 L9.984375,54 L4.5,54 L4.5,6.75 C4.5,6.42187336 4.55859316,6.12890754 4.67578125,5.87109375 C4.79296934,5.61327996 4.94531156,5.36718867 5.1328125,5.1328125 C5.36718867,4.94531156 5.61327996,4.79296934 5.87109375,4.67578125 C6.12890754,4.55859316 6.42187336,4.5 6.75,4.5 L65.25,4.5 C65.5781266,4.5 65.8710925,4.55859316 66.1289062,4.67578125 C66.38672,4.79296934 66.6328113,4.94531156 66.8671875,5.1328125 C67.0546884,5.36718867 67.2070307,5.61327996 67.3242188,5.87109375 C67.4414068,6.12890754 67.5,6.42187336 67.5,6.75 L67.5,10.40625 Z" id=""></path>
        </g>
    </g>
</svg>
