<?xml version="1.0" encoding="utf-8"?>
<!-- Generator: Adobe Illustrator 19.0.0, SVG Export Plug-In . SVG Version: 6.00 Build 0)  -->
<svg version="1.1" id="Layer_1" xmlns="http://www.w3.org/2000/svg" xmlns:xlink="http://www.w3.org/1999/xlink" x="0px" y="0px"
	 viewBox="-454.1 256.9 47.3 47.3" style="enable-background:new -454.1 256.9 47.3 47.3;" xml:space="preserve">
<path id="instagram" d="M-416.2,280.5c0-1-0.1-1.9-0.3-2.8h9.7v18.9c0,2.1-0.7,3.8-2.1,5.3c-1.4,1.5-3.2,2.2-5.2,2.2
	h-32.6c-2.1,0-3.8-0.7-5.2-2.2c-1.4-1.5-2.1-3.2-2.1-5.3v-18.9h9.6c-0.1,0.4-0.1,0.9-0.2,1.3s-0.1,0.9-0.1,1.4c0,2,0.4,3.8,1.1,5.6
	c0.7,1.7,1.8,3.2,3.1,4.5c1.3,1.3,2.8,2.3,4.6,3.1c1.7,0.8,3.6,1.2,5.6,1.2s3.8-0.4,5.6-1.2c1.7-0.8,3.2-1.8,4.5-3.1
	c1.3-1.3,2.3-2.8,3.1-4.5C-416.6,284.3-416.2,282.5-416.2,280.5L-416.2,280.5z M-414.2,256.9c2.1,0,3.8,0.7,5.2,2.1
	c1.4,1.4,2.1,3.2,2.1,5.2v8h-12c-1.3-1.9-3-3.4-5-4.5c-2-1.1-4.2-1.6-6.7-1.6s-4.7,0.5-6.7,1.6c-2.1,1.1-3.7,2.5-5,4.5h-12v-8
	c0-2.1,0.7-3.8,2.1-5.2c1.4-1.4,3.2-2.1,5.2-2.1H-414.2z M-410.7,262c0-0.9-0.4-1.3-1.3-1.3h-4c-0.4,0-0.7,0.1-0.9,0.4
	c-0.3,0.3-0.4,0.6-0.4,0.9v4c0,0.4,0.1,0.7,0.4,0.9c0.3,0.3,0.6,0.4,0.9,0.4h4c0.4,0,0.7-0.1,0.9-0.4c0.3-0.3,0.4-0.6,0.4-0.9V262z
	 M-421.7,280.5c0,2.4-0.9,4.5-2.6,6.2c-1.7,1.7-3.8,2.6-6.2,2.6s-4.5-0.9-6.2-2.6c-1.7-1.7-2.6-3.8-2.6-6.2c0-2.5,0.9-4.6,2.6-6.3
	c1.7-1.7,3.8-2.5,6.2-2.5s4.5,0.8,6.2,2.5C-422.6,275.9-421.7,278-421.7,280.5L-421.7,280.5z"/>
</svg>
