<?xml version="1.0" encoding="utf-8"?>
<!-- Generator: Adobe Illustrator 18.1.1, SVG Export Plug-In . SVG Version: 6.00 Build 0)  -->
<!DOCTYPE svg PUBLIC "-//W3C//DTD SVG 1.1//EN" "http://www.w3.org/Graphics/SVG/1.1/DTD/svg11.dtd">
<svg version="1.1" id="Layer_1" xmlns="http://www.w3.org/2000/svg" xmlns:xlink="http://www.w3.org/1999/xlink" x="0px" y="0px"
	 viewBox="0 0 72 72" enable-background="new 0 0 72 72" xml:space="preserve">
<path d="M63-100c0.6,0,1.2,0.1,1.8,0.4c0.6,0.2,1,0.6,1.4,1c0.4,0.4,0.7,0.9,1,1.4c0.2,0.5,0.4,1.1,0.4,1.7V-46
	c0,0.8-0.1,1.6-0.3,2.4c-0.2,0.8-0.5,1.5-0.9,2.2c-0.4,0.7-0.8,1.3-1.4,1.8c-0.6,0.5-1.2,1-1.8,1.4v8c0,0.3-0.1,0.6-0.2,0.9
	c-0.1,0.3-0.3,0.5-0.5,0.7c-0.2,0.2-0.5,0.3-0.7,0.5c-0.3,0.1-0.6,0.2-0.9,0.2c-0.3,0-0.6-0.1-0.9-0.2c-0.3-0.1-0.5-0.3-0.7-0.5
	c-0.2-0.2-0.3-0.5-0.5-0.7c-0.1-0.3-0.2-0.6-0.2-0.9V-37h-45v6.7c0,0.3-0.1,0.6-0.2,0.9c-0.1,0.3-0.3,0.5-0.5,0.7
	c-0.2,0.2-0.5,0.3-0.7,0.5c-0.3,0.1-0.6,0.2-0.9,0.2c-0.3,0-0.6-0.1-0.9-0.2c-0.3-0.1-0.5-0.3-0.7-0.5c-0.2-0.2-0.3-0.5-0.5-0.7
	C9.1-29.6,9-29.9,9-30.2v-8c-0.7-0.4-1.3-0.8-1.8-1.4c-0.6-0.5-1-1.1-1.4-1.8c-0.4-0.7-0.7-1.4-0.9-2.2c-0.2-0.7-0.3-1.5-0.3-2.4
	v-49.5c0-0.6,0.1-1.2,0.4-1.7c0.2-0.5,0.6-1,1-1.4c0.4-0.4,0.8-0.7,1.4-1C7.8-99.9,8.4-100,9-100H63z M63-82v-11.2
	c0-0.3-0.1-0.6-0.2-0.9c-0.1-0.3-0.3-0.5-0.5-0.7c-0.2-0.2-0.5-0.3-0.7-0.5c-0.3-0.1-0.6-0.2-0.9-0.2H11.3c-0.3,0-0.6,0.1-0.9,0.2
	c-0.3,0.1-0.5,0.3-0.7,0.5c-0.2,0.2-0.3,0.5-0.5,0.7C9.1-93.9,9-93.6,9-93.3V-82H63z M63-57.2v-20.3H9V-55h54V-57.2z M13.5-41.5
	c0.6,0,1.2-0.1,1.8-0.4c0.6-0.2,1-0.6,1.4-1c0.4-0.4,0.7-0.8,1-1.4c0.2-0.6,0.4-1.1,0.4-1.8c0-0.6-0.1-1.2-0.4-1.7
	c-0.2-0.5-0.6-1-1-1.4c-0.4-0.4-0.8-0.8-1.4-1c-0.6-0.2-1.1-0.4-1.8-0.4c-0.6,0-1.2,0.1-1.8,0.4c-0.6,0.2-1,0.6-1.4,1
	c-0.4,0.4-0.8,0.9-1,1.4C9.1-47.2,9-46.6,9-46c0,0.6,0.1,1.2,0.4,1.8c0.2,0.6,0.6,1,1,1.4c0.4,0.4,0.8,0.8,1.4,1
	C12.3-41.6,12.9-41.5,13.5-41.5z M50.8-41.5c-0.2-0.3-0.4-0.7-0.5-1c-0.2-0.4-0.3-0.7-0.4-1.1c-0.1-0.4-0.2-0.8-0.3-1.2
	c0-0.4-0.1-0.8-0.1-1.2c0-0.4,0-0.8,0.1-1.2c0-0.4,0.1-0.8,0.3-1.2c0.1-0.4,0.2-0.7,0.4-1.1c0.2-0.4,0.3-0.7,0.5-1H21.2
	c0.2,0.3,0.4,0.7,0.5,1c0.2,0.4,0.3,0.7,0.4,1.1c0.1,0.4,0.2,0.8,0.3,1.2c0,0.4,0.1,0.8,0.1,1.2c0,0.4,0,0.8-0.1,1.2
	c0,0.4-0.1,0.8-0.3,1.2c-0.1,0.4-0.2,0.7-0.4,1.1c-0.2,0.4-0.3,0.7-0.5,1H50.8z M27-86.5V-91h18v4.5H27z M58.5-41.5
	c0.6,0,1.2-0.1,1.8-0.4c0.6-0.2,1-0.6,1.4-1c0.4-0.4,0.7-0.8,1-1.4c0.2-0.6,0.4-1.1,0.4-1.8c0-0.6-0.1-1.2-0.4-1.7
	c-0.2-0.5-0.6-1-1-1.4c-0.4-0.4-0.8-0.8-1.4-1c-0.6-0.2-1.1-0.4-1.8-0.4c-0.6,0-1.2,0.1-1.8,0.4c-0.6,0.2-1,0.6-1.4,1
	c-0.4,0.4-0.8,0.9-1,1.4C54.1-47.2,54-46.6,54-46c0,0.6,0.1,1.2,0.4,1.8c0.2,0.6,0.6,1,1,1.4c0.4,0.4,0.8,0.8,1.4,1
	C57.3-41.6,57.9-41.5,58.5-41.5z"/>
<path d="M54,13.5h18V72H0V13.5h18V0h36V13.5z M18,67.5V18H4.5v49.5H18z M13.5,27v4.5H9V27H13.5z M13.5,40.5V45H9v-4.5H13.5z
	 M13.5,54v4.5H9V54H13.5z M49.5,13.5v-9h-27v63H27V54h18v13.5h4.5V13.5z M45,13.5V18H27v-4.5H45z M45,27v4.5H27V27H45z M45,40.5V45
	H27v-4.5H45z M40.5,67.5v-9h-9v9H40.5z M67.5,67.5V18H54v49.5H67.5z M63,27v4.5h-4.5V27H63z M63,40.5V45h-4.5v-4.5H63z M63,54v4.5
	h-4.5V54H63z"/>
</svg>
