<?xml version="1.0" encoding="UTF-8" standalone="no"?>
<svg width="72px" height="72px" viewBox="0 0 72 72" version="1.1" xmlns="http://www.w3.org/2000/svg" xmlns:xlink="http://www.w3.org/1999/xlink">
    <!-- Generator: Sketch 39.1 (31720) - http://www.bohemiancoding.com/sketch -->
    <title>Jarokelo_icons_like</title>
    <desc>Created with Sketch.</desc>
    <defs></defs>
    <g id="Icons" stroke="#9bd158" stroke-width="3" stroke-opacity="1">
        <g id="Jarokelo_icons_like">
            <path d="M67.7738468,47.7591224 C68.7097342,47.1938427 69.1776779,46.394032 69.1776779,45.365704 C69.1776779,44.1389268 68.8057226,43.1526941 68.0558128,42.4009924 C67.2099146,41.5590864 66.8379593,40.7111669 66.9279485,39.8692609 C67.023937,39.3039812 67.4018915,38.6905926 68.0558128,38.0351087 C68.8957118,37.3736112 69.1776779,36.2490654 68.8957118,34.6494441 C68.5237565,32.3943388 67.5398749,30.9871532 65.9440669,30.4218735 L65.386134,30.2835604 C63.2263938,29.4356408 57.1371264,29.2492188 47.1063331,29.7182807 C46.5424009,29.7182807 46.1224514,29.4837497 45.8404854,29.0146878 C44.8086095,27.2286445 45.6965027,23.5663536 48.5101642,18.0218016 C48.8881187,17.3603041 49.3080682,16.5665071 49.7760119,15.6223697 C50.5259217,13.7461221 50.855882,11.677439 50.7598935,9.42233375 C50.6639051,7.16722853 50.1479672,5.42929412 49.2120797,4.20853049 C48.5581584,3.36061093 47.5262826,2.93965796 46.1224514,2.93965796 C44.9945871,3.03587578 44.1966831,3.31250202 43.7287394,3.78757752 C43.4467733,8.67063201 42.8888404,12.0322422 42.0429422,13.8603808 C41.197044,15.694533 39.8892013,17.3182088 38.1074156,18.7253945 L37.5434835,19.1463474 C36.6075961,19.8980492 35.2937541,21.2390851 33.6079569,23.1634415 C31.9161605,25.087798 30.8902839,26.4769428 30.5123293,27.3248623 C30.2303633,27.9803462 29.8824051,28.8282658 29.4564564,29.8565938 C29.0365069,30.8909354 28.7305437,31.5945282 28.5445661,31.9733859 C26.7627804,36.7662362 25.5449269,39.6768253 24.8910056,40.7111669 C24.231085,41.7455085 23.2472033,42.2626793 21.9333614,42.2626793 L19.683632,42.2626793 L19.683632,65.7999641 L34.5918386,68.4760223 L35.2937541,68.620349 C35.7616978,68.620349 36.3496271,68.6444034 37.0515427,68.6864987 C37.7534582,68.7346077 38.5993565,68.7827166 39.5832381,68.8308255 C40.5671197,68.8789344 41.6469898,68.9450841 42.8168491,69.041302 C43.9867084,69.1375198 45.1565676,69.1856287 46.3324262,69.1856287 L49.9139953,69.1856287 C51.1378481,69.1856287 52.2597131,69.1615742 53.291589,69.1134653 C54.3234648,69.0653564 55.3073465,68.993193 56.2432339,68.9029888 C57.1791213,68.806771 57.9290311,68.6684579 58.4929633,68.4760223 C61.4026132,67.7243205 62.992422,66.4133527 63.274388,64.5310915 C63.4603657,63.5929678 63.5563541,62.6969393 63.5563541,61.8550333 C63.5563541,61.0071138 63.6943375,60.303521 63.9763036,59.7382413 C64.1622812,59.4556014 64.7262134,58.9384306 65.6621008,58.1867289 C66.7899651,57.531245 67.4438864,56.4969034 67.6358634,55.0897177 C67.821841,53.8689541 67.6358634,52.8827214 67.0719312,52.1310197 C66.4120106,51.4695221 66.1360438,50.7178204 66.226033,49.8759145 C66.3220214,48.9317771 66.8379593,48.2281842 67.7738468,47.7591224 L67.7738468,47.7591224 Z M67.7738468,47.7591224 C68.7097342,47.1938427 69.1776779,46.394032 69.1776779,45.365704 C69.1776779,44.1389268 68.8057226,43.1526941 68.0558128,42.4009924 C67.2099146,41.5590864 66.8379593,40.7111669 66.9279485,39.8692609 C67.023937,39.3039812 67.4018915,38.6905926 68.0558128,38.0351087 C68.8957118,37.3736112 69.1776779,36.2490654 68.8957118,34.6494441 C68.5237565,32.3943388 67.5398749,30.9871532 65.9440669,30.4218735 L65.386134,30.2835604 C63.2263938,29.4356408 57.1371264,29.2492188 47.1063331,29.7182807 C46.5424009,29.7182807 46.1224514,29.4837497 45.8404854,29.0146878 C44.8086095,27.2286445 45.6965027,23.5663536 48.5101642,18.0218016 C48.8881187,17.3603041 49.3080682,16.5665071 49.7760119,15.6223697 C50.5259217,13.7461221 50.855882,11.677439 50.7598935,9.42233375 C50.6639051,7.16722853 50.1479672,5.42929412 49.2120797,4.20853049 C48.5581584,3.36061093 47.5262826,2.93965796 46.1224514,2.93965796 C44.9945871,3.03587578 44.1966831,3.31250202 43.7287394,3.78757752 C43.4467733,8.67063201 42.8888404,12.0322422 42.0429422,13.8603808 C41.197044,15.694533 39.8892013,17.3182088 38.1074156,18.7253945 L37.5434835,19.1463474 C36.6075961,19.8980492 35.2937541,21.2390851 33.6079569,23.1634415 C31.9161605,25.087798 30.8902839,26.4769428 30.5123293,27.3248623 C30.2303633,27.9803462 29.8824051,28.8282658 29.4564564,29.8565938 C29.0365069,30.8909354 28.7305437,31.5945282 28.5445661,31.9733859 C26.7627804,36.7662362 25.5449269,39.6768253 24.8910056,40.7111669 C24.231085,41.7455085 23.2472033,42.2626793 21.9333614,42.2626793 L19.683632,42.2626793 L19.683632,65.7999641 L34.5918386,68.4760223 L35.2937541,68.620349 C35.7616978,68.620349 36.3496271,68.6444034 37.0515427,68.6864987 C37.7534582,68.7346077 38.5993565,68.7827166 39.5832381,68.8308255 C40.5671197,68.8789344 41.6469898,68.9450841 42.8168491,69.041302 C43.9867084,69.1375198 45.1565676,69.1856287 46.3324262,69.1856287 L49.9139953,69.1856287 C51.1378481,69.1856287 52.2597131,69.1615742 53.291589,69.1134653 C54.3234648,69.0653564 55.3073465,68.993193 56.2432339,68.9029888 C57.1791213,68.806771 57.9290311,68.6684579 58.4929633,68.4760223 C61.4026132,67.7243205 62.992422,66.4133527 63.274388,64.5310915 C63.4603657,63.5929678 63.5563541,62.6969393 63.5563541,61.8550333 C63.5563541,61.0071138 63.6943375,60.303521 63.9763036,59.7382413 C64.1622812,59.4556014 64.7262134,58.9384306 65.6621008,58.1867289 C66.7899651,57.531245 67.4438864,56.4969034 67.6358634,55.0897177 C67.821841,53.8689541 67.6358634,52.8827214 67.0719312,52.1310197 C66.4120106,51.4695221 66.1360438,50.7178204 66.226033,49.8759145 C66.3220214,48.9317771 66.8379593,48.2281842 67.7738468,47.7591224 L67.7738468,47.7591224 Z M2.81366151,66.9305235 L16.8759698,66.9305235 L16.8759698,40.5728538 L2.81366151,40.5728538 L2.81366151,66.9305235 Z M69.1776779,50.2968674 C70.2095537,51.5176311 70.6355025,53.2074566 70.4435256,55.3723576 C70.1615595,57.531245 69.0396945,59.2210705 67.0719312,60.4418341 C66.8859536,60.5380519 66.6519817,60.7244739 66.3700156,61.0071138 L66.3700156,61.7107066 C66.3700156,62.7450482 66.2740272,63.8274987 66.0880496,64.9520445 C65.6201059,67.7724294 63.3223823,69.8411126 59.1948788,71.1580941 C57.0411379,71.7173601 53.8975161,72 49.7760119,72 C47.622271,72 45.3245474,71.9338502 42.8888404,71.7895235 C40.4471342,71.6512104 38.4313767,71.5309381 36.8415679,71.4407339 L34.3098725,71.1580941 L19.683632,68.620349 C19.4976544,69.3720507 19.0297107,69.7448948 18.2798009,69.7448948 L1.40383112,69.7448948 C0.467943706,69.7448948 0,69.2758329 0,68.3377091 L0,39.1596545 C0,38.2215307 0.467943706,37.7524688 1.40383112,37.7524688 L18.2798009,37.7524688 C19.2156883,37.7524688 19.683632,38.2215307 19.683632,39.1596545 L19.683632,39.4422943 L21.9333614,39.4422943 C22.3113159,39.4422943 22.7072683,38.9972869 23.1332171,38.1072721 C23.5531665,37.2112436 24.5130511,34.8418797 26.0128706,30.9871532 C26.7627804,29.104892 27.3747068,27.5593933 27.8426505,26.332616 C28.3105942,25.2080702 29.5284477,23.5422992 31.496211,21.3292893 C33.4639743,19.122293 34.9157996,17.6429439 35.8576863,16.8912422 L36.4156192,16.6086024 C37.3575059,15.8569006 38.0594214,15.2014167 38.5273651,14.636137 C38.9953088,14.0708573 39.4632525,12.8741481 39.9311962,11.0460095 C40.4051392,9.21185726 40.7291003,6.69816665 40.9150779,3.50493767 C41.1070548,2.00153419 42.2289198,0.967192601 44.2926716,0.401912894 C47.1063331,-0.536210874 49.4460516,0.167381952 51.3238257,2.51870499 C52.5416792,4.11231267 53.2675919,6.27721368 53.5015637,9.00138077 C53.7355356,11.7255479 53.3395832,14.2632929 52.3077073,16.6086024 C51.9297528,17.6429439 51.5098033,18.5389724 51.0418596,19.2906742 C49.0740963,22.952965 48.0902147,25.4907101 48.0902147,26.8978957 C57.9290311,26.5250517 64.0722921,26.8076915 66.507999,27.7458153 L66.9279485,27.8841284 C68.3377789,28.3531903 69.4116497,29.0146878 70.1615595,29.8565938 C70.9114693,30.7045133 71.4274072,32.1598079 71.7093733,34.2284911 C72.177317,36.7662362 71.5713899,38.7387015 69.8855927,40.1458872 L69.74161,40.1458872 L69.8855927,40.2902139 C71.3854123,41.5109775 72.0873278,43.200803 71.9913394,45.365704 C71.8953509,47.6208092 70.9594635,49.2625258 69.1776779,50.2968674 L69.1776779,50.2968674 Z" id="Fill-1"></path>
        </g>
    </g>
</svg>
