<?xml version="1.0" encoding="UTF-8" standalone="no"?>
<svg width="25px" height="31px" viewBox="0 0 25 31" version="1.1" xmlns="http://www.w3.org/2000/svg" xmlns:xlink="http://www.w3.org/1999/xlink">
    <!-- Generator: Sketch 39.1 (31720) - http://www.bohemiancoding.com/sketch -->
    <title>lock</title>
    <desc>Created with Sketch.</desc>
    <defs></defs>
    <g id="icons">
        <path d="M19.375,14.6738281 L19.375,8.63867188 C19.375,7.56444775 19.1552756,6.55859844 18.7158203,5.62109375 C18.276365,4.68358906 17.6757851,3.86328477 16.9140625,3.16015625 C16.1523399,2.45702773 15.2587942,1.90039268 14.2333984,1.49023438 C13.2080027,1.08007607 12.1093809,0.875 10.9375,0.875 C9.76561914,0.875 8.66699731,1.08007607 7.64160156,1.49023438 C6.61620581,1.90039268 5.72266006,2.45702773 4.9609375,3.16015625 C4.19921494,3.86328477 3.59863501,4.68358906 3.15917969,5.62109375 C2.71972437,6.55859844 2.5,7.56444775 2.5,8.63867188 L2.5,14.6738281 C2.20702979,15.0839864 1.94336055,15.5185524 1.70898438,15.9775391 C1.4746082,16.4365257 1.27929766,16.9199193 1.12304688,17.4277344 C0.966796094,17.9160181 0.844727002,18.4238255 0.756835938,18.9511719 C0.668944873,19.4785183 0.625,20.0156223 0.625,20.5625 C0.625,21.9882884 0.893552002,23.3261656 1.43066406,24.5761719 C1.96777612,25.8261781 2.70507344,26.9199172 3.64257812,27.8574219 C4.58008281,28.7949266 5.67382188,29.5322239 6.92382812,30.0693359 C8.17383437,30.606448 9.51171162,30.875 10.9375,30.875 C12.3632884,30.875 13.7011656,30.606448 14.9511719,30.0693359 C16.2011781,29.5322239 17.2949172,28.7949266 18.2324219,27.8574219 C19.1699266,26.9199172 19.9072239,25.8261781 20.4443359,24.5761719 C20.981448,23.3261656 21.25,21.9882884 21.25,20.5625 C21.25,20.0156223 21.2060551,19.4785183 21.1181641,18.9511719 C21.030273,18.4238255 20.9082039,17.9160181 20.7519531,17.4277344 C20.5957023,16.9199193 20.4003918,16.4365257 20.1660156,15.9775391 C19.9316395,15.5185524 19.6679702,15.0839864 19.375,14.6738281 L19.375,14.6738281 Z M4.375,8.609375 C4.375,7.80858975 4.54589673,7.05176138 4.88769531,6.33886719 C5.2294939,5.625973 5.70312197,5.00586201 6.30859375,4.47851562 C6.89453418,3.95116924 7.58788662,3.53125156 8.38867188,3.21875 C9.18945713,2.90624844 10.039058,2.75 10.9375,2.75 C11.835942,2.75 12.6855429,2.90624844 13.4863281,3.21875 C14.2871134,3.53125156 14.9804658,3.95116924 15.5664062,4.47851562 C16.171878,5.00586201 16.6455061,5.625973 16.9873047,6.33886719 C17.3291033,7.05176138 17.5,7.80858975 17.5,8.609375 L17.5,12.6816406 C17.050779,12.310545 16.5722682,11.9736343 16.0644531,11.6708984 C15.5566381,11.3681625 15.0292996,11.1093761 14.4824219,10.8945312 C13.9355441,10.6992178 13.3642608,10.5429693 12.7685547,10.4257812 C12.1728486,10.3085932 11.5625031,10.25 10.9375,10.25 C10.3124969,10.25 9.70215142,10.3085932 9.10644531,10.4257812 C8.51073921,10.5429693 7.93945586,10.6992178 7.39257812,10.8945312 C6.84570039,11.1093761 6.31836191,11.3681625 5.81054688,11.6708984 C5.30273184,11.9736343 4.824221,12.310545 4.375,12.6816406 L4.375,8.609375 Z M10.9375,29 C9.76561914,29 8.66699731,28.7802756 7.64160156,28.3408203 C6.61620581,27.901365 5.72266006,27.3007851 4.9609375,26.5390625 C4.19921494,25.7773399 3.59863501,24.8837942 3.15917969,23.8583984 C2.71972437,22.8330027 2.5,21.7343809 2.5,20.5625 C2.5,19.3906191 2.71972437,18.2968801 3.15917969,17.28125 C3.59863501,16.2656199 4.19921494,15.3671914 4.9609375,14.5859375 C5.72266006,13.8242149 6.61620581,13.223635 7.64160156,12.7841797 C8.66699731,12.3447244 9.76561914,12.125 10.9375,12.125 C12.1093809,12.125 13.2080027,12.3447244 14.2333984,12.7841797 C15.2587942,13.223635 16.1523399,13.8242149 16.9140625,14.5859375 C17.6757851,15.3671914 18.276365,16.2656199 18.7158203,17.28125 C19.1552756,18.2968801 19.375,19.3906191 19.375,20.5625 C19.375,21.7343809 19.1552756,22.8330027 18.7158203,23.8583984 C18.276365,24.8837942 17.6757851,25.7773399 16.9140625,26.5390625 C16.1523399,27.3007851 15.2587942,27.901365 14.2333984,28.3408203 C13.2080027,28.7802756 12.1093809,29 10.9375,29 L10.9375,29 Z M10.9375,17.75 C10.8007806,17.75 10.6787115,17.7744138 10.5712891,17.8232422 C10.4638667,17.8720706 10.3613286,17.9355465 10.2636719,18.0136719 C10.1855465,18.1113286 10.1220706,18.2138667 10.0732422,18.3212891 C10.0244138,18.4287115 10,18.5507806 10,18.6875 L10,22.4375 C10,22.5742194 10.0244138,22.6962885 10.0732422,22.8037109 C10.1220706,22.9111333 10.1855465,23.0136714 10.2636719,23.1113281 C10.3613286,23.1894535 10.4638667,23.2529294 10.5712891,23.3017578 C10.6787115,23.3505862 10.8007806,23.375 10.9375,23.375 C11.0742194,23.375 11.1962885,23.3505862 11.3037109,23.3017578 C11.4111333,23.2529294 11.5136714,23.1894535 11.6113281,23.1113281 C11.6894535,23.0136714 11.7529294,22.9111333 11.8017578,22.8037109 C11.8505862,22.6962885 11.875,22.5742194 11.875,22.4375 L11.875,18.6875 C11.875,18.5507806 11.8505862,18.4287115 11.8017578,18.3212891 C11.7529294,18.2138667 11.6894535,18.1113286 11.6113281,18.0136719 C11.5136714,17.9355465 11.4111333,17.8720706 11.3037109,17.8232422 C11.1962885,17.7744138 11.0742194,17.75 10.9375,17.75 L10.9375,17.75 Z" id="lock"></path>
    </g>
</svg>
