<?xml version="1.0" encoding="UTF-8" standalone="no"?>
<svg width="72px" height="72px" viewBox="0 0 72 72" version="1.1" xmlns="http://www.w3.org/2000/svg" xmlns:xlink="http://www.w3.org/1999/xlink">
    <path d="M47.9578018,50.9612234 L68.34375,71.3671875 C68.5312509,71.5546884 68.753905,71.7070307 69.0117187,71.8242188 C69.2695325,71.9414068 69.5390611,72 69.8203125,72 C70.1015639,72 70.3710925,71.9414068 70.6289062,71.8242188 C70.88672,71.7070307 71.1328113,71.5546884 71.3671875,71.3671875 C71.5546884,71.1328113 71.7070307,70.88672 71.8242187,70.6289063 C71.9414068,70.3710925 72,70.1015639 72,69.8203125 C72,69.5859363 71.9414068,69.3281264 71.8242187,69.046875 C71.7070307,68.7656236 71.5546884,68.5312509 71.3671875,68.34375 L50.9590163,47.9603571 C52.9197901,45.6905354 54.5115654,43.1327433 55.734375,40.2869318 C57.2447992,36.7717627 58,33.0094897 58,29 C58,24.9905103 57.2447992,21.2282373 55.734375,17.7130682 C54.2239508,14.1978991 52.1505814,11.1221723 49.5142045,8.48579545 C46.8778277,5.84941864 43.8021009,3.77604922 40.2869318,2.265625 C36.7717627,0.755200781 33.0094897,0 29,0 C24.9905103,0 21.2282373,0.755200781 17.7130682,2.265625 C14.1978991,3.77604922 11.1221723,5.84941864 8.48579545,8.48579545 C5.84941864,11.1221723 3.77604922,14.1978991 2.265625,17.7130682 C0.755200781,21.2282373 0,24.9905103 0,29 C0,33.0094897 0.755200781,36.7717627 2.265625,40.2869318 C3.77604922,43.8021009 5.84941864,46.8778277 8.48579545,49.5142045 C11.1221723,52.1505814 14.1978991,54.2239508 17.7130682,55.734375 C21.2282373,57.2447992 24.9905103,58 29,58 C33.0094897,58 36.7717627,57.2447992 40.2869318,55.734375 C43.1316754,54.5120242 45.6886158,52.9209847 47.9578018,50.9612234 Z M29,54 C25.5435433,54 22.3002045,53.3489648 19.2698864,52.046875 C16.2395682,50.7447852 13.5880795,48.9573977 11.3153409,46.6846591 C9.04260227,44.4119205 7.25521484,41.7604318 5.953125,38.7301136 C4.65103516,35.6997955 4,32.4564567 4,29 C4,25.5435433 4.65103516,22.3002045 5.953125,19.2698864 C7.25521484,16.2395682 9.04260227,13.5880795 11.3153409,11.3153409 C13.5880795,9.04260227 16.2395682,7.25521484 19.2698864,5.953125 C22.3002045,4.65103516 25.5435433,4 29,4 C32.4564567,4 35.6997955,4.65103516 38.7301136,5.953125 C41.7604318,7.25521484 44.4119205,9.04260227 46.6846591,11.3153409 C48.9573977,13.5880795 50.7447852,16.2395682 52.046875,19.2698864 C53.3489648,22.3002045 54,25.5435433 54,29 C54,32.4564567 53.3489648,35.6997955 52.046875,38.7301136 C50.7447852,41.7604318 48.9573977,44.4119205 46.6846591,46.6846591 C44.4119205,48.9573977 41.7604318,50.7447852 38.7301136,52.046875 C35.6997955,53.3489648 32.4564567,54 29,54 Z" id="Combined-Shape"></path>
</svg>