<?xml version="1.0" encoding="utf-8"?>
<!-- Generator: Adobe Illustrator 19.0.0, SVG Export Plug-In . SVG Version: 6.00 Build 0)  -->
<svg version="1.1" id="Layer_1" xmlns="http://www.w3.org/2000/svg" xmlns:xlink="http://www.w3.org/1999/xlink" x="0px" y="0px"
	 viewBox="-457 260 44 42" style="enable-background:new -457 260 44 42;" xml:space="preserve">
<path id="map" d="M-433.6,274.2c-0.2,0-0.4,0-0.5,0.1s-0.3,0.2-0.5,0.3c-0.1,0.1-0.2,0.3-0.3,0.5s-0.1,0.3-0.1,0.5v15.1
	c0,0.2,0,0.4,0.1,0.5s0.2,0.3,0.3,0.5c0.1,0.1,0.3,0.2,0.5,0.3s0.3,0.1,0.5,0.1s0.4,0,0.5-0.1s0.3-0.2,0.5-0.3
	c0.1-0.1,0.2-0.3,0.3-0.5s0.1-0.3,0.1-0.5v-15.1c0-0.2,0-0.4-0.1-0.5s-0.2-0.3-0.3-0.5c-0.1-0.1-0.3-0.2-0.5-0.3
	S-433.4,274.2-433.6,274.2L-433.6,274.2z M-444.6,270.1c-0.2,0-0.4,0-0.5,0.1s-0.3,0.2-0.5,0.3c-0.1,0.1-0.2,0.3-0.3,0.5
	s-0.1,0.3-0.1,0.5v17.9c0,0.2,0,0.4,0.1,0.5s0.2,0.3,0.3,0.5c0.1,0.1,0.3,0.2,0.5,0.3s0.3,0.1,0.5,0.1s0.4,0,0.5-0.1
	s0.3-0.2,0.5-0.3c0.1-0.1,0.2-0.3,0.3-0.5s0.1-0.3,0.1-0.5v-17.9c0-0.2,0-0.4-0.1-0.5s-0.2-0.3-0.3-0.5c-0.1-0.1-0.3-0.2-0.5-0.3
	S-444.4,270.1-444.6,270.1L-444.6,270.1z M-424,286.6c0,0.2,0,0.4,0.1,0.5s0.2,0.3,0.3,0.5c0.1,0.1,0.3,0.2,0.5,0.3s0.3,0.1,0.5,0.1
	s0.4,0,0.5-0.1s0.3-0.2,0.5-0.3c0.1-0.1,0.2-0.3,0.3-0.5s0.1-0.3,0.1-0.5v-17.9c0-0.2,0-0.4-0.1-0.5s-0.2-0.3-0.3-0.5
	c-0.1-0.1-0.3-0.2-0.5-0.3s-0.3-0.1-0.5-0.1s-0.4,0-0.5,0.1s-0.3,0.2-0.5,0.3c-0.1,0.1-0.2,0.3-0.3,0.5s-0.1,0.3-0.1,0.5V286.6z
	 M-424,260.5l-9.6,8.2l-12.4-5.5l-11,5.5v33l11-5.5l12.4,2.8l9.6-5.5l11,5.5v-31.6L-424,260.5z M-415.8,294.9l-8.2-4.1l-9.6,5.5
	l-12.4-2.8l-8.2,4.1v-27.5l8.2-4.1l12.4,5.5l9.6-8.2l8.2,5.5V294.9z"/>
</svg>
