<?xml version="1.0" encoding="UTF-8" standalone="no"?>
<svg width="72px" height="72px" viewBox="0 0 72 72" version="1.1" xmlns="http://www.w3.org/2000/svg" xmlns:xlink="http://www.w3.org/1999/xlink">
    <!-- Generator: Sketch 3.8.3 (29802) - http://www.bohemiancoding.com/sketch -->
    <title>paypal</title>
    <desc>Created with Sketch.</desc>
    <defs></defs>
    <g id="Icons" stroke="none" stroke-width="1" fill="none" fill-rule="evenodd">
        <g id="Jarokelo_icons_paypal" fill="#BDBDBD">
            <path d="M64.6875,14.34375 C65.8125056,16.5000108 66.375,19.1718591 66.375,22.359375 C66.375,29.1094088 63.3281555,34.687478 57.234375,39.09375 C51.8905983,43.0312697 43.3594336,45 31.640625,45 L29.109375,45 C28.1718703,45 27.2812542,45.445308 26.4375,46.3359375 C25.5937458,47.226567 25.0312514,48.1874948 24.75,49.21875 L21.65625,63.28125 C21.4687491,64.2187547 20.929692,65.1562453 20.0390625,66.09375 C19.148433,67.0312547 18.2812542,67.5 17.4375,67.5 L11.8125,67.5 L11.25,69.1875 C11.0624991,70.0312542 11.2265599,70.7109349 11.7421875,71.2265625 C12.2578151,71.7421901 13.0312448,72 14.0625,72 L23.0625,72 C24.0000047,72 24.8906208,71.6718783 25.734375,71.015625 C26.5781292,70.3593717 27.0937491,69.5625047 27.28125,68.625 L30.375,56.390625 C30.7500019,54.796867 32.1562378,54 34.59375,54 L37.265625,54 C47.3906756,54 55.9218403,51.4687753 62.859375,46.40625 C68.9531555,41.9062275 72,35.9062875 72,28.40625 C72,25.0312331 71.4375056,22.2656358 70.3125,20.109375 C69.0937439,17.8593637 67.4531353,16.0781316 65.390625,14.765625 C65.2968745,14.765625 65.1796882,14.7187505 65.0390625,14.625 C64.8984368,14.5312495 64.7812505,14.4375005 64.6875,14.34375 L64.6875,14.34375 Z M15.46875,59.484375 L18.421875,45 C18.7031264,43.9687448 19.2421835,42.9609424 20.0390625,41.9765625 C20.8359415,40.9921826 21.7031203,40.5 22.640625,40.5 L25.03125,40.5 C36.3750567,40.5 44.5780997,38.5312697 49.640625,34.59375 C55.5469045,29.999977 58.5,24.0937861 58.5,16.875 C58.5,13.7812345 57.9375056,11.1093863 56.8125,8.859375 C55.7812448,6.79686469 54.1875108,5.06250703 52.03125,3.65625 C50.0624902,2.34374344 47.57814,1.40625281 44.578125,0.84375 C41.8593614,0.281247187 38.4843952,0 34.453125,0 L16.453125,0 C15.5156203,0 14.6250042,0.328121719 13.78125,0.984375 C12.9374958,1.64062828 12.4218759,2.48436984 12.234375,3.515625 L0.140625,59.484375 C-0.140626406,60.4218797 -0.0234400781,61.242184 0.4921875,61.9453125 C1.00781508,62.648441 1.73437031,63 2.671875,63 L11.390625,63 C12.3281297,63 13.1953085,62.648441 13.9921875,61.9453125 C14.7890665,61.242184 15.2812491,60.4218797 15.46875,59.484375 L15.46875,59.484375 Z M22.5,27.5625 L25.171875,16.3125 C25.5468769,14.4374906 26.9062383,13.5 29.25,13.5 L32.0625,13.5 L33.9609375,13.5 L35.71875,13.5 C36.0937519,13.5 36.5624972,13.5234373 37.125,13.5703125 C37.6875028,13.6171877 38.1562481,13.7109368 38.53125,13.8515625 C38.9062519,13.9921882 39.2812481,14.1562491 39.65625,14.34375 C41.250008,15.5625061 42.046875,17.2031147 42.046875,19.265625 C42.046875,23.2031447 40.7812627,26.2031147 38.25,28.265625 C35.3437355,30.4218858 31.687522,31.5 27.28125,31.5 L25.171875,31.5 C24.2343703,31.5 23.5078151,31.0781292 22.9921875,30.234375 C22.4765599,29.3906208 22.3124991,28.5000047 22.5,27.5625 L22.5,27.5625 Z" id=""></path>
        </g>
    </g>
</svg>
