<?xml version="1.0" encoding="UTF-8" standalone="no"?>
<svg width="72px" height="72px" viewBox="0 0 72 72" version="1.1" xmlns="http://www.w3.org/2000/svg" xmlns:xlink="http://www.w3.org/1999/xlink">
    <!-- Generator: Sketch 39.1 (31720) - http://www.bohemiancoding.com/sketch -->
    <title>Jarokelo_icons_pen</title>
    <desc>Created with Sketch.</desc>
    <defs></defs>
    <g id="Icons" stroke="none" stroke-width="1">
        <g id="Jarokelo_icons_pen">
            <path d="M52.7695312,0.0703125 C51.2460861,-0.117188437 49.7578198,-0.023439375 48.3046875,0.3515625 C46.8984305,0.726564375 45.5859436,1.35937055 44.3671875,2.25 C43.1484314,3.14062945 42.1171917,4.24218094 41.2734375,5.5546875 L13.5703125,51.9609375 L14.5546875,52.5234375 L13.4296875,69.75 L17.4375,72 L32.5546875,62.4375 L33.609375,63 L61.3828125,16.6640625 C62.1796915,15.3515559 62.6601554,13.9570386 62.8242188,12.4804688 C62.9882821,11.0038989 62.8828144,9.5859443 62.5078125,8.2265625 C62.1328106,6.8671807 61.4882858,5.58984973 60.5742188,4.39453125 C59.6601517,3.19921277 58.500007,2.22656625 57.09375,1.4765625 C55.7343682,0.72655875 54.2929764,0.257813438 52.7695312,0.0703125 Z M17.7890625,67.0078125 L18.5625,54.703125 L28.546875,60.1875 L17.7890625,67.0078125 Z M33.046875,54.9140625 L21.0234375,48.234375 L41.8359375,13.5703125 L53.859375,20.25 L33.046875,54.9140625 Z M57.375,14.484375 L56.1796875,16.3828125 L44.15625,9.703125 L45.3515625,7.8046875 C45.8203148,7.00780852 46.4179651,6.33984645 47.1445312,5.80078125 C47.8710974,5.26171605 48.679683,4.87500117 49.5703125,4.640625 C50.4140667,4.45312406 51.2929642,4.40624953 52.2070312,4.5 C53.1210983,4.59375047 53.9765585,4.87499766 54.7734375,5.34375 C55.6171917,5.81250234 56.3203097,6.39843398 56.8828125,7.1015625 C57.4453153,7.80469102 57.8203116,8.57812078 58.0078125,9.421875 C58.2421887,10.218754 58.3125005,11.0624955 58.21875,11.953125 C58.1249995,12.8437545 57.8437523,13.687496 57.375,14.484375 L57.375,14.484375 Z" id=""></path>
        </g>
    </g>
</svg>
