<?xml version="1.0" encoding="utf-8"?>
<!-- Generator: Adobe Illustrator 19.0.0, SVG Export Plug-In . SVG Version: 6.00 Build 0)  -->
<svg version="1.1" id="Layer_1" xmlns="http://www.w3.org/2000/svg" xmlns:xlink="http://www.w3.org/1999/xlink" x="0px" y="0px"
	 viewBox="-473 273 12 16" style="enable-background:new -473 273 12 16;" xml:space="preserve">
<path id="poi" d="M-467,273c-0.8,0-1.6,0.2-2.3,0.5s-1.4,0.7-1.9,1.3c-0.5,0.5-1,1.2-1.3,1.9s-0.5,1.5-0.5,2.3
	c0,1.7,1,3.7,3,6.2s3,3.8,3,3.8s1-1.3,3-3.8s3-4.6,3-6.2c0-0.8-0.2-1.6-0.5-2.3s-0.7-1.4-1.3-1.9c-0.6-0.6-1.2-1-1.9-1.3
	S-466.2,273-467,273L-467,273z M-472,279.2c0-0.7,0.1-1.4,0.4-2s0.6-1.2,1.1-1.7c0.4-0.5,1-0.9,1.6-1.1s1.3-0.4,1.9-0.4
	s1.3,0.1,1.9,0.4s1.1,0.7,1.6,1.1c0.5,0.5,0.8,1,1.1,1.7s0.4,1.3,0.4,2c0,1.4-0.8,3.3-2.5,5.5l-2.5,3.3c0,0-0.8-1.1-2.5-3.3
	S-472,280.7-472,279.2L-472,279.2z M-467,276c-0.3,0-0.5,0.1-0.8,0.2s-0.5,0.2-0.6,0.4c-0.2,0.2-0.3,0.4-0.4,0.6s-0.2,0.5-0.2,0.8
	c0,0.3,0.1,0.5,0.2,0.8s0.2,0.5,0.4,0.6c0.2,0.2,0.4,0.3,0.6,0.4s0.5,0.2,0.8,0.2c0.3,0,0.5-0.1,0.8-0.2s0.5-0.2,0.6-0.4
	c0.2-0.2,0.3-0.4,0.4-0.6s0.2-0.5,0.2-0.8c0-0.3-0.1-0.5-0.2-0.8s-0.2-0.5-0.4-0.6c-0.2-0.2-0.4-0.3-0.6-0.4S-466.7,276-467,276
	L-467,276z M-467,279c-0.1,0-0.3,0-0.4-0.1s-0.2-0.1-0.3-0.2c-0.1-0.1-0.2-0.2-0.2-0.3s-0.1-0.3-0.1-0.4s0-0.3,0.1-0.4
	s0.1-0.2,0.2-0.3c0.1-0.1,0.2-0.2,0.3-0.2s0.3-0.1,0.4-0.1s0.3,0,0.4,0.1s0.2,0.1,0.3,0.2c0.1,0.1,0.2,0.2,0.2,0.3s0.1,0.2,0.1,0.4
	s0,0.3-0.1,0.4s-0.1,0.2-0.2,0.3c-0.1,0.1-0.2,0.2-0.3,0.2S-466.9,279-467,279L-467,279z"/>
</svg>
