<?xml version="1.0" encoding="utf-8"?>
<!-- Generator: Adobe Illustrator 19.0.0, SVG Export Plug-In . SVG Version: 6.00 Build 0)  -->
<svg version="1.1" id="Layer_1" xmlns="http://www.w3.org/2000/svg" xmlns:xlink="http://www.w3.org/1999/xlink" x="0px" y="0px"
	 viewBox="-457.4 259.6 41.8 41.8" style="enable-background:new -457.4 259.6 41.8 41.8;" xml:space="preserve">
<path id="rss" d="M-457.4,259.6c11.5,0,21.4,4.1,29.5,12.3c8.2,8.2,12.3,18,12.3,29.5h-6.5c0-9.8-3.4-18.1-10.3-24.9
	c-6.9-6.9-15.2-10.3-25-10.3V259.6z M-457.4,272.7c8,0,14.8,2.8,20.4,8.4c5.6,5.6,8.4,12.4,8.4,20.3h-6.5c0-6.1-2.2-11.3-6.5-15.7
	c-4.4-4.4-9.6-6.5-15.8-6.5V272.7z M-451.1,289c1.7,0,3.2,0.6,4.4,1.8c1.2,1.2,1.9,2.7,1.9,4.5c0,1.7-0.6,3.1-1.9,4.3
	c-1.2,1.2-2.7,1.8-4.4,1.8s-3.2-0.6-4.4-1.8c-1.2-1.2-1.9-2.7-1.9-4.3c0-1.8,0.6-3.2,1.9-4.5C-454.3,289.6-452.8,289-451.1,289
	L-451.1,289z"/>
</svg>
