<?xml version="1.0" encoding="UTF-8" standalone="no"?>
<svg width="31px" height="31px" viewBox="0 0 31 31" version="1.1" xmlns="http://www.w3.org/2000/svg" xmlns:xlink="http://www.w3.org/1999/xlink">
    <!-- Generator: Sketch 39.1 (31720) - http://www.bohemiancoding.com/sketch -->
    <title>send</title>
    <desc>Created with Sketch.</desc>
    <defs></defs>
    <g id="Icons">
        <path d="M29.7949219,1.28515625 C29.7753905,1.2656249 29.7558595,1.24609385 29.7363281,1.2265625 C29.7167968,1.20703115 29.7070313,1.19726562 29.7070313,1.19726562 C29.6874999,1.17773428 29.6679688,1.15820322 29.6484375,1.13867188 C29.6289062,1.11914053 29.6093751,1.09960947 29.5898438,1.08007812 C29.4726557,1.00195273 29.3457038,0.94335957 29.2089844,0.904296875 C29.0722649,0.86523418 28.925782,0.86523418 28.7695313,0.904296875 L0.703125,14.8203125 C0.703125,14.8398438 0.698242236,14.8496094 0.688476563,14.8496094 L0.673828125,14.8496094 C0.595702734,14.8691407 0.522461279,14.8984373 0.454101563,14.9375 C0.385741846,14.9765627 0.322265918,15.0253903 0.263671875,15.0839844 C0.205077832,15.1425784 0.156250195,15.2060543 0.1171875,15.2744141 C0.0781248047,15.3427738 0.0488282227,15.4160152 0.029296875,15.4941406 C0.00976552734,15.5917974 0.00488276367,15.6796871 0.0146484375,15.7578125 C0.0244141113,15.8359379 0.0390624023,15.9140621 0.05859375,15.9921875 L0.05859375,15.9921875 L0.05859375,16.0214844 L0.05859375,16.0507812 C0.0781250977,16.0898439 0.0976561523,16.1289061 0.1171875,16.1679688 C0.136718848,16.2070314 0.16601543,16.2558591 0.205078125,16.3144531 C0.205078125,16.3339845 0.214843652,16.3486328 0.234375,16.3583984 C0.253906348,16.3681641 0.273437402,16.3828124 0.29296875,16.4023438 C0.312500098,16.4414064 0.336913916,16.470703 0.366210938,16.4902344 C0.395507959,16.5097657 0.419921777,16.5292968 0.439453125,16.5488281 C0.458984473,16.5683595 0.483398291,16.5830078 0.512695313,16.5927734 C0.541992334,16.6025391 0.566406152,16.6171874 0.5859375,16.6367188 C0.625000195,16.6367188 0.654296777,16.6464843 0.673828125,16.6660156 C0.693359473,16.685547 0.712890527,16.6953125 0.732421875,16.6953125 L9.22851562,20.7382812 L14.1796875,30.1425781 C14.1992188,30.1816408 14.2138671,30.2109374 14.2236328,30.2304688 C14.2333985,30.2500001 14.2480468,30.2695312 14.2675781,30.2890625 C14.2675781,30.3085938 14.2724609,30.3330077 14.2822266,30.3623047 C14.2919922,30.3916017 14.3066405,30.4160155 14.3261719,30.4355469 L14.3994141,30.5087891 L14.4726563,30.5820312 C14.4921876,30.6015626 14.5068359,30.6210937 14.5166016,30.640625 C14.5263672,30.6601563 14.5507811,30.6796874 14.5898438,30.6992188 C14.6289064,30.7187501 14.6679686,30.7382812 14.7070313,30.7578125 C14.7460939,30.7773438 14.7949216,30.7968749 14.8535156,30.8164062 L14.8828125,30.8164062 L14.8828125,30.8310547 C14.8828125,30.821289 14.8828125,30.8261718 14.8828125,30.8457031 C14.9609379,30.8652345 15.0439449,30.875 15.1318359,30.875 C15.219727,30.875 15.302734,30.8652345 15.3808594,30.8457031 C15.4589848,30.8261718 15.5322262,30.7968752 15.6005859,30.7578125 C15.6689457,30.7187498 15.7324216,30.6699222 15.7910156,30.6113281 C15.8496097,30.5527341 15.8984373,30.4892582 15.9375,30.4208984 C15.9765627,30.3525387 16.0058593,30.2792973 16.0253906,30.2011719 L16.0400391,30.1865234 C16.0498047,30.1767578 16.0546875,30.171875 16.0546875,30.171875 L29.9707031,2.10546875 C30.0097658,1.94921797 30.0097658,1.80273506 29.9707031,1.66601562 C29.9316404,1.52929619 29.8730473,1.40234434 29.7949219,1.28515625 L29.7949219,1.28515625 Z M3.10546875,15.7578125 L24.0234375,5.35742188 L9.7265625,18.921875 L3.10546875,15.7578125 Z M15.0878906,27.8867188 L11.0742188,20.2402344 L25.8105469,6.265625 L15.0878906,27.8867188 Z" id="send"></path>
    </g>
</svg>
