<?xml version="1.0" encoding="UTF-8" standalone="no"?>
<svg width="45px" height="44px" viewBox="0 0 45 44" version="1.1" xmlns="http://www.w3.org/2000/svg" xmlns:xlink="http://www.w3.org/1999/xlink">
    <!-- Generator: Sketch 39.1 (31720) - http://www.bohemiancoding.com/sketch -->
    <title>target</title>
    <desc>Created with Sketch.</desc>
    <defs></defs>
    <g id="Page-1" stroke="none" stroke-width="1">
        <path d="M22,0.75 C19.0351414,0.75 16.2425261,1.31900473 13.6220703,2.45703125 C11.0016145,3.59505777 8.71810869,5.13736006 6.77148438,7.08398438 C4.79491199,9.03060869 3.2451228,11.3141145 2.12207031,13.9345703 C0.999017822,16.5550261 0.4375,19.3476414 0.4375,22.3125 C0.4375,25.2773586 0.999017822,28.0699739 2.12207031,30.6904297 C3.2451228,33.3108855 4.79491199,35.5943913 6.77148438,37.5410156 C8.71810869,39.517588 11.0016145,41.0673772 13.6220703,42.1904297 C16.2425261,43.3134822 19.0351414,43.875 22,43.875 C24.9648586,43.875 27.7574739,43.3134822 30.3779297,42.1904297 C32.9983855,41.0673772 35.2818913,39.517588 37.2285156,37.5410156 C39.205088,35.5943913 40.7548772,33.3108855 41.8779297,30.6904297 C43.0009822,28.0699739 43.5625,25.2773586 43.5625,22.3125 C43.5625,19.3476414 43.0009822,16.5550261 41.8779297,13.9345703 C40.7548772,11.3141145 39.205088,9.03060869 37.2285156,7.08398438 C35.2818913,5.13736006 32.9983855,3.59505777 30.3779297,2.45703125 C27.7574739,1.31900473 24.9648586,0.75 22,0.75 L22,0.75 Z M23.4375,40.8652344 L23.4375,30.9375 C23.4375,30.7278635 23.4000655,30.5406909 23.3251953,30.3759766 C23.2503251,30.2112622 23.1529954,30.0540372 23.0332031,29.9042969 C22.8834628,29.7845046 22.7262378,29.6871749 22.5615234,29.6123047 C22.3968091,29.5374345 22.2096365,29.5 22,29.5 C21.7903635,29.5 21.6031909,29.5374345 21.4384766,29.6123047 C21.2737622,29.6871749 21.1165372,29.7845046 20.9667969,29.9042969 C20.8470046,30.0540372 20.7496749,30.2112622 20.6748047,30.3759766 C20.5999345,30.5406909 20.5625,30.7278635 20.5625,30.9375 L20.5625,40.8652344 C18.286447,40.685546 16.1451923,40.1240282 14.1386719,39.1806641 C12.1321514,38.2373 10.365242,37.0019608 8.83789062,35.4746094 C7.31053924,33.947258 6.07520003,32.1803486 5.13183594,30.1738281 C4.18847185,28.1673077 3.62695402,26.026053 3.44726562,23.75 L13.375,23.75 C13.5846365,23.75 13.7718091,23.7125655 13.9365234,23.6376953 C14.1012378,23.5628251 14.2584628,23.4654954 14.4082031,23.3457031 C14.5279954,23.1959628 14.6253251,23.0387378 14.7001953,22.8740234 C14.7750655,22.7093091 14.8125,22.5221365 14.8125,22.3125 C14.8125,22.1028635 14.7750655,21.9156909 14.7001953,21.7509766 C14.6253251,21.5862622 14.5279954,21.4290372 14.4082031,21.2792969 C14.2584628,21.1595046 14.1012378,21.0621749 13.9365234,20.9873047 C13.7718091,20.9124345 13.5846365,20.875 13.375,20.875 L3.44726562,20.875 C3.62695402,18.598947 4.18847185,16.4576923 5.13183594,14.4511719 C6.07520003,12.4446514 7.31053924,10.677742 8.83789062,9.15039062 C10.365242,7.62303924 12.1321514,6.38770003 14.1386719,5.44433594 C16.1451923,4.50097185 18.286447,3.93945402 20.5625,3.75976562 L20.5625,13.6875 C20.5625,13.8971365 20.5999345,14.0843091 20.6748047,14.2490234 C20.7496749,14.4137378 20.8470046,14.5709628 20.9667969,14.7207031 C21.1165372,14.8404954 21.2737622,14.9378251 21.4384766,15.0126953 C21.6031909,15.0875655 21.7903635,15.125 22,15.125 C22.2096365,15.125 22.3968091,15.0875655 22.5615234,15.0126953 C22.7262378,14.9378251 22.8834628,14.8404954 23.0332031,14.7207031 C23.1529954,14.5709628 23.2503251,14.4137378 23.3251953,14.2490234 C23.4000655,14.0843091 23.4375,13.8971365 23.4375,13.6875 L23.4375,3.75976562 C25.713553,3.93945402 27.8548077,4.50097185 29.8613281,5.44433594 C31.8678486,6.38770003 33.634758,7.62303924 35.1621094,9.15039062 C36.6894608,10.677742 37.9248,12.4446514 38.8681641,14.4511719 C39.8115282,16.4576923 40.373046,18.598947 40.5527344,20.875 L30.625,20.875 C30.4153635,20.875 30.2281909,20.9124345 30.0634766,20.9873047 C29.8987622,21.0621749 29.7415372,21.1595046 29.5917969,21.2792969 C29.4720046,21.4290372 29.3746749,21.5862622 29.2998047,21.7509766 C29.2249345,21.9156909 29.1875,22.1028635 29.1875,22.3125 C29.1875,22.5221365 29.2249345,22.7093091 29.2998047,22.8740234 C29.3746749,23.0387378 29.4720046,23.1959628 29.5917969,23.3457031 C29.7415372,23.4654954 29.8987622,23.5628251 30.0634766,23.6376953 C30.2281909,23.7125655 30.4153635,23.75 30.625,23.75 L40.5527344,23.75 C40.373046,26.026053 39.8115282,28.1673077 38.8681641,30.1738281 C37.9248,32.1803486 36.6894608,33.947258 35.1621094,35.4746094 C33.634758,37.0019608 31.8678486,38.2373 29.8613281,39.1806641 C27.8548077,40.1240282 25.713553,40.685546 23.4375,40.8652344 L23.4375,40.8652344 Z" id="target"></path>
    </g>
</svg>