<?xml version="1.0" encoding="utf-8"?>
<!-- Generator: Adobe Illustrator 19.0.0, SVG Export Plug-In . SVG Version: 6.00 Build 0)  -->
<svg version="1.1" id="Layer_1" xmlns="http://www.w3.org/2000/svg" xmlns:xlink="http://www.w3.org/1999/xlink" x="0px" y="0px"
	 viewBox="0 0 17.5 14.2" enable-background="new 0 0 17.5 14.2" xml:space="preserve">
<path id="XMLID_4_" d="M15.4,2.2c0.7-0.1,1.4-0.3,2.1-0.6C17,2.4,16.4,3,15.7,3.5V4c0,1.2-0.2,2.4-0.7,3.6
	c-0.4,1.2-1.1,2.3-2,3.3c-0.9,1-1.9,1.8-3.2,2.4c-1.3,0.6-2.7,0.9-4.4,0.9c-2,0-3.9-0.5-5.5-1.6c0.1,0,0.3,0,0.4,0
	c0.2,0,0.3,0,0.5,0c0.8,0,1.6-0.1,2.4-0.4s1.4-0.6,2.1-1.1c-0.8,0-1.5-0.3-2.1-0.7S2.2,9.3,2,8.6c0.1,0.1,0.2,0.1,0.3,0.1
	c0.1,0,0.2,0,0.3,0c0.3,0,0.6,0,0.9-0.1C2.8,8.4,2.1,8,1.5,7.3C1,6.7,0.7,5.9,0.7,5v0c0.5,0.3,1,0.4,1.6,0.5
	C1.8,5.1,1.4,4.7,1.2,4.2C0.9,3.6,0.7,3.1,0.7,2.4c0-0.6,0.2-1.2,0.5-1.8c0.9,1.1,2,2,3.2,2.6c1.3,0.7,2.7,1,4.2,1.1
	C8.6,4.1,8.5,3.9,8.5,3.6c0-0.5,0.1-0.9,0.3-1.4C9,1.7,9.2,1.4,9.6,1c0.3-0.3,0.7-0.6,1.1-0.8C11.1,0.1,11.6,0,12.1,0
	c1,0,1.9,0.4,2.6,1.1c0.4-0.1,0.8-0.2,1.2-0.3c0.4-0.1,0.7-0.3,1.1-0.5C16.7,1.1,16.2,1.8,15.4,2.2L15.4,2.2z"/>
</svg>
