<?xml version="1.0" encoding="UTF-8" standalone="no"?>
<svg width="72px" height="72px" viewBox="0 0 72 72" version="1.1" xmlns="http://www.w3.org/2000/svg" xmlns:xlink="http://www.w3.org/1999/xlink">
    <!-- Generator: Sketch 39.1 (31720) - http://www.bohemiancoding.com/sketch -->
    <title>Jarokelo_icons_video</title>
    <desc>Created with Sketch.</desc>
    <defs></defs>
    <g id="Icons" stroke="none" stroke-width="1">
        <g id="Jarokelo_icons_video">
            <path d="M69.75,18.5 L54,28.34375 L54,23 C54,21.7812439 53.7656273,20.6210993 53.296875,19.5195312 C52.8281227,18.4179632 52.1953165,17.468754 51.3984375,16.671875 C50.5546833,15.8281208 49.5937554,15.1718773 48.515625,14.703125 C47.4374946,14.2343727 46.2656313,14 45,14 L9,14 C7.78124391,14 6.62109926,14.2343727 5.51953125,14.703125 C4.41796324,15.1718773 3.46875398,15.8281208 2.671875,16.671875 C1.82812078,17.468754 1.17187734,18.4179632 0.703125,19.5195312 C0.234372656,20.6210993 0,21.7812439 0,23 L0,50 C0,51.2656313 0.234372656,52.4374946 0.703125,53.515625 C1.17187734,54.5937554 1.82812078,55.5546833 2.671875,56.3984375 C3.46875398,57.1953165 4.41796324,57.8281227 5.51953125,58.296875 C6.62109926,58.7656273 7.78124391,59 9,59 L45,59 C46.2656313,59 47.4374946,58.7656273 48.515625,58.296875 C49.5937554,57.8281227 50.5546833,57.1953165 51.3984375,56.3984375 C52.1953165,55.5546833 52.8281227,54.5937554 53.296875,53.515625 C53.7656273,52.4374946 54,51.2656313 54,50 L54,44.65625 L69.75,54.5 C70.0781266,54.5 70.3710925,54.4414068 70.6289062,54.3242188 C70.88672,54.2070307 71.1328113,54.0546884 71.3671875,53.8671875 C71.5546884,53.6328113 71.7070307,53.38672 71.8242188,53.1289062 C71.9414068,52.8710925 72,52.5781266 72,52.25 L72,20.75 C72,20.4218734 71.9414068,20.1289075 71.8242188,19.8710938 C71.7070307,19.61328 71.5546884,19.3671887 71.3671875,19.1328125 C71.1328113,18.9453116 70.88672,18.7929693 70.6289062,18.6757812 C70.3710925,18.5585932 70.0781266,18.5 69.75,18.5 L69.75,18.5 Z M49.5,32 L49.5,50 C49.5,50.609378 49.3828137,51.1953097 49.1484375,51.7578125 C48.9140613,52.3203153 48.5859396,52.7890606 48.1640625,53.1640625 C47.7890606,53.5859396 47.3203153,53.9140613 46.7578125,54.1484375 C46.1953097,54.3828137 45.609378,54.5 45,54.5 L9,54.5 C8.39062195,54.5 7.80469031,54.3828137 7.2421875,54.1484375 C6.67968469,53.9140613 6.21093938,53.5859396 5.8359375,53.1640625 C5.41406039,52.7890606 5.08593867,52.3203153 4.8515625,51.7578125 C4.61718633,51.1953097 4.5,50.609378 4.5,50 L4.5,23 C4.5,22.390622 4.61718633,21.8046903 4.8515625,21.2421875 C5.08593867,20.6796847 5.41406039,20.2109394 5.8359375,19.8359375 C6.21093938,19.4140604 6.67968469,19.0859387 7.2421875,18.8515625 C7.80469031,18.6171863 8.39062195,18.5 9,18.5 L45,18.5 C45.609378,18.5 46.1953097,18.6171863 46.7578125,18.8515625 C47.3203153,19.0859387 47.7890606,19.4140604 48.1640625,19.8359375 C48.5859396,20.2109394 48.9140613,20.6796847 49.1484375,21.2421875 C49.3828137,21.8046903 49.5,22.390622 49.5,23 L49.5,32 Z M67.5,47.75 L54,41 L54,32 L67.5,25.25 L67.5,47.75 Z" id=""></path>
        </g>
    </g>
</svg>
