<?xml version="1.0" encoding="UTF-8" standalone="no"?>
<svg width="72px" height="72px" viewBox="0 0 72 72" version="1.1" xmlns="http://www.w3.org/2000/svg" xmlns:xlink="http://www.w3.org/1999/xlink">
    <!-- Generator: Sketch 39.1 (31720) - http://www.bohemiancoding.com/sketch -->
    <title>Jarokelo_icons_what</title>
    <desc>Created with Sketch.</desc>
    <defs></defs>
    <g id="Icons" stroke="none" stroke-width="1">
        <g id="Jarokelo_icons_what">
            <path d="M34.875,44.0859375 C34.4999981,44.0859375 34.1484391,44.1562493 33.8203125,44.296875 C33.4921859,44.4375007 33.2109387,44.6249988 32.9765625,44.859375 C32.7421863,45.1406264 32.5429696,45.4453109 32.3789062,45.7734375 C32.2148429,46.1015641 32.1328125,46.4531231 32.1328125,46.828125 C32.1328125,47.1562516 32.2148429,47.4843734 32.3789062,47.8125 C32.5429696,48.1406266 32.7421863,48.4453111 32.9765625,48.7265625 C33.2109387,48.9609387 33.4921859,49.1484368 33.8203125,49.2890625 C34.1484391,49.4296882 34.4999981,49.5 34.875,49.5 C35.2500019,49.5 35.6015609,49.4296882 35.9296875,49.2890625 C36.2578141,49.1484368 36.5390613,48.9609387 36.7734375,48.7265625 C37.0078137,48.4453111 37.1953118,48.1406266 37.3359375,47.8125 C37.4765632,47.4843734 37.546875,47.1562516 37.546875,46.828125 C37.546875,46.4531231 37.4765632,46.1015641 37.3359375,45.7734375 C37.1953118,45.4453109 37.0078137,45.1406264 36.7734375,44.859375 C36.5390613,44.6249988 36.2578141,44.4375007 35.9296875,44.296875 C35.6015609,44.1562493 35.2500019,44.0859375 34.875,44.0859375 L34.875,44.0859375 Z M36,0 C31.0312252,0 26.3554907,0.83202293 21.9726562,2.49609375 C17.5898218,4.16016457 13.7812662,6.39842344 10.546875,9.2109375 C7.26560859,12.0703268 4.68750937,15.4101371 2.8125,19.2304688 C0.937490625,23.0508004 0,27.1406032 0,31.5 C0,33.9843874 0.316403086,36.3984258 0.94921875,38.7421875 C1.58203441,41.0859492 2.48436914,43.2890522 3.65625,45.3515625 C4.82813086,47.460948 6.24608543,49.4179597 7.91015625,51.2226562 C9.57422707,53.0273528 11.4374897,54.6562427 13.5,56.109375 L13.5,72 L31.921875,62.7890625 C32.2500016,62.8359377 32.589842,62.8710936 32.9414062,62.8945312 C33.2929705,62.9179689 33.6328109,62.9296875 33.9609375,62.9296875 C34.2890641,62.9765627 34.6289045,63 34.9804688,63 L36,63 C40.9687748,63 45.6445093,62.1796957 50.0273438,60.5390625 C54.4101782,58.8984293 58.2187338,56.6484518 61.453125,53.7890625 C64.7343914,50.9296732 67.3124906,47.5898629 69.1875,43.7695312 C71.0625094,39.9491996 72,35.8593968 72,31.5 C72,27.1406032 71.0625094,23.0508004 69.1875,19.2304688 C67.3124906,15.4101371 64.7343914,12.0703268 61.453125,9.2109375 C58.2187338,6.39842344 54.4101782,4.16016457 50.0273438,2.49609375 C45.6445093,0.83202293 40.9687748,0 36,0 L36,0 Z M32.9285714,58.4444444 L31.4285714,58.4444444 L17.7142857,65.25 L17.7142857,53.9074074 C17.7142857,53.9074074 15.5260413,52.6675269 10.9545898,47.6105957 C6.38313842,42.5536646 4,36.2318923 4,31.2222222 C4,27.4886002 4.833325,23.9677056 6.5,20.6594329 C8.166675,17.3511602 10.4523664,14.46828 13.3571429,12.010706 C16.2619193,9.50587096 19.6547425,7.54456727 23.5357143,6.12673611 C27.4166861,4.70890495 31.5714064,4 36,4 C40.4285936,4 44.5833139,4.70890495 48.4642857,6.12673611 C52.3452575,7.54456727 55.7380807,9.50587096 58.6428571,12.010706 C61.5476336,14.46828 63.833325,17.3511602 65.5,20.6594329 C67.166675,23.9677056 68,27.4886002 68,31.2222222 C68,35.0031053 67.166675,38.5476301 65.5,41.8559028 C63.833325,45.1641755 61.5476336,48.0470556 58.6428571,50.5046296 C55.7380807,52.9622036 52.3452575,54.8998772 48.4642857,56.3177083 C44.5833139,57.7355395 40.4285936,58.4444444 36,58.4444444 L32.9285714,58.4444444 Z M35.3671875,15.75 C34.2421819,15.75 33.1640677,15.8671863 32.1328125,16.1015625 C31.1015573,16.3359387 30.1406295,16.6640604 29.25,17.0859375 C28.3593705,17.5078146 27.5390663,18.0351531 26.7890625,18.6679688 C26.0390587,19.3007844 25.359378,19.9921837 24.75,20.7421875 L27.2109375,23.4140625 C27.6796898,22.8046845 28.1718724,22.2539087 28.6875,21.7617188 C29.2031276,21.2695288 29.7890592,20.8359394 30.4453125,20.4609375 C31.0546905,20.1328109 31.7460899,19.8750009 32.5195312,19.6875 C33.2929726,19.4999991 34.1484328,19.40625 35.0859375,19.40625 C36.0234422,19.40625 36.8554651,19.5234363 37.5820312,19.7578125 C38.3085974,19.9921887 38.9062477,20.3203104 39.375,20.7421875 C39.8437523,21.1640646 40.1953113,21.6562472 40.4296875,22.21875 C40.6640637,22.7812528 40.78125,23.3671845 40.78125,23.9765625 C40.78125,25.2890691 40.3242233,26.3554646 39.4101562,27.1757812 C38.4960892,27.9960979 37.4765681,28.7812462 36.3515625,29.53125 C35.2734321,30.328129 34.2773483,31.1953078 33.3632812,32.1328125 C32.4492142,33.0703172 31.9921875,34.3124923 31.9921875,35.859375 C31.9921875,36.2812521 32.0273434,36.667967 32.0976562,37.0195312 C32.1679691,37.3710955 32.2734368,37.7109359 32.4140625,38.0390625 C32.5546882,38.3671891 32.7421863,38.6953109 32.9765625,39.0234375 C33.2109387,39.3515641 33.4921859,39.6562486 33.8203125,39.9375 L36.84375,38.6015625 C36.6093738,38.4609368 36.4101571,38.2968759 36.2460938,38.109375 C36.0820304,37.9218741 35.9531255,37.7109387 35.859375,37.4765625 C35.7656245,37.2890616 35.6953127,37.0898448 35.6484375,36.8789062 C35.6015623,36.6679677 35.578125,36.4453137 35.578125,36.2109375 C35.578125,35.0390566 36.0703076,34.0546915 37.0546875,33.2578125 C38.0390674,32.4609335 39.1171816,31.6406292 40.2890625,30.796875 C41.4609434,29.9531208 42.5390576,28.9687556 43.5234375,27.84375 C44.5078174,26.7187444 45,25.2187594 45,23.34375 C45,22.3124948 44.777346,21.3281297 44.3320312,20.390625 C43.8867165,19.4531203 43.265629,18.6562533 42.46875,18 C41.6249958,17.2968715 40.6054747,16.7460957 39.4101562,16.3476562 C38.2148378,15.9492168 36.867195,15.75 35.3671875,15.75 L35.3671875,15.75 Z" id=""></path>
        </g>
    </g>
</svg>
