<?xml version="1.0" encoding="UTF-8" standalone="no"?>
<svg width="180px" height="54px" viewBox="0 0 180 54" version="1.1" xmlns="http://www.w3.org/2000/svg" xmlns:xlink="http://www.w3.org/1999/xlink">
    <!-- Generator: Sketch 3.8.2 (29753) - http://www.bohemiancoding.com/sketch -->
    <title>google-play.svg</title>
    <desc>Created with Sketch.</desc>
    <defs>
        <linearGradient x1="91.5361538%" y1="4.8388%" x2="-37.5592308%" y2="71.9684%" id="linearGradient-1">
            <stop stop-color="#00A0FF" offset="0%"></stop>
            <stop stop-color="#00A1FF" offset="0.657445%"></stop>
            <stop stop-color="#00BEFF" offset="26.01%"></stop>
            <stop stop-color="#00D2FF" offset="51.22%"></stop>
            <stop stop-color="#00DFFF" offset="76.04%"></stop>
            <stop stop-color="#00E3FF" offset="100%"></stop>
        </linearGradient>
        <linearGradient x1="107.728079%" y1="49.4282353%" x2="-130.665025%" y2="49.4282353%" id="linearGradient-2">
            <stop stop-color="#FFE000" offset="0%"></stop>
            <stop stop-color="#FFBD00" offset="40.87%"></stop>
            <stop stop-color="#FFA500" offset="77.54%"></stop>
            <stop stop-color="#FF9C00" offset="100%"></stop>
        </linearGradient>
        <linearGradient x1="86.3892216%" y1="17.8150459%" x2="-49.888024%" y2="194.392791%" id="linearGradient-3">
            <stop stop-color="#FF3A44" offset="0%"></stop>
            <stop stop-color="#C31162" offset="100%"></stop>
        </linearGradient>
        <linearGradient x1="-18.5790419%" y1="-54.5266535%" x2="42.2748503%" y2="24.6901019%" id="linearGradient-4">
            <stop stop-color="#32A071" offset="0%"></stop>
            <stop stop-color="#2DA771" offset="6.85%"></stop>
            <stop stop-color="#15CF74" offset="47.62%"></stop>
            <stop stop-color="#06E775" offset="80.09%"></stop>
            <stop stop-color="#00F076" offset="100%"></stop>
        </linearGradient>
    </defs>
    <g id="Symbols" stroke="none" stroke-width="1" fill="none" fill-rule="evenodd">
        <g id="App_promo_section" transform="translate(-300.000000, -280.000000)">
            <g id="app">
                <g id="_badges" transform="translate(80.000000, 280.000000)">
                    <g id="google-play.svg" transform="translate(220.000000, 0.000000)">
                        <g id="artwork">
                            <g id="Group">
                                <path d="M173.017078,53.3562412 L6.9829222,53.3562412 C3.26375712,53.3562412 0.341555977,50.4403927 0.341555977,46.7293128 L0.341555977,6.96774194 C0.341555977,3.25666199 3.26375712,0.340813464 6.9829222,0.340813464 L173.017078,0.340813464 C176.736243,0.340813464 179.658444,3.25666199 179.658444,6.96774194 L179.658444,46.7293128 C179.658444,50.3078541 176.736243,53.3562412 173.017078,53.3562412 L173.017078,53.3562412 Z" id="Shape" fill="#000000"></path>
                                <path d="M90.7969639,29.2342216 C87.6091082,29.2342216 85.085389,31.6199158 85.085389,34.9333801 C85.085389,38.1143058 87.6091082,40.6325386 90.7969639,40.6325386 C93.9848197,40.6325386 96.5085389,38.2468443 96.5085389,34.9333801 C96.5085389,31.4873773 93.9848197,29.2342216 90.7969639,29.2342216 L90.7969639,29.2342216 Z M90.7969639,38.2468443 C89.0702087,38.2468443 87.6091082,36.7889201 87.6091082,34.8008415 C87.6091082,32.812763 89.0702087,31.3548387 90.7969639,31.3548387 C92.5237192,31.3548387 93.9848197,32.6802244 93.9848197,34.8008415 C93.9848197,36.7889201 92.5237192,38.2468443 90.7969639,38.2468443 L90.7969639,38.2468443 Z M78.4440228,29.2342216 C75.256167,29.2342216 72.7324478,31.6199158 72.7324478,34.9333801 C72.7324478,38.1143058 75.256167,40.6325386 78.4440228,40.6325386 C81.6318786,40.6325386 84.1555977,38.2468443 84.1555977,34.9333801 C84.1555977,31.4873773 81.6318786,29.2342216 78.4440228,29.2342216 L78.4440228,29.2342216 Z M78.4440228,38.2468443 C76.7172676,38.2468443 75.256167,36.7889201 75.256167,34.8008415 C75.256167,32.812763 76.7172676,31.3548387 78.4440228,31.3548387 C80.170778,31.3548387 81.6318786,32.6802244 81.6318786,34.8008415 C81.6318786,36.7889201 80.170778,38.2468443 78.4440228,38.2468443 L78.4440228,38.2468443 Z M63.7001898,30.957223 L63.7001898,33.3429173 L69.4117647,33.3429173 C69.2789374,34.6683029 68.7476281,35.7286115 68.0834915,36.3913043 C67.2865275,37.1865358 65.9582543,38.1143058 63.7001898,38.1143058 C60.113852,38.1143058 57.4573055,35.3309958 57.4573055,31.7524544 C57.4573055,28.173913 60.2466793,25.3906031 63.7001898,25.3906031 C65.5597723,25.3906031 67.0208729,26.1858345 68.0834915,27.1136045 L69.8102467,25.3906031 C68.3491461,24.0652174 66.4895636,23.0049088 63.8330171,23.0049088 C59.0512334,23.0049088 54.9335863,26.9810659 54.9335863,31.7524544 C54.9335863,36.5238429 59.0512334,40.5 63.8330171,40.5 C66.4895636,40.5 68.3491461,39.7047686 69.943074,37.9817672 C71.5370019,36.3913043 72.0683112,34.1381487 72.0683112,32.4151473 C72.0683112,31.884993 72.0683112,31.3548387 71.9354839,30.957223 L63.7001898,30.957223 L63.7001898,30.957223 Z M124.003795,32.812763 C123.472486,31.4873773 122.144213,29.2342216 119.222011,29.2342216 C116.29981,29.2342216 113.908918,31.4873773 113.908918,34.9333801 C113.908918,38.1143058 116.29981,40.6325386 119.487666,40.6325386 C122.011385,40.6325386 123.605313,39.0420757 124.136622,38.1143058 L122.27704,36.7889201 C121.612903,37.71669 120.815939,38.3793829 119.487666,38.3793829 C118.159393,38.3793829 117.362429,37.8492286 116.698292,36.6563815 L124.26945,33.4754558 L124.003795,32.812763 L124.003795,32.812763 Z M116.29981,34.6683029 C116.29981,32.5476858 118.026565,31.3548387 119.222011,31.3548387 C120.151803,31.3548387 121.081594,31.884993 121.347249,32.5476858 L116.29981,34.6683029 L116.29981,34.6683029 Z M110.056926,40.1023843 L112.580645,40.1023843 L112.580645,23.5350631 L110.056926,23.5350631 L110.056926,40.1023843 L110.056926,40.1023843 Z M106.072106,30.4270687 L106.072106,30.4270687 C105.40797,29.7643759 104.345351,29.101683 103.017078,29.101683 C100.227704,29.101683 97.5711575,31.6199158 97.5711575,34.8008415 C97.5711575,37.9817672 100.094877,40.3674614 103.017078,40.3674614 C104.345351,40.3674614 105.40797,39.7047686 105.939279,39.0420757 L106.072106,39.0420757 L106.072106,39.8373072 C106.072106,41.9579243 104.87666,43.1507714 103.017078,43.1507714 C101.555977,43.1507714 100.493359,42.0904628 100.227704,41.1626928 L98.1024668,42.0904628 C98.7666034,43.5483871 100.360531,45.4039271 103.149905,45.4039271 C106.072106,45.4039271 108.462998,43.6809257 108.462998,39.57223 L108.462998,29.4992987 L106.072106,29.4992987 L106.072106,30.4270687 L106.072106,30.4270687 Z M103.149905,38.2468443 C101.42315,38.2468443 99.9620493,36.7889201 99.9620493,34.8008415 C99.9620493,32.812763 101.42315,31.3548387 103.149905,31.3548387 C104.87666,31.3548387 106.204934,32.812763 106.204934,34.8008415 C106.204934,36.7889201 104.87666,38.2468443 103.149905,38.2468443 L103.149905,38.2468443 Z M135.559772,23.5350631 L129.582543,23.5350631 L129.582543,40.1023843 L132.106262,40.1023843 L132.106262,33.8730715 L135.559772,33.8730715 C138.349146,33.8730715 141.005693,31.884993 141.005693,28.7040673 C141.005693,25.5231417 138.349146,23.5350631 135.559772,23.5350631 L135.559772,23.5350631 Z M135.6926,31.4873773 L132.106262,31.4873773 L132.106262,25.7882188 L135.6926,25.7882188 C137.552182,25.7882188 138.614801,27.3786816 138.614801,28.5715288 C138.481973,30.029453 137.419355,31.4873773 135.6926,31.4873773 L135.6926,31.4873773 Z M150.967742,29.101683 C149.108159,29.101683 147.248577,29.8969144 146.58444,31.6199158 L148.842505,32.5476858 C149.373814,31.6199158 150.170778,31.3548387 151.100569,31.3548387 C152.428843,31.3548387 153.624288,32.1500701 153.757116,33.4754558 L153.757116,33.6079944 C153.358634,33.3429173 152.296015,32.9453015 151.233397,32.9453015 C148.842505,32.9453015 146.451613,34.2706872 146.451613,36.6563815 C146.451613,38.9095372 148.444023,40.3674614 150.56926,40.3674614 C152.296015,40.3674614 153.092979,39.57223 153.757116,38.7769986 L153.889943,38.7769986 L153.889943,40.1023843 L156.280835,40.1023843 L156.280835,33.740533 C156.01518,30.8246844 153.757116,29.101683 150.967742,29.101683 L150.967742,29.101683 Z M150.702087,38.2468443 C149.905123,38.2468443 148.709677,37.8492286 148.709677,36.7889201 C148.709677,35.4635344 150.170778,35.0659187 151.366224,35.0659187 C152.428843,35.0659187 152.960152,35.3309958 153.624288,35.5960729 C153.358634,37.1865358 152.030361,38.2468443 150.702087,38.2468443 L150.702087,38.2468443 Z M164.648956,29.4992987 L161.859583,36.6563815 L161.726755,36.6563815 L158.804554,29.4992987 L156.148008,29.4992987 L160.531309,39.57223 L158.00759,45.1388499 L160.531309,45.1388499 L167.305503,29.4992987 L164.648956,29.4992987 L164.648956,29.4992987 Z M142.333966,40.1023843 L144.857685,40.1023843 L144.857685,23.5350631 L142.333966,23.5350631 L142.333966,40.1023843 L142.333966,40.1023843 Z" id="Shape" fill="#FFFFFF"></path>
                                <g transform="translate(13.296015, 9.618513)" id="Shape">
                                    <path d="M0.859582543,0.662692847 C0.461100569,1.06030856 0.19544592,1.7230014 0.19544592,2.51823282 L0.19544592,31.8092567 C0.19544592,32.6044881 0.461100569,33.2671809 0.859582543,33.6647966 L0.992409867,33.7973352 L17.4629981,17.3625526 L17.4629981,17.230014 L17.4629981,17.0974755 L0.859582543,0.662692847 L0.859582543,0.662692847 L0.859582543,0.662692847 Z" fill="url(#linearGradient-1)"></path>
                                    <path d="M22.9089184,22.9291725 L17.4629981,17.4950912 L17.4629981,17.230014 L17.4629981,17.0974755 L22.9089184,11.6633941 L23.0417457,11.7959327 L29.5502846,15.5070126 C31.4098672,16.5673212 31.4098672,18.2903226 29.5502846,19.3506311 L22.9089184,22.9291725 L22.9089184,22.9291725 L22.9089184,22.9291725 Z" fill="url(#linearGradient-2)"></path>
                                    <path d="M23.0417457,22.7966339 L17.4629981,17.230014 L0.859582543,33.7973352 C1.52371917,34.4600281 2.45351044,34.4600281 3.64895636,33.9298738 L23.0417457,22.7966339" fill="url(#linearGradient-3)"></path>
                                    <path d="M23.0417457,11.6633941 L3.64895636,0.662692847 C2.45351044,9.64783808e-14 1.52371917,0.132538569 0.859582543,0.795231417 L17.4629981,17.230014 L23.0417457,11.6633941 L23.0417457,11.6633941 Z" fill="url(#linearGradient-4)"></path>
                                    <g transform="translate(0.328273, 22.531557)" fill="#000000">
                                        <path d="M22.5806452,0.132538569 L3.32068311,11.0007013 C2.25806452,11.6633941 1.32827324,11.5308555 0.664136622,11.0007013 L0.664136622,11.0007013 L0.531309298,11.1332398 L0.531309298,11.1332398 L0.664136622,11.2657784 L0.664136622,11.2657784 C1.32827324,11.7959327 2.25806452,11.9284712 3.32068311,11.2657784 L22.5806452,0.132538569 L22.5806452,0.132538569 L22.5806452,0.132538569 Z" opacity="0.2"></path>
                                        <path d="M0.531309298,11.0007013 C0.132827324,10.6030856 0,9.94039271 0,9.14516129 L0,9.27769986 C0,10.0729313 0.265654649,10.7356241 0.664136622,11.1332398 L0.664136622,11.0007013 L0.531309298,11.0007013 L0.531309298,11.0007013 Z" opacity="0.12"></path>
                                    </g>
                                    <path d="M29.5502846,18.9530154 L22.9089184,22.6640954 L23.0417457,22.7966339 L29.5502846,19.085554 C30.4800759,18.5553997 30.8785579,17.8927069 30.8785579,17.230014 L30.8785579,17.230014 C30.8785579,17.8927069 30.3472486,18.4228612 29.5502846,18.9530154 L29.5502846,18.9530154 Z" fill="#000000" opacity="0.12"></path>
                                    <path d="M3.64895636,0.795231417 L29.5502846,15.5070126 C30.3472486,16.0371669 30.8785579,16.5673212 30.8785579,17.230014 L30.8785579,17.230014 C30.8785579,16.5673212 30.4800759,15.9046283 29.5502846,15.3744741 L3.64895636,0.662692847 C1.78937381,-0.397615708 0.328273245,0.530154278 0.328273245,2.65077139 L0.328273245,2.78330996 C0.328273245,0.662692847 1.78937381,-0.265077139 3.64895636,0.795231417 L3.64895636,0.795231417 Z" fill="#FFFFFF" opacity="0.25"></path>
                                </g>
                            </g>
                            <g id="Group" transform="translate(54.800759, 9.293128)" stroke="#FFFFFF" stroke-width="0.2" fill="#FFFFFF">
                                <path d="M3.05502846,8.41023843 C2.52371917,8.41023843 1.85958254,8.27769986 1.32827324,7.88008415 C0.796963947,7.48246844 0.398481973,6.95231417 0.265654649,6.28962132 L1.19544592,5.89200561 C1.32827324,6.28962132 1.59392789,6.68723703 1.85958254,6.95231417 C2.25806452,7.2173913 2.65654649,7.34992987 3.05502846,7.34992987 C3.45351044,7.34992987 3.85199241,7.2173913 4.25047438,6.95231417 C4.51612903,6.68723703 4.78178368,6.42215989 4.78178368,6.02454418 C4.78178368,5.62692847 4.64895636,5.22931276 4.25047438,4.96423562 C3.98481973,4.69915849 3.45351044,4.43408135 2.78937381,4.30154278 C2.12523719,4.03646564 1.59392789,3.7713885 1.19544592,3.50631136 C0.796963947,3.10869565 0.664136622,2.71107994 0.664136622,2.18092567 C0.664136622,1.65077139 0.929791271,1.12061711 1.32827324,0.723001403 C1.72675522,0.325385694 2.39089184,0.0603085554 3.05502846,0.0603085554 C3.71916509,0.0603085554 4.25047438,0.192847125 4.64895636,0.590462833 C5.04743833,0.988078541 5.31309298,1.25315568 5.4459203,1.65077139 L4.51612903,2.0483871 C4.38330171,1.78330996 4.25047438,1.51823282 3.98481973,1.38569425 C3.71916509,1.12061711 3.32068311,1.12061711 2.92220114,1.12061711 C2.52371917,1.12061711 2.25806452,1.25315568 1.85958254,1.38569425 C1.59392789,1.65077139 1.46110057,1.91584853 1.46110057,2.18092567 C1.46110057,2.44600281 1.59392789,2.71107994 1.85958254,2.97615708 C2.12523719,3.24123422 2.52371917,3.37377279 3.05502846,3.50631136 C3.45351044,3.63884993 3.71916509,3.7713885 3.98481973,3.90392707 C4.25047438,4.03646564 4.51612903,4.16900421 4.78178368,4.43408135 C5.04743833,4.56661992 5.31309298,4.83169705 5.4459203,5.22931276 C5.57874763,5.4943899 5.71157495,5.89200561 5.71157495,6.28962132 C5.71157495,6.68723703 5.57874763,7.08485273 5.4459203,7.34992987 C5.31309298,7.61500701 5.04743833,7.88008415 4.78178368,8.01262272 C4.64895636,8.14516129 4.38330171,8.27769986 3.98481973,8.27769986 C3.71916509,8.41023843 3.45351044,8.41023843 3.05502846,8.41023843 L3.05502846,8.41023843 Z" id="Shape"></path>
                                <polygon id="Shape" points="6.77419355 8.27769986 6.77419355 7.2173913 11.0246679 1.25315568 6.90702087 1.25315568 6.90702087 0.325385694 12.2201139 0.325385694 12.2201139 1.38569425 7.96963947 7.34992987 12.2201139 7.34992987 12.2201139 8.27769986"></polygon>
                                <polygon id="Shape" points="18.3301708 1.25315568 14.743833 1.25315568 14.743833 3.7713885 18.0645161 3.7713885 18.0645161 4.69915849 14.743833 4.69915849 14.743833 7.2173913 18.3301708 7.2173913 18.3301708 8.27769986 13.6812144 8.27769986 13.6812144 0.325385694 18.3301708 0.325385694"></polygon>
                                <path d="M20.056926,8.27769986 L20.056926,0.325385694 L22.7134725,0.325385694 C23.3776091,0.325385694 23.9089184,0.590462833 24.4402277,0.988078541 C24.971537,1.38569425 25.2371917,2.0483871 25.2371917,2.71107994 C25.2371917,3.24123422 25.1043643,3.7713885 24.7058824,4.16900421 C24.3074004,4.56661992 23.9089184,4.83169705 23.3776091,4.96423562 L23.3776091,4.96423562 L25.6356736,8.14516129 L25.6356736,8.14516129 L24.4402277,8.14516129 L22.3149905,4.96423562 L21.1195446,4.96423562 L21.1195446,8.27769986 L20.056926,8.27769986 L20.056926,8.27769986 Z M20.9867173,4.03646564 L22.5806452,4.03646564 C22.9791271,4.03646564 23.3776091,3.90392707 23.6432638,3.63884993 C23.9089184,3.37377279 24.0417457,2.97615708 24.0417457,2.57854137 C24.0417457,2.18092567 23.9089184,1.91584853 23.6432638,1.65077139 C23.3776091,1.38569425 22.9791271,1.25315568 22.5806452,1.25315568 L20.8538899,1.25315568 L20.8538899,4.03646564 L20.9867173,4.03646564 Z" id="Shape"></path>
                                <polygon id="Shape" points="31.3472486 1.25315568 27.7609108 1.25315568 27.7609108 3.7713885 31.0815939 3.7713885 31.0815939 4.69915849 27.7609108 4.69915849 27.7609108 7.2173913 31.3472486 7.2173913 31.3472486 8.27769986 26.6982922 8.27769986 26.6982922 0.325385694 31.3472486 0.325385694"></polygon>
                                <polygon id="Shape" points="32.4098672 8.27769986 32.4098672 7.2173913 36.6603416 1.25315568 32.5426945 1.25315568 32.5426945 0.325385694 37.8557875 0.325385694 37.8557875 1.38569425 33.6053131 7.34992987 37.8557875 7.34992987 37.8557875 8.27769986"></polygon>
                                <path d="M39.4497154,8.27769986 L39.4497154,0.325385694 L41.8406072,0.325385694 C43.0360531,0.325385694 44.0986717,0.723001403 44.7628083,1.38569425 C45.5597723,2.18092567 45.8254269,3.10869565 45.8254269,4.30154278 C45.8254269,5.4943899 45.426945,6.42215989 44.7628083,7.2173913 C43.9658444,8.01262272 43.0360531,8.27769986 41.8406072,8.27769986 L39.4497154,8.27769986 L39.4497154,8.27769986 Z M40.3795066,7.34992987 L41.8406072,7.34992987 C42.7703985,7.34992987 43.4345351,7.08485273 43.9658444,6.55469846 C44.4971537,6.02454418 44.7628083,5.22931276 44.7628083,4.30154278 C44.7628083,3.37377279 44.4971537,2.57854137 43.9658444,2.0483871 C43.4345351,1.51823282 42.6375712,1.25315568 41.8406072,1.25315568 L40.3795066,1.25315568 L40.3795066,7.34992987 L40.3795066,7.34992987 Z" id="Shape"></path>
                                <polygon id="Shape" points="49.943074 8.27769986 49.943074 0.325385694 51.0056926 0.325385694 53.7950664 5.22931276 53.7950664 5.22931276 56.5844402 0.325385694 57.6470588 0.325385694 57.6470588 8.27769986 56.5844402 8.27769986 56.5844402 3.50631136 56.5844402 2.18092567 56.5844402 2.18092567 54.0607211 6.55469846 53.3965844 6.55469846 50.8728653 2.18092567 50.8728653 2.18092567 50.8728653 3.50631136 50.8728653 8.27769986"></polygon>
                                <polygon id="Shape" points="64.1555977 1.25315568 60.56926 1.25315568 60.56926 3.7713885 63.7571157 3.7713885 63.7571157 4.69915849 60.4364326 4.69915849 60.4364326 7.2173913 64.0227704 7.2173913 64.0227704 8.27769986 59.373814 8.27769986 59.373814 0.325385694 64.0227704 0.325385694 64.0227704 1.25315568"></polygon>
                                <path d="M73.1878558,4.56661992 C73.1878558,5.62692847 72.9222011,6.55469846 72.2580645,7.2173913 C71.4611006,8.01262272 70.5313093,8.41023843 69.3358634,8.41023843 C68.1404175,8.41023843 67.2106262,8.01262272 66.4136622,7.2173913 C65.6166983,6.42215989 65.2182163,5.4943899 65.2182163,4.30154278 C65.2182163,3.10869565 65.6166983,2.18092567 66.4136622,1.38569425 C67.2106262,0.590462833 68.1404175,0.192847125 69.3358634,0.192847125 C69.8671727,0.192847125 70.398482,0.325385694 70.9297913,0.590462833 C71.4611006,0.855539972 71.8595825,1.12061711 72.1252372,1.51823282 L71.4611006,2.18092567 C70.9297913,1.51823282 70.2656546,1.25315568 69.3358634,1.25315568 C68.5388994,1.25315568 67.7419355,1.51823282 67.2106262,2.18092567 C66.5464896,2.71107994 66.2808349,3.50631136 66.2808349,4.43408135 C66.2808349,5.36185133 66.5464896,6.15708275 67.2106262,6.68723703 C67.8747628,7.2173913 68.5388994,7.61500701 69.3358634,7.61500701 C70.2656546,7.61500701 70.9297913,7.34992987 71.5939279,6.68723703 C71.9924099,6.28962132 72.2580645,5.75946704 72.2580645,5.09677419 L69.3358634,5.09677419 L69.3358634,4.16900421 L73.1878558,4.16900421 C73.1878558,4.16900421 73.1878558,4.43408135 73.1878558,4.56661992 L73.1878558,4.56661992 Z" id="Shape"></path>
                                <path d="M75.5787476,4.03646564 C75.4459203,4.16900421 75.313093,4.30154278 75.0474383,4.30154278 C74.7817837,4.30154278 74.6489564,4.16900421 74.516129,4.03646564 C74.3833017,3.90392707 74.2504744,3.7713885 74.2504744,3.50631136 C74.2504744,3.24123422 74.3833017,3.10869565 74.516129,2.97615708 C74.6489564,2.84361851 74.7817837,2.71107994 75.0474383,2.71107994 C75.313093,2.71107994 75.4459203,2.84361851 75.5787476,2.97615708 C75.711575,3.10869565 75.8444023,3.24123422 75.8444023,3.50631136 C75.8444023,3.7713885 75.8444023,3.90392707 75.5787476,4.03646564 L75.5787476,4.03646564 Z M75.5787476,8.14516129 C75.4459203,8.27769986 75.313093,8.41023843 75.0474383,8.41023843 C74.7817837,8.41023843 74.6489564,8.27769986 74.516129,8.14516129 C74.3833017,8.01262272 74.2504744,7.88008415 74.2504744,7.61500701 C74.2504744,7.34992987 74.3833017,7.2173913 74.516129,7.08485273 C74.6489564,6.95231417 74.7817837,6.8197756 75.0474383,6.8197756 C75.313093,6.8197756 75.4459203,6.95231417 75.5787476,7.08485273 C75.711575,7.2173913 75.8444023,7.34992987 75.8444023,7.61500701 C75.8444023,7.74754558 75.8444023,8.01262272 75.5787476,8.14516129 L75.5787476,8.14516129 Z" id="Shape"></path>
                            </g>
                        </g>
                    </g>
                </g>
            </g>
        </g>
    </g>
</svg>