<?xml version="1.0" standalone="no"?>
<!DOCTYPE svg PUBLIC "-//W3C//DTD SVG 1.1//EN" "http://www.w3.org/Graphics/SVG/1.1/DTD/svg11.dtd" >
<svg xmlns="http://www.w3.org/2000/svg">
<metadata>
Created by FontPrep 20130207 at Tue May 24 17:37:08 2016
 By Levente Kiraly
copyright missing
</metadata>
<defs>
<font id="d5dda6015d4aa3bbb20206ff4b2b1d48" horiz-adv-x='1024' >
  <font-face 
    font-family="Branding-SemiLight"
    font-weight="400"
    font-stretch="normal"
    units-per-em="2048"
    panose-1="0 0 5 0 0 0 0 0 0 0"
    ascent="1577"
    descent="-471"
    x-height="958"
    cap-height="1323"
    bbox="-1329 -428 2767 1716"
    underline-thickness="102"
    underline-position="-102"
    unicode-range="U+0020-FB02"
  />
<missing-glyph horiz-adv-x="849" 
d="M424 184l-344 346l344 344l344 -344z" />
    <glyph glyph-name="fi" unicode="fi" horiz-adv-x="1058" 
d="M832 -6q-30 0 -58 6v864l-450 2v-868q-25 -6 -55 -6t-54 6v868h-143q-6 24 -6 46t6 46h143v11q0 190 114 288q115 99 277 99t277 -109q-3 -25 -23 -47t-45 -31q-99 84 -217 84t-197 -66q-78 -67 -77 -204v-25l563 -2v-956q-25 -6 -55 -6z" />
    <glyph glyph-name="fl" unicode="fl" horiz-adv-x="1091" 
d="M614 1356q164 0 306 -74v-1282q-25 -6 -55 -6t-58 6l-6 1214q-90 39 -202 39q-111 -1 -193 -67t-82 -207v-21l264 -2q6 -16 6 -46t-6 -46l-264 2v-868q-25 -6 -55 -6t-54 6v868h-143q-6 24 -6 46t6 46h143v9q-1 193 117 291t282 98z" />
    <glyph glyph-name=".notdef" horiz-adv-x="849" 
d="M424 184l-344 346l344 344l344 -344z" />
    <glyph glyph-name=".null" 
 />
    <glyph glyph-name="nonmarkingreturn" horiz-adv-x="681" 
 />
    <glyph glyph-name="space" unicode=" " horiz-adv-x="518" 
 />
    <glyph glyph-name="exclam" unicode="!" horiz-adv-x="489" 
d="M246 -20q-35 0 -61 24q-25 24 -25 61t24 61t61 24t61 -25t24 -61t-24 -60t-60 -24zM247 303q-9 0 -34 4q-29 522 -29 1012q31 6 62 6t61 -6q-4 -565 -31 -1012q-20 -4 -29 -4z" />
    <glyph glyph-name="quotedbl" unicode="&#x22;" horiz-adv-x="614" 
d="M425 942q-15 0 -28 6l-32 387q27 15 61 15t61 -15l-32 -387q-15 -6 -30 -6zM186 942q-14 0 -26 6l-33 387q63 35 123 0l-33 -387q-17 -6 -31 -6z" />
    <glyph glyph-name="numbersign" unicode="#" horiz-adv-x="1337" 
d="M807 393l123 371h-385l-123 -371h385zM1237 764h-201l-123 -371h203q4 -53 -31 -96h-202l-131 -393q-57 -18 -107 0l131 393h-385l-131 -393q-57 -18 -106 0l131 393h-217q-6 59 30 96h217l123 371h-219q-6 49 31 96h219l133 400q59 16 107 0l-134 -400h386l133 400
q59 16 106 0l-133 -400h201q6 -47 -31 -96z" />
    <glyph glyph-name="dollar" unicode="$" horiz-adv-x="1046" 
d="M840 399q0 91 -56 145t-206 70v-436q126 10 194 70t68 151zM221 941q-1 -85 61 -132t203 -66v396q-125 -9 -195 -61t-69 -137zM954 420q0 -154 -103 -244t-273 -100v-180q-42 -6 -46 -6t-47 6v180q-129 6 -230 46t-159 89q14 55 68 86q125 -106 321 -119v445
q-375 37 -374 301q0 133 101 220t273 99v172q29 4 46 4t47 -4v-172q205 -10 342 -108q-25 -55 -58 -88q-123 82 -284 92v-406q376 -43 376 -313z" />
    <glyph glyph-name="percent" unicode="%" horiz-adv-x="1497" 
d="M1139 68q92 0 140 58t48 152t-48 153q-48 61 -140 61q-91 0 -141 -60t-50 -154q0 -93 49 -152q50 -58 142 -58zM1138 -20q-130 0 -208 85t-78 215t77 214t208 84t209 -84t78 -214t-78 -215t-208 -85zM358 797q92 0 141 58q48 57 48 151t-48 154q-49 60 -141 60t-141 -60
t-49 -153t49 -151t141 -59zM233 -96l879 1356q61 14 111 0l-879 -1356q-70 -12 -111 0zM357 709q-129 0 -207 85t-78 215t78 214t208 84t207 -84q78 -84 78 -214t-78 -215t-208 -85z" />
    <glyph glyph-name="ampersand" unicode="&#x26;" horiz-adv-x="1251" 
d="M856 643h-266q-174 0 -267 -77t-93 -208q0 -132 87 -206q88 -74 253 -74t286 82v483zM1192 694q0 -27 -6 -51h-217v-534q-187 -129 -401 -129t-332 96t-119 276q0 127 68 215q69 88 188 129q-201 78 -201 295q0 150 106 244t288 94t298 -102q-14 -53 -61 -84
q-103 88 -239 88t-209 -66q-73 -65 -73 -175t82 -178q81 -68 248 -67h574q6 -24 6 -51z" />
    <glyph glyph-name="quotesingle" unicode="'" horiz-adv-x="376" 
d="M186 942q-14 0 -26 6l-33 387q63 35 123 0l-33 -387q-17 -6 -31 -6z" />
    <glyph glyph-name="parenleft" unicode="(" horiz-adv-x="530" 
d="M352 -356q-238 406 -236 872t236 877q24 6 52 -4t36 -31q-198 -373 -198 -837t198 -843q-8 -20 -36 -30t-52 -4z" />
    <glyph glyph-name="parenright" unicode=")" horiz-adv-x="530" 
d="M178 -356q-24 -6 -52 4t-36 30q199 379 199 840q-2 461 -199 840q8 20 36 30t52 5q236 -411 237 -877t-237 -872z" />
    <glyph glyph-name="asterisk" unicode="*" horiz-adv-x="694" 
d="M399 1116q0 -10 -2 -16l154 -72q-12 -61 -64 -88l-116 127q-12 -8 -23 -8l-20 -172q-61 -6 -103 33l84 153q-10 6 -16 21l-170 -35q-25 57 0 108l170 -32q4 12 14 20l-86 154q47 41 105 34l20 -174q14 0 23 -6l116 127q53 -29 66 -86l-154 -74q2 -4 2 -14z" />
    <glyph glyph-name="plus" unicode="+" horiz-adv-x="1021" 
d="M559 455v-361q-47 -10 -98 0v361h-361q-12 49 0 100h361v358q49 12 98 0v-358h361q12 -51 0 -100h-361z" />
    <glyph glyph-name="comma" unicode="," horiz-adv-x="428" 
d="M156 33q0 84 -19 153q72 28 133 2q12 -29 12 -120q0 -90 -48 -194t-105 -163q-17 1 -31 13t-16 26q74 94 74 283z" />
    <glyph glyph-name="hyphen" unicode="-" horiz-adv-x="800" 
d="M653 512q0 -24 -6 -47h-493q-13 54 0 94h493q6 -23 6 -47z" />
    <glyph glyph-name="period" unicode="." horiz-adv-x="452" 
d="M226 -23q-40 0 -70 29t-29 70q0 40 30 70q31 30 71 30t69 -30t29 -70t-30 -69q-30 -30 -70 -30z" />
    <glyph glyph-name="slash" unicode="/" horiz-adv-x="1040" 
d="M102 -381q-20 0 -53 8l832 1743q25 6 53 6t55 -6l-829 -1743q-38 -8 -58 -8z" />
    <glyph glyph-name="zero" unicode="0" horiz-adv-x="1198" 
d="M242 664q0 -584 357 -584t357 584t-356 583q-358 1 -358 -583zM599 -27q-232 -1 -355 185t-123 507t123 505t356 184t355 -184t122 -505q0 -320 -123 -506t-355 -186z" />
    <glyph glyph-name="one" unicode="1" horiz-adv-x="673" 
d="M428 1331q20 0 45 -4v-1327q-27 -6 -55 -6t-56 6v1176l-272 -144q-41 41 -47 98l354 197q11 4 31 4z" />
    <glyph glyph-name="two" unicode="2" horiz-adv-x="1034" 
d="M948 54q0 -26 -6 -54h-833q-8 25 -9 43q0 59 54 111q380 364 498 514t118 283t-78 211t-217 79q-180 0 -319 -147q-47 16 -68 69q62 78 166 132t225 55q180 0 294 -102t114 -287q0 -89 -33 -173q-70 -177 -445 -531q-105 -99 -137 -130l-24 -21l28 3h666q6 -29 6 -55z
" />
    <glyph glyph-name="three" unicode="3" horiz-adv-x="1034" 
d="M922 402q0 -206 -134 -316t-327 -111q-125 0 -218 39t-145 90q12 57 62 86q137 -112 296 -112t257 81t98 239t-103 240q-103 81 -323 83h-37q-2 9 -2 31t33 65l340 383h-608q-8 26 -8 58t8 57h763q6 -72 -43 -139l-331 -363q182 -8 302 -106q120 -99 120 -305z" />
    <glyph glyph-name="four" unicode="4" horiz-adv-x="999" 
d="M942 416q0 -27 -6 -54h-154v-362q-30 -6 -56 -6t-50 6v362h-594q-43 94 16 222l400 776q49 -10 98 -43l-385 -754q-29 -59 -27 -96h492v334q33 4 51 4t55 -4v-334h154q6 -24 6 -51z" />
    <glyph glyph-name="five" unicode="5" horiz-adv-x="1036" 
d="M469 -29q-211 0 -346 119q16 59 63 86q117 -104 282 -104t258 89t93 245t-89 238t-267 83q-68 0 -155 -28q-86 -27 -112 -27t-42 8v635h716q13 -64 0 -113h-608v-409q94 45 215 45q219 0 337 -111t118 -315t-126 -322q-126 -119 -337 -119z" />
    <glyph glyph-name="six" unicode="6" horiz-adv-x="1069" 
d="M553 70q141 0 227 85t86 232t-89 220t-212 73q-199 0 -336 -145q-2 -18 -2 -58q0 -188 92 -298q93 -109 234 -109zM566 791q184 1 296 -103t113 -294q0 -190 -121 -308q-122 -117 -310 -117t-308 135t-121 375q0 188 63 345q111 276 403 430q126 67 265 96q29 -27 33 -99
q-214 -46 -386 -177q-198 -150 -249 -417q138 134 322 134z" />
    <glyph glyph-name="seven" unicode="7" horiz-adv-x="946" 
d="M897 1256q0 -43 -37 -121l-584 -1164q-63 14 -94 56l588 1175h-707q-8 37 -8 56t8 57h828q6 -16 6 -59z" />
    <glyph glyph-name="eight" unicode="8" horiz-adv-x="1091" 
d="M543 76q141 0 231 62t90 188t-84 192q-84 68 -239 123q-42 14 -90 35q-92 -60 -159 -150t-67 -210t88 -181q89 -59 230 -59zM551 1247q-125 1 -203 -63t-78 -164t73 -158t177 -96t119 -45q190 135 190 293q0 109 -76 171q-77 62 -202 62zM971 346q0 -190 -125 -281
t-307 -91t-302 80q-120 81 -120 263q0 223 243 398q-197 102 -196 295q0 150 110 244t280 96q171 0 276 -90t106 -240q0 -182 -205 -340q240 -117 240 -334z" />
    <glyph glyph-name="nine" unicode="9" horiz-adv-x="1069" 
d="M502 596q186 0 336 115v4q0 260 -90 397t-236 137t-232 -90q-87 -90 -87 -247q0 -156 89 -236t220 -80zM516 1350q194 0 312 -165t118 -470q0 -179 -39 -313t-102 -215t-157 -131t-191 -68q-96 -18 -215 -19q-18 38 -9 103q325 0 463 146q116 123 138 384
q-154 -108 -336 -108t-296 108t-114 306q0 196 117 319t311 123z" />
    <glyph glyph-name="colon" unicode=":" horiz-adv-x="491" 
d="M246 2q-41 0 -70 30t-29 70t29 70q29 29 70 29q42 0 70 -29t28 -70q0 -40 -28 -70t-70 -30zM246 696q-41 0 -70 30t-29 71t29 69t70 29q42 0 70 -29q28 -30 28 -70t-28 -70t-70 -30z" />
    <glyph glyph-name="semicolon" unicode=";" horiz-adv-x="536" 
d="M356 68q0 -90 -48 -194t-105 -163q-35 0 -47 39q74 94 73 283q0 84 -18 153q72 28 133 2q12 -29 12 -120zM371 741q0 -43 -31 -73t-73 -31q-43 0 -73 31q-30 32 -30 74t31 72t73 30t72 -30q31 -30 31 -73z" />
    <glyph glyph-name="less" unicode="&#x3c;" horiz-adv-x="1163" 
d="M80 482q0 30 8 61l916 377q33 -47 34 -95l-813 -338l-26 -6l26 -8l815 -340q-6 -51 -36 -94l-914 379q-10 34 -10 64z" />
    <glyph glyph-name="equal" unicode="=" horiz-adv-x="1097" 
d="M152 292q0 26 6 50h782q6 -24 6 -50t-6 -50h-782q-6 24 -6 50zM152 658q0 26 6 51h782q6 -25 6 -51t-6 -50h-782q-6 24 -6 50z" />
    <glyph glyph-name="greater" unicode="&#x3e;" horiz-adv-x="1163" 
d="M1081 482q0 -30 -10 -64l-913 -379q-31 43 -37 94l815 340l27 8l-27 6l-813 338q6 53 35 95l915 -377q8 -31 8 -61z" />
    <glyph glyph-name="question" unicode="?" horiz-adv-x="854" 
d="M356 -20q-34 0 -60 24t-26 62q0 36 25 60t61 24t60 -24t24 -60t-24 -62q-25 -24 -60 -24zM353 317q-19 0 -29 2q-23 135 -23 263h14q152 0 241 86t89 227t-83 224t-215 83t-230 -72q-43 29 -51 78q106 102 284 102t293 -112q115 -113 115 -287q0 -175 -100 -287
t-257 -139q-4 -51 -20 -166q-9 -2 -28 -2z" />
    <glyph glyph-name="at" unicode="@" horiz-adv-x="1701" 
d="M834 264q160 0 233 129v381q-85 57 -195 57q-110 1 -189 -81t-79 -214t64 -202t166 -70zM860 1298q326 0 532 -208t205 -529q0 -201 -85 -311t-222 -111q-160 0 -205 142q-94 -113 -246 -113t-247 95q-94 95 -94 269t110 285q111 111 273 111t284 -92v-445
q0 -158 140 -158q80 -2 131 83t51 245q0 267 -175 451t-454 184t-457 -189t-178 -471t168 -465t457 -184q158 0 297 68q39 -35 39 -96q-152 -76 -336 -76q-336 0 -537 214q-201 215 -201 537t212 543t538 221z" />
    <glyph glyph-name="A" unicode="A" horiz-adv-x="1214" 
d="M348 496h514l-231 598l-31 94l-31 -94zM1111 -6q-40 0 -56 4l-154 399h-590l-147 -397q-25 -6 -56.5 -6t-62.5 16l500 1305q25 8 58.5 8t58.5 -8l516 -1305q-27 -16 -67 -16z" />
    <glyph glyph-name="B" unicode="B" horiz-adv-x="1175" 
d="M553 78q401 0 401 282q0 268 -376 269h-269v-533q119 -18 244 -18zM560.5 1227q-156.5 0 -251.5 -13v-483h250q336 0 336 258q0 111 -89 174.5t-245.5 63.5zM1069 367q0 -188 -132 -290t-366.5 -102t-373.5 27v1294q172 31 372.5 31t318.5 -87t118 -251q0 -215 -203 -297
q266 -66 266 -325z" />
    <glyph glyph-name="C" unicode="C" horiz-adv-x="1228" 
d="M727.5 -29q-269.5 0 -443 192.5t-173.5 493.5t182 496t463 195q229 0 395 -123q-14 -63 -64 -90q-150 104 -331 104q-231 0 -379 -160.5t-148 -420t143.5 -419t367.5 -159.5t366 117q51 -29 59 -86q-168 -140 -437.5 -140z" />
    <glyph glyph-name="D" unicode="D" horiz-adv-x="1380" 
d="M559 86q279 0 435 156t155.5 416t-157 414.5t-447.5 154.5q-139 0 -236 -13v-1114q109 -14 250 -14zM545 1333q342 0 533.5 -183t191.5 -485t-193.5 -492.5t-519.5 -190.5q-205 0 -360 22v1303q174 26 348 26z" />
    <glyph glyph-name="E" unicode="E" horiz-adv-x="1110" 
d="M1018 51.5q0 -29.5 -8 -51.5h-813v1315h788q8 -23 8 -53.5t-8 -53.5h-676v-475h609q8 -25 8 -52.5t-8 -51.5h-609v-525h701q8 -23 8 -52.5z" />
    <glyph glyph-name="F" unicode="F" horiz-adv-x="1042" 
d="M311 1208v-518h598q18 -56 0 -104h-598v-586q-41 -8 -57 -8t-57 8v1315h788q6 -29 6 -55.5t-6 -51.5h-674z" />
    <glyph glyph-name="G" unicode="G" horiz-adv-x="1335" 
d="M1202 649v-573q-195 -104 -462 -104.5t-448 188t-181 496.5t188 500t457.5 192t433.5 -121q-12 -66 -62 -94q-166 106 -362 106q-233 0 -384 -157.5t-151 -422t138.5 -422t390.5 -157.5q195 0 327 61v400h-317q-8 27 -8 55t8 53h432z" />
    <glyph glyph-name="H" unicode="H" horiz-adv-x="1409" 
d="M1157.5 1323q18.5 0 54.5 -8v-1315q-37 -8 -55 -8t-59 8v623h-787v-623q-41 -8 -57 -8t-57 8v1315q25 8 57 8t57 -8v-588h787v588q41 8 59.5 8z" />
    <glyph glyph-name="I" unicode="I" horiz-adv-x="507" 
d="M256 -8q-18 0 -59 8v1315q27 8 58.5 8t55.5 -8v-1315q-37 -8 -55 -8z" />
    <glyph glyph-name="J" unicode="J" horiz-adv-x="790" 
d="M274 -33q-86 0 -151.5 34t-95.5 71q16 49 73 82q82 -82 174 -82q219 0 220 243v1000q18 8 53 8t59 -8v-998q0 -176 -94.5 -263t-237.5 -87z" />
    <glyph glyph-name="K" unicode="K" horiz-adv-x="1183" 
d="M254 -8q-20 0 -57 8v1315q37 8 57.5 8t56.5 -8v-668q221 143 369.5 290.5t304.5 379.5q16 4 58 4t69 -8q-234 -362 -539 -604l592 -703q-45 -10 -98 -10l-47 2l-535 641q-74 -51 -174 -119v-520q-37 -8 -57 -8z" />
    <glyph glyph-name="L" unicode="L" horiz-adv-x="978" 
d="M946 50.5q0 -26.5 -8 -52.5h-741v1317q41 8 57 8t57 -8v-1213h627q8 -25 8 -51.5z" />
    <glyph glyph-name="M" unicode="M" horiz-adv-x="1611" 
d="M1353.5 1321q21.5 0 61.5 -10v-1311q-37 -8 -54 -8t-58 8v958l8 140l-23 -60l-422 -911q-31 -6 -52 -6t-52 6l-438 913l-23 54l6 -136v-958q-33 -8 -51 -8t-59 8v1309q33 14 61 14t51 -6l488 -1010l24 -59l23 59l463 1010q25 4 46.5 4z" />
    <glyph glyph-name="N" unicode="N" horiz-adv-x="1396" 
d="M1146 1325q17 0 54 -8v-1309q-43 -12 -100 -12l-766 1081l-29 53l2 -61v-1069q-25 -8 -55.5 -8t-54.5 8v1305q51 29 104 16l766 -1083l27 -45l-2 65v1059q37 8 54 8z" />
    <glyph glyph-name="O" unicode="O" horiz-adv-x="1495" 
d="M747.5 80q235.5 0 377 161.5t141.5 419.5t-141.5 419t-378 161t-377 -160.5t-140.5 -419t141.5 -420t377 -161.5zM747 -27q-282 0 -459 194.5t-177 490.5t177 493t459.5 197t459.5 -193.5t177 -491t-177.5 -494t-459.5 -196.5z" />
    <glyph glyph-name="P" unicode="P" horiz-adv-x="1142" 
d="M946 919.5q0 149.5 -99 231.5t-294 82q-127 0 -244 -23v-602q92 -18 246 -14q201 0 296 88t95 237.5zM576.5 1337q228.5 0 358.5 -108.5t131 -303t-132 -314t-377 -119.5q-150 0 -248 14v-506q-25 -8 -56.5 -8t-55.5 8v1292q151 45 379.5 45z" />
    <glyph glyph-name="Q" unicode="Q" horiz-adv-x="1495" 
d="M229 661q0 -258 141.5 -419.5t377 -161.5t377 161.5t141.5 419.5t-141.5 419t-378 161t-377 -161t-140.5 -419zM111 659.5q0 294.5 177 491.5t459.5 197t459.5 -193.5t177 -495.5q0 -219 -104.5 -391t-284.5 -248q264 -59 394 -258q-29 -43 -101 -63q-184 274 -553 274
q-279 4 -451.5 198t-172.5 488.5z" />
    <glyph glyph-name="R" unicode="R" horiz-adv-x="1169" 
d="M567 635q176 0 266.5 85t90.5 223t-91.5 215t-243 77t-280.5 -23v-565q82 -12 258 -12zM1004 -4q-36 0 -48 2l-335 534q-20 -2 -113.5 -2t-198.5 11v-541q-25 -8 -56.5 -8t-55.5 8v1294q176 43 387.5 43t332.5 -102t123 -283q-2 -152 -83 -254t-218 -143l346 -549
q-45 -10 -81 -10z" />
    <glyph glyph-name="S" unicode="S" horiz-adv-x="1071" 
d="M520 -31q-272 0 -434 166q16 57 72 84q139 -143 362 -143q160 0 247 73.5t87 190.5t-74.5 181.5t-252.5 106.5t-275 112q-123 88 -123 248.5t111.5 257.5t296.5 97q252 0 405 -131q-2 -27 -20.5 -53t-40.5 -37q-152 115 -344 115q-135 0 -215 -64.5t-80 -167.5t72.5 -160
t258 -102.5t291 -136t105.5 -261.5t-121 -273.5t-328 -102.5z" />
    <glyph glyph-name="T" unicode="T" horiz-adv-x="1093" 
d="M1059 1263q0 -28 -8 -53h-449v-1212q-29 -6 -57.5 -6t-55.5 6v1212h-448q-8 25 -8 53t8 52h1010q8 -24 8 -52z" />
    <glyph glyph-name="U" unicode="U" horiz-adv-x="1376" 
d="M694 -29q-229 0 -371.5 145.5t-142.5 395.5v803q41 8 61 8t56 -8v-803q0 -193 105.5 -311.5t290.5 -118.5t286.5 118.5t101.5 311.5v803q41 8 60.5 8t52.5 -8v-803q0 -248 -135.5 -394.5t-364.5 -146.5z" />
    <glyph glyph-name="V" unicode="V" horiz-adv-x="1234" 
d="M620 -6q-30 0 -59 6q-311 573 -510 1313q35 14 68 14t55 -8q174 -672 451 -1208q303 621 438 1208q8 2 51 8q33 0 68 -14q-164 -655 -502 -1313q-30 -6 -60 -6z" />
    <glyph glyph-name="W" unicode="W" horiz-adv-x="1847" 
d="M1726 1325q27 0 64 -12q-174 -758 -412 -1313q-27 -10 -63.5 -10t-63.5 10l-288 944l-25 105l-31 -107l-317 -942q-41 -8 -65 -8t-64 8q-217 512 -393 1313q37 14 70.5 14t54.5 -6q127 -659 335 -1204l23 88l328 993q27 6 59.5 6t54.5 -6l310 -989l22 -92
q217 563 350 1202q24 6 51 6z" />
    <glyph glyph-name="X" unicode="X" horiz-adv-x="1169" 
d="M1063.5 -4q-35.5 0 -68.5 4l-415 586l-420 -586q-20 -4 -59 -4t-70 12l479 658l-440 649q45 10 84 10t49 -2l389 -575l391 575q10 2 52 2t77 -10l-450 -649l468 -658q-31 -12 -66.5 -12z" />
    <glyph glyph-name="Y" unicode="Y" horiz-adv-x="1163" 
d="M1054 1325q36 0 66 -12l-481 -785v-528q-37 -8 -56 -8t-57 8v532l-493 781q37 12 69 12t56 -4l407 -641l23 -47l22 47l391 641q17 4 53 4z" />
    <glyph glyph-name="Z" unicode="Z" horiz-adv-x="1144" 
d="M1075 50.5q0 -22.5 -6 -50.5h-981q-10 27 -10 66.5t35 80.5l778 1027l33 40l-834 -2q-8 27 -8 53t8 50h957q8 -25 8 -67t-35 -83l-776 -1022l-35 -43h860q6 -27 6 -49.5z" />
    <glyph glyph-name="bracketleft" unicode="[" horiz-adv-x="583" 
d="M309 -268h199q12 -53 0 -103h-313v1778h313q12 -49 0 -102h-199v-1573z" />
    <glyph glyph-name="backslash" unicode="\" horiz-adv-x="1017" 
d="M914 -381q-19 0 -56 8l-805 1665q37 8 57 8t52 -8l805 -1665q-34 -8 -53 -8z" />
    <glyph glyph-name="bracketright" unicode="]" horiz-adv-x="583" 
d="M389 1407v-1778h-313q-12 49 0 103h198v1573h-198q-12 53 0 102h313z" />
    <glyph glyph-name="asciicircum" unicode="^" horiz-adv-x="1030" 
d="M174 698q-51 8 -84 47l371 641q55 12 106 0l373 -641q-33 -39 -82 -47l-344 588z" />
    <glyph glyph-name="underscore" unicode="_" horiz-adv-x="892" 
d="M0 -118q0 26 8 44h879q6 -20 6 -45t-6 -49h-879q-8 24 -8 50z" />
    <glyph glyph-name="grave" unicode="`" horiz-adv-x="462" 
d="M381 1077l-332 223q25 70 74 95l291 -271q-4 -29 -33 -47z" />
    <glyph glyph-name="a" unicode="a" horiz-adv-x="1019" 
d="M203 289q0 -94 72.5 -152.5t221 -58.5t269.5 49v287q-131 70 -275.5 69.5t-216 -50.5t-71.5 -144zM766 623q0 260 -302 260q-148 0 -276 -95q-47 23 -57 76q47 45 139 85t211 40q176 0 286 -89t110 -273v-564q-160 -88 -374.5 -88t-315.5 85t-101 226.5t108.5 220.5
t274.5 79t297 -64v101z" />
    <glyph glyph-name="b" unicode="b" horiz-adv-x="1136" 
d="M540 84q168 0 273 107q105 108 105 291t-100 291t-267 108q-166 0 -275 -86l-2 -658q98 -53 266 -53zM553 989q209 0 345 -133q136 -134 136 -368t-141 -372t-353 -138t-378 83l2 1287q30 6 58 6t54 -6v-441q123 82 277 82z" />
    <glyph glyph-name="c" unicode="c" horiz-adv-x="991" 
d="M578 -25q-205 0 -340.5 136.5t-135.5 366.5t139.5 370.5t339.5 140.5t322 -110q-16 -53 -65 -84q-113 90 -267.5 90t-253 -117t-98.5 -289t97.5 -284.5t258.5 -112.5t279 96q49 -29 64 -82q-135 -121 -340 -121z" />
    <glyph glyph-name="d" unicode="d" horiz-adv-x="1136" 
d="M604 881q-164 0 -275.5 -112t-111.5 -294t109.5 -287.5t281.5 -105.5q139 -2 254 47v686q-94 66 -258 66zM917 1354q30 0 58 -6v-1287q-168 -86 -378 -86t-352.5 132.5t-142.5 368t148.5 373.5t359.5 138q154 0 252 -53v414q25 6 55 6z" />
    <glyph glyph-name="e" unicode="e" horiz-adv-x="1071" 
d="M858 557q0 152 -82 241t-219 89t-228.5 -93.5t-105.5 -236.5h635zM579.5 80q163.5 0 299.5 106q47 -23 61 -77q-158 -133 -367 -133.5t-340 134t-131 365.5t132.5 372.5t319.5 141.5t305 -119.5t120 -328.5q0 -29 -6 -80h-754q4 -174 100.5 -277.5t260 -103.5z" />
    <glyph glyph-name="f" unicode="f" horiz-adv-x="647" 
d="M520 1356q82 0 142 -28t88 -56q-14 -55 -62 -80q-82 61 -167 61t-141 -52t-56 -165v-78l284 -2q8 -22 8 -46t-8 -46l-284 2v-868q-25 -6 -55 -6t-54 6v868h-143q-6 24 -6 46t6 46h143v64q0 164 92 249t213 85z" />
    <glyph glyph-name="g" unicode="g" horiz-adv-x="1130" 
d="M584.5 141q154.5 0 269.5 84v580q-94 78 -256 78t-270.5 -104.5t-108.5 -273.5t105.5 -266.5t260 -97.5zM607 989q216 0 362 -125v-848q0 -182 -120 -296.5t-308 -114.5q-270 0 -416 168q20 55 76 75q121 -141 340 -141q147 0 230 85t83 224v99q-121 -76 -258 -76
q-215 0 -355.5 126t-140.5 342t145.5 349t361.5 133z" />
    <glyph glyph-name="h" unicode="h" horiz-adv-x="1155" 
d="M614.5 989q182.5 0 283.5 -110.5t101 -278.5v-600q-29 -6 -57.5 -6t-56.5 6v565q0 315 -310 316q-150 0 -292 -97v-784q-29 -6 -57.5 -6t-57.5 6v1346q27 6 56.5 6t58.5 -6v-451q149 94 331.5 94z" />
    <glyph glyph-name="i" unicode="i" horiz-adv-x="456" 
d="M230 -6q-30 0 -58 6v963q25 8 57.5 8t55.5 -8v-963q-25 -6 -55 -6zM229.5 1159q-36.5 0 -64.5 26.5t-28 63.5t26.5 63.5t64.5 26.5t63.5 -26.5t25.5 -64.5t-25.5 -63.5t-62 -25.5z" />
    <glyph glyph-name="j" unicode="j" horiz-adv-x="485" 
d="M23 -401q-150 0 -234 84q14 53 64 79q86 -61 162.5 -61t131 56.5t54.5 174.5v1026q62 13 114 0v-1026q0 -162 -89.5 -247.5t-202.5 -85.5zM256 1155q-37 0 -63.5 25.5t-26.5 63.5t26.5 63.5t63.5 25.5t63.5 -25.5t26.5 -63.5t-26.5 -63.5t-63.5 -25.5z" />
    <glyph glyph-name="k" unicode="k" horiz-adv-x="968" 
d="M876 -6q-39 0 -59 4l-411 448q-33 -23 -125 -73v-373q-25 -6 -55 -6t-58 6v1346q27 6 57.5 6t55.5 -6v-854q147 78 280 202.5t207 263.5q72 16 121 -4q-131 -247 -393 -446l456 -504q-37 -10 -76 -10z" />
    <glyph glyph-name="l" unicode="l" horiz-adv-x="456" 
d="M230 -6q-30 0 -58 6v1348q29 6 58.5 6t54.5 -6v-1348q-25 -6 -55 -6z" />
    <glyph glyph-name="m" unicode="m" horiz-adv-x="1761" 
d="M1216 989q192 1 292 -107q101 -108 98 -270v-612q-29 -6 -58 -6t-57 6v571q4 137 -65 225q-68 88 -224 87q-156 0 -284 -121q25 -70 24 -150v-612q-24 -6 -56 -6t-57 6v571q0 139 -66 226q-67 86 -213 86t-276 -82v-801q-30 -6 -58 -6t-56 6v850q168 139 388 139
t324 -141q152 141 344 141z" />
    <glyph glyph-name="n" unicode="n" horiz-adv-x="1148" 
d="M563.5 989q225.5 0 327.5 -108.5t102 -280.5v-600q-27 -6 -57.5 -6t-56.5 6v567q0 315 -310 316q-164 0 -295 -84v-799q-29 -6 -57.5 -6t-56.5 6v850q178 139 403.5 139z" />
    <glyph glyph-name="o" unicode="o" horiz-adv-x="1173" 
d="M588 84q168 0 269 112.5t101 285.5t-101 287t-269 114t-269.5 -114t-101.5 -287t101.5 -285.5t269.5 -112.5zM583 -23q-210 0 -346.5 142.5t-136.5 361.5t140.5 363.5t350.5 144.5t346 -144.5t136 -361.5t-140 -361.5t-350 -144.5z" />
    <glyph glyph-name="p" unicode="p" horiz-adv-x="1136" 
d="M546 84q165 0 269 109q105 109 105 293t-104 289t-263 105q-158 0 -281 -83l2 -652q107 -61 272 -61zM546 989q214 0 351 -132q137 -131 137 -369t-140 -374t-345 -137q-164 0 -275 52v-412q-30 -6 -58 -6t-54 6l-2 1233q172 139 386 139z" />
    <glyph glyph-name="q" unicode="q" horiz-adv-x="1136" 
d="M596 84q168 0 266 86l2 623q-106 88 -267 88t-269 -112t-109 -293q1 -180 105 -286t272 -106zM606 989q117 0 215 -40t154 -99v-1233q-29 -6 -59 -6t-54 6v434q-119 -74 -268 -74q-217 -1 -354 131q-138 132 -138 368t146 374q146 139 358 139z" />
    <glyph glyph-name="r" unicode="r" horiz-adv-x="761" 
d="M501.5 881q-125.5 0 -227.5 -66v-815q-25 -6 -55.5 -6t-58.5 6v866q152 123 377 123q114 0 198 -31q4 -59 -28 -100q-80 23 -205.5 23z" />
    <glyph glyph-name="s" unicode="s" horiz-adv-x="921" 
d="M444 -23q-225 0 -356 117q18 57 66 84q119 -100 273 -100t222 50t68 130t-59.5 122t-215.5 66.5t-242.5 85t-86.5 183.5t100 198.5t283.5 75.5t304.5 -88q-8 -51 -49 -88q-122 74 -262 74q-264 0 -265 -160q0 -74 55.5 -110.5t212 -63.5t246.5 -89.5t90 -194.5
t-103.5 -212t-281.5 -80z" />
    <glyph glyph-name="t" unicode="t" horiz-adv-x="784" 
d="M217 287v577h-168q-6 25 -6 47.5t6 44.5h168v263q25 6 55.5 6t55.5 -6v-263h387q6 -25 6 -46.5t-6 -45.5h-387v-549q0 -238 200 -237q91 -1 193 69q41 -29 51 -81q-104 -88 -244.5 -88.5t-225.5 75.5t-85 234z" />
    <glyph glyph-name="u" unicode="u" horiz-adv-x="1134" 
d="M914 963q30 0 59 -7v-895q-201 -88 -410 -88t-308 100.5t-99 276.5v606q62 13 114 0v-559q0 -158 66.5 -237.5t226.5 -79.5t295 55v821q26 7 56 7z" />
    <glyph glyph-name="v" unicode="v" horiz-adv-x="997" 
d="M888 963q34 0 58 -11q-80 -395 -393 -954q-25 -6 -55 -6t-56 6q-114 188 -222 450t-171 504q52 19 119 6q53 -210 149 -446t175 -377q8 -16 10 -22q4 6 12 22q238 465 320 823q20 5 54 5z" />
    <glyph glyph-name="w" unicode="w" horiz-adv-x="1474" 
d="M998.5 -8q-34.5 0 -58.5 6q-98 186 -201 475q-74 -246 -196 -475q-23 -6 -58 -6t-59 6q-113 190 -216.5 451.5t-158.5 502.5q23 8 72 9l45 -3q49 -211 142 -453.5t169 -387.5q4 -12 8 -23q4 12 9 23q117 254 194 504q-53 172 -90 331q18 8 72 9l45 -3q47 -221 129 -460.5
t151 -380.5q2 -4 4.5 -10.5t4.5 -8.5q4 12 8 21q207 414 293 839l45 3q45 0 67 -9q-49 -233 -155.5 -505.5t-210.5 -448.5q-20 -6 -54.5 -6z" />
    <glyph glyph-name="x" unicode="x" horiz-adv-x="954" 
d="M800 965q28 0 74 -11l-327 -462l366 -488q-23 -10 -65 -11t-62 3l-313 424l-305 -424q-16 -4 -55 -3t-62 11l355 488l-343 462q66 16 123 9l297 -402l273 402q16 2 44 2z" />
    <glyph glyph-name="y" unicode="y" horiz-adv-x="1009" 
d="M894 963q28 0 64 -13q-186 -803 -706 -1364q-57 12 -80 70q174 188 281 362q-127 199 -234.5 450t-163.5 484q55 18 121 6q86 -375 330 -819l14 -28q7 21 15 26q227 424 307 821q24 5 52 5z" />
    <glyph glyph-name="z" unicode="z" horiz-adv-x="946" 
d="M850 915q0 -66 -49 -122l-545 -641l-53 -56h663q8 -20 8 -46t-8 -50h-778q-8 25 -8 47q0 61 51 119l569 668l27 26h-631l-6 49l6 49h750q4 -29 4 -43z" />
    <glyph glyph-name="braceleft" unicode="{" horiz-adv-x="638" 
d="M494 -262h71q10 -51 0 -103h-71q-125 0 -185 73q-59 73 -59 192v397q0 88 -31 129t-98 41h-62q-10 31 -10 55t10 56h62q69 0 99 40t30 130v389q0 121 59 195t185 75h71q10 -49 0 -102h-71q-68 0 -99 -40t-30 -128v-389q0 -162 -95 -226q94 -66 95 -225v-397
q1 -84 31 -123t98 -39z" />
    <glyph glyph-name="bar" unicode="|" horiz-adv-x="487" 
d="M193 -358v1751q49 16 102 0v-1751q-57 -16 -102 0z" />
    <glyph glyph-name="braceright" unicode="}" horiz-adv-x="638" 
d="M590 522q0 -25 -10 -55h-64q-127 0 -127 -170v-397q0 -117 -60 -191t-184 -74h-71q-12 51 0 103h71q68 0 99 39t30 123v397q0 160 95 225q-94 63 -95 226v389q0 88 -30 128q-31 40 -99 40h-71q-12 53 0 102h71q123 0 183 -76t61 -194v-389q0 -170 127 -170h64
q10 -31 10 -56z" />
    <glyph glyph-name="asciitilde" unicode="~" horiz-adv-x="1116" 
d="M729 467q104 0 156 96q57 -6 86 -53q-35 -72 -100 -112t-139 -40t-186 41t-159 41q-105 0 -156 -88q-55 6 -84 51q78 145 240 146q59 0 175 -41t167 -41z" />
    <glyph glyph-name="uni00A0" unicode="&#xa0;" horiz-adv-x="518" 
 />
    <glyph glyph-name="exclamdown" unicode="&#xa1;" horiz-adv-x="464" 
d="M231 -356q-41 0 -61 6q4 510 31 1009q31 12 63 0q29 -520 29 -1009q-21 -6 -62 -6zM232 819q-36 0 -60 25q-24 26 -25 60q0 34 25 59q26 25 60 25t60 -26q26 -24 26 -60t-26 -60q-24 -24 -60 -23z" />
    <glyph glyph-name="cent" unicode="&#xa2;" horiz-adv-x="1011" 
d="M219 632q0 -150 79 -250q79 -101 220 -122v752q-141 -20 -220 -125t-79 -255zM566 -63q-24 0 -48 6v213q-188 20 -302 144t-114 331t117 335t299 150v221q24 6 48 6t46 -6v-217q184 -8 299 -114q-16 -53 -65 -82q-106 86 -234 94v-762q139 6 242 92q47 -31 59 -82
q-125 -106 -301 -114v-209q-22 -6 -46 -6z" />
    <glyph glyph-name="sterling" unicode="&#xa3;" horiz-adv-x="1079" 
d="M987 52q0 -26 -8 -52h-819q0 109 72 255q73 146 73 253q0 25 -4 65h-205q-4 33 -4 51t4 50h185q-6 16 -39 93t-33 189q0 166 112 278q111 112 309 112t343 -121q-12 -59 -66 -86q-127 104 -277 104t-230 -82t-78 -189q0 -107 33 -185t42 -113h373q6 -24 6 -50t-6 -51
h-354q2 -20 2 -92t-58 -206t-69 -171h688q8 -26 8 -52z" />
    <glyph glyph-name="currency" unicode="&#xa4;" horiz-adv-x="1263" 
d="M631 287q152 -1 258 107t106 262t-106 259q-106 107 -258 107t-257 -106q-106 -106 -106 -261q0 -154 106 -261t257 -107zM1106 653q0 -162 -102 -295l112 -114q-37 -55 -84 -82l-112 114q-129 -96 -288 -96t-286 96l-115 -114q-51 31 -81 82l112 116q-102 129 -102 294
t100 292l-115 119q37 55 84 84l115 -119q127 98 289 98t287 -98l114 117q49 -31 84 -82l-114 -117q102 -133 102 -295z" />
    <glyph glyph-name="yen" unicode="&#xa5;" horiz-adv-x="1103" 
d="M608 551v-152h287q6 -20 6 -44t-6 -48h-287v-307q-26 -6 -56 -6t-60 6v307h-289q-6 25 -6 47t6 45h289v152h-289q-6 20 -6 44t6 46h256l-398 659q60 17 121 7l357 -598l18 -37l16 37l361 598q14 4 48 4t65 -11l-402 -659h250q6 -19 6 -43t-6 -47h-287z" />
    <glyph glyph-name="brokenbar" unicode="&#xa6;" horiz-adv-x="485" 
d="M190 -358v716q53 14 105 0v-716q-60 -16 -105 0zM190 678v715q53 18 105 0v-715q-52 -18 -105 0z" />
    <glyph glyph-name="section" unicode="&#xa7;" horiz-adv-x="1101" 
d="M1010 240q0 -196 -135 -329q-135 -134 -338 -134t-383 133q8 66 63 90q80 -59 151 -87t175 -28q154 -1 256 101t102 248t-129 282l-301 272q16 55 76 84l299 -272q164 -164 164 -360zM92 886q0 196 135 330t336 134t387 -136q-10 -63 -63 -88q-80 59 -152 87t-176 28
q-152 0 -254 -102q-102 -101 -102 -247t131 -278l301 -272q-21 -57 -76 -84l-301 270q-166 162 -166 358z" />
    <glyph glyph-name="dieresis" unicode="&#xa8;" horiz-adv-x="686" 
d="M548 1149q-36 0 -60.5 23.5t-24.5 59.5t24.5 60.5t60.5 24.5t60.5 -24.5t24.5 -60.5t-24.5 -59.5t-60.5 -23.5zM138 1149q-36 0 -60.5 23.5t-24.5 59.5t24.5 60.5t60.5 24.5t60.5 -24.5t24.5 -60.5t-24.5 -59.5t-60.5 -23.5z" />
    <glyph glyph-name="copyright" unicode="&#xa9;" horiz-adv-x="1544" 
d="M784 236q-164 0 -269 105t-105 285t107 287t271 107t265 -92q-12 -49 -58 -78q-90 76 -215 76q-124 0 -198 -85t-74 -213t73 -212t205 -84t220 80q45 -27 53 -78q-111 -98 -275 -98zM772 1227q-240 0 -406 -173t-167 -422q1 -249 167 -423t406 -174t408 175t168 422
t-168 421t-408 174zM774 1313q276 0 466 -199q190 -200 192 -484q0 -284 -191 -482t-469 -197q-278 -1 -468 197q-191 198 -191 483q1 285 193 483t468 199z" />
    <glyph glyph-name="ordfeminine" unicode="&#xaa;" horiz-adv-x="778" 
d="M215 904q0 -58 45 -91t132 -33t155 31v172q-78 43 -162 43t-127 -32t-43 -90zM387 1362q252 0 252 -250v-354q-127 -60 -259 -60t-199 56t-67 150q0 93 72 149q72 55 178 55t183 -37v53q0 145 -166 150q-104 0 -195 -66q-45 20 -51 68q115 86 252 86z" />
    <glyph glyph-name="guillemotleft" unicode="&#xab;" horiz-adv-x="872" 
d="M680 217l-272 305l272 314q37 -8 53 -45l-184 -267l184 -266q-12 -33 -53 -41zM362 217l-272 305l272 314q37 -8 54 -45l-185 -267l185 -266q-13 -33 -54 -41z" />
    <glyph glyph-name="registered" unicode="&#xae;" horiz-adv-x="1544" 
d="M973 1005q0 159 -207 158q-82 0 -156 -12v-295q59 -12 160 -12q203 2 203 161zM1063 1022q0 -183 -168 -242l195 -336q-33 -8 -61 -8t-38 2l-186 326q-11 -2 -71 -2t-124 10v-328q-12 -6 -42 -6t-46 6v775q111 27 251 27t215 -64q75 -62 75 -160zM772 1436
q-240 0 -406 -173t-167 -422q1 -249 167 -423t406 -174t409 175t169 422t-169 421t-409 174zM774 1522q276 0 466 -199t192 -483q0 -284 -190 -482t-468 -198q-276 0 -469 198t-193 483t194 483q192 198 468 198z" />
    <glyph glyph-name="macron" unicode="&#xaf;" horiz-adv-x="641" 
d="M55 1208q0 29 6 52h519q8 -23 8 -47.5t-8 -47.5h-519q-6 14 -6 43z" />
    <glyph glyph-name="degree" unicode="&#xb0;" horiz-adv-x="675" 
d="M184 1156q0 -64 45 -112t109 -47q64 0 111 47q45 47 45 112t-45 110t-110 45t-110 -45q-45 -46 -45 -110zM338 920q-96 0 -165 68t-69 166q0 97 69 166t165 69t165 -69t69 -166t-69 -166q-69 -68 -165 -68z" />
    <glyph glyph-name="plusminus" unicode="&#xb1;" horiz-adv-x="1110" 
d="M145 96h820q12 -51 0 -100h-820q-16 49 0 100zM504 569h-359q-16 51 0 101h359v315q49 12 100 0v-315h361q12 -51 0 -101h-361v-319q-51 -12 -100 0v319z" />
    <glyph glyph-name="acute" unicode="&#xb4;" horiz-adv-x="440" 
d="M82 1077q-27 16 -35 47l293 271q49 -27 74 -95z" />
    <glyph glyph-name="paragraph" unicode="&#xb6;" horiz-adv-x="1173" 
d="M600 301q32 0 55 -8v-658q-37 -8 -56 -8t-56 8v658q25 8 57 8zM582 1229q-199 0 -299 -84q-101 -84 -101 -239t100 -243t298 -88q154 -2 276 19v602q-135 33 -274 33zM971 1266v-1633q-25 -8 -58 -8t-57 8v856q-123 -18 -276 -18q-250 0 -384 120q-134 121 -134 317
t132 311q134 115 372 115t405 -58l-2 -10h2z" />
    <glyph glyph-name="periodcentered" unicode="&#xb7;" horiz-adv-x="466" 
d="M233 582q-39 0 -65 26t-27 66q0 40 27 66q28 26 66 26t66 -27t28 -65t-28 -66q-28 -26 -67 -26z" />
    <glyph glyph-name="cedilla" unicode="&#xb8;" horiz-adv-x="466" 
d="M194 -309q122 0 121.5 81t-159.5 89l59 151h82l-35 -92q156 -29 156 -141q0 -88 -67.5 -127t-154.5 -39t-128 22q6 45 30 74q42 -18 96 -18z" />
    <glyph glyph-name="ordmasculine" unicode="&#xba;" horiz-adv-x="856" 
d="M428 791q102 0 162 64q59 65 59 175t-59 176q-58 64 -160 64t-164 -66t-61 -174t61 -174q60 -65 162 -65zM425 700q-140 0 -229 90q-90 90 -90 240t92 241t232 91q141 0 230 -91q90 -91 90 -239t-92 -240t-233 -92z" />
    <glyph glyph-name="guillemotright" unicode="&#xbb;" horiz-adv-x="872" 
d="M512 217q-43 8 -55 41l184 264l-184 269q16 37 55 45l270 -314zM195 217q-43 8 -56 41l185 264l-185 269q16 37 56 45l270 -314z" />
    <glyph glyph-name="onequarter" unicode="&#xbc;" horiz-adv-x="1509" 
d="M1442 208q0 -15 -4 -48h-80v-162q-16 -2 -48 -2t-48 2v162h-375q-25 66 10 141l264 498q51 -2 92 -41l-231 -441q-23 -47 -21 -65h261v229q33 4 48 4t48 -4v-229h80q4 -29 4 -44zM325 1315q22 0 42 -4v-770q-33 -4 -53 -4t-54 4v661l-156 -80q-33 27 -43 78
q190 102 216 108t48 7zM1120 1346q55 12 113 0l-971 -1442q-57 -14 -110 0z" />
    <glyph glyph-name="onehalf" unicode="&#xbd;" horiz-adv-x="1515" 
d="M1434 47q0 -33 -7 -47h-509q-17 51 30 94q209 215 274 301q64 85 64 151t-39 104t-106 38q-102 0 -170 -76q-45 14 -56 62q93 106 215 106t190 -58t69 -158q0 -100 -66 -189q-66 -90 -246 -269l-22 -18l37 4h338q4 -12 4 -45zM314 535q-28 0 -54 6v659l-158 -82
q-31 31 -41 80q143 78 185 96t76 18q35 0 45 -3v-768q-25 -6 -53 -6zM1133 1346q55 12 110 0l-969 -1442q-57 -14 -112 0z" />
    <glyph glyph-name="threequarters" unicode="&#xbe;" horiz-adv-x="1583" 
d="M1513 207q0 -31 -2 -47h-79v-162q-16 -2 -50 -2t-49 2v162h-372q-27 68 10 141l262 498q53 -2 92 -41l-229 -441q-23 -47 -21 -65h258v229q33 4 49 4t50 -4v-229h79q2 -14 2 -45zM320 625q94 0 148 44t54 122q0 170 -219 165h-43q-6 10 -6 29t16 37l172 203h-342
q-6 20 -6 45t6 45h482q10 -45 -23 -82l-176 -199q106 -8 172 -67t66 -176t-85 -184t-219 -67t-227 83q8 45 51 73q85 -71 179 -71zM1239 1346q57 12 113 0l-971 -1442q-57 -14 -111 0z" />
    <glyph glyph-name="questiondown" unicode="&#xbf;" horiz-adv-x="839" 
d="M495 -344q-177 0 -293 113t-116 287t100 286t258 139q2 47 19 166q9 2 29 2t30 -2q20 -143 21 -262h-15q-150 0 -240 -86t-89 -227q0 -140 83 -224t215 -84t230 72q45 -31 51 -78q-106 -102 -283 -102zM486 817q-36 0 -60 24q-24 25 -25 61q0 36 25 61q26 25 60 25
t60 -26q26 -24 26 -61t-26 -61q-24 -24 -60 -23z" />
    <glyph glyph-name="Agrave" unicode="&#xc0;" horiz-adv-x="1214" 
d="M348 496h514l-231 598l-31 94l-31 -94zM1111 -6q-40 0 -56 4l-154 399h-590l-147 -397q-25 -6 -56.5 -6t-62.5 16l500 1305q25 8 58.5 8t58.5 -8l516 -1305q-27 -16 -67 -16zM778 1442q-2 -33 -24 -51l-369 168q2 70 59 104z" />
    <glyph glyph-name="Aacute" unicode="&#xc1;" horiz-adv-x="1214" 
d="M348 496h514l-231 598l-31 94l-31 -94zM1111 -6q-40 0 -56 4l-154 399h-590l-147 -397q-25 -6 -56.5 -6t-62.5 16l500 1305q25 8 58.5 8t58.5 -8l516 -1305q-27 -16 -67 -16zM446 1391q-25 20 -26 51l334 221q57 -33 59 -104z" />
    <glyph glyph-name="Acircumflex" unicode="&#xc2;" horiz-adv-x="1214" 
d="M348 496h514l-231 598l-31 94l-31 -94zM1111 -6q-40 0 -56 4l-154 399h-590l-147 -397q-25 -6 -56.5 -6t-62.5 16l500 1305q25 8 58.5 8t58.5 -8l516 -1305q-27 -16 -67 -16zM381 1389q-33 18 -41 59l223 197q43 12 84 0l223 -195q-12 -41 -41 -61l-229 163z" />
    <glyph glyph-name="Atilde" unicode="&#xc3;" horiz-adv-x="1214" 
d="M348 496h514l-231 598l-31 94l-31 -94zM1111 -6q-40 0 -56 4l-154 399h-590l-147 -397q-25 -6 -56.5 -6t-62.5 16l500 1305q25 8 58.5 8t58.5 -8l516 -1305q-27 -16 -67 -16zM477 1518q-96 0 -123 -91q-55 0 -86 31q49 158 205 158q51 0 139 -43t123 -43q94 0 121 90
q61 0 86 -31q-49 -158 -201 -157q-55 0 -143 43t-121 43z" />
    <glyph glyph-name="Adieresis" unicode="&#xc4;" horiz-adv-x="1214" 
d="M348 496h514l-231 598l-31 94l-31 -94zM1111 -6q-40 0 -56 4l-154 399h-590l-147 -397q-25 -6 -56.5 -6t-62.5 16l500 1305q25 8 58.5 8t58.5 -8l516 -1305q-27 -16 -67 -16zM807 1452q-35 0 -58.5 23.5t-23.5 59.5t23.5 59.5t57.5 23.5t58.5 -24.5t24.5 -59.5
t-23.5 -58.5t-58.5 -23.5zM405 1452q-36 0 -61 23.5t-25 59.5t25 59.5t60 23.5t58 -23.5t23 -59.5t-22 -59.5t-58 -23.5z" />
    <glyph glyph-name="Aring" unicode="&#xc5;" horiz-adv-x="1214" 
d="M348 496h514l-231 598l-31 94l-31 -94zM1111 -6q-40 0 -56 4l-154 399h-590l-147 -397q-25 -6 -56.5 -6t-62.5 16l500 1305q25 8 58.5 8t58.5 -8l516 -1305q-27 -16 -67 -16zM606 1638q-45 0 -74.5 -31.5t-29.5 -76.5t29.5 -77t74.5 -32t74 32t29 77t-29 76.5t-74 31.5z
M606 1341q-78 0 -133 55.5t-55 133.5t55 132t133 54t132.5 -55t54.5 -132t-54.5 -132.5t-132.5 -55.5z" />
    <glyph glyph-name="AE" unicode="&#xc6;" horiz-adv-x="1638" 
d="M821 651v471l4 84l-45 -86l-276 -469h317zM1546 52.5q0 -24.5 -6 -52.5h-719v545h-381l-321 -547q-16 -4 -49 -4t-72 14l768 1307h745q8 -37 8.5 -53t-8.5 -54h-575v-557h514q8 -37 8 -53t-8 -53h-514v-439h604q6 -29 6 -53.5z" />
    <glyph glyph-name="Ccedilla" unicode="&#xc7;" horiz-adv-x="1228" 
d="M681 -309q122 0 122 81t-160 89l45 112q-262 20 -419.5 210t-157.5 482.5t182 487.5t463 195q229 0 395 -123q-14 -63 -64 -90q-150 104 -331 104q-231 0 -379 -160.5t-148 -420t143.5 -419t367.5 -159.5t366 117q51 -29 59 -86q-156 -131 -395 -140l-20 -51
q156 -29 155 -141q0 -88 -67.5 -127t-154.5 -39t-128 22q6 45 31 74q41 -18 95 -18z" />
    <glyph glyph-name="Egrave" unicode="&#xc8;" horiz-adv-x="1110" 
d="M1018 51.5q0 -29.5 -8 -51.5h-813v1315h788q8 -23 8 -53.5t-8 -53.5h-676v-475h609q8 -25 8 -52.5t-8 -51.5h-609v-525h701q8 -23 8 -52.5zM784 1442q-2 -33 -24 -51l-369 168q2 70 60 104z" />
    <glyph glyph-name="Eacute" unicode="&#xc9;" horiz-adv-x="1110" 
d="M1018 51.5q0 -29.5 -8 -51.5h-813v1315h788q8 -23 8 -53.5t-8 -53.5h-676v-475h609q8 -25 8 -52.5t-8 -51.5h-609v-525h701q8 -23 8 -52.5zM453 1391q-25 20 -27 51l334 221q57 -33 59 -104z" />
    <glyph glyph-name="Ecircumflex" unicode="&#xca;" horiz-adv-x="1110" 
d="M1018 51.5q0 -29.5 -8 -51.5h-813v1315h788q8 -23 8 -53.5t-8 -53.5h-676v-475h609q8 -25 8 -52.5t-8 -51.5h-609v-525h701q8 -23 8 -52.5zM387 1389q-33 18 -41 59l223 197q43 12 84 0l224 -195q-12 -41 -41 -61l-230 163z" />
    <glyph glyph-name="Edieresis" unicode="&#xcb;" horiz-adv-x="1110" 
d="M1018 51.5q0 -29.5 -8 -51.5h-813v1315h788q8 -23 8 -53.5t-8 -53.5h-676v-475h609q8 -25 8 -52.5t-8 -51.5h-609v-525h701q8 -23 8 -52.5zM813 1452q-35 0 -58.5 23.5t-23.5 59.5t23.5 59.5t58.5 23.5t58.5 -24.5t23.5 -59.5t-23.5 -58.5t-58.5 -23.5zM411 1452
q-36 0 -60.5 23.5t-24.5 59.5t24.5 59.5t59.5 23.5t58.5 -23.5t23.5 -59.5t-22.5 -59.5t-58.5 -23.5z" />
    <glyph glyph-name="Igrave" unicode="&#xcc;" horiz-adv-x="507" 
d="M256 -8q-18 0 -59 8v1315q27 8 58.5 8t55.5 -8v-1315q-37 -8 -55 -8zM365 1399l-304 164q6 68 64 98l268 -217q-1 -27 -28 -45z" />
    <glyph glyph-name="Iacute" unicode="&#xcd;" horiz-adv-x="507" 
d="M256 -8q-18 0 -59 8v1315q27 8 58.5 8t55.5 -8v-1315q-37 -8 -55 -8zM131 1395q-27 16 -29 45l269 217q57 -29 63 -98z" />
    <glyph glyph-name="Icircumflex" unicode="&#xce;" horiz-adv-x="507" 
d="M256 -8q-18 0 -59 8v1315q27 8 58.5 8t55.5 -8v-1315q-37 -8 -55 -8zM293 1645l188 -193q-10 -35 -47 -55l-184 153l-176 -155q-39 16 -47 49l188 201q41 10 78 0z" />
    <glyph glyph-name="Idieresis" unicode="&#xcf;" horiz-adv-x="507" 
d="M256 -8q-18 0 -59 8v1315q27 8 58.5 8t55.5 -8v-1315q-37 -8 -55 -8zM409.5 1440q-34.5 0 -59 24.5t-24.5 59.5t24.5 58.5t58.5 23.5t58.5 -25t24.5 -58.5t-24 -58t-58.5 -24.5zM104.5 1440q-34.5 0 -59.5 24.5t-25 59.5t25 58.5t59.5 23.5t58 -23.5t23.5 -58.5
t-23.5 -59.5t-58 -24.5z" />
    <glyph glyph-name="Eth" unicode="&#xd0;" horiz-adv-x="1380" 
d="M559 86q279 0 435 156t155.5 416t-157 414.5t-447.5 154.5q-139 0 -236 -13v-505h240q8 -29 8 -46t-8 -51h-240v-512q109 -14 250 -14zM545 1333q342 0 533.5 -183t191.5 -485t-193.5 -492.5t-519.5 -190.5q-205 0 -360 22v608h-154q-8 29 -8 48t8 49h154v598
q174 26 348 26z" />
    <glyph glyph-name="Ntilde" unicode="&#xd1;" horiz-adv-x="1396" 
d="M1146 1325q17 0 54 -8v-1309q-43 -12 -100 -12l-766 1081l-29 53l2 -61v-1069q-25 -8 -55.5 -8t-54.5 8v1305q51 29 104 16l766 -1083l27 -45l-2 65v1059q37 8 54 8zM573 1518q-96 0 -122 -91q-55 0 -86 31q49 158 204 158q53 0 141.5 -43t120.5 -43q94 0 121 90
q61 0 86 -31q-49 -158 -200 -157q-55 0 -143.5 43t-121.5 43z" />
    <glyph glyph-name="Ograve" unicode="&#xd2;" horiz-adv-x="1495" 
d="M747.5 80q235.5 0 377 161.5t141.5 419.5t-141.5 419t-378 161t-377 -160.5t-140.5 -419t141.5 -420t377 -161.5zM747 -27q-282 0 -459 194.5t-177 490.5t177 493t459.5 197t459.5 -193.5t177 -491t-177.5 -494t-459.5 -196.5zM895 1391l-369 168q2 70 60 104l334 -221
q-2 -33 -25 -51z" />
    <glyph glyph-name="Oacute" unicode="&#xd3;" horiz-adv-x="1495" 
d="M747.5 80q235.5 0 377 161.5t141.5 419.5t-141.5 419t-378 161t-377 -160.5t-140.5 -419t141.5 -420t377 -161.5zM747 -27q-282 0 -459 194.5t-177 490.5t177 493t459.5 197t459.5 -193.5t177 -491t-177.5 -494t-459.5 -196.5zM588 1391q-25 20 -27 51l334 221
q57 -33 59 -104z" />
    <glyph glyph-name="Ocircumflex" unicode="&#xd4;" horiz-adv-x="1495" 
d="M747.5 80q235.5 0 377 161.5t141.5 419.5t-141.5 419t-378 161t-377 -160.5t-140.5 -419t141.5 -420t377 -161.5zM747 -27q-282 0 -459 194.5t-177 490.5t177 493t459.5 197t459.5 -193.5t177 -491t-177.5 -494t-459.5 -196.5zM522 1389q-33 18 -41 59l224 197
q43 12 83 0l224 -195q-12 -41 -41 -61l-230 163z" />
    <glyph glyph-name="Otilde" unicode="&#xd5;" horiz-adv-x="1495" 
d="M747.5 80q235.5 0 377 161.5t141.5 419.5t-141.5 419t-378 161t-377 -160.5t-140.5 -419t141.5 -420t377 -161.5zM747 -27q-282 0 -459 194.5t-177 490.5t177 493t459.5 197t459.5 -193.5t177 -491t-177.5 -494t-459.5 -196.5zM614 1616q53 0 141.5 -43t121.5 -43
q94 0 120 90q61 0 86 -31q-49 -158 -200 -157q-55 0 -143.5 43t-121.5 43q-95 -1 -122 -91q-55 0 -86 31q49 158 204 158z" />
    <glyph glyph-name="Odieresis" unicode="&#xd6;" horiz-adv-x="1495" 
d="M747.5 80q235.5 0 377 161.5t141.5 419.5t-141.5 419t-378 161t-377 -160.5t-140.5 -419t141.5 -420t377 -161.5zM747 -27q-282 0 -459 194.5t-177 490.5t177 493t459.5 197t459.5 -193.5t177 -491t-177.5 -494t-459.5 -196.5zM948 1452q-35 0 -58.5 23.5t-23.5 59.5
t23.5 59.5t58.5 23.5t58.5 -24.5t23.5 -59.5t-23.5 -58.5t-58.5 -23.5zM546 1452q-36 0 -60.5 23.5t-24.5 59.5t24.5 59.5t59.5 23.5t58.5 -23.5t23.5 -59.5t-22.5 -59.5t-58.5 -23.5z" />
    <glyph glyph-name="multiply" unicode="&#xd7;" horiz-adv-x="940" 
d="M805 760l-262 -262l262 -265q-27 -43 -72 -71l-262 264l-262 -262q-41 23 -72 69l262 263l-262 262q27 45 72 71l262 -262l262 262q43 -24 72 -69z" />
    <glyph glyph-name="Oslash" unicode="&#xd8;" horiz-adv-x="1495" 
d="M1266 642.5q0 239.5 -105 391.5l-755 -829q137 -125 357.5 -125t361.5 161.5t141 401zM229 678.5q0 -240.5 109 -393.5l756 827q-139 129 -361.5 129t-363 -161t-140.5 -401.5zM1384 649q0 -283 -178 -479.5t-458 -196.5q-246 0 -416 152l-142 -156q-59 20 -73 74
l143 158q-150 184 -149.5 468.5t177.5 481.5t460 197q246 0 419 -154l142 154q52 -17 75 -68l-147 -162q147 -186 147 -469z" />
    <glyph glyph-name="Ugrave" unicode="&#xd9;" horiz-adv-x="1376" 
d="M694 -29q-229 0 -371.5 145.5t-142.5 395.5v803q41 8 61 8t56 -8v-803q0 -193 105.5 -311.5t290.5 -118.5t286.5 118.5t101.5 311.5v803q41 8 60.5 8t52.5 -8v-803q0 -248 -135.5 -394.5t-364.5 -146.5zM848 1391l-369 168q2 70 60 104l333 -221q-1 -33 -24 -51z" />
    <glyph glyph-name="Uacute" unicode="&#xda;" horiz-adv-x="1376" 
d="M694 -29q-229 0 -371.5 145.5t-142.5 395.5v803q41 8 61 8t56 -8v-803q0 -193 105.5 -311.5t290.5 -118.5t286.5 118.5t101.5 311.5v803q41 8 60.5 8t52.5 -8v-803q0 -248 -135.5 -394.5t-364.5 -146.5zM541 1391q-25 20 -27 51l334 221q57 -33 59 -104z" />
    <glyph glyph-name="Ucircumflex" unicode="&#xdb;" horiz-adv-x="1376" 
d="M694 -29q-229 0 -371.5 145.5t-142.5 395.5v803q41 8 61 8t56 -8v-803q0 -193 105.5 -311.5t290.5 -118.5t286.5 118.5t101.5 311.5v803q41 8 60.5 8t52.5 -8v-803q0 -248 -135.5 -394.5t-364.5 -146.5zM475 1389q-33 18 -41 59l223 197q43 12 84 0l224 -195
q-12 -41 -41 -61l-230 163z" />
    <glyph glyph-name="Udieresis" unicode="&#xdc;" horiz-adv-x="1376" 
d="M694 -29q-229 0 -371.5 145.5t-142.5 395.5v803q41 8 61 8t56 -8v-803q0 -193 105.5 -311.5t290.5 -118.5t286.5 118.5t101.5 311.5v803q41 8 60.5 8t52.5 -8v-803q0 -248 -135.5 -394.5t-364.5 -146.5zM901 1452q-35 0 -58.5 23.5t-23.5 59.5t23.5 59.5t57.5 23.5
t58.5 -24.5t24.5 -59.5t-23.5 -58.5t-58.5 -23.5zM499 1452q-36 0 -60.5 23.5t-24.5 59.5t24.5 59.5t59.5 23.5t58.5 -23.5t23.5 -59.5t-22.5 -59.5t-58.5 -23.5z" />
    <glyph glyph-name="Yacute" unicode="&#xdd;" horiz-adv-x="1163" 
d="M1054 1325q36 0 66 -12l-481 -785v-528q-37 -8 -56 -8t-57 8v532l-493 781q37 12 69 12t56 -4l407 -641l23 -47l22 47l391 641q17 4 53 4zM422 1391q-25 20 -27 51l334 221q57 -33 59 -104z" />
    <glyph glyph-name="Thorn" unicode="&#xde;" horiz-adv-x="1103" 
d="M903 661.5q0 145.5 -92 226.5t-272 81q-117 0 -226 -23v-586q115 -18 230 -16q182 0 271 86t89 231.5zM541 1073q236 0 359.5 -108.5t123.5 -297t-126 -307t-353 -118.5q-133 0 -232 12v-254q-37 -8 -56 -8t-60 8v1317q41 8 60 8t56 -8v-268q117 24 228 24z" />
    <glyph glyph-name="germandbls" unicode="&#xdf;" horiz-adv-x="1163" 
d="M625 732q-1 -66 41 -101t166 -86t188 -113t63 -183q0 -120 -87 -196t-228 -76q-98 0 -175 36t-118 79q10 57 66 82q95 -96 211 -96q218 0 219 168q0 72 -44 112t-133 76q-89 37 -124 55q-105 54 -139 124q-19 42 -19 100q0 125 93 193t229 67q25 0 49 -4q-2 156 -79 248
t-220 92q-144 0 -224 -82t-79 -232v-995q-27 -6 -56 -6t-57 6v995q0 193 120 305t300 113q180 0 294 -118t113 -337q0 -55 -10 -96q-205 41 -301 -25q-58 -39 -59 -105z" />
    <glyph glyph-name="agrave" unicode="&#xe0;" horiz-adv-x="1019" 
d="M203 289q0 -94 72.5 -152.5t221 -58.5t269.5 49v287q-131 70 -275.5 69.5t-216 -50.5t-71.5 -144zM766 623q0 260 -302 260q-148 0 -276 -95q-47 23 -57 76q47 45 139 85t211 40q176 0 286 -89t110 -273v-564q-160 -88 -374.5 -88t-315.5 85t-101 226.5t108.5 220.5
t274.5 79t297 -64v101zM657 1124q-4 -29 -32 -47l-332 223q25 70 74 95z" />
    <glyph glyph-name="aacute" unicode="&#xe1;" horiz-adv-x="1019" 
d="M203 289q0 -94 72.5 -152.5t221 -58.5t269.5 49v287q-131 70 -275.5 69.5t-216 -50.5t-71.5 -144zM766 623q0 260 -302 260q-148 0 -276 -95q-47 23 -57 76q47 45 139 85t211 40q176 0 286 -89t110 -273v-564q-160 -88 -374.5 -88t-315.5 85t-101 226.5t108.5 220.5
t274.5 79t297 -64v101zM346 1077q-27 16 -35 47l293 271q49 -27 74 -95z" />
    <glyph glyph-name="acircumflex" unicode="&#xe2;" horiz-adv-x="1019" 
d="M203 289q0 -94 72.5 -152.5t221 -58.5t269.5 49v287q-131 70 -275.5 69.5t-216 -50.5t-71.5 -144zM766 623q0 260 -302 260q-148 0 -276 -95q-47 23 -57 76q47 45 139 85t211 40q176 0 286 -89t110 -273v-564q-160 -88 -374.5 -88t-315.5 85t-101 226.5t108.5 220.5
t274.5 79t297 -64v101zM285 1087q-41 16 -56 60l224 231q41 10 82 0l221 -231q-18 -47 -60 -64l-207 193z" />
    <glyph glyph-name="atilde" unicode="&#xe3;" horiz-adv-x="1019" 
d="M203 289q0 -94 72.5 -152.5t221 -58.5t269.5 49v287q-131 70 -275.5 69.5t-216 -50.5t-71.5 -144zM766 623q0 260 -302 260q-148 0 -276 -95q-47 23 -57 76q47 45 139 85t211 40q176 0 286 -89t110 -273v-564q-160 -88 -374.5 -88t-315.5 85t-101 226.5t108.5 220.5
t274.5 79t297 -64v101zM365 1235q-84 0 -113 -92q-57 0 -88 31q49 158 192 157q57 0 146.5 -43t124.5 -43q82 0 112 90q53 0 84 -30q-20 -74 -71.5 -115t-112.5 -41t-150 43t-124 43z" />
    <glyph glyph-name="adieresis" unicode="&#xe4;" horiz-adv-x="1019" 
d="M203 289q0 -94 72.5 -152.5t221 -58.5t269.5 49v287q-131 70 -275.5 69.5t-216 -50.5t-71.5 -144zM766 623q0 260 -302 260q-148 0 -276 -95q-47 23 -57 76q47 45 139 85t211 40q176 0 286 -89t110 -273v-564q-160 -88 -374.5 -88t-315.5 85t-101 226.5t108.5 220.5
t274.5 79t297 -64v101zM699 1149q-36 0 -60.5 23.5t-24.5 59.5t25 60.5t60.5 24.5t60 -24.5t24.5 -60.5t-24.5 -59.5t-60.5 -23.5zM290 1149q-36 0 -60.5 23.5t-24.5 59.5t24.5 60.5t60.5 24.5t60.5 -24.5t24.5 -60.5t-24.5 -59.5t-60.5 -23.5z" />
    <glyph glyph-name="aring" unicode="&#xe5;" horiz-adv-x="1019" 
d="M203 289q0 -94 72.5 -152.5t221 -58.5t269.5 49v287q-131 70 -275.5 69.5t-216 -50.5t-71.5 -144zM766 623q0 260 -302 260q-148 0 -276 -95q-47 23 -57 76q47 45 139 85t211 40q176 0 286 -89t110 -273v-564q-160 -88 -374.5 -88t-315.5 85t-101 226.5t108.5 220.5
t274.5 79t297 -64v101zM497 1343q-46 0 -77 -32.5t-31 -76.5t31 -77t77 -33t75.5 32t29.5 77t-29.5 77.5t-75.5 32.5zM495 1044q-77 0 -132.5 55.5t-55.5 133.5t55.5 133t133 55t132 -55t54.5 -133t-55 -133.5t-132 -55.5z" />
    <glyph glyph-name="ae" unicode="&#xe6;" horiz-adv-x="1638" 
d="M737 461h-264q-268 -2 -268 -193q-2 -90 56.5 -141t166.5 -51t201 78q49 41 78.5 120.5t29.5 186.5zM1421 559q0 139 -64.5 232.5t-193.5 93.5t-216 -93.5t-93 -232.5h567zM737 637q1 244 -285 244q-138 0 -268 -99q-41 25 -59 80q51 47 142 87t211 40t215 -55t126 -178
q43 109 137.5 171t204.5 62q176 0 276.5 -125t100.5 -340q0 -41 -2 -63h-684v-6q4 -178 91 -276.5t228 -98.5q72 0 133.5 20.5t85 37t66.5 50.5q45 -27 62 -86q-166 -127 -347 -127q-311 0 -387 279q-41 -137 -143 -208t-241.5 -71t-226.5 78t-87 214t104.5 213t282.5 77
l264 2v78z" />
    <glyph glyph-name="ccedilla" unicode="&#xe7;" horiz-adv-x="991" 
d="M525 -309q122 0 122 81t-160 89l45 116q-193 16 -311.5 150.5t-118.5 357.5t139.5 363.5t339.5 140.5t322 -110q-16 -53 -65 -84q-113 90 -267.5 90t-253 -117t-98.5 -289t97.5 -284.5t258.5 -112.5t279 96q49 -29 64 -82q-125 -111 -304 -121l-20 -55q156 -29 156 -141
q0 -88 -68 -127t-155 -39t-128 22q6 45 31 74q41 -18 95 -18z" />
    <glyph glyph-name="egrave" unicode="&#xe8;" horiz-adv-x="1071" 
d="M858 557q0 152 -82 241t-219 89t-228.5 -93.5t-105.5 -236.5h635zM579.5 80q163.5 0 299.5 106q47 -23 61 -77q-158 -133 -367 -133.5t-340 134t-131 365.5t132.5 372.5t319.5 141.5t305 -119.5t120 -328.5q0 -29 -6 -80h-754q4 -174 100.5 -277.5t260 -103.5zM719 1124
q-4 -29 -33 -47l-332 223q25 70 74 95z" />
    <glyph glyph-name="eacute" unicode="&#xe9;" horiz-adv-x="1071" 
d="M858 557q0 152 -82 241t-219 89t-228.5 -93.5t-105.5 -236.5h635zM579.5 80q163.5 0 299.5 106q47 -23 61 -77q-158 -133 -367 -133.5t-340 134t-131 365.5t132.5 372.5t319.5 141.5t305 -119.5t120 -328.5q0 -29 -6 -80h-754q4 -174 100.5 -277.5t260 -103.5zM408 1077
q-27 16 -35 47l293 271q49 -27 73 -95z" />
    <glyph glyph-name="ecircumflex" unicode="&#xea;" horiz-adv-x="1071" 
d="M858 557q0 152 -82 241t-219 89t-228.5 -93.5t-105.5 -236.5h635zM579.5 80q163.5 0 299.5 106q47 -23 61 -77q-158 -133 -367 -133.5t-340 134t-131 365.5t132.5 372.5t319.5 141.5t305 -119.5t120 -328.5q0 -29 -6 -80h-754q4 -174 100.5 -277.5t260 -103.5zM346 1087
q-41 16 -55 60l223 231q41 10 82 0l221 -231q-18 -47 -59 -64l-207 193z" />
    <glyph glyph-name="edieresis" unicode="&#xeb;" horiz-adv-x="1071" 
d="M858 557q0 152 -82 241t-219 89t-228.5 -93.5t-105.5 -236.5h635zM579.5 80q163.5 0 299.5 106q47 -23 61 -77q-158 -133 -367 -133.5t-340 134t-131 365.5t132.5 372.5t319.5 141.5t305 -119.5t120 -328.5q0 -29 -6 -80h-754q4 -174 100.5 -277.5t260 -103.5zM759 1149
q-36 0 -60.5 23.5t-24.5 59.5t24.5 60.5t60.5 24.5t60.5 -24.5t24.5 -60.5t-24.5 -59.5t-60.5 -23.5zM349 1149q-36 0 -60.5 23.5t-24.5 59.5t24.5 60.5t60.5 24.5t60.5 -24.5t24.5 -60.5t-24.5 -59.5t-60.5 -23.5z" />
    <glyph glyph-name="igrave" unicode="&#xec;" horiz-adv-x="456" 
d="M230 -6q-30 0 -58 6v963q25 8 57.5 8t55.5 -8v-963q-25 -6 -55 -6zM336 1077l-301 244q20 68 88 92l254 -291q-8 -31 -41 -45z" />
    <glyph glyph-name="iacute" unicode="&#xed;" horiz-adv-x="456" 
d="M230 -6q-30 0 -58 6v963q25 8 57.5 8t55.5 -8v-963q-25 -6 -55 -6zM113 1077q-33 14 -41 45l256 291q68 -27 88 -92z" />
    <glyph glyph-name="icircumflex" unicode="&#xee;" horiz-adv-x="456" 
d="M230 -6q-30 0 -58 6v963q25 8 57.5 8t55.5 -8v-963q-25 -6 -55 -6zM260 1380l182 -233q-12 -35 -49 -47l-172 180l-170 -180q-37 12 -51 47l186 235q39 6 74 -2z" />
    <glyph glyph-name="idieresis" unicode="&#xef;" horiz-adv-x="456" 
d="M230 -6q-30 0 -58 6v963q25 8 57.5 8t55.5 -8v-963q-25 -6 -55 -6zM379 1149q-35 0 -59.5 23.5t-24.5 58.5t24.5 58.5t59.5 23.5t58.5 -23.5t23.5 -58.5t-23.5 -58.5t-58.5 -23.5zM65.5 1149q-34.5 0 -60 23.5t-25.5 58.5t24.5 58.5t60.5 23.5t58 -23.5t22 -58.5
t-22.5 -58.5t-57 -23.5z" />
    <glyph glyph-name="eth" unicode="&#xf0;" horiz-adv-x="1112" 
d="M554 78q153 0 242 100t89 258t-91 256t-241 98t-242 -98t-92 -258t91 -258t244 -98zM1004 455q0 -211 -127 -345t-327 -134t-323 125q-123 126 -123 328t128 332t317 130t311 -127q-76 233 -289 364l-178 -127q-37 23 -45 66l146 104q-96 45 -201 72q-4 66 43 107
q147 -45 258 -107l151 109q18 -10 27 -29q16 -20 19 -37l-125 -90q338 -238 338 -741z" />
    <glyph glyph-name="ntilde" unicode="&#xf1;" horiz-adv-x="1148" 
d="M563.5 989q225.5 0 327.5 -108.5t102 -280.5v-600q-27 -6 -57.5 -6t-56.5 6v567q0 315 -310 316q-164 0 -295 -84v-799q-29 -6 -57.5 -6t-56.5 6v850q178 139 403.5 139zM438 1235q-84 0 -112 -92q-57 0 -88 31q49 158 192 157q57 0 146.5 -43t123.5 -43q82 0 113 90
q53 0 84 -30q-20 -74 -71.5 -115t-112.5 -41t-150.5 43t-124.5 43z" />
    <glyph glyph-name="ograve" unicode="&#xf2;" horiz-adv-x="1173" 
d="M588 84q168 0 269 112.5t101 285.5t-101 287t-269 114t-269.5 -114t-101.5 -287t101.5 -285.5t269.5 -112.5zM583 -23q-210 0 -346.5 142.5t-136.5 361.5t140.5 363.5t350.5 144.5t346 -144.5t136 -361.5t-140 -361.5t-350 -144.5zM719 1077l-332 223q25 70 74 95
l291 -271q-4 -29 -33 -47z" />
    <glyph glyph-name="oacute" unicode="&#xf3;" horiz-adv-x="1173" 
d="M588 84q168 0 269 112.5t101 285.5t-101 287t-269 114t-269.5 -114t-101.5 -287t101.5 -285.5t269.5 -112.5zM583 -23q-210 0 -346.5 142.5t-136.5 361.5t140.5 363.5t350.5 144.5t346 -144.5t136 -361.5t-140 -361.5t-350 -144.5zM440 1077q-27 16 -34 47l292 271
q49 -27 74 -95z" />
    <glyph glyph-name="ocircumflex" unicode="&#xf4;" horiz-adv-x="1173" 
d="M588 84q168 0 269 112.5t101 285.5t-101 287t-269 114t-269.5 -114t-101.5 -287t101.5 -285.5t269.5 -112.5zM583 -23q-210 0 -346.5 142.5t-136.5 361.5t140.5 363.5t350.5 144.5t346 -144.5t136 -361.5t-140 -361.5t-350 -144.5zM629 1378l221 -231q-18 -47 -59 -64
l-207 193l-205 -189q-41 16 -55 60l223 231q41 10 82 0z" />
    <glyph glyph-name="otilde" unicode="&#xf5;" horiz-adv-x="1173" 
d="M588 84q168 0 269 112.5t101 285.5t-101 287t-269 114t-269.5 -114t-101.5 -287t101.5 -285.5t269.5 -112.5zM583 -23q-210 0 -346.5 142.5t-136.5 361.5t140.5 363.5t350.5 144.5t346 -144.5t136 -361.5t-140 -361.5t-350 -144.5zM721 1245q82 0 113 90q53 0 84 -30
q-20 -74 -71.5 -115t-113 -41t-150.5 43t-124 43q-84 0 -113 -92q-57 0 -88 31q49 158 193 157q57 0 146 -43t124 -43z" />
    <glyph glyph-name="odieresis" unicode="&#xf6;" horiz-adv-x="1173" 
d="M588 84q168 0 269 112.5t101 285.5t-101 287t-269 114t-269.5 -114t-101.5 -287t101.5 -285.5t269.5 -112.5zM583 -23q-210 0 -346.5 142.5t-136.5 361.5t140.5 363.5t350.5 144.5t346 -144.5t136 -361.5t-140 -361.5t-350 -144.5zM794 1149q-36 0 -60.5 23.5t-24.5 59.5
t24.5 60.5t60.5 24.5t60.5 -24.5t24.5 -60.5t-24.5 -59.5t-60.5 -23.5zM384 1149q-36 0 -60.5 23.5t-24.5 59.5t24.5 60.5t60.5 24.5t60.5 -24.5t24.5 -60.5t-24.5 -59.5t-60.5 -23.5z" />
    <glyph glyph-name="divide" unicode="&#xf7;" horiz-adv-x="1093" 
d="M547 74q-39 0 -68 28t-29 67q0 40 29 68q29 27 68 27t67 -28t29 -67q-1 -39 -29 -67t-67 -28zM131 484q0 24 6 48h819q13 -52 0 -98h-819q-6 26 -6 50zM547 705q-39 -1 -68 27t-29 68t30 68q28 28 67 27q39 0 67 -28q28 -27 29 -67q-1 -40 -29 -68t-67 -27z" />
    <glyph glyph-name="oslash" unicode="&#xf8;" horiz-adv-x="1179" 
d="M590 84q168 0 269.5 112.5t101.5 276.5t-80 268l-523 -581q99 -76 232 -76zM219 494q0 -161 78 -271l524 582q-98 78 -231 78q-168 0 -269.5 -114t-101.5 -275zM1075 476q0 -210 -140 -354.5t-349 -144.5q-172 0 -301 101l-117 -131q-47 14 -64 63l117 129
q-119 137 -119 349t140.5 356.5t351.5 144.5q176 0 301 -102l115 127q47 -12 63 -58l-117 -129q119 -141 119 -351z" />
    <glyph glyph-name="ugrave" unicode="&#xf9;" horiz-adv-x="1134" 
d="M914 963q30 0 59 -7v-895q-201 -88 -410 -88t-308 100.5t-99 276.5v606q62 13 114 0v-559q0 -158 66.5 -237.5t226.5 -79.5t295 55v821q26 7 56 7zM733 1124q-4 -29 -33 -47l-331 223q25 70 73 95z" />
    <glyph glyph-name="uacute" unicode="&#xfa;" horiz-adv-x="1134" 
d="M914 963q30 0 59 -7v-895q-201 -88 -410 -88t-308 100.5t-99 276.5v606q62 13 114 0v-559q0 -158 66.5 -237.5t226.5 -79.5t295 55v821q26 7 56 7zM422 1077q-27 16 -35 47l293 271q49 -27 74 -95z" />
    <glyph glyph-name="ucircumflex" unicode="&#xfb;" horiz-adv-x="1134" 
d="M914 963q30 0 59 -7v-895q-201 -88 -410 -88t-308 100.5t-99 276.5v606q62 13 114 0v-559q0 -158 66.5 -237.5t226.5 -79.5t295 55v821q26 7 56 7zM360 1087q-41 16 -55 60l223 231q41 10 82 0l221 -231q-18 -47 -59 -64l-207 193z" />
    <glyph glyph-name="udieresis" unicode="&#xfc;" horiz-adv-x="1134" 
d="M914 963q30 0 59 -7v-895q-201 -88 -410 -88t-308 100.5t-99 276.5v606q62 13 114 0v-559q0 -158 66.5 -237.5t226.5 -79.5t295 55v821q26 7 56 7zM773 1149q-36 0 -60.5 23.5t-24.5 59.5t24.5 60.5t60.5 24.5t60.5 -24.5t24.5 -60.5t-24.5 -59.5t-60.5 -23.5zM364 1149
q-36 0 -60.5 23.5t-24.5 59.5t24.5 60.5t60.5 24.5t60.5 -24.5t24.5 -60.5t-24.5 -59.5t-60.5 -23.5z" />
    <glyph glyph-name="yacute" unicode="&#xfd;" horiz-adv-x="1009" 
d="M894 963q28 0 64 -13q-186 -803 -706 -1364q-57 12 -80 70q174 188 281 362q-127 199 -234.5 450t-163.5 484q55 18 121 6q86 -375 330 -819l14 -28q7 21 15 26q227 424 307 821q24 5 52 5zM365 1077q-27 16 -35 47l293 271q49 -27 73 -95z" />
    <glyph glyph-name="thorn" unicode="&#xfe;" horiz-adv-x="1144" 
d="M552 84q165 0 270 109q106 109 106 295t-104 288q-104 104 -262 104q-159 0 -281 -71v-666q106 -59 271 -59zM555 989q213 0 350 -130q137 -129 137 -365t-140 -376t-349 -141q-154 0 -272 50v-410q-25 -6 -55 -6t-58 6v1731q28 6 58 6t55 -6v-426q135 67 274 67z" />
    <glyph glyph-name="ydieresis" unicode="&#xff;" horiz-adv-x="1009" 
d="M894 963q28 0 64 -13q-186 -803 -706 -1364q-57 12 -80 70q174 188 281 362q-127 199 -234.5 450t-163.5 484q55 18 121 6q86 -375 330 -819l14 -28q7 21 15 26q227 424 307 821q24 5 52 5zM716 1149q-36 0 -60.5 23.5t-24.5 59.5t24.5 60.5t60.5 24.5t60.5 -24.5
t24.5 -60.5t-24.5 -59.5t-60.5 -23.5zM306 1149q-36 0 -60.5 23.5t-24.5 59.5t24.5 60.5t60.5 24.5t60.5 -24.5t24.5 -60.5t-24.5 -59.5t-60.5 -23.5z" />
    <glyph glyph-name="Amacron" unicode="&#x100;" horiz-adv-x="1214" 
d="M348 496h514l-231 598l-31 94l-31 -94zM1111 -6q-40 0 -56 4l-154 399h-590l-147 -397q-25 -6 -56.5 -6t-62.5 16l500 1305q25 8 58.5 8t58.5 -8l516 -1305q-27 -16 -67 -16zM334 1510.5q0 15.5 6 58.5h530q6 -14 6 -46t-6 -48h-530q-6 20 -6 35.5z" />
    <glyph glyph-name="amacron" unicode="&#x101;" horiz-adv-x="1019" 
d="M203 289q0 -94 72.5 -152.5t221 -58.5t269.5 49v287q-131 70 -275.5 69.5t-216 -50.5t-71.5 -144zM766 623q0 260 -302 260q-148 0 -276 -95q-47 23 -57 76q47 45 139 85t211 40q176 0 286 -89t110 -273v-564q-160 -88 -374.5 -88t-315.5 85t-101 226.5t108.5 220.5
t274.5 79t297 -64v101zM762 1212.5q0 -24.5 -8 -47.5h-518q-17 39 0 95h518q8 -23 8 -47.5z" />
    <glyph glyph-name="Abreve" unicode="&#x102;" horiz-adv-x="1214" 
d="M348 496h514l-231 598l-31 94l-31 -94zM1111 -6q-40 0 -56 4l-154 399h-590l-147 -397q-25 -6 -56.5 -6t-62.5 16l500 1305q25 8 58.5 8t58.5 -8l516 -1305q-27 -16 -67 -16zM604.5 1413q-108.5 0 -182.5 63.5t-84 161.5q41 16 86 11q14 -68 64.5 -106t119 -38t120.5 39
t60 105q43 6 82 -11q-6 -94 -81.5 -159.5t-184 -65.5z" />
    <glyph glyph-name="abreve" unicode="&#x103;" horiz-adv-x="1019" 
d="M203 289q0 -94 72.5 -152.5t221 -58.5t269.5 49v287q-131 70 -275.5 69.5t-216 -50.5t-71.5 -144zM766 623q0 260 -302 260q-148 0 -276 -95q-47 23 -57 76q47 45 139 85t211 40q176 0 286 -89t110 -273v-564q-160 -88 -374.5 -88t-315.5 85t-101 226.5t108.5 220.5
t274.5 79t297 -64v101zM493.5 1096q-116.5 0 -187 70.5t-79.5 185.5q39 16 84 10q27 -176 185 -176q76 0 125 46t57 130q49 4 82 -10q-4 -111 -77 -183.5t-189.5 -72.5z" />
    <glyph glyph-name="Aogonek" unicode="&#x104;" horiz-adv-x="1214" 
d="M348 496h514l-231 598l-31 94l-31 -94zM932 -227q0 109 123 227l-154 397h-590l-147 -397q-25 -6 -56.5 -6t-62.5 16l500 1305q25 8 58.5 8t58.5 -8l516 -1305q-137 -115 -138 -205q0 -79 97 -81q47 0 96 38q43 -27 43 -75q-74 -61 -164 -61.5t-135 38.5t-45 109z" />
    <glyph glyph-name="aogonek" unicode="&#x105;" horiz-adv-x="1019" 
d="M203 289q0 -94 72.5 -152.5t221 -58.5t269.5 49v287q-131 70 -275.5 69.5t-216 -50.5t-71.5 -144zM766 623q0 260 -302 260q-148 0 -276 -95q-47 23 -57 76q47 45 139 85t211 40q176 0 286 -89t110 -273v-564q-80 -59 -134.5 -131.5t-54.5 -121t24.5 -67.5t70 -19.5
t98.5 38.5q41 -27 41 -75q-74 -61 -164.5 -61.5t-135 38.5t-44.5 109q0 113 124 229q-104 -27 -219 -27q-195 0 -296 85t-101 226.5t108.5 220.5t274.5 79t297 -64v101z" />
    <glyph glyph-name="Cacute" unicode="&#x106;" horiz-adv-x="1228" 
d="M727.5 -29q-269.5 0 -443 192.5t-173.5 493.5t182 496t463 195q229 0 395 -123q-14 -63 -64 -90q-150 104 -331 104q-231 0 -379 -160.5t-148 -420t143.5 -419t367.5 -159.5t366 117q51 -29 59 -86q-168 -140 -437.5 -140zM563 1391q-25 20 -26 51l333 221
q57 -33 60 -104z" />
    <glyph glyph-name="cacute" unicode="&#x107;" horiz-adv-x="991" 
d="M578 -25q-205 0 -340.5 136.5t-135.5 366.5t139.5 370.5t339.5 140.5t322 -110q-16 -53 -65 -84q-113 90 -267.5 90t-253 -117t-98.5 -289t97.5 -284.5t258.5 -112.5t279 96q49 -29 64 -82q-135 -121 -340 -121zM420 1077q-27 16 -35 47l293 271q49 -27 74 -95z" />
    <glyph glyph-name="Cdotaccent" unicode="&#x10a;" horiz-adv-x="1228" 
d="M727.5 -29q-269.5 0 -443 192.5t-173.5 493.5t182 496t463 195q229 0 395 -123q-14 -63 -64 -90q-150 104 -331 104q-231 0 -379 -160.5t-148 -420t143.5 -419t367.5 -159.5t366 117q51 -29 59 -86q-168 -140 -437.5 -140zM724 1452q-36 0 -61.5 24.5t-25.5 61.5
t25.5 62.5t61.5 25.5t61.5 -25.5t25.5 -62.5t-25.5 -61.5t-61.5 -24.5z" />
    <glyph glyph-name="cdotaccent" unicode="&#x10b;" horiz-adv-x="991" 
d="M578 -25q-205 0 -340.5 136.5t-135.5 366.5t139.5 370.5t339.5 140.5t322 -110q-16 -53 -65 -84q-113 90 -267.5 90t-253 -117t-98.5 -289t97.5 -284.5t258.5 -112.5t279 96q49 -29 64 -82q-135 -121 -340 -121zM569 1157q-37 0 -64.5 26.5t-27.5 63.5t26.5 63.5
t64.5 26.5t63.5 -26.5t25.5 -64.5t-25.5 -63.5t-62.5 -25.5z" />
    <glyph glyph-name="Ccaron" unicode="&#x10c;" horiz-adv-x="1228" 
d="M727.5 -29q-269.5 0 -443 192.5t-173.5 493.5t182 496t463 195q229 0 395 -123q-14 -63 -64 -90q-150 104 -331 104q-231 0 -379 -160.5t-148 -420t143.5 -419t367.5 -159.5t366 117q51 -29 59 -86q-168 -140 -437.5 -140zM682 1399l-223 194q12 39 43 62l227 -166
l219 166q33 -23 41 -62l-223 -194q-43 -12 -84 0z" />
    <glyph glyph-name="ccaron" unicode="&#x10d;" horiz-adv-x="991" 
d="M578 -25q-205 0 -340.5 136.5t-135.5 366.5t139.5 370.5t339.5 140.5t322 -110q-16 -53 -65 -84q-113 90 -267.5 90t-253 -117t-98.5 -289t97.5 -284.5t258.5 -112.5t279 96q49 -29 64 -82q-135 -121 -340 -121zM526 1094l-217 229q14 49 56 66l206 -195l207 190
q43 -18 58 -61l-228 -229q-41 -10 -82 0z" />
    <glyph glyph-name="Dcaron" unicode="&#x10e;" horiz-adv-x="1380" 
d="M559 86q279 0 435 156t155.5 416t-157 414.5t-447.5 154.5q-139 0 -236 -13v-1114q109 -14 250 -14zM545 1333q342 0 533.5 -183t191.5 -485t-193.5 -492.5t-519.5 -190.5q-205 0 -360 22v1303q174 26 348 26zM664 1399q-43 -12 -84 0l-224 194q12 39 43 62l228 -166
l219 166q33 -23 41 -62z" />
    <glyph glyph-name="dcaron" unicode="&#x10f;" horiz-adv-x="1144" 
d="M604 881q-164 0 -275.5 -112t-111.5 -294t109.5 -287.5t281.5 -105.5q139 -2 254 47v686q-94 66 -258 66zM917 1354q30 0 58 -6v-1287q-168 -86 -378 -86t-352.5 132.5t-142.5 368t148.5 373.5t359.5 138q154 0 252 -53v414q25 6 55 6zM1243 1339.5q0 -63.5 -27.5 -137.5
t-68.5 -117q-31 2 -47 29q41 72 41 172.5t-21 151.5q18 12 54.5 12t56.5 -10q12 -37 12 -100.5z" />
    <glyph glyph-name="Dcroat" unicode="&#x110;" horiz-adv-x="1380" 
d="M559 86q279 0 435 156t155.5 416t-157 414.5t-447.5 154.5q-139 0 -236 -13v-505h240q8 -29 8 -46t-8 -51h-240v-512q109 -14 250 -14zM545 1333q342 0 533.5 -183t191.5 -485t-193.5 -492.5t-519.5 -190.5q-205 0 -360 22v608h-154q-8 29 -8 48t8 49h154v598
q174 26 348 26z" />
    <glyph glyph-name="dcroat" unicode="&#x111;" horiz-adv-x="1136" 
d="M604 881q-164 0 -275.5 -112t-111.5 -294t109.5 -287.5t281.5 -105.5q139 -2 254 47v686q-94 66 -258 66zM1149 1181.5q0 -23.5 -6 -48.5h-168v-1072q-168 -86 -378 -86t-352.5 132.5t-142.5 368t148.5 373.5t359.5 138q154 0 252 -53v199h-198q-12 48 0 92h198v123
q25 6 55 6t58 -6v-123h168q6 -20 6 -43.5z" />
    <glyph glyph-name="Emacron" unicode="&#x112;" horiz-adv-x="1110" 
d="M1018 51.5q0 -29.5 -8 -51.5h-813v1315h788q8 -23 8 -53.5t-8 -53.5h-676v-475h609q8 -25 8 -52.5t-8 -51.5h-609v-525h701q8 -23 8 -52.5zM340 1510.5q0 15.5 6 58.5h531q6 -14 6 -46t-6 -48h-531q-6 20 -6 35.5z" />
    <glyph glyph-name="emacron" unicode="&#x113;" horiz-adv-x="1071" 
d="M858 557q0 152 -82 241t-219 89t-228.5 -93.5t-105.5 -236.5h635zM579.5 80q163.5 0 299.5 106q47 -23 61 -77q-158 -133 -367 -133.5t-340 134t-131 365.5t132.5 372.5t319.5 141.5t305 -119.5t120 -328.5q0 -29 -6 -80h-754q4 -174 100.5 -277.5t260 -103.5zM289 1208
q0 29 6 52h518q8 -23 8 -47.5t-8 -47.5h-518q-6 14 -6 43z" />
    <glyph glyph-name="Edotaccent" unicode="&#x116;" horiz-adv-x="1110" 
d="M1018 51.5q0 -29.5 -8 -51.5h-813v1315h788q8 -23 8 -53.5t-8 -53.5h-676v-475h609q8 -25 8 -52.5t-8 -51.5h-609v-525h701q8 -23 8 -52.5zM611 1452q-36 0 -61.5 24.5t-25.5 61.5t25.5 62.5t61.5 25.5t61.5 -25.5t25.5 -62.5t-25.5 -61.5t-61.5 -24.5z" />
    <glyph glyph-name="edotaccent" unicode="&#x117;" horiz-adv-x="1071" 
d="M858 557q0 152 -82 241t-219 89t-228.5 -93.5t-105.5 -236.5h635zM579.5 80q163.5 0 299.5 106q47 -23 61 -77q-158 -133 -367 -133.5t-340 134t-131 365.5t132.5 372.5t319.5 141.5t305 -119.5t120 -328.5q0 -29 -6 -80h-754q4 -174 100.5 -277.5t260 -103.5zM555 1157
q-37 0 -64.5 26.5t-27.5 63.5t26.5 63.5t64.5 26.5t63.5 -26.5t25.5 -64.5t-25.5 -63.5t-62.5 -25.5z" />
    <glyph glyph-name="Eogonek" unicode="&#x118;" horiz-adv-x="1110" 
d="M758 -225q0 131 147 225h-708v1315h788q8 -23 8 -53.5t-8 -53.5h-676v-475h609q8 -25 8 -52.5t-8 -51.5h-609v-525h701q8 -23 8 -52.5t-8 -51.5q-141 -109 -142 -195q0 -79 95 -81q45 0 98 38q41 -25 41 -75q-70 -61 -159 -61.5t-137 39.5t-48 110z" />
    <glyph glyph-name="eogonek" unicode="&#x119;" horiz-adv-x="1071" 
d="M858 557q0 152 -82 241t-219 89t-228.5 -93.5t-105.5 -236.5h635zM579.5 80q163.5 0 299.5 106q47 -23 61 -77q-31 -25 -88.5 -67t-109.5 -112.5t-52 -119t24.5 -67.5t69.5 -19t99 38q41 -27 41 -75q-74 -61 -164.5 -61.5t-135 38.5t-44.5 109q0 106 110 213
q-57 -10 -115 -11q-211 0 -342 134.5t-131 365.5t132.5 372.5t319.5 141.5t305 -119.5t120 -328.5q0 -29 -6 -80h-754q4 -174 100.5 -277.5t260 -103.5z" />
    <glyph glyph-name="Ecaron" unicode="&#x11a;" horiz-adv-x="1110" 
d="M1018 51.5q0 -29.5 -8 -51.5h-813v1315h788q8 -23 8 -53.5t-8 -53.5h-676v-475h609q8 -25 8 -52.5t-8 -51.5h-609v-525h701q8 -23 8 -52.5zM655 1399q-43 -12 -84 0l-223 194q12 39 43 62l227 -166l220 166q33 -23 41 -62z" />
    <glyph glyph-name="ecaron" unicode="&#x11b;" horiz-adv-x="1071" 
d="M858 557q0 152 -82 241t-219 89t-228.5 -93.5t-105.5 -236.5h635zM579.5 80q163.5 0 299.5 106q47 -23 61 -77q-158 -133 -367 -133.5t-340 134t-131 365.5t132.5 372.5t319.5 141.5t305 -119.5t120 -328.5q0 -29 -6 -80h-754q4 -174 100.5 -277.5t260 -103.5zM594 1094
q-41 -10 -82 0l-217 229q14 49 55 66l207 -195l207 190q43 -18 57 -61z" />
    <glyph glyph-name="Gbreve" unicode="&#x11e;" horiz-adv-x="1335" 
d="M1202 649v-573q-195 -104 -462 -104.5t-448 188t-181 496.5t188 500t457.5 192t433.5 -121q-12 -66 -62 -94q-166 106 -362 106q-233 0 -384 -157.5t-151 -422t138.5 -422t390.5 -157.5q195 0 327 61v400h-317q-8 27 -8 55t8 53h432zM720.5 1413q-108.5 0 -182 63.5
t-83.5 161.5q41 16 86 11q14 -68 64 -106t119 -38t121 39t60 105q43 6 82 -11q-6 -94 -82 -159.5t-184.5 -65.5z" />
    <glyph glyph-name="gbreve" unicode="&#x11f;" horiz-adv-x="1130" 
d="M584.5 141q154.5 0 269.5 84v580q-94 78 -256 78t-270.5 -104.5t-108.5 -273.5t105.5 -266.5t260 -97.5zM607 989q216 0 362 -125v-848q0 -182 -120 -296.5t-308 -114.5q-270 0 -416 168q20 55 76 75q121 -141 340 -141q147 0 230 85t83 224v99q-121 -76 -258 -76
q-215 0 -355.5 126t-140.5 342t145.5 349t361.5 133zM588 1096q-117 0 -187.5 70.5t-78.5 185.5q39 16 84 10q27 -176 184 -176q76 0 125 46t57 130q49 4 82 -10q-4 -111 -76.5 -183.5t-189.5 -72.5z" />
    <glyph glyph-name="Gdotaccent" unicode="&#x120;" horiz-adv-x="1335" 
d="M1202 649v-573q-195 -104 -462 -104.5t-448 188t-181 496.5t188 500t457.5 192t433.5 -121q-12 -66 -62 -94q-166 106 -362 106q-233 0 -384 -157.5t-151 -422t138.5 -422t390.5 -157.5q195 0 327 61v400h-317q-8 27 -8 55t8 53h432zM722 1452q-36 0 -61.5 24.5
t-25.5 61.5t25.5 62.5t61.5 25.5t61.5 -25.5t25.5 -62.5t-25.5 -61.5t-61.5 -24.5z" />
    <glyph glyph-name="gdotaccent" unicode="&#x121;" horiz-adv-x="1130" 
d="M584.5 141q154.5 0 269.5 84v580q-94 78 -256 78t-270.5 -104.5t-108.5 -273.5t105.5 -266.5t260 -97.5zM607 989q216 0 362 -125v-848q0 -182 -120 -296.5t-308 -114.5q-270 0 -416 168q20 55 76 75q121 -141 340 -141q147 0 230 85t83 224v99q-121 -76 -258 -76
q-215 0 -355.5 126t-140.5 342t145.5 349t361.5 133zM588 1157q-37 0 -64.5 26.5t-27.5 63.5t26.5 63.5t64.5 26.5t63.5 -26.5t25.5 -64.5t-25.5 -63.5t-62.5 -25.5z" />
    <glyph glyph-name="Gcommaaccent" unicode="&#x122;" horiz-adv-x="1335" 
d="M746 -80q39 0 57 -8q10 -37 10 -90q0 -160 -131 -250q-27 6 -37 39q63 63 64 182q0 53 -19 117q17 10 56 10zM1202 649v-573q-195 -104 -462 -104.5t-448 188t-181 496.5t188 500t457.5 192t433.5 -121q-12 -66 -62 -94q-166 106 -362 106q-233 0 -384 -157.5t-151 -422
t138.5 -422t390.5 -157.5q195 0 327 61v400h-317q-8 27 -8 55t8 53h432z" />
    <glyph glyph-name="gcommaaccent" unicode="&#x123;" horiz-adv-x="1130" 
d="M584.5 141q154.5 0 269.5 84v580q-94 78 -256 78t-270.5 -104.5t-108.5 -273.5t105.5 -266.5t260 -97.5zM607 989q216 0 362 -125v-848q0 -182 -120 -296.5t-308 -114.5q-270 0 -416 168q20 55 76 75q121 -141 340 -141q147 0 230 85t83 224v99q-121 -76 -258 -76
q-215 0 -355.5 126t-140.5 342t145.5 349t361.5 133zM583 1040q-38 0 -57 9q-10 37 -10 90q0 160 131 250q27 -6 37 -39q-63 -63 -63 -183q0 -59 20 -116q-20 -11 -58 -11z" />
    <glyph glyph-name="Hbar" unicode="&#x126;" horiz-adv-x="1409" 
d="M1098 727v199h-787v-199h787zM1360 973q0 -14 -8 -47h-140v-926q-37 -8 -55 -8t-59 8v623h-787v-623q-41 -8 -57 -8t-57 8v926h-131q-13 48 0 90h131v299q25 8 57.5 8t56.5 -8v-299h787v299q41 8 59.5 8t54.5 -8v-299h140q8 -29 8 -43z" />
    <glyph glyph-name="hbar" unicode="&#x127;" horiz-adv-x="1155" 
d="M614.5 989q182.5 0 283.5 -110.5t101 -278.5v-600q-29 -6 -57.5 -6t-56.5 6v565q0 315 -310 316q-150 0 -292 -97v-784q-29 -6 -57.5 -6t-57.5 6v1133h-135q-6 23 -6 45t6 47h135v121q27 6 56.5 6t58.5 -6v-121h229q6 -20 6 -43.5t-6 -48.5h-229v-238q149 94 331.5 94z
" />
    <glyph glyph-name="Itilde" unicode="&#x128;" horiz-adv-x="507" 
d="M256 -8q-18 0 -59 8v1315q27 8 58.5 8t55.5 -8v-1315q-37 -8 -55 -8zM362 1438q-49 0 -114.5 39t-91.5 39q-63 0 -82 -76q-55 0 -82 33q16 68 60 105.5t91.5 37.5t119 -40t91.5 -40q63 0 82 78q59 0 80 -33q-16 -68 -60.5 -105.5t-93.5 -37.5z" />
    <glyph glyph-name="itilde" unicode="&#x129;" horiz-adv-x="456" 
d="M230 -6q-30 0 -58 6v963q25 8 57.5 8t55.5 -8v-963q-25 -6 -55 -6zM315 1163q-41 0 -102 34t-86 34q-51 0 -86 -78q-51 0 -80 39q55 135 158 135q37 0 98.5 -33.5t89.5 -33.5q57 0 88 73q51 0 80 -39q-56 -131 -160 -131z" />
    <glyph glyph-name="Imacron" unicode="&#x12a;" horiz-adv-x="507" 
d="M256 -8q-18 0 -59 8v1315q27 8 58.5 8t55.5 -8v-1315q-37 -8 -55 -8zM55 1510.5q0 15.5 6 58.5h383q6 -14 6.5 -46t-6.5 -48h-383q-6 20 -6 35.5z" />
    <glyph glyph-name="imacron" unicode="&#x12b;" horiz-adv-x="456" 
d="M230 -6q-30 0 -58 6v963q25 8 57.5 8t55.5 -8v-963q-25 -6 -55 -6zM43 1214q0 33 4 48h363q6 -25 6 -47.5t-6 -47.5h-363q-4 14 -4 47z" />
    <glyph glyph-name="Iogonek" unicode="&#x12e;" horiz-adv-x="507" 
d="M70 -227q0 111 127 227v1315q27 8 58.5 8t55.5 -8v-1315q-131 -98 -131 -187.5t84 -88.5q56 -1 109 38q41 -25 41 -75q-70 -61 -162.5 -61.5t-137 38.5t-44.5 109z" />
    <glyph glyph-name="iogonek" unicode="&#x12f;" horiz-adv-x="456" 
d="M43 -219q0 106 125 219h4v963q25 8 57.5 8t55.5 -8v-963q-4 0 -6 -2q-121 -104 -121 -187.5t82 -82.5q61 0 108 39q41 -29 41 -76q-72 -63 -164 -63q-182 0 -182 153zM221 1159q-37 0 -63.5 25.5t-26.5 63.5t26.5 64.5t63.5 26.5t63.5 -26.5t26.5 -63.5t-26.5 -63.5
t-63.5 -26.5z" />
    <glyph glyph-name="Idotaccent" unicode="&#x130;" horiz-adv-x="507" 
d="M256 -8q-18 0 -59 8v1315q27 8 58.5 8t55.5 -8v-1315q-37 -8 -55 -8zM255 1452q-36 0 -61.5 24.5t-25.5 61.5t25.5 62.5t61.5 25.5t61.5 -25.5t25.5 -62.5t-25.5 -61.5t-61.5 -24.5z" />
    <glyph glyph-name="dotlessi" unicode="&#x131;" horiz-adv-x="456" 
d="M230 -6q-30 0 -58 6v963q25 8 57.5 8t55.5 -8v-963q-25 -6 -55 -6z" />
    <glyph glyph-name="IJ" unicode="&#x132;" horiz-adv-x="1036" 
d="M518 -33q-86 0 -152 34t-96 71q20 51 74 82q43 -42 80 -62t94 -20q219 0 219 243v1000q23 8 56 8t57 -8v-998q0 -176 -94 -263t-238 -87zM240 287q-33 0 -60 8v1022q27 8 60 8t57 -8v-1022q-24 -8 -57 -8z" />
    <glyph glyph-name="ij" unicode="&#x133;" horiz-adv-x="919" 
d="M457 -401q-150 0 -234 84q10 51 64 79q86 -61 162.5 -61t131 56.5t54.5 174.5v1026q65 13 113 0v-1026q0 -162 -89 -247.5t-202 -85.5zM230 -6q-30 0 -58 6v963q25 8 57.5 8t55.5 -8v-963q-25 -6 -55 -6zM690 1155q-37 0 -63.5 25.5t-26.5 63.5t26.5 63.5t63.5 25.5
t62.5 -25.5t25.5 -63.5t-25.5 -63.5t-62.5 -25.5zM229.5 1159q-36.5 0 -64.5 26.5t-28 63.5t26.5 63.5t64.5 26.5t63.5 -26.5t25.5 -64.5t-25.5 -63.5t-62 -25.5z" />
    <glyph glyph-name="Kcommaaccent" unicode="&#x136;" horiz-adv-x="1183" 
d="M641 -80q39 0 57 -8q10 -37 11 -90q0 -160 -131 -250q-27 6 -37 39q63 63 63 182q0 53 -18 117q16 10 55 10zM254 -8q-20 0 -57 8v1315q37 8 57.5 8t56.5 -8v-668q221 143 369.5 290.5t304.5 379.5q16 4 58 4t69 -8q-234 -362 -539 -604l592 -703q-45 -10 -98 -10l-47 2
l-535 641q-74 -51 -174 -119v-520q-37 -8 -57 -8z" />
    <glyph glyph-name="kcommaaccent" unicode="&#x137;" horiz-adv-x="968" 
d="M485 -80q39 0 58 -8q10 -37 10 -90q0 -160 -131 -250q-27 6 -37 39q63 63 64 182q0 53 -19 117q16 10 55 10zM876 -6q-39 0 -59 4l-411 448q-33 -23 -125 -73v-373q-25 -6 -55 -6t-58 6v1346q27 6 57.5 6t55.5 -6v-854q147 78 280 202.5t207 263.5q72 16 121 -4
q-131 -247 -393 -446l456 -504q-37 -10 -76 -10z" />
    <glyph glyph-name="kgreenlandic" unicode="&#x138;" horiz-adv-x="974" 
d="M878 -6q-44 0 -61 4l-424 446q-57 -37 -117 -67v-377q-24 -6 -54 -6t-56 6v958q62 14 110 0v-460q143 72 282 198q138 127 212 262q18 6 55 6t68 -10q-144 -254 -406 -444l476 -506q-41 -10 -85 -10z" />
    <glyph glyph-name="Lacute" unicode="&#x139;" horiz-adv-x="978" 
d="M946 50.5q0 -26.5 -8 -52.5h-741v1317q41 8 57 8t57 -8v-1213h627q8 -25 8 -51.5zM453 1663q57 -33 59 -104l-367 -168q-25 20 -26 51z" />
    <glyph glyph-name="lacute" unicode="&#x13a;" horiz-adv-x="456" 
d="M230 -6q-30 0 -58 6v1348q29 6 58.5 6t54.5 -6v-1348q-25 -6 -55 -6zM76 1391q-25 20 -27 51l334 221q57 -33 59 -104z" />
    <glyph glyph-name="Lcommaaccent" unicode="&#x13b;" horiz-adv-x="978" 
d="M588 -80q39 0 57 -8q10 -37 10 -90q0 -160 -131 -250q-27 6 -37 39q63 63 64 182q0 53 -19 117q17 10 56 10zM946 50.5q0 -26.5 -8 -52.5h-741v1317q41 8 57 8t57 -8v-1213h627q8 -25 8 -51.5z" />
    <glyph glyph-name="lcommaaccent" unicode="&#x13c;" horiz-adv-x="456" 
d="M190 -207q0 53 -18 117q16 10 55 10t58 -8q10 -37 10 -90q0 -160 -131 -250q-27 6 -37 39q63 63 63 182zM230 -6q-30 0 -58 6v1348q29 6 58.5 6t54.5 -6v-1348q-25 -6 -55 -6z" />
    <glyph glyph-name="Lcaron" unicode="&#x13d;" horiz-adv-x="978" 
d="M946 50.5q0 -26.5 -8 -52.5h-741v1317q41 8 57 8t57 -8v-1213h627q8 -25 8 -51.5zM686 1289.5q0 99.5 -18 148.5q18 14 54 14t54 -12q12 -37 12 -86q0 -165 -96 -269q-31 6 -45 29q39 76 39 175.5z" />
    <glyph glyph-name="lcaron" unicode="&#x13e;" horiz-adv-x="462" 
d="M230 -6q-30 0 -58 6v1348q29 6 58.5 6t54.5 -6v-1348q-25 -6 -55 -6zM451 1289.5q0 99.5 -19 148.5q20 14 54.5 14t56.5 -12q10 -31 10 -86q0 -167 -94 -269q-33 6 -47 29q39 76 39 175.5z" />
    <glyph glyph-name="Ldot" unicode="&#x13f;" horiz-adv-x="980" 
d="M729 610q-39 0 -65.5 27t-26.5 65.5t26.5 65.5t65.5 27t66.5 -27t27.5 -65.5t-27.5 -65.5t-66.5 -27zM946 50.5q0 -26.5 -8 -52.5h-741v1317q41 8 57 8t57 -8v-1213h627q8 -25 8 -51.5z" />
    <glyph glyph-name="ldot" unicode="&#x140;" horiz-adv-x="532" 
d="M491.5 578q-38.5 0 -66.5 26.5t-28 65.5t28 65.5t66.5 26.5t66.5 -26.5t28 -65.5t-28 -65.5t-66.5 -26.5zM230 -6q-30 0 -58 6v1348q29 6 58.5 6t54.5 -6v-1348q-25 -6 -55 -6z" />
    <glyph glyph-name="Lslash" unicode="&#x141;" horiz-adv-x="978" 
d="M946 50.5q0 -26.5 -8 -52.5h-741v577l-127 -63q-35 25 -43 84l170 86v633q41 8 57 8t57 -8v-574l178 90q39 -35 43 -86l-221 -110v-533h627q8 -25 8 -51.5z" />
    <glyph glyph-name="lslash" unicode="&#x142;" horiz-adv-x="456" 
d="M230 -6q-30 0 -58 6v590l-127 -66q-35 31 -39 78l166 86v660q29 6 58.5 6t54.5 -6v-603l127 66q33 -29 39 -80l-166 -84v-647q-25 -6 -55 -6z" />
    <glyph glyph-name="Nacute" unicode="&#x143;" horiz-adv-x="1396" 
d="M1146 1325q17 0 54 -8v-1309q-43 -12 -100 -12l-766 1081l-29 53l2 -61v-1069q-25 -8 -55.5 -8t-54.5 8v1305q51 29 104 16l766 -1083l27 -45l-2 65v1059q37 8 54 8zM543 1391q-25 20 -27 51l334 221q57 -33 59 -104z" />
    <glyph glyph-name="nacute" unicode="&#x144;" horiz-adv-x="1148" 
d="M563.5 989q225.5 0 327.5 -108.5t102 -280.5v-600q-27 -6 -57.5 -6t-56.5 6v567q0 315 -310 316q-164 0 -295 -84v-799q-29 -6 -57.5 -6t-56.5 6v850q178 139 403.5 139zM420 1077q-27 16 -35 47l293 271q49 -27 74 -95z" />
    <glyph glyph-name="Ncommaaccent" unicode="&#x145;" horiz-adv-x="1396" 
d="M705 -80q39 0 57 -8q10 -37 10 -90q0 -160 -131 -250q-27 6 -37 39q63 63 64 182q0 53 -19 117q17 10 56 10zM1146 1325q17 0 54 -8v-1309q-43 -12 -100 -12l-766 1081l-29 53l2 -61v-1069q-25 -8 -55.5 -8t-54.5 8v1305q51 29 104 16l766 -1083l27 -45l-2 65v1059
q37 8 54 8z" />
    <glyph glyph-name="ncommaaccent" unicode="&#x146;" horiz-adv-x="1148" 
d="M571 -80q39 0 58 -8q10 -37 10 -90q0 -160 -131 -250q-27 6 -37 39q63 63 64 182q0 53 -19 117q16 10 55 10zM563.5 989q225.5 0 327.5 -108.5t102 -280.5v-600q-27 -6 -57.5 -6t-56.5 6v567q0 315 -310 316q-164 0 -295 -84v-799q-29 -6 -57.5 -6t-56.5 6v850
q178 139 403.5 139z" />
    <glyph glyph-name="Ncaron" unicode="&#x147;" horiz-adv-x="1396" 
d="M1146 1325q17 0 54 -8v-1309q-43 -12 -100 -12l-766 1081l-29 53l2 -61v-1069q-25 -8 -55.5 -8t-54.5 8v1305q51 29 104 16l766 -1083l27 -45l-2 65v1059q37 8 54 8zM745 1399q-43 -12 -83 0l-224 194q12 39 43 62l228 -166l219 166q33 -23 41 -62z" />
    <glyph glyph-name="ncaron" unicode="&#x148;" horiz-adv-x="1148" 
d="M563.5 989q225.5 0 327.5 -108.5t102 -280.5v-600q-27 -6 -57.5 -6t-56.5 6v567q0 315 -310 316q-164 0 -295 -84v-799q-29 -6 -57.5 -6t-56.5 6v850q178 139 403.5 139zM606 1094q-41 -10 -82 0l-217 229q14 49 55 66l207 -195l207 190q43 -18 58 -61z" />
    <glyph glyph-name="napostrophe" unicode="&#x149;" horiz-adv-x="1193" 
d="M563.5 989q225.5 0 327.5 -108.5t102 -280.5v-600q-27 -6 -57.5 -6t-56.5 6v567q0 315 -310 316q-164 0 -295 -84v-799q-29 -6 -57.5 -6t-56.5 6v850q178 139 403.5 139zM258 1256.5q0 -80.5 -43 -160.5t-96 -127q-37 4 -41 37q66 70 65 223q0 86 -22 139q27 10 67 10
t56 -8q14 -33 14 -113.5z" />
    <glyph glyph-name="Eng" unicode="&#x14a;" horiz-adv-x="1396" 
d="M1146 1325q17 0 54 -8v-1368q0 -176 -95 -263t-237 -87q-86 0 -151.5 33.5t-95.5 70.5q18 55 71 76q84 -80 176 -80q221 0 222 248v63l-756 1067l-29 53l2 -61v-1069q-25 -8 -55.5 -8t-54.5 8v1305q51 29 104 16l766 -1083l27 -45l-2 65v1059q37 8 54 8z" />
    <glyph glyph-name="eng" unicode="&#x14b;" horiz-adv-x="1148" 
d="M584 989q203 -1 305 -109t102 -280v-668q0 -164 -90 -248t-219 -85q-129 0 -213 84q20 57 63 79q72 -66 156 -66t137 58q53 57 54 178v635q0 313 -314 314q-156 0 -293 -90v-791q-24 -6 -54 -6t-58 6v844q174 145 424 145z" />
    <glyph glyph-name="Omacron" unicode="&#x14c;" horiz-adv-x="1495" 
d="M747.5 80q235.5 0 377 161.5t141.5 419.5t-141.5 419t-378 161t-377 -160.5t-140.5 -419t141.5 -420t377 -161.5zM747 -27q-282 0 -459 194.5t-177 490.5t177 493t459.5 197t459.5 -193.5t177 -491t-177.5 -494t-459.5 -196.5zM475 1510.5q0 15.5 6 58.5h531q6 -14 6 -46
t-6 -48h-531q-6 20 -6 35.5z" />
    <glyph glyph-name="omacron" unicode="&#x14d;" horiz-adv-x="1173" 
d="M588 84q168 0 269 112.5t101 285.5t-101 287t-269 114t-269.5 -114t-101.5 -287t101.5 -285.5t269.5 -112.5zM583 -23q-210 0 -346.5 142.5t-136.5 361.5t140.5 363.5t350.5 144.5t346 -144.5t136 -361.5t-140 -361.5t-350 -144.5zM322 1208q0 29 6 52h518q8 -23 8 -47.5
t-8 -47.5h-518q-6 14 -6 43z" />
    <glyph glyph-name="Ohungarumlaut" unicode="&#x150;" horiz-adv-x="1495" 
d="M747.5 80q235.5 0 377 161.5t141.5 419.5t-141.5 419t-378 161t-377 -160.5t-140.5 -419t141.5 -420t377 -161.5zM747 -27q-282 0 -459 194.5t-177 490.5t177 493t459.5 197t459.5 -193.5t177 -491t-177.5 -494t-459.5 -196.5zM834 1370q-33 16 -41 41l215 277
q63 -16 84 -80zM516 1370q-31 16 -39 41l213 277q61 -14 84 -80z" />
    <glyph glyph-name="ohungarumlaut" unicode="&#x151;" horiz-adv-x="1173" 
d="M588 84q168 0 269 112.5t101 285.5t-101 287t-269 114t-269.5 -114t-101.5 -287t101.5 -285.5t269.5 -112.5zM583 -23q-210 0 -346.5 142.5t-136.5 361.5t140.5 363.5t350.5 144.5t346 -144.5t136 -361.5t-140 -361.5t-350 -144.5zM686 1065q-35 10 -47 33l174 311
q59 -10 98 -63zM387 1065q-35 10 -47 33l176 311q57 -10 96 -63z" />
    <glyph glyph-name="OE" unicode="&#x152;" horiz-adv-x="1824" 
d="M236 656q0 -249 139 -406.5t383 -157.5q115 0 203 19v1085q-84 20 -201 21q-240 0 -382 -156t-142 -405zM1733 54q0 -30 -9 -54h-759q-102 -16 -207 -16q-295 0 -471 186t-176 481t180 485.5t469 190.5q109 0 201 -12h739q8 -25 8 -54.5t-8 -54.5h-625v-471h557
q8 -25 8 -54.5t-8 -53.5h-557v-518h649q9 -25 9 -55z" />
    <glyph glyph-name="oe" unicode="&#x153;" horiz-adv-x="1863" 
d="M572 82q159 0 257.5 111.5t98.5 285.5t-98.5 289t-257.5 115t-258 -115t-99 -288t99 -285.5t258 -112.5zM1653 555q0 150 -82 240t-213 90t-215.5 -95.5t-100.5 -234.5h611zM1767 539q0 -45 -2 -78h-725q4 -178 95.5 -280.5t254 -102.5t285.5 108q43 -25 60 -84
q-150 -129 -351 -129q-141 0 -247.5 64.5t-159.5 183.5q-61 -113 -168 -179.5t-236 -66.5q-207 0 -340 142.5t-133 359.5t137.5 364.5t335.5 147.5q135 0 243 -68.5t167 -185.5q55 119 155.5 185.5t221.5 66.5q178 0 292.5 -119.5t114.5 -328.5z" />
    <glyph glyph-name="Racute" unicode="&#x154;" horiz-adv-x="1169" 
d="M567 635q176 0 266.5 85t90.5 223t-91.5 215t-243 77t-280.5 -23v-565q82 -12 258 -12zM1004 -4q-36 0 -48 2l-335 534q-20 -2 -113.5 -2t-198.5 11v-541q-25 -8 -56.5 -8t-55.5 8v1294q176 43 387.5 43t332.5 -102t123 -283q-2 -152 -83 -254t-218 -143l346 -549
q-45 -10 -81 -10zM403 1391q-25 20 -26 51l334 221q57 -33 59 -104z" />
    <glyph glyph-name="racute" unicode="&#x155;" horiz-adv-x="761" 
d="M501.5 881q-125.5 0 -227.5 -66v-815q-25 -6 -55.5 -6t-58.5 6v866q152 123 377 123q114 0 198 -31q4 -59 -28 -100q-80 23 -205.5 23zM313 1077q-27 16 -34 47l292 271q49 -27 74 -95z" />
    <glyph glyph-name="Rcommaaccent" unicode="&#x156;" horiz-adv-x="1169" 
d="M582 -80q39 0 57 -8q10 -37 10 -90q0 -160 -131 -250q-27 6 -37 39q63 63 64 182q0 53 -19 117q17 10 56 10zM567 635q176 0 266.5 85t90.5 223t-91.5 215t-243 77t-280.5 -23v-565q82 -12 258 -12zM1004 -4q-36 0 -48 2l-335 534q-20 -2 -113.5 -2t-198.5 11v-541
q-25 -8 -56.5 -8t-55.5 8v1294q176 43 387.5 43t332.5 -102t123 -283q-2 -152 -83 -254t-218 -143l346 -549q-45 -10 -81 -10z" />
    <glyph glyph-name="rcommaaccent" unicode="&#x157;" horiz-adv-x="761" 
d="M219 -80q39 0 57 -8q10 -37 11 -90q0 -160 -131 -250q-27 6 -37 39q63 63 63 182q0 53 -18 117q16 10 55 10zM501.5 881q-125.5 0 -227.5 -66v-815q-25 -6 -55.5 -6t-58.5 6v866q152 123 377 123q114 0 198 -31q4 -59 -28 -100q-80 23 -205.5 23z" />
    <glyph glyph-name="Rcaron" unicode="&#x158;" horiz-adv-x="1169" 
d="M567 635q176 0 266.5 85t90.5 223t-91.5 215t-243 77t-280.5 -23v-565q82 -12 258 -12zM1004 -4q-36 0 -48 2l-335 534q-20 -2 -113.5 -2t-198.5 11v-541q-25 -8 -56.5 -8t-55.5 8v1294q176 43 387.5 43t332.5 -102t123 -283q-2 -152 -83 -254t-218 -143l346 -549
q-45 -10 -81 -10zM604 1399q-43 -12 -84 0l-223 194q12 39 43 62l227 -166l219 166q33 -23 41 -62z" />
    <glyph glyph-name="rcaron" unicode="&#x159;" horiz-adv-x="761" 
d="M501.5 881q-125.5 0 -227.5 -66v-815q-25 -6 -55.5 -6t-58.5 6v866q152 123 377 123q114 0 198 -31q4 -59 -28 -100q-80 23 -205.5 23zM500 1094q-41 -10 -82 0l-217 229q14 49 55 66l207 -195l207 190q43 -18 57 -61z" />
    <glyph glyph-name="Sacute" unicode="&#x15a;" horiz-adv-x="1071" 
d="M520 -31q-272 0 -434 166q16 57 72 84q139 -143 362 -143q160 0 247 73.5t87 190.5t-74.5 181.5t-252.5 106.5t-275 112q-123 88 -123 248.5t111.5 257.5t296.5 97q252 0 405 -131q-2 -27 -20.5 -53t-40.5 -37q-152 115 -344 115q-135 0 -215 -64.5t-80 -167.5t72.5 -160
t258 -102.5t291 -136t105.5 -261.5t-121 -273.5t-328 -102.5zM379 1391q-25 20 -27 51l334 221q57 -33 59 -104z" />
    <glyph glyph-name="sacute" unicode="&#x15b;" horiz-adv-x="921" 
d="M444 -23q-225 0 -356 117q18 57 66 84q119 -100 273 -100t222 50t68 130t-59.5 122t-215.5 66.5t-242.5 85t-86.5 183.5t100 198.5t283.5 75.5t304.5 -88q-8 -51 -49 -88q-122 74 -262 74q-264 0 -265 -160q0 -74 55.5 -110.5t212 -63.5t246.5 -89.5t90 -194.5
t-103.5 -212t-281.5 -80zM317 1077q-27 16 -34 47l292 271q49 -27 74 -95z" />
    <glyph glyph-name="Scedilla" unicode="&#x15e;" horiz-adv-x="1071" 
d="M484 -309q122 0 122 81t-160 89l43 108q-252 10 -403 166q16 57 72 84q139 -143 362 -143q160 0 247 73.5t87 190.5t-74.5 181.5t-252.5 107t-275 111.5q-123 88 -123 248.5t111.5 257.5t296.5 97q252 0 405 -131q-2 -27 -20.5 -53t-40.5 -37q-152 115 -344 115
q-135 0 -215 -64.5t-80 -167.5t72.5 -160t258 -102.5t291 -136t105.5 -255.5t-106.5 -266t-291.5 -114l-18 -51q156 -29 156 -141q0 -88 -68 -127t-155 -39t-128 22q6 45 31 74q41 -18 95 -18z" />
    <glyph glyph-name="scedilla" unicode="&#x15f;" horiz-adv-x="921" 
d="M414 -309q122 0 122.5 81t-159.5 89l45 116q-211 8 -334 117q18 57 66 84q119 -100 273 -100t222 50t68 130t-59.5 122t-215.5 66.5t-242.5 85t-86.5 183.5t100 198.5t283.5 75.5t304.5 -88q-8 -51 -49 -88q-122 74 -262 74q-264 0 -265 -160q0 -74 55.5 -110.5
t212 -63.5t246.5 -89.5t90 -188.5t-86 -203.5t-237 -91.5l-23 -60q156 -29 156 -141q0 -88 -67.5 -127t-154.5 -39t-128 22q6 45 30 74q41 -18 95 -18z" />
    <glyph glyph-name="Scaron" unicode="&#x160;" horiz-adv-x="1071" 
d="M520 -31q-272 0 -434 166q16 57 72 84q139 -143 362 -143q160 0 247 73.5t87 190.5t-74.5 181.5t-252.5 106.5t-275 112q-123 88 -123 248.5t111.5 257.5t296.5 97q252 0 405 -131q-2 -27 -20.5 -53t-40.5 -37q-152 115 -344 115q-135 0 -215 -64.5t-80 -167.5t72.5 -160
t258 -102.5t291 -136t105.5 -261.5t-121 -273.5t-328 -102.5zM496 1399l-224 194q12 39 43 62l228 -166l219 166q33 -23 41 -62l-223 -194q-43 -12 -84 0z" />
    <glyph glyph-name="scaron" unicode="&#x161;" horiz-adv-x="921" 
d="M444 -23q-225 0 -356 117q18 57 66 84q119 -100 273 -100t222 50t68 130t-59.5 122t-215.5 66.5t-242.5 85t-86.5 183.5t100 198.5t283.5 75.5t304.5 -88q-8 -51 -49 -88q-122 74 -262 74q-264 0 -265 -160q0 -74 55.5 -110.5t212 -63.5t246.5 -89.5t90 -194.5
t-103.5 -212t-281.5 -80zM422 1094l-217 229q14 49 55 66l207 -195l207 190q43 -18 57 -61l-227 -229q-41 -10 -82 0z" />
    <glyph glyph-name="uni0162" unicode="&#x162;" horiz-adv-x="1093" 
d="M487 -309q123 0 123 81t-159 89l53 135l-15 2v1212h-448q-8 25 -8 53t8 52h1010q8 -25 8 -52.5t-8 -52.5h-449v-1212l-16 -4l-29 -74q156 -29 156 -141q0 -88 -67.5 -127t-154.5 -39t-129 22q6 45 31 74q39 -18 94 -18z" />
    <glyph glyph-name="uni0163" unicode="&#x163;" horiz-adv-x="784" 
d="M431 -309q122 0 122 81t-160 89l49 125q-225 43 -225 301v577h-168q-6 25 -6 47.5t6 44.5h168v263q25 6 55.5 6t55.5 -6v-263h387q6 -25 6 -46.5t-6 -45.5h-387v-549q0 -238 200 -237q90 0 193 69q41 -29 51 -81q-104 -88 -250 -89l-22 -57q156 -29 155 -141
q0 -88 -67.5 -127t-154.5 -39t-128 22q6 45 31 74q41 -18 95 -18z" />
    <glyph glyph-name="Tcaron" unicode="&#x164;" horiz-adv-x="1093" 
d="M1059 1263q0 -28 -8 -53h-449v-1212q-29 -6 -57.5 -6t-55.5 6v1212h-448q-8 25 -8 53t8 52h1010q8 -24 8 -52zM588 1399q-43 -12 -84 0l-223 194q12 39 43 62l227 -166l219 166q33 -23 41 -62z" />
    <glyph glyph-name="tcaron" unicode="&#x165;" horiz-adv-x="784" 
d="M217 287v577h-168q-6 25 -6 47.5t6 44.5h168v263q25 6 55.5 6t55.5 -6v-263h387q6 -25 6 -46.5t-6 -45.5h-387v-549q0 -238 200 -237q91 -1 193 69q41 -29 51 -81q-104 -88 -244.5 -88.5t-225.5 75.5t-85 234zM563 1289.5q0 99.5 -18 148.5q18 14 54 14t54 -12
q12 -37 13 -86q-1 -165 -97 -269q-31 6 -45 29q39 76 39 175.5z" />
    <glyph glyph-name="Tbar" unicode="&#x166;" horiz-adv-x="1093" 
d="M602 1210v-505h201q8 -29 8 -46.5t-8 -50.5h-201v-610q-29 -6 -57.5 -6t-55.5 6v610h-202q-8 18 -8 48t8 49h202v505h-448q-8 25 -8 53t8 52h1010q8 -25 8 -52.5t-8 -52.5h-449z" />
    <glyph glyph-name="tbar" unicode="&#x167;" horiz-adv-x="784" 
d="M217 287v229h-133q-8 29 -8 44t8 48h133v256h-168q-6 25 -6 47.5t6 44.5h168v263q25 6 55.5 6t55.5 -6v-263h387q6 -25 6 -46.5t-6 -45.5h-387v-256h245q12 -48 0 -92h-245v-201q0 -238 200 -237q91 -1 193 69q41 -29 51 -81q-104 -88 -244.5 -88.5t-225.5 75.5t-85 234z
" />
    <glyph glyph-name="Utilde" unicode="&#x168;" horiz-adv-x="1376" 
d="M694 -29q-229 0 -371.5 145.5t-142.5 395.5v803q41 8 61 8t56 -8v-803q0 -193 105.5 -311.5t290.5 -118.5t286.5 118.5t101.5 311.5v803q41 8 60.5 8t52.5 -8v-803q0 -248 -135.5 -394.5t-364.5 -146.5zM567 1616q51 0 139.5 -43t122.5 -43q94 0 121 90q61 0 86 -31
q-49 -158 -200 -157q-55 0 -143.5 43t-121.5 43q-95 -1 -122 -91q-55 0 -87 31q49 158 205 158z" />
    <glyph glyph-name="utilde" unicode="&#x169;" horiz-adv-x="1134" 
d="M914 963q30 0 59 -7v-895q-201 -88 -410 -88t-308 100.5t-99 276.5v606q62 13 114 0v-559q0 -158 66.5 -237.5t226.5 -79.5t295 55v821q26 7 56 7zM440 1235q-84 0 -112 -92q-57 0 -88 31q49 158 192 157q57 0 146.5 -43t123.5 -43q82 0 113 90q53 0 84 -30
q-20 -74 -71.5 -115t-112.5 -41t-150.5 43t-124.5 43z" />
    <glyph glyph-name="Umacron" unicode="&#x16a;" horiz-adv-x="1376" 
d="M694 -29q-229 0 -371.5 145.5t-142.5 395.5v803q41 8 61 8t56 -8v-803q0 -193 105.5 -311.5t290.5 -118.5t286.5 118.5t101.5 311.5v803q41 8 60.5 8t52.5 -8v-803q0 -248 -135.5 -394.5t-364.5 -146.5zM428 1510.5q0 15.5 6 58.5h531q6 -14 6 -46t-6 -48h-531
q-6 20 -6 35.5z" />
    <glyph glyph-name="umacron" unicode="&#x16b;" horiz-adv-x="1134" 
d="M914 963q30 0 59 -7v-895q-201 -88 -410 -88t-308 100.5t-99 276.5v606q62 13 114 0v-559q0 -158 66.5 -237.5t226.5 -79.5t295 55v821q26 7 56 7zM303 1208q0 29 6 52h518q8 -23 8 -47.5t-8 -47.5h-518q-6 14 -6 43z" />
    <glyph glyph-name="Uring" unicode="&#x16e;" horiz-adv-x="1376" 
d="M694 -29q-229 0 -371.5 145.5t-142.5 395.5v803q41 8 61 8t56 -8v-803q0 -193 105.5 -311.5t290.5 -118.5t286.5 118.5t101.5 311.5v803q41 8 60.5 8t52.5 -8v-803q0 -248 -135.5 -394.5t-364.5 -146.5zM700 1421q45 0 74 32t29 77t-29 76.5t-74 31.5t-74.5 -31.5
t-29.5 -76.5t29.5 -77t74.5 -32zM700.5 1341q-77.5 0 -133 55.5t-55.5 133.5t55.5 132t133 54t132 -55t54.5 -132t-54.5 -132.5t-132 -55.5z" />
    <glyph glyph-name="uring" unicode="&#x16f;" horiz-adv-x="1134" 
d="M914 963q30 0 59 -7v-895q-201 -88 -410 -88t-308 100.5t-99 276.5v606q62 13 114 0v-559q0 -158 66.5 -237.5t226.5 -79.5t295 55v821q26 7 56 7zM570 1343q-46 0 -76.5 -32.5t-30.5 -76.5t30.5 -77t76.5 -33t76 32t30 77t-30 77.5t-76 32.5zM568 1044q-77 0 -132 55.5
t-55 133.5t55.5 133t133 55t132 -55t54.5 -133t-55.5 -133.5t-132.5 -55.5z" />
    <glyph glyph-name="Uhungarumlaut" unicode="&#x170;" horiz-adv-x="1376" 
d="M694 -29q-229 0 -371.5 145.5t-142.5 395.5v803q41 8 61 8t56 -8v-803q0 -193 105.5 -311.5t290.5 -118.5t286.5 118.5t101.5 311.5v803q41 8 60.5 8t52.5 -8v-803q0 -248 -135.5 -394.5t-364.5 -146.5zM786 1370q-33 16 -41 41l216 277q63 -16 83 -80zM469 1370
q-31 16 -39 41l213 277q61 -14 84 -80z" />
    <glyph glyph-name="uhungarumlaut" unicode="&#x171;" horiz-adv-x="1134" 
d="M914 963q30 0 59 -7v-895q-201 -88 -410 -88t-308 100.5t-99 276.5v606q62 13 114 0v-559q0 -158 66.5 -237.5t226.5 -79.5t295 55v821q26 7 56 7zM666 1065q-35 10 -48 33l175 311q59 -10 98 -63zM367 1065q-35 10 -48 33l177 311q57 -10 96 -63z" />
    <glyph glyph-name="Uogonek" unicode="&#x172;" horiz-adv-x="1376" 
d="M797 -199q0 -77 94 -77q45 0 98 38q41 -27 41 -75q-74 -61 -164 -61.5t-135 38.5t-45 109q0 98 102 204q-43 -6 -92 -6q-231 0 -373.5 145.5t-142.5 395.5v803q41 8 61 8t56 -8v-803q0 -193 105.5 -311.5t290.5 -118.5t286.5 118.5t101.5 311.5v803q42 8 61 8t52 -8v-803
q0 -170 -66.5 -296t-187.5 -189q-143 -129 -143 -226z" />
    <glyph glyph-name="uogonek" unicode="&#x173;" horiz-adv-x="1134" 
d="M672 -227q0 115 125 227q-113 -27 -244 -27q-199 0 -298 100.5t-99 276.5v606q62 13 114 0v-559q0 -158 66.5 -237.5t226.5 -79.5t295 55v821q60 13 115 0v-895q-8 -4 -10 -4q-78 -59 -129.5 -128.5t-51.5 -118t24.5 -67.5t70 -19.5t98.5 38.5q41 -27 41 -75
q-74 -61 -164 -61.5t-135 38.5t-45 109z" />
    <glyph glyph-name="Wcircumflex" unicode="&#x174;" horiz-adv-x="1847" 
d="M1726 1325q27 0 64 -12q-174 -758 -412 -1313q-27 -10 -63.5 -10t-63.5 10l-288 944l-25 105l-31 -107l-317 -942q-41 -8 -65 -8t-64 8q-217 512 -393 1313q37 14 70.5 14t54.5 -6q127 -659 335 -1204l23 88l328 993q27 6 59.5 6t54.5 -6l310 -989l22 -92
q217 563 350 1202q24 6 51 6zM707 1389q-33 18 -41 59l223 197q43 12 84 0l223 -195q-12 -41 -41 -61l-229 163z" />
    <glyph glyph-name="wcircumflex" unicode="&#x175;" horiz-adv-x="1474" 
d="M998.5 -8q-34.5 0 -58.5 6q-98 186 -201 475q-74 -246 -196 -475q-23 -6 -58 -6t-59 6q-113 190 -216.5 451.5t-158.5 502.5q23 8 72 9l45 -3q49 -211 142 -453.5t169 -387.5q4 -12 8 -23q4 12 9 23q117 254 194 504q-53 172 -90 331q18 8 72 9l45 -3q47 -221 129 -460.5
t151 -380.5q2 -4 4.5 -10.5t4.5 -8.5q4 12 8 21q207 414 293 839l45 3q45 0 67 -9q-49 -233 -155.5 -505.5t-210.5 -448.5q-20 -6 -54.5 -6zM518 1087q-41 16 -55 60l223 231q41 10 82 0l221 -231q-18 -47 -59 -64l-207 193z" />
    <glyph glyph-name="Ycircumflex" unicode="&#x176;" horiz-adv-x="1163" 
d="M1054 1325q36 0 66 -12l-481 -785v-528q-37 -8 -56 -8t-57 8v532l-493 781q37 12 69 12t56 -4l407 -641l23 -47l22 47l391 641q17 4 53 4zM356 1389q-33 18 -41 59l224 197q43 12 84 0l223 -195q-12 -41 -41 -61l-230 163z" />
    <glyph glyph-name="ycircumflex" unicode="&#x177;" horiz-adv-x="1009" 
d="M894 963q28 0 64 -13q-186 -803 -706 -1364q-57 12 -80 70q174 188 281 362q-127 199 -234.5 450t-163.5 484q55 18 121 6q86 -375 330 -819l14 -28q7 21 15 26q227 424 307 821q24 5 52 5zM303 1087q-41 16 -55 60l223 231q41 10 82 0l221 -231q-18 -47 -59 -64
l-207 193z" />
    <glyph glyph-name="Ydieresis" unicode="&#x178;" horiz-adv-x="1163" 
d="M1054 1325q36 0 66 -12l-481 -785v-528q-37 -8 -56 -8t-57 8v532l-493 781q37 12 69 12t56 -4l407 -641l23 -47l22 47l391 641q17 4 53 4zM782.5 1452q-34.5 0 -58.5 23.5t-24 59.5t24 59.5t57.5 23.5t58 -24.5t24.5 -59.5t-23.5 -58.5t-58 -23.5zM380 1452
q-36 0 -60.5 23.5t-24.5 59.5t24.5 59.5t59.5 23.5t58.5 -23.5t23.5 -59.5t-22.5 -59.5t-58.5 -23.5z" />
    <glyph glyph-name="Zacute" unicode="&#x179;" horiz-adv-x="1144" 
d="M1075 50.5q0 -22.5 -6 -50.5h-981q-10 27 -10 66.5t35 80.5l778 1027l33 40l-834 -2q-8 27 -8 53t8 50h957q8 -25 8 -67t-35 -83l-776 -1022l-35 -43h860q6 -27 6 -49.5zM408 1391q-25 20 -27 51l334 221q57 -33 59 -104z" />
    <glyph glyph-name="zacute" unicode="&#x17a;" horiz-adv-x="946" 
d="M850 915q0 -66 -49 -122l-545 -641l-53 -56h663q8 -20 8 -46t-8 -50h-778q-8 25 -8 47q0 61 51 119l569 668l27 26h-631l-6 49l6 49h750q4 -29 4 -43zM317 1077q-27 16 -34 47l292 271q49 -27 74 -95z" />
    <glyph glyph-name="Zdotaccent" unicode="&#x17b;" horiz-adv-x="1144" 
d="M1075 50.5q0 -22.5 -6 -50.5h-981q-10 27 -10 66.5t35 80.5l778 1027l33 40l-834 -2q-8 27 -8 53t8 50h957q8 -25 8 -67t-35 -83l-776 -1022l-35 -43h860q6 -27 6 -49.5zM566 1452q-36 0 -61.5 24.5t-25.5 61.5t25.5 62.5t61.5 25.5t61.5 -25.5t25.5 -62.5t-25.5 -61.5
t-61.5 -24.5z" />
    <glyph glyph-name="zdotaccent" unicode="&#x17c;" horiz-adv-x="946" 
d="M850 915q0 -66 -49 -122l-545 -641l-53 -56h663q8 -20 8 -46t-8 -50h-778q-8 25 -8 47q0 61 51 119l569 668l27 26h-631l-6 49l6 49h750q4 -29 4 -43zM467 1157q-37 0 -64.5 26.5t-27.5 63.5t26.5 63.5t64.5 26.5t63.5 -26.5t25.5 -64.5t-25.5 -63.5t-62.5 -25.5z" />
    <glyph glyph-name="Zcaron" unicode="&#x17d;" horiz-adv-x="1144" 
d="M1075 50.5q0 -22.5 -6 -50.5h-981q-10 27 -10 66.5t35 80.5l778 1027l33 40l-834 -2q-8 27 -8 53t8 50h957q8 -25 8 -67t-35 -83l-776 -1022l-35 -43h860q6 -27 6 -49.5zM610 1399q-43 -12 -84 0l-223 194q12 39 43 62l227 -166l220 166q33 -23 41 -62z" />
    <glyph glyph-name="zcaron" unicode="&#x17e;" horiz-adv-x="946" 
d="M850 915q0 -66 -49 -122l-545 -641l-53 -56h663q8 -20 8 -46t-8 -50h-778q-8 25 -8 47q0 61 51 119l569 668l27 26h-631l-6 49l6 49h750q4 -29 4 -43zM506 1094q-41 -10 -82 0l-217 229q14 49 55 66l207 -195l207 190q43 -18 57 -61z" />
    <glyph glyph-name="uni01EA" unicode="&#x1ea;" horiz-adv-x="1495" 
d="M229 661q0 -258 141.5 -419.5t377 -161.5t377 161.5t141.5 419.5t-141.5 419t-378 161t-377 -161t-140.5 -419zM881 -191.5q0 -46.5 24.5 -65.5t69.5 -19t98 38q41 -27 41 -75q-74 -61 -164 -61.5t-135 38.5t-45 109q0 106 111 213q-66 -12 -133 -13q-283 0 -460 194.5
t-177 490.5t177 493t459.5 197t459.5 -193.5t177 -495.5q0 -203 -89.5 -366.5t-247.5 -247.5q-72 -57 -119 -123.5t-47 -113z" />
    <glyph glyph-name="uni01EB" unicode="&#x1eb;" horiz-adv-x="1173" 
d="M217 482q0 -173 101.5 -285.5t269.5 -112.5t269 112.5t101 285.5t-101 287t-269 114t-269.5 -114t-101.5 -287zM672 -191.5q0 -46.5 24.5 -65.5t69.5 -19t98 38q41 -27 41 -75q-74 -61 -164 -61.5t-135 38.5t-45 109q0 102 109 211q-43 -6 -86 -7q-211 0 -347.5 142.5
t-136.5 361.5t140.5 363.5t350.5 144.5t346 -144.5t136 -361.5q0 -139 -62 -253.5t-171 -182.5q-72 -57 -120 -124.5t-48 -114z" />
    <glyph glyph-name="AEacute" unicode="&#x1fc;" horiz-adv-x="1638" 
d="M821 651v471l4 84l-45 -86l-276 -469h317zM1546 52.5q0 -24.5 -6 -52.5h-719v545h-381l-321 -547q-16 -4 -49 -4t-72 14l768 1307h745q8 -37 8.5 -53t-8.5 -54h-575v-557h514q8 -37 8 -53t-8 -53h-514v-439h604q6 -29 6 -53.5zM809 1391q-25 20 -27 51l334 221
q57 -33 60 -104z" />
    <glyph glyph-name="aeacute" unicode="&#x1fd;" horiz-adv-x="1638" 
d="M737 461h-264q-268 -2 -268 -193q-2 -90 56.5 -141t166.5 -51t201 78q49 41 78.5 120.5t29.5 186.5zM1421 559q0 139 -64.5 232.5t-193.5 93.5t-216 -93.5t-93 -232.5h567zM737 637q1 244 -285 244q-138 0 -268 -99q-41 25 -59 80q51 47 142 87t211 40t215 -55t126 -178
q43 109 137.5 171t204.5 62q176 0 276.5 -125t100.5 -340q0 -41 -2 -63h-684v-6q4 -178 91 -276.5t228 -98.5q72 0 133.5 20.5t85 37t66.5 50.5q45 -27 62 -86q-166 -127 -347 -127q-311 0 -387 279q-41 -137 -143 -208t-241.5 -71t-226.5 78t-87 214t104.5 213t282.5 77
l264 2v78zM686 1077q-27 16 -35 47l293 271q49 -27 74 -95z" />
    <glyph glyph-name="Oslashacute" unicode="&#x1fe;" horiz-adv-x="1495" 
d="M1266 642.5q0 239.5 -105 391.5l-755 -829q137 -125 357.5 -125t361.5 161.5t141 401zM229 678.5q0 -240.5 109 -393.5l756 827q-139 129 -361.5 129t-363 -161t-140.5 -401.5zM1384 649q0 -283 -178 -479.5t-458 -196.5q-246 0 -416 152l-142 -156q-59 20 -73 74
l143 158q-150 184 -149.5 468.5t177.5 481.5t460 197q246 0 419 -154l142 154q52 -17 75 -68l-147 -162q147 -186 147 -469zM588 1391q-25 20 -27 51l334 221q57 -33 59 -104z" />
    <glyph glyph-name="oslashacute" unicode="&#x1ff;" horiz-adv-x="1179" 
d="M590 84q168 0 269.5 112.5t101.5 276.5t-80 268l-523 -581q99 -76 232 -76zM219 494q0 -161 78 -271l524 582q-98 78 -231 78q-168 0 -269.5 -114t-101.5 -275zM1075 476q0 -210 -140 -354.5t-349 -144.5q-172 0 -301 101l-117 -131q-47 14 -64 63l117 129
q-119 137 -119 349t140.5 356.5t351.5 144.5q176 0 301 -102l115 127q47 -12 63 -58l-117 -129q119 -141 119 -351zM442 1077q-27 16 -34 47l292 271q49 -27 74 -95z" />
    <glyph glyph-name="Scommaaccent" unicode="&#x218;" horiz-adv-x="1071" 
d="M544.5 -80q39.5 0 57.5 -8q10 -37 10 -90q0 -160 -131 -250q-27 6 -37 39q63 63 64 182q0 53 -19 117q16 10 55.5 10zM520 -31q-272 0 -434 166q16 57 72 84q139 -143 362 -143q160 0 247 73.5t87 190.5t-74.5 181.5t-252.5 107t-275 111.5q-123 88 -123 248.5
t111.5 257.5t296.5 97q252 0 405 -131q-2 -27 -20.5 -53t-40.5 -37q-152 115 -344 115q-135 0 -215 -64.5t-80 -167.5t72.5 -160t258 -102.5t291 -136t105.5 -261.5t-121 -273.5t-328 -102.5z" />
    <glyph glyph-name="scommaaccent" unicode="&#x219;" horiz-adv-x="921" 
d="M438 -207q0 53 -18 117q16 10 55 10t57 -8q10 -37 11 -90q0 -160 -131 -250q-27 6 -37 39q63 63 63 182zM444 -23q-225 0 -356 117q18 57 66 84q119 -100 273 -100t222 50t68 130t-59.5 122t-215.5 66.5t-242.5 85t-86.5 183.5t100 198.5t283.5 75.5t304.5 -88
q-8 -51 -49 -88q-122 74 -262 74q-264 0 -265 -160q0 -74 55.5 -110.5t212 -63.5t246.5 -89.5t90 -194.5t-103.5 -212t-281.5 -80z" />
    <glyph glyph-name="uni021A" unicode="&#x21a;" horiz-adv-x="1093" 
d="M549 -80q39 0 57 -8q10 -37 10 -90q0 -160 -131 -250q-27 6 -36 39q63 63 63 182q0 53 -18 117q16 10 55 10zM1059 1262.5q0 -27.5 -8 -52.5h-449v-1212q-29 -6 -57.5 -6t-55.5 6v1212h-448q-8 25 -8 53t8 52h1010q8 -25 8 -52.5z" />
    <glyph glyph-name="uni021B" unicode="&#x21b;" horiz-adv-x="784" 
d="M492 -80q39 0 57 -8q10 -37 10 -90q0 -160 -131 -250q-27 6 -37 39q63 63 64 182q0 53 -19 117q17 10 56 10zM217 287v577h-168q-6 25 -6 47.5t6 44.5h168v263q25 6 55.5 6t55.5 -6v-263h387q6 -25 6 -46.5t-6 -45.5h-387v-549q0 -238 200 -237q90 0 193 69
q41 -28 51 -81q-104 -88 -244.5 -88.5t-225.5 75.5t-85 234z" />
    <glyph glyph-name="circumflex" unicode="&#x2c6;" horiz-adv-x="602" 
d="M346 1378l221 -231q-18 -47 -59 -64l-207 193l-205 -189q-41 16 -55 60l223 231q41 10 82 0z" />
    <glyph glyph-name="caron" unicode="&#x2c7;" horiz-adv-x="600" 
d="M262 1094l-217 229q14 49 55 66l207 -195l207 190q43 -18 57 -61l-227 -229q-41 -10 -82 0z" />
    <glyph glyph-name="breve" unicode="&#x2d8;" horiz-adv-x="618" 
d="M307 1096q-117 0 -187.5 70.5t-78.5 185.5q39 16 84 10q27 -176 184 -176q76 0 125 46t58 130q49 4 81 -10q-4 -111 -76.5 -183.5t-189.5 -72.5z" />
    <glyph glyph-name="dotaccent" unicode="&#x2d9;" horiz-adv-x="335" 
d="M168 1157q-37 0 -63.5 25.5t-26.5 63.5t26.5 64.5t63.5 26.5t63.5 -26.5t26.5 -64.5t-26.5 -63.5t-63.5 -25.5z" />
    <glyph glyph-name="ring" unicode="&#x2da;" horiz-adv-x="473" 
d="M239 1124q46 0 75.5 32t29.5 77t-29.5 77.5t-75.5 32.5t-77 -32.5t-31 -76.5t31 -77t77 -33zM237 1044q-77 0 -132.5 55.5t-55.5 133.5t55.5 133t133 55t132 -55t54.5 -133t-55 -133.5t-132 -55.5z" />
    <glyph glyph-name="ogonek" unicode="&#x2db;" horiz-adv-x="499" 
d="M264 -375q-90 0 -135 39t-45 109q0 143 201 290h98q-80 -59 -134 -132t-54 -121q1 -48 25 -67t68 -19t99 38q41 -27 41 -75q-74 -62 -164 -62z" />
    <glyph glyph-name="tilde" unicode="&#x2dc;" horiz-adv-x="737" 
d="M498 1245q82 0 112 90q53 0 84 -30q-20 -74 -71.5 -115t-111.5 -41t-149.5 43t-123.5 43q-86 0 -115 -92q-53 0 -88 31q49 158 194 157q55 0 144.5 -43t124.5 -43z" />
    <glyph glyph-name="hungarumlaut" unicode="&#x2dd;" horiz-adv-x="657" 
d="M387 1065q-35 10 -47 33l174 311q59 -10 98 -63zM88 1065q-35 10 -47 33l176 311q57 -10 96 -63z" />
    <glyph glyph-name="gravecomb" unicode="&#x300;" 
d="M-80 1077l-332 223q25 70 74 95l291 -271q-4 -29 -33 -47z" />
    <glyph glyph-name="acutecomb" unicode="&#x301;" 
d="M-379 1077q-27 16 -35 47l293 271q49 -27 74 -95z" />
    <glyph glyph-name="uni0302" unicode="&#x302;" 
d="M-266 1378l221 -231q-18 -47 -59 -64l-207 193l-205 -189q-41 16 -55 60l223 231q41 10 82 0z" />
    <glyph glyph-name="tildecomb" unicode="&#x303;" 
d="M-231 1245q82 0 112 90q53 0 84 -30q-20 -74 -71.5 -115t-112.5 -41t-150.5 43t-124.5 43q-83 0 -112 -92q-57 0 -88 31q49 158 192 157q57 0 146.5 -43t124.5 -43z" />
    <glyph glyph-name="uni0304" unicode="&#x304;" 
d="M-588 1208q0 29 6 52h519q8 -23 8 -47.5t-8 -47.5h-519q-6 14 -6 43z" />
    <glyph glyph-name="uni0306" unicode="&#x306;" 
d="M-307 1096q-117 0 -187.5 70.5t-78.5 185.5q39 16 84 10q27 -176 184 -176q76 0 125 46t57 130q49 4 82 -10q-4 -111 -76.5 -183.5t-189.5 -72.5z" />
    <glyph glyph-name="uni0307" unicode="&#x307;" 
d="M-168 1157q-37 0 -63.5 25.5t-26.5 63.5t26.5 64.5t63.5 26.5t63.5 -26.5t26.5 -64.5t-26.5 -63.5t-63.5 -25.5z" />
    <glyph glyph-name="uni0308" unicode="&#x308;" 
d="M-138 1149q-36 0 -60.5 23.5t-24.5 59.5t24.5 60.5t60.5 24.5t60.5 -24.5t24.5 -60.5t-24.5 -59.5t-60.5 -23.5zM-548 1149q-36 0 -60.5 23.5t-24.5 59.5t24.5 60.5t60.5 24.5t60.5 -24.5t24.5 -60.5t-24.5 -59.5t-60.5 -23.5z" />
    <glyph glyph-name="uni030A" unicode="&#x30a;" 
d="M-235 1124q46 0 76 32t30 77t-29.5 77.5t-76 32.5t-77 -32.5t-30.5 -76.5t30.5 -77t76.5 -33zM-237 1044q-77 0 -132 55.5t-55 133.5t55.5 133t133 55t132 -55t54.5 -133t-55.5 -133.5t-132.5 -55.5z" />
    <glyph glyph-name="uni030B" unicode="&#x30b;" 
d="M-266 1065q-35 10 -47 33l174 311q59 -10 98 -63zM-565 1065q-35 10 -47 33l176 311q57 -10 96 -63z" />
    <glyph glyph-name="uni030C" unicode="&#x30c;" 
d="M-350 1094l-217 229q14 49 55 66l207 -195l207 190q43 -18 57 -61l-227 -229q-41 -10 -82 0z" />
    <glyph glyph-name="uni0326" unicode="&#x326;" 
d="M-164 -207q0 53 -18 117q16 10 55 10t57 -8q10 -37 11 -90q0 -160 -131 -250q-27 6 -37 39q63 63 63 182z" />
    <glyph glyph-name="uni0327" unicode="&#x327;" 
d="M-256 -309q123 0 123 81t-160 89l60 151h81l-34 -92q156 -29 155 -141q0 -88 -67.5 -127t-154.5 -39t-128 22q6 45 31 74q39 -18 94 -18z" />
    <glyph glyph-name="uni0328" unicode="&#x328;" 
d="M-204.5 -375q-90.5 0 -135.5 39t-45 109q0 143 201 290h98q-80 -59 -134 -131.5t-54 -121t24.5 -67.5t69 -19t98.5 38q41 -27 41 -75q-73 -62 -163.5 -62z" />
    <glyph glyph-name="uni0335" unicode="&#x335;" 
d="M-541 960.5q0 22.5 6 47.5h480q6 -23 6 -45t-6 -48h-480q-6 23 -6 45.5z" />
    <glyph glyph-name="uni0336" unicode="&#x336;" 
d="M-1329 965q0 16 8 45h1260q8 -18 8 -43t-8 -47h-1260q-8 29 -8 45z" />
    <glyph glyph-name="uni0337" unicode="&#x337;" 
d="M-430 555q-35 31 -39 78l406 209q33 -29 38 -80z" />
    <glyph glyph-name="uni0338" unicode="&#x338;" 
d="M-1028 -53q-51 16 -64 63l906 1006q47 -18 63 -60z" />
    <glyph glyph-name="Wgrave" unicode="&#x1e80;" horiz-adv-x="1847" 
d="M1726 1325q27 0 64 -12q-174 -758 -412 -1313q-27 -10 -63.5 -10t-63.5 10l-288 944l-25 105l-31 -107l-317 -942q-41 -8 -65 -8t-64 8q-217 512 -393 1313q37 14 70.5 14t54.5 -6q127 -659 335 -1204l23 88l328 993q27 6 59.5 6t54.5 -6l310 -989l22 -92
q217 563 350 1202q24 6 51 6zM1106 1442q-2 -33 -25 -51l-368 168q2 70 59 104z" />
    <glyph glyph-name="wgrave" unicode="&#x1e81;" horiz-adv-x="1474" 
d="M998.5 -8q-34.5 0 -58.5 6q-98 186 -201 475q-74 -246 -196 -475q-23 -6 -58 -6t-59 6q-113 190 -216.5 451.5t-158.5 502.5q23 8 72 9l45 -3q49 -211 142 -453.5t169 -387.5q4 -12 8 -23q4 12 9 23q117 254 194 504q-53 172 -90 331q18 8 72 9l45 -3q47 -221 129 -460.5
t151 -380.5q2 -4 4.5 -10.5t4.5 -8.5q4 12 8 21q207 414 293 839l45 3q45 0 67 -9q-49 -233 -155.5 -505.5t-210.5 -448.5q-20 -6 -54.5 -6zM891 1124q-4 -29 -33 -47l-332 223q25 70 74 95z" />
    <glyph glyph-name="Wacute" unicode="&#x1e82;" horiz-adv-x="1847" 
d="M1726 1325q27 0 64 -12q-174 -758 -412 -1313q-27 -10 -63.5 -10t-63.5 10l-288 944l-25 105l-31 -107l-317 -942q-41 -8 -65 -8t-64 8q-217 512 -393 1313q37 14 70.5 14t54.5 -6q127 -659 335 -1204l23 88l328 993q27 6 59.5 6t54.5 -6l310 -989l22 -92
q217 563 350 1202q24 6 51 6zM772 1391q-25 20 -27 51l334 221q57 -33 60 -104z" />
    <glyph glyph-name="wacute" unicode="&#x1e83;" horiz-adv-x="1474" 
d="M998.5 -8q-34.5 0 -58.5 6q-98 186 -201 475q-74 -246 -196 -475q-23 -6 -58 -6t-59 6q-113 190 -216.5 451.5t-158.5 502.5q23 8 72 9l45 -3q49 -211 142 -453.5t169 -387.5q4 -12 8 -23q4 12 9 23q117 254 194 504q-53 172 -90 331q18 8 72 9l45 -3q47 -221 129 -460.5
t151 -380.5q2 -4 4.5 -10.5t4.5 -8.5q4 12 8 21q207 414 293 839l45 3q45 0 67 -9q-49 -233 -155.5 -505.5t-210.5 -448.5q-20 -6 -54.5 -6zM578 1077q-27 16 -35 47l293 271q49 -27 73 -95z" />
    <glyph glyph-name="Wdieresis" unicode="&#x1e84;" horiz-adv-x="1847" 
d="M1726 1325q27 0 64 -12q-174 -758 -412 -1313q-27 -10 -63.5 -10t-63.5 10l-288 944l-25 105l-31 -107l-317 -942q-41 -8 -65 -8t-64 8q-217 512 -393 1313q37 14 70.5 14t54.5 -6q127 -659 335 -1204l23 88l328 993q27 6 59.5 6t54.5 -6l310 -989l22 -92
q217 563 350 1202q24 6 51 6zM1132.5 1452q-34.5 0 -58 23.5t-23.5 59.5t23.5 59.5t58 23.5t58 -24.5t23.5 -59.5t-23.5 -58.5t-58 -23.5zM730 1452q-36 0 -60.5 23.5t-24.5 59.5t24.5 59.5t59.5 23.5t58.5 -23.5t23.5 -59.5t-22.5 -59.5t-58.5 -23.5z" />
    <glyph glyph-name="wdieresis" unicode="&#x1e85;" horiz-adv-x="1474" 
d="M998.5 -8q-34.5 0 -58.5 6q-98 186 -201 475q-74 -246 -196 -475q-23 -6 -58 -6t-59 6q-113 190 -216.5 451.5t-158.5 502.5q23 8 72 9l45 -3q49 -211 142 -453.5t169 -387.5q4 -12 8 -23q4 12 9 23q117 254 194 504q-53 172 -90 331q18 8 72 9l45 -3q47 -221 129 -460.5
t151 -380.5q2 -4 4.5 -10.5t4.5 -8.5q4 12 8 21q207 414 293 839l45 3q45 0 67 -9q-49 -233 -155.5 -505.5t-210.5 -448.5q-20 -6 -54.5 -6zM931 1149q-36 0 -60.5 23.5t-24.5 59.5t24.5 60.5t60.5 24.5t60.5 -24.5t24.5 -60.5t-24.5 -59.5t-60.5 -23.5zM521 1149
q-36 0 -60.5 23.5t-24.5 59.5t24.5 60.5t60.5 24.5t60.5 -24.5t24.5 -60.5t-24.5 -59.5t-60.5 -23.5z" />
    <glyph glyph-name="uni1E9E" unicode="&#x1e9e;" horiz-adv-x="1257" 
d="M1182 312q0 -154 -104 -246t-261 -93q-201 0 -325 125q14 55 69 88q103 -106 241 -106t202 63q63 63 64 159t-46 158q-47 64 -188 142q-207 115 -245 220q-19 52 -20 118q0 182 197 274q-72 -6 -115 -6q-158 0 -256 -82t-98 -245v-881q-27 -6 -57 -6t-58 6v883
q2 209 135 321t340 111h349q8 -23 8 -51t-8 -56q-158 -14 -240 -84t-82 -172q0 -72 38 -123t177 -125t211 -156q72 -81 72 -236z" />
    <glyph glyph-name="Ygrave" unicode="&#x1ef2;" horiz-adv-x="1163" 
d="M1054 1325q36 0 66 -12l-481 -785v-528q-37 -8 -56 -8t-57 8v532l-493 781q37 12 69 12t56 -4l407 -641l23 -47l22 47l391 641q17 4 53 4zM754 1442q-2 -33 -25 -51l-369 168q2 70 60 104z" />
    <glyph glyph-name="ygrave" unicode="&#x1ef3;" horiz-adv-x="1009" 
d="M894 963q28 0 64 -13q-186 -803 -706 -1364q-57 12 -80 70q174 188 281 362q-127 199 -234.5 450t-163.5 484q55 18 121 6q86 -375 330 -819l14 -28q7 21 15 26q227 424 307 821q24 5 52 5zM676 1124q-4 -29 -33 -47l-332 223q25 70 74 95z" />
    <glyph glyph-name="uni1EF8" unicode="&#x1ef8;" horiz-adv-x="1163" 
d="M1054 1325q36 0 66 -12l-481 -785v-528q-37 -8 -56 -8t-57 8v532l-493 781q37 12 69 12t56 -4l407 -641l23 -47l22 47l391 641q17 4 53 4zM453 1518q-96 0 -123 -91q-55 0 -86 31q49 158 205 158q51 0 139 -43t123 -43q94 0 120 90q61 0 87 -31q-49 -158 -201 -157
q-55 0 -143 43t-121 43z" />
    <glyph glyph-name="uni1EF9" unicode="&#x1ef9;" horiz-adv-x="1009" 
d="M894 963q28 0 64 -13q-186 -803 -706 -1364q-57 12 -80 70q174 188 281 362q-127 199 -234.5 450t-163.5 484q55 18 121 6q86 -375 330 -819l14 -28q7 21 15 26q227 424 307 821q24 5 52 5zM383 1235q-84 0 -113 -92q-57 0 -88 31q49 158 193 157q57 0 146 -43t124 -43
q82 0 113 90q53 0 84 -30q-20 -74 -71.5 -115t-113 -41t-150.5 43t-124 43z" />
    <glyph glyph-name="endash" unicode="&#x2013;" horiz-adv-x="1187" 
d="M1038 511q0 -32 -6 -50h-878q-13 59 0 96h878q6 -14 6 -46z" />
    <glyph glyph-name="emdash" unicode="&#x2014;" horiz-adv-x="2201" 
d="M2054 510q0 -24 -6 -47h-1894q-13 55 0 96h1894q6 -25 6 -49z" />
    <glyph glyph-name="quoteleft" unicode="&#x2018;" horiz-adv-x="407" 
d="M194 969q-36 0 -57 10q-14 33 -14 113t43 161q43 80 96 125q37 -4 41 -35q-66 -70 -65 -223q0 -86 22 -139q-30 -12 -66 -12z" />
    <glyph glyph-name="quoteright" unicode="&#x2019;" horiz-adv-x="403" 
d="M222 1378q40 0 59 -8q14 -34 14 -114t-44 -160t-97 -127q-35 4 -41 37q68 70 67 223q0 78 -22 139q24 10 64 10z" />
    <glyph glyph-name="quotesinglbase" unicode="&#x201a;" horiz-adv-x="421" 
d="M162 41q0 82 -25 139q25 10 66 10t57 -8q16 -30 16 -112t-44 -162t-97 -127q-39 4 -43 37q70 70 70 223z" />
    <glyph glyph-name="quotedblleft" unicode="&#x201c;" horiz-adv-x="665" 
d="M450 969q-36 0 -57 10q-16 29 -16 111t44 163q44 80 97 125q37 -4 41 -35q-66 -70 -65 -223q0 -86 22 -139q-30 -12 -66 -12zM194 969q-36 0 -57 10q-14 33 -14 113t43 162q43 81 96 124q37 -4 43 -35q-70 -70 -69 -223q0 -80 24 -139q-30 -12 -66 -12z" />
    <glyph glyph-name="quotedblright" unicode="&#x201d;" horiz-adv-x="661" 
d="M480 1374q36 0 57 -10q14 -34 14 -114t-43 -161t-96 -124q-37 4 -41 34q68 70 67 224q0 78 -22 139q28 12 64 12zM224 1374q36 0 57 -10q14 -26 14 -110t-43 -165t-96 -124q-37 4 -41 34q68 72 67 224q0 80 -24 139q30 12 66 12z" />
    <glyph glyph-name="quotedblbase" unicode="&#x201e;" horiz-adv-x="675" 
d="M416 41q0 86 -23 139q27 10 67 10t56 -8q14 -26 14 -110t-43 -165t-96 -126q-37 4 -43 37q68 70 68 223zM160 41q0 86 -23 139q25 10 66 10t57 -8q16 -30 16 -112t-44 -162t-97 -127q-37 4 -41 37q66 70 66 223z" />
    <glyph glyph-name="dagger" unicode="&#x2020;" horiz-adv-x="1024" 
d="M905 1010q0 -31 -6 -58l-334 11v-1270q-29 -6 -57 -6t-51 6v1270l-332 -11q-6 25 -6 55t6 54l332 -10v417q59 14 108 0v-417l334 10q6 -20 6 -51z" />
    <glyph glyph-name="daggerdbl" unicode="&#x2021;" horiz-adv-x="1024" 
d="M905 156q0 -30 -6 -56l-334 11v-418q-29 -6 -57 -6t-51 6v418l-332 -11q-6 27 -6 56t6 55l332 -12v764l-332 -11q-6 25 -6 55t6 54l332 -10v417q59 14 108 0v-417l334 10q6 -20 6 -51t-6 -58l-334 11v-764l334 12q6 -25 6 -55z" />
    <glyph glyph-name="bullet" unicode="&#x2022;" horiz-adv-x="761" 
d="M381 348q-84 0 -144 60q-61 60 -61 146q0 85 60 145q60 61 145 61q84 0 144 -60q61 -60 61 -146t-60 -146t-145 -60z" />
    <glyph glyph-name="ellipsis" unicode="&#x2026;" horiz-adv-x="1124" 
d="M907 -20q-35 0 -61 24t-25 62q0 36 25 60q24 24 60 24t61 -24t25 -60t-25 -62q-25 -24 -60 -24zM567 -20q-35 0 -61 24t-25 62q0 36 25 60q24 24 60 24t61 -24t25 -60t-25 -62q-25 -24 -60 -24zM218 -20q-36 0 -62 24t-25 62q0 36 25 60q26 24 62 24t61 -24t25 -60
t-25 -62q-25 -24 -61 -24z" />
    <glyph glyph-name="perthousand" unicode="&#x2030;" horiz-adv-x="2205" 
d="M1843 68q92 0 142 58q49 58 49 152t-49 153q-49 61 -141 61t-142 -60q-49 -60 -49 -154t49 -152t141 -58zM1171 68q92 0 142 58q49 58 49 152t-49 153q-49 61 -141 61t-142 -60q-49 -60 -49 -154t49 -152t141 -58zM1843 -20q-131 0 -208 85t-77 215t77 214t208 84
t209 -84t78 -214t-78 -215t-209 -85zM1171 -20q-131 0 -209 85t-77 215q0 130 78 214q79 84 209 84t207 -84t77 -214t-77 -215t-208 -85zM360 674q92 0 141 58q48 58 48 152t-48 153q-49 61 -141 61t-141 -60t-49 -154t49 -152t141 -58zM359 586q-129 0 -207 85t-78 215
t77 214t207 84t209 -84q78 -84 78 -214t-78 -215t-208 -85zM272 -96l879 1356q59 16 111 0l-879 -1356q-64 -16 -111 0z" />
    <glyph glyph-name="guilsinglleft" unicode="&#x2039;" horiz-adv-x="557" 
d="M362 217l-272 305l272 314q37 -8 54 -45l-185 -269l185 -264q-13 -33 -54 -41z" />
    <glyph glyph-name="guilsinglright" unicode="&#x203a;" horiz-adv-x="555" 
d="M195 217q-43 8 -56 41l185 264l-185 269q16 37 56 45l270 -314z" />
    <glyph glyph-name="fraction" unicode="&#x2044;" horiz-adv-x="1103" 
d="M12 -96l971 1442q55 12 111 0l-971 -1442q-56 -14 -111 0z" />
    <glyph glyph-name="Euro" unicode="&#x20ac;" horiz-adv-x="1325" 
d="M856 -25q-234 1 -388 135q-153 134 -200 363h-188q-6 23 -6 45t6 45h174q-4 66 -4 109t6 92h-139q-6 20 -6 44t6 46h153q49 227 207 361q158 135 375 135t371 -113q-16 -51 -56 -78q-143 92 -318 92t-299 -103t-165 -294h451q6 -24 6 -46t-6 -44h-465q-6 -49 -6 -94
t4 -107h432q6 -23 6 -45t-6 -45h-416q41 -187 164 -293t313 -106t322 104q45 -31 53 -80q-147 -123 -381 -123z" />
    <glyph glyph-name="trademark" unicode="&#x2122;" horiz-adv-x="1525" 
d="M399 1262v-631q-20 -6 -46 -6t-52 6v631h-227q-6 20 -6 40t6 50h542q13 -53 0 -90h-217zM1284 1354q49 0 78 -4v-717q-28 -6 -54 -6t-44 6v432l6 98l-191 -446q-20 -8 -55 -8t-55 8l-205 450l6 -102v-432q-18 -6 -45 -6t-51 6v715q26 8 64 8t46 -2l224 -480l20 -57l21 57
l204 480h31z" />
    <glyph glyph-name="minus" unicode="&#x2212;" horiz-adv-x="1136" 
d="M152 484q0 24 6 48h819q6 -22 6 -48t-6 -50h-819q-6 26 -6 50z" />
    <glyph glyph-name="approxequal" unicode="&#x2248;" horiz-adv-x="1116" 
d="M382 369q70 0 178 -46t165 -47q98 0 160 99q55 -4 82 -47q-78 -156 -242 -156q-74 0 -178 46t-158 46q-111 0 -164 -94q-55 14 -73 49q35 70 97 110q63 40 133 40zM725 645q98 0 160 98q59 -8 82 -47q-78 -156 -242 -155q-74 0 -178 46t-158 46q-111 0 -164 -94
q-53 8 -73 47q74 152 237 151q63 0 171 -46t165 -46z" />
    <glyph glyph-name="notequal" unicode="&#x2260;" horiz-adv-x="1097" 
d="M946 302q0 -24 -6 -48h-440l-138 -238q-47 14 -83 52l108 186h-229q-6 26 -6 50t6 48h286l148 256h-434q-6 24 -6 50t6 51h491l137 235q45 -12 84 -51l-106 -184h176q6 -25 6 -51t-6 -50h-235l-148 -256h383q6 -26 6 -50z" />
    <glyph glyph-name="dotlessj" unicode="&#xf6be;" horiz-adv-x="485" 
d="M23 -401q-150 0 -234 84q14 53 64 79q87 -61 163 -61t130 56t55 175v1026q62 13 114 0v-1026q1 -162 -89 -248t-203 -85z" />
    <glyph glyph-name="uniF8FF" unicode="&#xf8ff;" horiz-adv-x="2971" 
d="M2253 31q8 0 8 6t-8 6h-15v-12h15zM2238 23v-19h-10v47h23q20 0 20 -14t-14 -14l12 -19h-12l-8 19h-11zM2212 27q0 -37 37 -37t37 37t-37 36q-37 1 -37 -36zM2200 27q0 47 49 47t49 -47t-49 -47t-49 47zM1448 223q0 47 -43 47t-43 -63q0 -29 10 -60q30 -1 53 23t23 53z
M1921 223h82q6 55 -35 56q-47 0 -47 -56zM2191 260q0 -43 -6 -72h-254q23 -36 98 -36t117 24v-153q-47 -33 -159 -33q-289 0 -289 250q0 122 66 190t185 68q118 0 180 -62t62 -176zM1501 498q76 0 120 -60t44 -172q0 -276 -281 -276q2 -31 2 -80h-243q0 291 20 577h160
q14 -86 14 -155q35 166 164 166zM877 487h213q20 -106 20 -277t-69 -242t-242 -70q-125 0 -181 34v170q49 -32 118 -32q136 1 136 57q-33 -23 -100 -23q-184 0 -184 170v27h-113l6 -133q12 -8 35 -8t33 10v-150q-39 -30 -135 -30t-133 35t-37 113t6 163h-37v164l240 59
l-2 -37h362v-243q0 -33 6 -44t25 -12q33 0 33 56v243zM2562 764q0 57 -45 57t-45 -57t45 -57t45 57zM799 764q0 57 -47 57t-47 -57t47 -57t47 57zM2519 1053q248 0 248 -255t-251 -255t-251 255t254 255zM1708 553q0 358 21 489h163q12 -90 13 -155q4 31 13 61t49 68
q39 37 113 37q74 1 108 -51t38 -166l6 -283h-233l4 190q0 59 -31 60q-37 0 -37 -60l7 -190h-234zM1012 813v-260h-170l-17 125q-24 -135 -153 -135q-188 0 -189 233q0 276 275 277q254 0 254 -240zM1032 854v162l244 61l2 -35h364q20 -131 21 -489h-242q0 188 6 301h-124
l6 -133q9 -8 33 -8t34 10v-152q-29 -31 -139 -30q-168 0 -168 135l8 178h-45zM449 553h-244q0 274 18 643h205q21 -410 21 -643zM1415 1195q0 52 36 89t89 37t90 -37t37 -90t-37 -89t-90 -36t-89 37t-36 89z" />
    <glyph glyph-name="A.ss01" horiz-adv-x="1214" 
d="M319 496h566q-117 326 -258 614l-31 72l-29 -72q-135 -280 -248 -614zM1098.5 -6q-39.5 0 -54.5 4q-47 164 -124 399h-633q-66 -205 -117 -397q-25 -6 -56.5 -6t-62.5 16q211 733 492 1305q25 8 57 8t57 -8q281 -561 508 -1305q-27 -16 -66.5 -16z" />
    <glyph glyph-name="Aacute.ss01" horiz-adv-x="1214" 
d="M319 496h566q-117 326 -258 614l-31 72l-29 -72q-135 -280 -248 -614zM1098.5 -6q-39.5 0 -54.5 4q-47 164 -124 399h-633q-66 -205 -117 -397q-25 -6 -56.5 -6t-62.5 16q211 733 492 1305q25 8 57 8t57 -8q281 -561 508 -1305q-27 -16 -66.5 -16zM442 1391
q-25 20 -26 51l334 221q57 -33 59 -104z" />
    <glyph glyph-name="Abreve.ss01" horiz-adv-x="1214" 
d="M319 496h566q-117 326 -258 614l-31 72l-29 -72q-135 -280 -248 -614zM1098.5 -6q-39.5 0 -54.5 4q-47 164 -124 399h-633q-66 -205 -117 -397q-25 -6 -56.5 -6t-62.5 16q211 733 492 1305q25 8 57 8t57 -8q281 -561 508 -1305q-27 -16 -66.5 -16zM602.5 1413
q-108.5 0 -182.5 63.5t-84 161.5q41 16 86 11q14 -68 64.5 -106t119 -38t120.5 39t60 105q43 6 82 -11q-6 -94 -81.5 -159.5t-184 -65.5z" />
    <glyph glyph-name="Acircumflex.ss01" horiz-adv-x="1214" 
d="M319 496h566q-117 326 -258 614l-31 72l-29 -72q-135 -280 -248 -614zM1098.5 -6q-39.5 0 -54.5 4q-47 164 -124 399h-633q-66 -205 -117 -397q-25 -6 -56.5 -6t-62.5 16q211 733 492 1305q25 8 57 8t57 -8q281 -561 508 -1305q-27 -16 -66.5 -16zM377 1389
q-33 18 -41 59l223 197q43 12 84 0l223 -195q-12 -41 -41 -61l-229 163z" />
    <glyph glyph-name="Adieresis.ss01" horiz-adv-x="1214" 
d="M319 496h566q-117 326 -258 614l-31 72l-29 -72q-135 -280 -248 -614zM1098.5 -6q-39.5 0 -54.5 4q-47 164 -124 399h-633q-66 -205 -117 -397q-25 -6 -56.5 -6t-62.5 16q211 733 492 1305q25 8 57 8t57 -8q281 -561 508 -1305q-27 -16 -66.5 -16zM803 1452
q-35 0 -58.5 23.5t-23.5 59.5t23.5 59.5t57.5 23.5t58.5 -24.5t24.5 -59.5t-23.5 -58.5t-58.5 -23.5zM400 1452q-36 0 -60.5 23.5t-24.5 59.5t25 59.5t59.5 23.5t58 -23.5t23.5 -59.5t-22.5 -59.5t-58.5 -23.5z" />
    <glyph glyph-name="Agrave.ss01" horiz-adv-x="1214" 
d="M319 496h566q-117 326 -258 614l-31 72l-29 -72q-135 -280 -248 -614zM1098.5 -6q-39.5 0 -54.5 4q-47 164 -124 399h-633q-66 -205 -117 -397q-25 -6 -56.5 -6t-62.5 16q211 733 492 1305q25 8 57 8t57 -8q281 -561 508 -1305q-27 -16 -66.5 -16zM776 1442
q-2 -33 -24 -51l-369 168q2 70 59 104z" />
    <glyph glyph-name="Amacron.ss01" horiz-adv-x="1214" 
d="M319 496h566q-117 326 -258 614l-31 72l-29 -72q-135 -280 -248 -614zM1098.5 -6q-39.5 0 -54.5 4q-47 164 -124 399h-633q-66 -205 -117 -397q-25 -6 -56.5 -6t-62.5 16q211 733 492 1305q25 8 57 8t57 -8q281 -561 508 -1305q-27 -16 -66.5 -16zM330 1510.5
q0 15.5 6 58.5h530q6 -14 6 -46t-6 -48h-530q-6 20 -6 35.5z" />
    <glyph glyph-name="Aogonek.ss01" horiz-adv-x="1214" 
d="M319 496h566q-117 326 -258 614l-31 72l-29 -72q-135 -280 -248 -614zM924 -227q0 113 118 227h2q-43 152 -124 397h-633q-66 -205 -117 -397q-25 -6 -56.5 -6t-62.5 16q211 733 492 1305q25 8 57.5 8t56.5 -8q281 -561 508 -1305q-133 -98 -133 -200q0 -84 96 -86
q48 0 97 38q41 -25 41 -75q-70 -61 -161.5 -61.5t-136 38.5t-44.5 109z" />
    <glyph glyph-name="Aring.ss01" horiz-adv-x="1214" 
d="M319 496h566q-117 326 -258 614l-31 72l-29 -72q-135 -280 -248 -614zM1098.5 -6q-39.5 0 -54.5 4q-47 164 -124 399h-633q-66 -205 -117 -397q-25 -6 -56.5 -6t-62.5 16q211 733 492 1305q25 8 57 8t57 -8q281 -561 508 -1305q-27 -16 -66.5 -16zM604 1638
q-45 0 -74.5 -31.5t-29.5 -76.5t29.5 -77t74.5 -32t74 32t29 77t-29 76.5t-74 31.5zM604 1341q-78 0 -133 55.5t-55 133.5t55 132t132 54t132.5 -55t55.5 -132t-54.5 -132.5t-132.5 -55.5z" />
    <glyph glyph-name="Atilde.ss01" horiz-adv-x="1214" 
d="M319 496h566q-117 326 -258 614l-31 72l-29 -72q-135 -280 -248 -614zM1098.5 -6q-39.5 0 -54.5 4q-47 164 -124 399h-633q-66 -205 -117 -397q-25 -6 -56.5 -6t-62.5 16q211 733 492 1305q25 8 57 8t57 -8q281 -561 508 -1305q-27 -16 -66.5 -16zM473 1518
q-96 0 -123 -91q-55 0 -86 31q49 158 205 158q51 0 139 -43t123 -43q94 0 121 90q61 0 86 -31q-49 -158 -201 -157q-55 0 -143 43t-121 43z" />
    <glyph glyph-name="E.ss01" horiz-adv-x="1001" 
d="M115 352q0 125 68.5 213t185.5 129q-203 78 -203 299q0 154 110.5 250t290.5 96t307 -84q-6 -57 -47 -92q-119 72 -257 72t-216 -65.5t-78 -177.5t82 -180.5t252 -68.5h131q15 -49 0 -102h-153q-172 0 -265.5 -77t-93.5 -206t90.5 -202.5t270.5 -73.5t311 96
q41 -27 49 -86q-150 -113 -371 -112.5t-342.5 96.5t-121.5 276z" />
    <glyph glyph-name="Eacute.ss01" horiz-adv-x="1001" 
d="M115 352q0 125 68.5 213t185.5 129q-203 78 -203 299q0 154 110.5 250t290.5 96t307 -84q-6 -57 -47 -92q-119 72 -257 72t-216 -65.5t-78 -177.5t82 -180.5t252 -68.5h131q15 -49 0 -102h-153q-172 0 -265.5 -77t-93.5 -206t90.5 -202.5t270.5 -73.5t311 96
q41 -27 49 -86q-150 -113 -371 -112.5t-342.5 96.5t-121.5 276zM387 1391q-25 20 -27 51l334 221q57 -33 60 -104z" />
    <glyph glyph-name="Ecaron.ss01" horiz-adv-x="1001" 
d="M115 352q0 125 68.5 213t185.5 129q-203 78 -203 299q0 154 110.5 250t290.5 96t307 -84q-6 -57 -47 -92q-119 72 -257 72t-216 -65.5t-78 -177.5t82 -180.5t252 -68.5h131q15 -49 0 -102h-153q-172 0 -265.5 -77t-93.5 -206t90.5 -202.5t270.5 -73.5t311 96
q41 -27 49 -86q-150 -113 -371 -112.5t-342.5 96.5t-121.5 276zM590 1399q-43 -12 -84 0l-223 194q12 39 43 62l227 -166l219 166q33 -23 41 -62z" />
    <glyph glyph-name="Ecircumflex.ss01" horiz-adv-x="1001" 
d="M115 352q0 125 68.5 213t185.5 129q-203 78 -203 299q0 154 110.5 250t290.5 96t307 -84q-6 -57 -47 -92q-119 72 -257 72t-216 -65.5t-78 -177.5t82 -180.5t252 -68.5h131q15 -49 0 -102h-153q-172 0 -265.5 -77t-93.5 -206t90.5 -202.5t270.5 -73.5t311 96
q41 -27 49 -86q-150 -113 -371 -112.5t-342.5 96.5t-121.5 276zM322 1389q-33 18 -41 59l223 197q43 12 84 0l223 -195q-12 -41 -41 -61l-229 163z" />
    <glyph glyph-name="Edieresis.ss01" horiz-adv-x="1001" 
d="M115 352q0 125 68.5 213t185.5 129q-203 78 -203 299q0 154 110.5 250t290.5 96t307 -84q-6 -57 -47 -92q-119 72 -257 72t-216 -65.5t-78 -177.5t82 -180.5t252 -68.5h131q15 -49 0 -102h-153q-172 0 -265.5 -77t-93.5 -206t90.5 -202.5t270.5 -73.5t311 96
q41 -27 49 -86q-150 -113 -371 -112.5t-342.5 96.5t-121.5 276zM747.5 1452q-34.5 0 -58 23.5t-23.5 59.5t23.5 59.5t58 23.5t58 -24.5t23.5 -59.5t-23.5 -58.5t-58 -23.5zM345 1452q-36 0 -60.5 23.5t-24.5 59.5t24.5 59.5t59.5 23.5t58.5 -23.5t23.5 -59.5t-22.5 -59.5
t-58.5 -23.5z" />
    <glyph glyph-name="Edotaccent.ss01" horiz-adv-x="1001" 
d="M115 352q0 125 68.5 213t185.5 129q-203 78 -203 299q0 154 110.5 250t290.5 96t307 -84q-6 -57 -47 -92q-119 72 -257 72t-216 -65.5t-78 -177.5t82 -180.5t252 -68.5h131q15 -49 0 -102h-153q-172 0 -265.5 -77t-93.5 -206t90.5 -202.5t270.5 -73.5t311 96
q41 -27 49 -86q-150 -113 -371 -112.5t-342.5 96.5t-121.5 276zM546 1452q-36 0 -61.5 24.5t-25.5 61.5t25.5 62.5t61.5 25.5t61.5 -25.5t25.5 -62.5t-25.5 -61.5t-61.5 -24.5z" />
    <glyph glyph-name="Egrave.ss01" horiz-adv-x="1001" 
d="M115 352q0 125 68.5 213t185.5 129q-203 78 -203 299q0 154 110.5 250t290.5 96t307 -84q-6 -57 -47 -92q-119 72 -257 72t-216 -65.5t-78 -177.5t82 -180.5t252 -68.5h131q15 -49 0 -102h-153q-172 0 -265.5 -77t-93.5 -206t90.5 -202.5t270.5 -73.5t311 96
q41 -27 49 -86q-150 -113 -371 -112.5t-342.5 96.5t-121.5 276zM719 1442q-2 -33 -25 -51l-368 168q2 70 59 104z" />
    <glyph glyph-name="Emacron.ss01" horiz-adv-x="1001" 
d="M115 352q0 125 68.5 213t185.5 129q-203 78 -203 299q0 154 110.5 250t290.5 96t307 -84q-6 -57 -47 -92q-119 72 -257 72t-216 -65.5t-78 -177.5t82 -180.5t252 -68.5h131q15 -49 0 -102h-153q-172 0 -265.5 -77t-93.5 -206t90.5 -202.5t270.5 -73.5t311 96
q41 -27 49 -86q-150 -113 -371 -112.5t-342.5 96.5t-121.5 276zM817 1523q0 -32 -6 -48h-530q-10 33 0 94h530q6 -14 6 -46z" />
    <glyph glyph-name="Eogonek.ss01" horiz-adv-x="1001" 
d="M598 -227q0 106 117 219q-63 -12 -142 -12q-215 0 -336.5 96t-121.5 276q0 125 68.5 213t185.5 129q-203 78 -203 299q0 154 110.5 250t290.5 96t307 -84q-6 -57 -47 -92q-119 72 -257 72t-216 -65.5t-78 -177.5t82 -180.5t252 -68.5h131q15 -49 0 -102h-153
q-172 0 -265.5 -77t-93.5 -206t90.5 -202.5t270.5 -73.5t311 96q41 -27 49 -86q-41 -31 -78 -47q-164 -133 -163 -244q0 -75 94 -77q45 0 98 38q41 -27 41 -75q-74 -61 -164 -61.5t-135 38.5t-45 109z" />
    <glyph glyph-name="Q.ss02" horiz-adv-x="1495" 
d="M748 80q119 0 219 45l-140 176q33 45 91 66l145 -183q203 162 203 475q0 260 -142 421t-378 161t-376.5 -160.5t-140.5 -418.5t141.5 -420t377.5 -162zM1384 659q0 -174 -66.5 -320t-187.5 -239l158 -200q-29 -59 -88 -70l-166 209q-135 -66 -286 -66q-283 0 -460 194.5
t-177 490.5t177 493t459.5 197t459.5 -194t177 -495z" />
    <glyph glyph-name="a.ss01" horiz-adv-x="1150" 
d="M551 80q90 0 170 48t123 134v557q-102 63 -256 63t-261.5 -114.5t-107.5 -303.5t91 -286.5t241 -97.5zM956 250q0 -76 24 -108.5t85 -63.5q0 -27 -16.5 -53.5t-36.5 -38.5q-121 37 -152 137q-126 -147 -320 -147t-316 120.5t-122 359.5t143.5 386t353.5 147t357 -106
v-633z" />
    <glyph glyph-name="aacute.ss01" horiz-adv-x="1150" 
d="M551 80q90 0 170 48t123 134v557q-102 63 -256 63t-261.5 -114.5t-107.5 -303.5t91 -286.5t241 -97.5zM956 250q0 -76 24 -108.5t85 -63.5q0 -27 -16.5 -53.5t-36.5 -38.5q-121 37 -152 137q-126 -147 -320 -147t-316 120.5t-122 359.5t143.5 386t353.5 147t357 -106
v-633zM426 1077q-27 16 -35 47l293 271q49 -27 74 -95z" />
    <glyph glyph-name="abreve.ss01" horiz-adv-x="1150" 
d="M551 80q90 0 170 48t123 134v557q-102 63 -256 63t-261.5 -114.5t-107.5 -303.5t91 -286.5t241 -97.5zM956 250q0 -76 24 -108.5t85 -63.5q0 -27 -16.5 -53.5t-36.5 -38.5q-121 37 -152 137q-126 -147 -320 -147t-316 120.5t-122 359.5t143.5 386t353.5 147t357 -106
v-633zM573.5 1096q-116.5 0 -187.5 70.5t-79 185.5q39 16 84 10q27 -176 184 -176q76 0 125.5 46t57.5 130q49 4 82 -10q-4 -111 -77 -183.5t-189.5 -72.5z" />
    <glyph glyph-name="acircumflex.ss01" horiz-adv-x="1150" 
d="M551 80q90 0 170 48t123 134v557q-102 63 -256 63t-261.5 -114.5t-107.5 -303.5t91 -286.5t241 -97.5zM956 250q0 -76 24 -108.5t85 -63.5q0 -27 -16.5 -53.5t-36.5 -38.5q-121 37 -152 137q-126 -147 -320 -147t-316 120.5t-122 359.5t143.5 386t353.5 147t357 -106
v-633zM365 1087q-41 16 -56 60l223 231q41 10 82 0l222 -231q-18 -47 -60 -64l-207 193z" />
    <glyph glyph-name="adieresis.ss01" horiz-adv-x="1150" 
d="M551 80q90 0 170 48t123 134v557q-102 63 -256 63.5t-261.5 -114.5t-107.5 -304t91 -286.5t241 -97.5zM956 250q0 -76 24 -108.5t85 -63.5q0 -27 -16.5 -53.5t-36.5 -38.5q-121 37 -152 137q-125 -147 -319.5 -147.5t-316.5 120.5t-122 360t143.5 386t353.5 147t357 -106
v-633zM777 1149q-36 0 -60.5 23.5t-24.5 59.5t24.5 60.5t60.5 24.5t60.5 -24.5t24.5 -60.5t-24.5 -59.5t-60.5 -23.5zM368 1149q-36 0 -60.5 23.5t-24.5 59.5t24.5 60.5t60.5 24.5t60.5 -24.5t24.5 -60.5t-24.5 -59.5t-60.5 -23.5z" />
    <glyph glyph-name="agrave.ss01" horiz-adv-x="1150" 
d="M551 80q90 0 170 48t123 134v557q-102 63 -256 63t-261.5 -114.5t-107.5 -303.5t91 -286.5t241 -97.5zM956 250q0 -76 24 -108.5t85 -63.5q0 -27 -16.5 -53.5t-36.5 -38.5q-121 37 -152 137q-126 -147 -320 -147t-316 120.5t-122 359.5t143.5 386t353.5 147t357 -106
v-633zM737 1124q-4 -29 -32 -47l-332 223q25 70 73 95z" />
    <glyph glyph-name="amacron.ss01" horiz-adv-x="1150" 
d="M551 80q90 0 170 48t123 134v557q-102 63 -256 63.5t-261.5 -114.5t-107.5 -304t91 -286.5t241 -97.5zM956 250q0 -76 24 -108.5t85 -63.5q0 -27 -16.5 -53.5t-36.5 -38.5q-121 37 -152 137q-125 -147 -319.5 -147.5t-316.5 120.5t-122 360t143.5 386t353.5 147t357 -106
v-633zM307 1208q0 29 6 52h518q8 -23 8 -47.5t-8 -47.5h-518q-6 14 -6 43z" />
    <glyph glyph-name="aogonek.ss01" horiz-adv-x="1155" 
d="M543 80q92 0 173 47t130 131v561q-98 63 -254 63t-264 -113q-108 -114 -107 -303q0 -189 88 -288q89 -98 234 -98zM709 -221q0 162 221 264q-47 29 -68 82q-124 -150 -322 -150t-317 121t-119 360t142 386t354 147q211 0 358 -106v-633q0 -68 23 -98t82 -37
q4 -68 -29 -105q-109 -37 -162 -92q-53 -54 -53 -104t26 -70t71 -20t94 38q43 -27 43 -73q-72 -63 -160 -63t-136 41q-48 42 -48 112z" />
    <glyph glyph-name="aring.ss01" horiz-adv-x="1150" 
d="M551 80q90 0 170 48t123 134v557q-102 63 -256 63.5t-261.5 -114.5t-107.5 -304t91 -286.5t241 -97.5zM956 250q0 -76 24 -108.5t85 -63.5q0 -27 -16.5 -53.5t-36.5 -38.5q-121 37 -152 137q-125 -147 -319.5 -147.5t-316.5 120.5t-122 360t143.5 386t353.5 147t357 -106
v-633zM574 1343q-46 0 -76.5 -32.5t-30.5 -76.5t30.5 -77t76.5 -33t76 32t30 77t-30 77.5t-76 32.5zM572 1044q-77 0 -132 55.5t-55 133.5t55.5 133t133 55t132 -55t54.5 -133t-55.5 -133.5t-132.5 -55.5z" />
    <glyph glyph-name="atilde.ss01" horiz-adv-x="1150" 
d="M551 80q90 0 170 48t123 134v557q-102 63 -256 63t-261.5 -114.5t-107.5 -303.5t91 -286.5t241 -97.5zM956 250q0 -76 24 -108.5t85 -63.5q0 -27 -16.5 -53.5t-36.5 -38.5q-121 37 -152 137q-126 -147 -320 -147t-316 120.5t-122 359.5t143.5 386t353.5 147t357 -106
v-633zM444 1235q-84 0 -112 -92q-57 0 -88 31q49 158 192 157q57 0 146.5 -43t124.5 -43q82 0 112 90q53 0 84 -30q-20 -74 -71.5 -115t-112.5 -41t-150.5 43t-124.5 43z" />
    <glyph glyph-name="e.ss01" horiz-adv-x="1034" 
d="M565 885q-123 0 -216 -83t-120 -229q141 -57 310 -57q276 0 276 174q0 80 -63.5 137.5t-186.5 57.5zM102 461.5q0 236.5 137.5 381t318.5 144.5t276.5 -83t95.5 -208q0 -276 -393 -276q-172 0 -318 61v-14q0 -184 97.5 -284.5t263 -100.5t290.5 115q47 -29 60 -84
q-145 -137 -353.5 -137.5t-341.5 124.5t-133 361.5z" />
    <glyph glyph-name="eacute.ss01" horiz-adv-x="1034" 
d="M565 885q-123 0 -216 -83t-120 -229q141 -57 310 -57q276 0 276 174q0 80 -63.5 137.5t-186.5 57.5zM102 461.5q0 236.5 137.5 381t318.5 144.5t276.5 -83t95.5 -208q0 -276 -393 -276q-172 0 -318 61v-14q0 -184 97.5 -284.5t263 -100.5t290.5 115q47 -29 60 -84
q-145 -137 -353.5 -137.5t-341.5 124.5t-133 361.5zM399 1077q-27 16 -34 47l292 271q49 -27 74 -95z" />
    <glyph glyph-name="ecaron.ss01" horiz-adv-x="1034" 
d="M565 885q-123 0 -216 -83t-120 -229q141 -57 310 -57q276 0 276 174q0 80 -63.5 137.5t-186.5 57.5zM102 461.5q0 236.5 137.5 381t318.5 144.5t276.5 -83t95.5 -208q0 -276 -393 -276q-172 0 -318 61v-14q0 -184 97.5 -284.5t263 -100.5t290.5 115q47 -29 60 -84
q-145 -137 -353.5 -137.5t-341.5 124.5t-133 361.5zM586 1094q-41 -10 -82 0l-217 229q14 49 55 66l207 -195l207 190q43 -18 57 -61z" />
    <glyph glyph-name="ecircumflex.ss01" horiz-adv-x="1034" 
d="M565 885q-123 0 -216 -83t-120 -229q141 -57 310 -57q276 0 276 174q0 80 -63.5 137.5t-186.5 57.5zM102 461.5q0 236.5 137.5 381t318.5 144.5t276.5 -83t95.5 -208q0 -276 -393 -276q-172 0 -318 61v-14q0 -184 97.5 -284.5t263 -100.5t290.5 115q47 -29 60 -84
q-145 -137 -353.5 -137.5t-341.5 124.5t-133 361.5zM338 1087q-41 16 -55 60l223 231q41 10 82 0l221 -231q-18 -47 -59 -64l-207 193z" />
    <glyph glyph-name="edieresis.ss01" horiz-adv-x="1034" 
d="M565 885q-123 0 -216 -83t-120 -229q141 -57 310 -57q276 0 276 174q0 80 -63.5 137.5t-186.5 57.5zM102 461.5q0 236.5 137.5 381t318.5 144.5t276.5 -83t95.5 -208q0 -276 -393 -276q-172 0 -318 61v-14q0 -184 97.5 -284.5t263 -100.5t290.5 115q47 -29 60 -84
q-145 -137 -353.5 -137.5t-341.5 124.5t-133 361.5zM751 1149q-36 0 -60.5 23.5t-24.5 59.5t24.5 60.5t60.5 24.5t60.5 -24.5t24.5 -60.5t-24.5 -59.5t-60.5 -23.5zM341 1149q-36 0 -60.5 23.5t-24.5 59.5t24.5 60.5t60.5 24.5t60.5 -24.5t24.5 -60.5t-24.5 -59.5
t-60.5 -23.5z" />
    <glyph glyph-name="edotaccent.ss01" horiz-adv-x="1034" 
d="M565 885q-123 0 -216 -83t-120 -229q141 -57 310 -57q276 0 276 174q0 80 -63.5 137.5t-186.5 57.5zM102 461.5q0 236.5 137.5 381t318.5 144.5t276.5 -83t95.5 -208q0 -276 -393 -276q-172 0 -318 61v-14q0 -184 97.5 -284.5t263 -100.5t290.5 115q47 -29 60 -84
q-145 -137 -353.5 -137.5t-341.5 124.5t-133 361.5zM547 1157q-37 0 -64.5 26.5t-27.5 63.5t26.5 63.5t64.5 26.5t63.5 -26.5t25.5 -64.5t-25.5 -63.5t-62.5 -25.5z" />
    <glyph glyph-name="egrave.ss01" horiz-adv-x="1034" 
d="M565 885q-123 0 -216 -83t-120 -229q141 -57 310 -57q276 0 276 174q0 80 -63.5 137.5t-186.5 57.5zM102 461.5q0 236.5 137.5 381t318.5 144.5t276.5 -83t95.5 -208q0 -276 -393 -276q-172 0 -318 61v-14q0 -184 97.5 -284.5t263 -100.5t290.5 115q47 -29 60 -84
q-145 -137 -353.5 -137.5t-341.5 124.5t-133 361.5zM711 1124q-4 -29 -33 -47l-332 223q25 70 74 95z" />
    <glyph glyph-name="emacron.ss01" horiz-adv-x="1034" 
d="M565 885q-123 0 -216 -83t-120 -229q141 -57 310 -57q276 0 276 174q0 80 -63.5 137.5t-186.5 57.5zM102 461.5q0 236.5 137.5 381t318.5 144.5t276.5 -83t95.5 -208q0 -276 -393 -276q-172 0 -318 61v-14q0 -184 97.5 -284.5t263 -100.5t290.5 115q47 -29 60 -84
q-145 -137 -353.5 -137.5t-341.5 124.5t-133 361.5zM281 1208q0 29 6 52h518q8 -23 8 -47.5t-8 -47.5h-518q-6 14 -6 43z" />
    <glyph glyph-name="eogonek.ss01" horiz-adv-x="1034" 
d="M565 885q-123 0 -216 -83t-120 -229q141 -57 310 -57q276 0 276 174q0 80 -63.5 137.5t-186.5 57.5zM680 -189.5q0 -48.5 24.5 -67.5t69.5 -19t98 38q41 -27 41 -75q-74 -61 -164 -61.5t-135 38.5t-45 109q0 100 109 213q-55 -10 -107 -11q-203 0 -336 125t-133 361.5
t137.5 381t318.5 144.5t276.5 -83t95.5 -208q0 -276 -393 -276q-172 0 -318 61v-14q0 -184 97.5 -284.5t263 -100.5t290.5 115q47 -29 60 -84q-41 -36 -64 -52q-80 -59 -133 -130.5t-53 -120z" />
    <glyph glyph-name="g.ss01" horiz-adv-x="1124" 
d="M514 -297q154 0 245 83t91 222v127q-82 -51 -186 -63q-188 -33 -268.5 -87.5t-80.5 -136.5q0 -145 199 -145zM219 513q0 -163 104.5 -254t258 -91t268.5 88v547q-98 80 -258 80t-266.5 -103.5t-106.5 -266.5zM599 989q210 0 364 -125v-856q0 -184 -124 -295.5
t-325 -111.5q-152 0 -231.5 63.5t-79.5 175.5q0 168 215 250q-145 43 -231.5 152.5t-86.5 271.5q0 213 144.5 344t354.5 131z" />
    <glyph glyph-name="gbreve.ss01" horiz-adv-x="1124" 
d="M514 -297q154 0 245 83t91 222v127q-82 -51 -186 -63q-188 -33 -268.5 -87.5t-80.5 -136.5q0 -145 199 -145zM219 513q0 -163 104.5 -254t258 -91t268.5 88v547q-98 80 -258 80t-266.5 -103.5t-106.5 -266.5zM599 989q210 0 364 -125v-856q0 -184 -124 -295.5
t-325 -111.5q-152 0 -231.5 63.5t-79.5 175.5q0 168 215 250q-145 43 -231.5 152.5t-86.5 271.5q0 213 144.5 344t354.5 131zM561 1096q-117 0 -187.5 70.5t-78.5 185.5q39 16 84 10q27 -176 184 -176q76 0 125 46t57 130q49 4 82 -10q-4 -111 -76.5 -183.5t-189.5 -72.5z
" />
    <glyph glyph-name="gcommaaccent.ss01" horiz-adv-x="1124" 
d="M514 -297q154 0 245 83t91 222v127q-82 -51 -186 -63q-188 -33 -268.5 -87.5t-80.5 -136.5q0 -145 199 -145zM219 513q0 -163 104.5 -254t258 -91t268.5 88v547q-98 80 -258 80t-266.5 -103.5t-106.5 -266.5zM599 989q210 0 364 -125v-856q0 -184 -124 -295.5
t-325 -111.5q-152 0 -231.5 63.5t-79.5 175.5q0 168 215 250q-145 43 -231.5 152.5t-86.5 271.5q0 213 144.5 344t354.5 131zM556 1040q-38 0 -56 9q-10 37 -11 90q0 160 132 250q27 -6 36 -39q-63 -63 -63 -183q0 -59 20 -116q-20 -11 -58 -11z" />
    <glyph glyph-name="gdotaccent.ss01" horiz-adv-x="1124" 
d="M514 -297q154 0 245 83t91 222v127q-82 -51 -186 -63q-188 -33 -268.5 -87.5t-80.5 -136.5q0 -145 199 -145zM219 513q0 -163 104.5 -254t258 -91t268.5 88v547q-98 80 -258 80t-266.5 -103.5t-106.5 -266.5zM599 989q210 0 364 -125v-856q0 -184 -124 -295.5
t-325 -111.5q-152 0 -231.5 63.5t-79.5 175.5q0 168 215 250q-145 43 -231.5 152.5t-86.5 271.5q0 213 144.5 344t354.5 131zM561 1157q-37 0 -64.5 26.5t-27.5 63.5t26.5 63.5t64.5 26.5t63.5 -26.5t25.5 -64.5t-25.5 -63.5t-62.5 -25.5z" />
    <glyph glyph-name="k.ss01" horiz-adv-x="1077" 
d="M918 -8q-42 0 -62 4l-276 330q-37 47 -37 110q150 35 227.5 92.5t77.5 153.5t-59.5 149.5t-157.5 53.5q-145 0 -247.5 -95.5t-102.5 -236.5v-553q-25 -6 -55 -6t-58 6v1346q27 6 57.5 6t55.5 -6v-547q125 188 360 188q154 0 238 -78t84 -207q0 -239 -283 -325l321 -375
q-41 -10 -83 -10z" />
    <glyph glyph-name="kcommaaccent.ss01" horiz-adv-x="1077" 
d="M500 -80q39 0 57 -8q10 -37 10 -90q0 -160 -131 -250q-27 6 -37 39q63 63 64 182q0 53 -19 117q17 10 56 10zM918 -8q-42 0 -62 4l-276 330q-37 47 -37 110q150 35 227.5 92.5t77.5 153.5t-59.5 149.5t-157.5 53.5q-145 0 -247.5 -95.5t-102.5 -236.5v-553q-25 -6 -55 -6
t-58 6v1346q27 6 57.5 6t55.5 -6v-547q125 188 360 188q154 0 238 -78t84 -207q0 -239 -283 -325l321 -375q-41 -10 -83 -10z" />
    <glyph glyph-name="l.ss01" horiz-adv-x="606" 
d="M274 215q0 -129 138 -129q64 0 125 66q51 -25 65 -80q-82 -88 -194.5 -88t-180 55t-67.5 162v1147q25 8 57.5 8t56.5 -8v-1133z" />
    <glyph glyph-name="lacute.ss01" horiz-adv-x="606" 
d="M274 215q0 -129 138 -129q64 0 125 66q51 -25 65 -80q-82 -88 -194.5 -88t-180 55t-67.5 162v1147q25 8 57.5 8t56.5 -8v-1133zM72 1391q-25 20 -27 51l334 221q57 -33 59 -104z" />
    <glyph glyph-name="lcaron.ss01" horiz-adv-x="606" 
d="M274 215q0 -129 138 -129q64 0 125 66q51 -25 65 -80q-82 -88 -194.5 -88t-180 55t-67.5 162v1147q25 8 57.5 8t56.5 -8v-1133zM426 1289.5q0 99.5 -18 148.5q18 14 54 14t54 -12q12 -37 12 -86q0 -165 -96 -269q-31 6 -45 29q39 76 39 175.5z" />
    <glyph glyph-name="lcommaaccent.ss01" horiz-adv-x="606" 
d="M364.5 -80q39.5 0 57.5 -8q10 -37 10 -90q0 -160 -131 -250q-27 6 -37 39q63 63 64 182q0 53 -19 117q16 10 55.5 10zM274 215q0 -129 138 -129q64 0 125 66q51 -25 65 -80q-82 -88 -194.5 -88t-180 55t-67.5 162v1147q25 8 57.5 8t56.5 -8v-1133z" />
    <glyph glyph-name="ldot.ss01" horiz-adv-x="573" 
d="M479 588q-39 0 -66.5 26.5t-27.5 65.5t27.5 65.5t66.5 26.5t65.5 -26.5t26.5 -65.5t-26.5 -65.5t-65.5 -26.5zM274 215q0 -129 138 -129q64 0 125 66q51 -25 65 -80q-82 -88 -194.5 -88t-180 55t-67.5 162v1147q25 8 57.5 8t56.5 -8v-1133z" />
    <glyph glyph-name="lslash.ss01" horiz-adv-x="606" 
d="M274 215q0 -129 139 -129q65 0 124 66q51 -25 65 -80q-82 -88 -194.5 -88t-180 55t-67.5 162v407l-125 -63q-35 31 -39 78l164 84v641q25 8 57.5 8t56.5 -8v-582l127 65q33 -29 39 -79l-166 -84v-453z" />
    <glyph glyph-name="y.ss01" horiz-adv-x="1132" 
d="M522 -297q150 0 240 84t90 221v115q-90 -45 -180 -62q-4 0 -11 -1q-188 -27 -261.5 -80.5t-73.5 -128.5q0 -148 196 -148zM909 965q29 0 56 -7v-950q0 -184 -122 -295.5t-321 -111.5q-150 0 -231.5 60t-81.5 167q0 170 213 248q-129 29 -197.5 120t-68.5 230v532
q63 13 112 0v-485q0 -154 66.5 -234.5t232.5 -80.5t285 78v722q28 7 57 7z" />
    <glyph glyph-name="yacute.ss01" horiz-adv-x="1132" 
d="M522 -297q150 0 240 84t90 221v115q-90 -45 -180 -62q-4 0 -11 -1q-188 -27 -261.5 -80.5t-73.5 -128.5q0 -148 196 -148zM909 965q29 0 56 -7v-950q0 -184 -122 -295.5t-321 -111.5q-150 0 -231.5 60t-81.5 167q0 170 213 248q-129 29 -197.5 120t-68.5 230v532
q63 13 112 0v-485q0 -154 66.5 -234.5t232.5 -80.5t285 78v722q28 7 57 7zM416 1077q-27 16 -35 47l293 271q49 -27 74 -95z" />
    <glyph glyph-name="ycircumflex.ss01" horiz-adv-x="1132" 
d="M522 -297q150 0 240 84t90 221v115q-90 -45 -180 -62q-4 0 -11 -1q-188 -27 -261.5 -80.5t-73.5 -128.5q0 -148 196 -148zM909 965q29 0 56 -7v-950q0 -184 -122 -295.5t-321 -111.5q-150 0 -231.5 60t-81.5 167q0 170 213 248q-129 29 -197.5 120t-68.5 230v532
q63 13 112 0v-485q0 -154 66.5 -234.5t232.5 -80.5t285 78v722q28 7 57 7zM356 1087q-41 16 -55 60l223 231q41 10 82 0l221 -231q-18 -47 -59 -64l-207 193z" />
    <glyph glyph-name="ydieresis.ss01" horiz-adv-x="1132" 
d="M522 -297q150 0 240 84t90 221v115q-90 -45 -180 -62q-4 0 -11 -1q-188 -27 -261.5 -80.5t-73.5 -128.5q0 -148 196 -148zM909 965q29 0 56 -7v-950q0 -184 -122 -295.5t-321 -111.5q-150 0 -231.5 60t-81.5 167q0 170 213 248q-129 29 -197.5 120t-68.5 230v532
q63 13 112 0v-485q0 -154 66.5 -234.5t232.5 -80.5t285 78v722q28 7 57 7zM769 1149q-36 0 -60.5 23.5t-24.5 59.5t24.5 60.5t60.5 24.5t60.5 -24.5t24.5 -60.5t-24.5 -59.5t-60.5 -23.5zM359 1149q-36 0 -60.5 23.5t-24.5 59.5t25 60.5t60.5 24.5t60 -24.5t24.5 -60.5
t-24.5 -59.5t-60.5 -23.5z" />
    <glyph glyph-name="ygrave.ss01" horiz-adv-x="1132" 
d="M522 -297q150 0 240 84t90 221v115q-90 -45 -180 -62q-4 0 -11 -1q-188 -27 -261.5 -80.5t-73.5 -128.5q0 -148 196 -148zM909 965q29 0 56 -7v-950q0 -184 -122 -295.5t-321 -111.5q-150 0 -231.5 60t-81.5 167q0 170 213 248q-129 29 -197.5 120t-68.5 230v532
q63 13 112 0v-485q0 -154 66.5 -234.5t232.5 -80.5t285 78v722q28 7 57 7zM727 1124q-4 -29 -33 -47l-332 223q25 70 74 95z" />
    <glyph glyph-name="a.ss02" horiz-adv-x="1030" 
d="M432.5 74q114.5 0 208.5 88t94 280v17l-250 -2q-283 0 -282 -189q0 -92 57.5 -143t172 -51zM735 635q0 248 -280 248q-135 0 -267 -101q-41 25 -59 80q47 45 139 86t205 41q164 0 269.5 -87t105.5 -275v-408q0 -66 21.5 -93.5t84.5 -47.5q-4 -70 -39 -96
q-84 12 -123.5 50t-48.5 111l-8 9v2q-109 -178 -325 -179q-150 0 -237 78t-87 214t104.5 211t294.5 77h250v80z" />
    <glyph glyph-name="aacute.ss02" horiz-adv-x="1030" 
d="M432.5 74q114.5 0 208.5 88t94 280v17l-250 -2q-283 0 -282 -189q0 -92 57.5 -143t172 -51zM735 635q0 248 -280 248q-135 0 -267 -101q-41 25 -59 80q47 45 139 86t205 41q164 0 269.5 -87t105.5 -275v-408q0 -66 21.5 -93.5t84.5 -47.5q-4 -70 -39 -96
q-84 12 -123.5 50t-48.5 111l-8 9v2q-109 -178 -325 -179q-150 0 -237 78t-87 214t104.5 211t294.5 77h250v80zM322 1077q-27 16 -35 47l293 271q49 -27 73 -95z" />
    <glyph glyph-name="abreve.ss02" horiz-adv-x="1030" 
d="M432.5 74q114.5 0 208.5 88t94 280v17l-250 -2q-283 0 -282 -189q0 -92 57.5 -143t172 -51zM735 635q0 248 -280 248q-135 0 -267 -101q-41 25 -59 80q47 45 139 86t205 41q164 0 269.5 -87t105.5 -275v-408q0 -66 21.5 -93.5t84.5 -47.5q-4 -70 -39 -96
q-84 12 -123.5 50t-48.5 111l-8 9v2q-109 -178 -325 -179q-150 0 -237 78t-87 214t104.5 211t294.5 77h250v80zM469 1096q-117 0 -187.5 70.5t-78.5 185.5q39 16 84 10q27 -176 184 -176q76 0 125 46t57 130q49 4 82 -10q-4 -111 -76.5 -183.5t-189.5 -72.5z" />
    <glyph glyph-name="acircumflex.ss02" horiz-adv-x="1030" 
d="M432.5 74q114.5 0 208.5 88t94 280v17l-250 -2q-283 0 -282 -189q0 -92 57.5 -143t172 -51zM735 635q0 248 -280 248q-135 0 -267 -101q-41 25 -59 80q47 45 139 86t205 41q164 0 269.5 -87t105.5 -275v-408q0 -66 21.5 -93.5t84.5 -47.5q-4 -70 -39 -96
q-84 12 -123.5 50t-48.5 111l-8 9v2q-109 -178 -325 -179q-150 0 -237 78t-87 214t104.5 211t294.5 77h250v80zM260 1087q-41 16 -55 60l223 231q41 10 82 0l221 -231q-18 -47 -59 -64l-207 193z" />
    <glyph glyph-name="adieresis.ss02" horiz-adv-x="1030" 
d="M432.5 74q114.5 0 208.5 88t94 280v17l-250 -2q-283 0 -282 -189q0 -92 57.5 -143t172 -51zM735 635q0 248 -280 248q-135 0 -267 -101q-41 25 -59 80q47 45 139 86t205 41q164 0 269.5 -87t105.5 -275v-408q0 -66 21.5 -93.5t84.5 -47.5q-4 -70 -39 -96
q-84 12 -123.5 50t-48.5 111l-8 9v2q-109 -178 -325 -179q-150 0 -237 78t-87 214t104.5 211t294.5 77h250v80zM675 1149q-36 0 -60.5 23.5t-24.5 59.5t24.5 60.5t60.5 24.5t60.5 -24.5t24.5 -60.5t-24.5 -59.5t-60.5 -23.5zM265 1149q-36 0 -60.5 23.5t-24.5 59.5
t24.5 60.5t60.5 24.5t60.5 -24.5t24.5 -60.5t-24.5 -59.5t-60.5 -23.5z" />
    <glyph glyph-name="agrave.ss02" horiz-adv-x="1030" 
d="M432.5 74q114.5 0 208.5 88t94 280v17l-250 -2q-283 0 -282 -189q0 -92 57.5 -143t172 -51zM735 635q0 248 -280 248q-135 0 -267 -101q-41 25 -59 80q47 45 139 86t205 41q164 0 269.5 -87t105.5 -275v-408q0 -66 21.5 -93.5t84.5 -47.5q-4 -70 -39 -96
q-84 12 -123.5 50t-48.5 111l-8 9v2q-109 -178 -325 -179q-150 0 -237 78t-87 214t104.5 211t294.5 77h250v80zM633 1124q-4 -29 -33 -47l-332 223q25 70 74 95z" />
    <glyph glyph-name="amacron.ss02" horiz-adv-x="1030" 
d="M432.5 74q114.5 0 208.5 88t94 280v17l-250 -2q-283 0 -282 -189q0 -92 57.5 -143t172 -51zM735 635q0 248 -280 248q-135 0 -267 -101q-41 25 -59 80q47 45 139 86t205 41q164 0 269.5 -87t105.5 -275v-408q0 -66 21.5 -93.5t84.5 -47.5q-4 -70 -39 -96
q-84 12 -123.5 50t-48.5 111l-8 9v2q-109 -178 -325 -179q-150 0 -237 78t-87 214t104.5 211t294.5 77h250v80zM203 1208q0 29 6 52h518q8 -23 8 -47.5t-8 -47.5h-518q-6 14 -6 43z" />
    <glyph glyph-name="aogonek.ss02" horiz-adv-x="1028" 
d="M735 442v17l-250 -2q-283 0 -282 -189q-1 -92 57 -143t161 -51t200 69q51 37 82 115q32 78 32 184zM707 -195q0 -81 86 -81q55 -1 102 36q47 -27 47 -71q-72 -63 -161 -63t-137 40q-48 41 -48 118q0 76 56 142t155 107q-45 31 -64 110l-6 7q-117 -174 -321 -175
q-156 0 -243 78t-87 213t104 211t295 78h250v82q0 243 -279 245q-134 0 -268 -100q-41 25 -59 80q145 127 327 127t286 -87q105 -87 106 -275v-377q0 -76 22 -107t84 -41q4 -68 -28 -104q-106 -27 -162 -80t-57 -113z" />
    <glyph glyph-name="aring.ss02" horiz-adv-x="1030" 
d="M432.5 74q114.5 0 208.5 88t94 280v17l-250 -2q-283 0 -282 -189q0 -92 57.5 -143t172 -51zM735 635q0 248 -280 248q-135 0 -267 -101q-41 25 -59 80q47 45 139 86t205 41q164 0 269.5 -87t105.5 -275v-408q0 -66 21.5 -93.5t84.5 -47.5q-4 -70 -39 -96
q-84 12 -123.5 50t-48.5 111l-8 9v2q-109 -178 -325 -179q-150 0 -237 78t-87 214t104.5 211t294.5 77h250v80zM472 1343q-46 0 -76.5 -32.5t-30.5 -76.5t30.5 -77t76.5 -33t76 32t30 77t-30 77.5t-76 32.5zM470 1044q-77 0 -132 55.5t-55 133.5t55 133t133 55t132 -55
t54 -133t-55 -133.5t-132 -55.5z" />
    <glyph glyph-name="atilde.ss02" horiz-adv-x="1030" 
d="M432.5 74q114.5 0 208.5 88t94 280v17l-250 -2q-283 0 -282 -189q0 -92 57.5 -143t172 -51zM735 635q0 248 -280 248q-135 0 -267 -101q-41 25 -59 80q47 45 139 86t205 41q164 0 269.5 -87t105.5 -275v-408q0 -66 21.5 -93.5t84.5 -47.5q-4 -70 -39 -96
q-84 12 -123.5 50t-48.5 111l-8 9v2q-109 -178 -325 -179q-150 0 -237 78t-87 214t104.5 211t294.5 77h250v80zM340 1235q-84 0 -113 -92q-57 0 -88 31q49 158 193 157q57 0 146 -43t124 -43q82 0 113 90q53 0 84 -30q-20 -74 -71.5 -115t-113 -41t-150.5 43t-124 43z" />
    <glyph glyph-name="e.ss02" horiz-adv-x="1052" 
d="M563 885q-156 0 -251 -110.5t-93 -285.5v-8l615 187q-6 74 -77 145.5t-194 71.5zM102 478q0 230 134.5 370.5t316.5 140.5t293.5 -109.5t120.5 -271.5l-738 -225q29 -141 121 -221t246 -80t287 111q45 -25 61 -80q-156 -137 -364.5 -137.5t-343 136t-134.5 366.5z" />
    <glyph glyph-name="eacute.ss02" horiz-adv-x="1052" 
d="M563 885q-156 0 -251 -110.5t-93 -285.5v-8l615 187q-6 74 -77 145.5t-194 71.5zM102 478q0 230 134.5 370.5t316.5 140.5t293.5 -109.5t120.5 -271.5l-738 -225q29 -141 121 -221t246 -80t287 111q45 -25 61 -80q-156 -137 -364.5 -137.5t-343 136t-134.5 366.5z
M395 1077q-27 16 -35 47l293 271q49 -27 74 -95z" />
    <glyph glyph-name="ecaron.ss02" horiz-adv-x="1052" 
d="M563 885q-156 0 -251 -110.5t-93 -285.5v-8l615 187q-6 74 -77 145.5t-194 71.5zM102 478q0 230 134.5 370.5t316.5 140.5t293.5 -109.5t120.5 -271.5l-738 -225q29 -141 121 -221t246 -80t287 111q45 -25 61 -80q-156 -137 -364.5 -137.5t-343 136t-134.5 366.5z
M582 1094q-41 -10 -82 0l-217 229q14 49 55 66l207 -195l207 190q43 -18 57 -61z" />
    <glyph glyph-name="ecircumflex.ss02" horiz-adv-x="1052" 
d="M563 885q-156 0 -251 -110.5t-93 -285.5v-8l615 187q-6 74 -77 145.5t-194 71.5zM102 478q0 230 134.5 370.5t316.5 140.5t293.5 -109.5t120.5 -271.5l-738 -225q29 -141 121 -221t246 -80t287 111q45 -25 61 -80q-156 -137 -364.5 -137.5t-343 136t-134.5 366.5z
M334 1087q-41 16 -55 60l223 231q41 10 82 0l221 -231q-18 -47 -60 -64l-206 193z" />
    <glyph glyph-name="edieresis.ss02" horiz-adv-x="1052" 
d="M563 885q-156 0 -251 -110.5t-93 -285.5v-8l615 187q-6 74 -77 145.5t-194 71.5zM102 478q0 230 134.5 370.5t316.5 140.5t293.5 -109.5t120.5 -271.5l-738 -225q29 -141 121 -221t246 -80t287 111q45 -25 61 -80q-156 -137 -364.5 -137.5t-343 136t-134.5 366.5z
M747 1149q-36 0 -60.5 23.5t-24.5 59.5t24.5 60.5t60.5 24.5t60 -24.5t24 -60.5t-24 -59.5t-60 -23.5zM337 1149q-36 0 -60.5 23.5t-24.5 59.5t24.5 60.5t60.5 24.5t60.5 -24.5t24.5 -60.5t-24.5 -59.5t-60.5 -23.5z" />
    <glyph glyph-name="edotaccent.ss02" horiz-adv-x="1052" 
d="M563 885q-156 0 -251 -110.5t-93 -285.5v-8l615 187q-6 74 -77 145.5t-194 71.5zM102 478q0 230 134.5 370.5t316.5 140.5t293.5 -109.5t120.5 -271.5l-738 -225q29 -141 121 -221t246 -80t287 111q45 -25 61 -80q-156 -137 -364.5 -137.5t-343 136t-134.5 366.5z
M543 1157q-37 0 -64.5 26.5t-27.5 63.5t26.5 63.5t64.5 26.5t63.5 -26.5t25.5 -64.5t-25.5 -63.5t-62.5 -25.5z" />
    <glyph glyph-name="egrave.ss02" horiz-adv-x="1052" 
d="M563 885q-156 0 -251 -110.5t-93 -285.5v-8l615 187q-6 74 -77 145.5t-194 71.5zM102 478q0 230 134.5 370.5t316.5 140.5t293.5 -109.5t120.5 -271.5l-738 -225q29 -141 121 -221t246 -80t287 111q45 -25 61 -80q-156 -137 -364.5 -137.5t-343 136t-134.5 366.5z
M707 1124q-4 -29 -33 -47l-332 223q25 70 74 95z" />
    <glyph glyph-name="emacron.ss02" horiz-adv-x="1052" 
d="M563 885q-156 0 -251 -110.5t-93 -285.5v-8l615 187q-6 74 -77 145.5t-194 71.5zM102 478q0 230 134.5 370.5t316.5 140.5t293.5 -109.5t120.5 -271.5l-738 -225q29 -141 121 -221t246 -80t287 111q45 -25 61 -80q-156 -137 -364.5 -137.5t-343 136t-134.5 366.5z
M809 1212.5q0 -24.5 -8 -47.5h-518q-17 39 0 95h518q8 -23 8 -47.5z" />
    <glyph glyph-name="eogonek.ss02" horiz-adv-x="1052" 
d="M563 885q-156 0 -251 -110.5t-93 -285.5v-8l615 187q-6 74 -77 145.5t-194 71.5zM686 -199q0 -77 94 -77q45 0 99 38q41 -27 41 -75q-74 -61 -164.5 -61.5t-135.5 38.5t-45 109q0 100 109 213q-55 -10 -104 -11q-209 0 -343.5 136.5t-134.5 366.5t134.5 370.5
t316.5 140.5t293.5 -109.5t120.5 -271.5l-738 -225q29 -141 121 -221t246 -80t287 111q45 -25 61 -80q-35 -31 -86 -62q-172 -137 -172 -250z" />
    <glyph glyph-name="g.ss02" horiz-adv-x="1024" 
d="M504 879q-125 0 -199 -67t-74 -181.5t69 -177t188.5 -62.5t192.5 61.5t77 188.5t-96 238h-158zM489 295q-94 0 -170 29q-59 -51 -59 -115q0 -82 123 -82h244q287 0 286 -236q0 -139 -113.5 -218t-318.5 -79q-254 0 -391 117q20 61 70 84q121 -98 321 -98q326 0 326 184
q0 141 -193 142h-227q-236 0 -235 170q0 92 90 172q-123 90 -123 254t109.5 261t277.5 97h174q90 0 140 22.5t81 81.5q57 -16 84 -59q-66 -127 -205 -141q94 -102 90 -250.5t-110.5 -242t-270.5 -93.5z" />
    <glyph glyph-name="gbreve.ss02" horiz-adv-x="1024" 
d="M504 879q-125 0 -199 -67t-74 -181.5t69 -177t188.5 -62.5t192.5 61.5t77 188.5t-96 238h-158zM489 295q-94 0 -170 29q-59 -51 -59 -115q0 -82 123 -82h244q287 0 286 -236q0 -139 -113.5 -218t-318.5 -79q-254 0 -391 117q20 61 70 84q121 -98 321 -98q326 0 326 184
q0 141 -193 142h-227q-236 0 -235 170q0 92 90 172q-123 90 -123 254t109.5 261t277.5 97h174q90 0 140 22.5t81 81.5q57 -16 84 -59q-66 -127 -205 -141q94 -102 90 -250.5t-110.5 -242t-270.5 -93.5zM497.5 1096q-116.5 0 -187 70.5t-79.5 185.5q39 16 84 10
q27 -176 185 -176q76 0 125 46t57 130q49 4 82 -10q-4 -111 -77 -183.5t-189.5 -72.5z" />
    <glyph glyph-name="gcommaaccent.ss02" horiz-adv-x="1024" 
d="M504 879q-125 0 -199 -67t-74 -181.5t69 -177t188.5 -62.5t192.5 61.5t77 188.5t-96 238h-158zM489 295q-94 0 -170 29q-59 -51 -59 -115q0 -82 123 -82h244q287 0 286 -236q0 -139 -113.5 -218t-318.5 -79q-254 0 -391 117q20 61 70 84q121 -98 321 -98q326 0 326 184
q0 141 -193 142h-227q-236 0 -235 170q0 92 90 172q-123 90 -123 254t109.5 261t277.5 97h174q90 0 140 22.5t81 81.5q57 -16 84 -59q-66 -127 -205 -141q94 -102 90 -250.5t-110.5 -242t-270.5 -93.5zM495 1040q-38 0 -57 9q-10 37 -10 90q0 160 131 250q27 -6 37 -39
q-63 -63 -64 -183q0 -59 21 -116q-20 -11 -58 -11z" />
    <glyph glyph-name="gdotaccent.ss02" horiz-adv-x="1024" 
d="M504 879q-125 0 -199 -67t-74 -181.5t69 -177t188.5 -62.5t192.5 61.5t77 188.5t-96 238h-158zM489 295q-94 0 -170 29q-59 -51 -59 -115q0 -82 123 -82h244q287 0 286 -236q0 -139 -113.5 -218t-318.5 -79q-254 0 -391 117q20 61 70 84q121 -98 321 -98q326 0 326 184
q0 141 -193 142h-227q-236 0 -235 170q0 92 90 172q-123 90 -123 254t109.5 261t277.5 97h174q90 0 140 22.5t81 81.5q57 -16 84 -59q-66 -127 -205 -141q94 -102 90 -250.5t-110.5 -242t-270.5 -93.5zM500 1157q-37 0 -64.5 26.5t-27.5 63.5t26.5 63.5t64.5 26.5
t63.5 -26.5t25.5 -64.5t-25.5 -63.5t-62.5 -25.5z" />
    <glyph glyph-name="w.ss02" horiz-adv-x="1503" 
d="M1370.5 963q28.5 0 52.5 -11q-39 -254 -128 -512t-197 -442q-20 -6 -51 -6t-56 6q-72 137 -140.5 340t-100.5 401q-76 -414 -246 -741q-25 -6 -55.5 -6t-51.5 6q-104 184 -191 441t-128 513q47 19 110 6q41 -233 116 -470.5t140 -362.5q4 -16 9 -23q2 2 3 6.5t7 16.5
q63 139 129.5 368.5t99.5 444.5q29 4 59 4t58 -4q31 -233 96.5 -450.5t134.5 -362.5l13 -29q8 23 10 29q70 121 143.5 359.5t110.5 473.5q25 5 53.5 5z" />
    <glyph glyph-name="wacute.ss02" horiz-adv-x="1503" 
d="M1370.5 963q28.5 0 52.5 -11q-39 -254 -128 -512t-197 -442q-20 -6 -51 -6t-56 6q-72 137 -140.5 340t-100.5 401q-76 -414 -246 -741q-25 -6 -55.5 -6t-51.5 6q-104 184 -191 441t-128 513q47 19 110 6q41 -233 116 -470.5t140 -362.5q4 -16 9 -23q2 2 3 6.5t7 16.5
q63 139 129.5 368.5t99.5 444.5q29 4 59 4t58 -4q31 -233 96.5 -450.5t134.5 -362.5l13 -29q8 23 10 29q70 121 143.5 359.5t110.5 473.5q25 5 53.5 5zM604 1077q-27 16 -35 47l293 271q49 -27 74 -95z" />
    <glyph glyph-name="wcircumflex.ss02" horiz-adv-x="1503" 
d="M1370.5 963q28.5 0 52.5 -11q-39 -254 -128 -512t-197 -442q-20 -6 -51 -6t-56 6q-72 137 -140.5 340t-100.5 401q-76 -414 -246 -741q-25 -6 -55.5 -6t-51.5 6q-104 184 -191 441t-128 513q47 19 110 6q41 -233 116 -470.5t140 -362.5q4 -16 9 -23q2 2 3 6.5t7 16.5
q63 139 129.5 368.5t99.5 444.5q29 4 59 4t58 -4q31 -233 96.5 -450.5t134.5 -362.5l13 -29q8 23 10 29q70 121 143.5 359.5t110.5 473.5q25 5 53.5 5zM543 1087q-41 16 -56 60l224 231q41 10 82 0l221 -231q-18 -47 -60 -64l-206 193z" />
    <glyph glyph-name="wdieresis.ss02" horiz-adv-x="1503" 
d="M1370.5 963q28.5 0 52.5 -11q-39 -254 -128 -512t-197 -442q-20 -6 -51 -6t-56 6q-72 137 -140.5 340t-100.5 401q-76 -414 -246 -741q-25 -6 -55.5 -6t-51.5 6q-104 184 -191 441t-128 513q47 19 110 6q41 -233 116 -470.5t140 -362.5q4 -16 9 -23q2 2 3 6.5t7 16.5
q63 139 129.5 368.5t99.5 444.5q29 4 59 4t58 -4q31 -233 96.5 -450.5t134.5 -362.5l13 -29q8 23 10 29q70 121 143.5 359.5t110.5 473.5q25 5 53.5 5zM957 1149q-36 0 -60.5 23.5t-24.5 59.5t25 60.5t60.5 24.5t60 -24.5t24.5 -60.5t-24.5 -59.5t-60.5 -23.5zM548 1149
q-36 0 -60.5 23.5t-24.5 59.5t24.5 60.5t60.5 24.5t60.5 -24.5t24.5 -60.5t-24.5 -59.5t-60.5 -23.5z" />
    <glyph glyph-name="wgrave.ss02" horiz-adv-x="1503" 
d="M1370.5 963q28.5 0 52.5 -11q-39 -254 -128 -512t-197 -442q-20 -6 -51 -6t-56 6q-72 137 -140.5 340t-100.5 401q-76 -414 -246 -741q-25 -6 -55.5 -6t-51.5 6q-104 184 -191 441t-128 513q47 19 110 6q41 -233 116 -470.5t140 -362.5q4 -16 9 -23q2 2 3 6.5t7 16.5
q63 139 129.5 368.5t99.5 444.5q29 4 59 4t58 -4q31 -233 96.5 -450.5t134.5 -362.5l13 -29q8 23 10 29q70 121 143.5 359.5t110.5 473.5q25 5 53.5 5zM915 1124q-4 -29 -32 -47l-332 223q25 70 74 95z" />
    <glyph glyph-name="y.ss02" horiz-adv-x="1132" 
d="M909 965q29 0 56 -7v-942q0 -184 -118 -297.5t-310 -113.5q-252 0 -383 145q18 57 73 78q117 -121 310 -121q152 0 233.5 84t81.5 225v86q-141 -74 -320.5 -73.5t-277.5 101.5t-98 273v555q63 13 112 0v-514q0 -150 67.5 -229.5t230.5 -79.5t286 78v745q28 7 57 7z" />
    <glyph glyph-name="yacute.ss02" horiz-adv-x="1132" 
d="M909 965q29 0 56 -7v-942q0 -184 -118 -297.5t-310 -113.5q-252 0 -383 145q18 57 73 78q117 -121 310 -121q152 0 233.5 84t81.5 225v86q-141 -74 -320.5 -73.5t-277.5 101.5t-98 273v555q63 13 112 0v-514q0 -150 67.5 -229.5t230.5 -79.5t286 78v745q28 7 57 7z
M416 1077q-27 16 -35 47l293 271q49 -27 74 -95z" />
    <glyph glyph-name="ycircumflex.ss02" horiz-adv-x="1132" 
d="M909 965q29 0 56 -7v-942q0 -184 -118 -297.5t-310 -113.5q-252 0 -383 145q18 57 73 78q117 -121 310 -121q152 0 233.5 84t81.5 225v86q-141 -74 -320.5 -73.5t-277.5 101.5t-98 273v555q63 13 112 0v-514q0 -150 67.5 -229.5t230.5 -79.5t286 78v745q28 7 57 7z
M356 1087q-41 16 -55 60l223 231q41 10 82 0l221 -231q-18 -47 -59 -64l-207 193z" />
    <glyph glyph-name="ydieresis.ss02" horiz-adv-x="1132" 
d="M909 965q29 0 56 -7v-942q0 -184 -118 -297.5t-310 -113.5q-252 0 -383 145q18 57 73 78q117 -121 310 -121q152 0 233.5 84t81.5 225v86q-141 -74 -320.5 -73.5t-277.5 101.5t-98 273v555q63 13 112 0v-514q0 -150 67.5 -229.5t230.5 -79.5t286 78v745q28 7 57 7z
M769 1149q-36 0 -60.5 23.5t-24.5 59.5t24.5 60.5t60.5 24.5t60.5 -24.5t24.5 -60.5t-24.5 -59.5t-60.5 -23.5zM359 1149q-36 0 -60.5 23.5t-24.5 59.5t25 60.5t60.5 24.5t60 -24.5t24.5 -60.5t-24.5 -59.5t-60.5 -23.5z" />
    <glyph glyph-name="ygrave.ss02" horiz-adv-x="1132" 
d="M909 965q29 0 56 -7v-942q0 -184 -118 -297.5t-310 -113.5q-252 0 -383 145q18 57 73 78q117 -121 310 -121q152 0 233.5 84t81.5 225v86q-141 -74 -320.5 -73.5t-277.5 101.5t-98 273v555q63 13 112 0v-514q0 -150 67.5 -229.5t230.5 -79.5t286 78v745q28 7 57 7z
M727 1124q-4 -29 -33 -47l-332 223q25 70 74 95z" />
    <glyph glyph-name="a.ss03" horiz-adv-x="1021" 
d="M205 283q0 -203 280 -203q162 0 281 53v320h-328q-233 0 -233 -170zM766 623q0 258 -300 258q-148 0 -278 -99q-43 29 -57 80q49 47 141 87t211 40q174 0 285 -86t111 -276v-564q-165 -88 -377 -88q-416 0 -416 304q0 129 94 200.5t258 71.5h328v72z" />
    <glyph glyph-name="aacute.ss03" horiz-adv-x="1021" 
d="M205 283q0 -203 280 -203q162 0 281 53v320h-328q-233 0 -233 -170zM766 623q0 258 -300 258q-148 0 -278 -99q-43 29 -57 80q49 47 141 87t211 40q174 0 285 -86t111 -276v-564q-165 -88 -377 -88q-416 0 -416 304q0 129 94 200.5t258 71.5h328v72zM344 1077
q-27 16 -35 47l293 271q49 -27 74 -95z" />
    <glyph glyph-name="abreve.ss03" horiz-adv-x="1021" 
d="M205 283q0 -203 280 -203q162 0 281 53v320h-328q-233 0 -233 -170zM766 623q0 258 -300 258q-148 0 -278 -99q-43 29 -57 80q49 47 141 87t211 40q174 0 285 -86t111 -276v-564q-165 -88 -377 -88q-416 0 -416 304q0 129 94 200.5t258 71.5h328v72zM491.5 1096
q-116.5 0 -187.5 70.5t-79 185.5q39 16 84 10q27 -176 185 -176q76 0 125 46t57 130q49 4 82 -10q-4 -111 -77 -183.5t-189.5 -72.5z" />
    <glyph glyph-name="acircumflex.ss03" horiz-adv-x="1021" 
d="M205 283q0 -203 280 -203q162 0 281 53v320h-328q-233 0 -233 -170zM766 623q0 258 -300 258q-148 0 -278 -99q-43 29 -57 80q49 47 141 87t211 40q174 0 285 -86t111 -276v-564q-165 -88 -377 -88q-416 0 -416 304q0 129 94 200.5t258 71.5h328v72zM283 1087
q-41 16 -56 60l224 231q41 10 81 0l222 -231q-18 -47 -60 -64l-207 193z" />
    <glyph glyph-name="adieresis.ss03" horiz-adv-x="1021" 
d="M205 283q0 -203 280 -203q162 0 281 53v320h-328q-233 0 -233 -170zM766 623q0 258 -300 258q-148 0 -278 -99q-43 29 -57 80q49 47 141 87t211 40q174 0 285 -86t111 -276v-564q-165 -88 -377 -88q-416 0 -416 304q0 129 94 200.5t258 71.5h328v72zM697 1149
q-36 0 -60.5 23.5t-24.5 59.5t25 60.5t60.5 24.5t60 -24.5t24.5 -60.5t-24.5 -59.5t-60.5 -23.5zM288 1149q-36 0 -60.5 23.5t-24.5 59.5t24.5 60.5t60.5 24.5t60.5 -24.5t24.5 -60.5t-24.5 -59.5t-60.5 -23.5z" />
    <glyph glyph-name="agrave.ss03" horiz-adv-x="1021" 
d="M205 283q0 -203 280 -203q162 0 281 53v320h-328q-233 0 -233 -170zM766 623q0 258 -300 258q-148 0 -278 -99q-43 29 -57 80q49 47 141 87t211 40q174 0 285 -86t111 -276v-564q-165 -88 -377 -88q-416 0 -416 304q0 129 94 200.5t258 71.5h328v72zM655 1124
q-4 -29 -32 -47l-332 223q25 70 74 95z" />
    <glyph glyph-name="amacron.ss03" horiz-adv-x="1021" 
d="M205 283q0 -203 280 -203q162 0 281 53v320h-328q-233 0 -233 -170zM766 623q0 258 -300 258q-148 0 -278 -99q-43 29 -57 80q49 47 141 87t211 40q174 0 285 -86t111 -276v-564q-165 -88 -377 -88q-416 0 -416 304q0 129 94 200.5t258 71.5h328v72zM227 1208q0 29 6 52
h519q8 -23 8 -47.5t-8 -47.5h-519q-6 14 -6 43z" />
    <glyph glyph-name="aogonek.ss03" horiz-adv-x="1021" 
d="M205 283q0 -203 280 -203q162 0 281 53v320h-328q-233 0 -233 -170zM766 623q0 258 -300 258q-148 0 -278 -99q-43 29 -57 80q49 47 141.5 87t210.5 40q174 0 285 -86t111 -276v-564l-7 -4q-78 -59 -131 -129.5t-53 -119t24.5 -67.5t70 -19.5t98.5 38.5q41 -27 41 -75
q-74 -61 -164.5 -61.5t-135 38.5t-44.5 109q0 115 124 227q-109 -25 -217 -25q-195 0 -297 78t-102 216.5t94 210t258 71.5h328v72z" />
    <glyph glyph-name="aring.ss03" horiz-adv-x="1021" 
d="M205 283q0 -203 280 -203q162 0 281 53v320h-328q-233 0 -233 -170zM766 623q0 258 -300 258q-148 0 -278 -99q-43 29 -57 80q49 47 141 87t211 40q174 0 285 -86t111 -276v-564q-165 -88 -377 -88q-416 0 -416 304q0 129 94 200.5t258 71.5h328v72zM495 1343
q-46 0 -77 -32.5t-31 -76.5t31 -77t77 -33t75.5 32t29.5 77t-29.5 77.5t-75.5 32.5zM493 1044q-77 0 -132.5 55.5t-55.5 133.5t55.5 133t133 55t132 -55t54.5 -133t-55 -133.5t-132 -55.5z" />
    <glyph glyph-name="atilde.ss03" horiz-adv-x="1021" 
d="M205 283q0 -203 280 -203q162 0 281 53v320h-328q-233 0 -233 -170zM766 623q0 258 -300 258q-148 0 -278 -99q-43 29 -57 80q49 47 141 87t211 40q174 0 285 -86t111 -276v-564q-165 -88 -377 -88q-416 0 -416 304q0 129 94 200.5t258 71.5h328v72zM362 1235
q-84 0 -112 -92q-57 0 -88 31q49 158 192 157q57 0 146.5 -43t124.5 -43q82 0 112 90q53 0 84 -30q-20 -74 -71.5 -115t-112.5 -41t-150.5 43t-124.5 43z" />
    <glyph glyph-name="e.ss03" horiz-adv-x="1040" 
d="M586 887q-152 0 -252.5 -98.5t-112.5 -247.5h410q90 0 140 42t50 120.5t-64.5 131t-170.5 52.5zM102 469q0 233 140.5 376.5t343.5 143.5q160 0 256 -82t96 -206t-81 -190.5t-234 -66.5h-404q8 -164 102.5 -264t243.5 -100q80 0 144.5 19.5t93 37.5t67.5 49
q47 -23 62 -77q-158 -133 -366 -133.5t-336 130t-128 363.5z" />
    <glyph glyph-name="eacute.ss03" horiz-adv-x="1040" 
d="M586 887q-152 0 -252.5 -98.5t-112.5 -247.5h410q90 0 140 42t50 120.5t-64.5 131t-170.5 52.5zM102 469q0 233 140.5 376.5t343.5 143.5q160 0 256 -82t96 -206t-81 -190.5t-234 -66.5h-404q8 -164 102.5 -264t243.5 -100q80 0 144.5 19.5t93 37.5t67.5 49
q47 -23 62 -77q-158 -133 -366 -133.5t-336 130t-128 363.5zM393 1077q-27 16 -35 47l293 271q49 -27 74 -95z" />
    <glyph glyph-name="ecaron.ss03" horiz-adv-x="1040" 
d="M586 887q-152 0 -252.5 -98.5t-112.5 -247.5h410q90 0 140 42t50 120.5t-64.5 131t-170.5 52.5zM102 469q0 233 140.5 376.5t343.5 143.5q160 0 256 -82t96 -206t-81 -190.5t-234 -66.5h-404q8 -164 102.5 -264t243.5 -100q80 0 144.5 19.5t93 37.5t67.5 49
q47 -23 62 -77q-158 -133 -366 -133.5t-336 130t-128 363.5zM580 1094q-41 -10 -82 0l-217 229q14 49 55 66l207 -195l207 190q43 -18 57 -61z" />
    <glyph glyph-name="ecircumflex.ss03" horiz-adv-x="1040" 
d="M586 887q-152 0 -252.5 -98.5t-112.5 -247.5h410q90 0 140 42t50 120.5t-64.5 131t-170.5 52.5zM102 469q0 233 140.5 376.5t343.5 143.5q160 0 256 -82t96 -206t-81 -190.5t-234 -66.5h-404q8 -164 102.5 -264t243.5 -100q80 0 144.5 19.5t93 37.5t67.5 49
q47 -23 62 -77q-158 -133 -366 -133.5t-336 130t-128 363.5zM332 1087q-41 16 -56 60l224 231q41 10 82 0l221 -231q-18 -47 -60 -64l-206 193z" />
    <glyph glyph-name="edieresis.ss03" horiz-adv-x="1040" 
d="M586 887q-152 0 -252.5 -98.5t-112.5 -247.5h410q90 0 140 42t50 120.5t-64.5 131t-170.5 52.5zM102 469q0 233 140.5 376.5t343.5 143.5q160 0 256 -82t96 -206t-81 -190.5t-234 -66.5h-404q8 -164 102.5 -264t243.5 -100q80 0 144.5 19.5t93 37.5t67.5 49
q47 -23 62 -77q-158 -133 -366 -133.5t-336 130t-128 363.5zM747 1149q-36 0 -60.5 23.5t-24.5 59.5t24.5 60.5t60.5 24.5t60 -24.5t24 -60.5t-24 -59.5t-60 -23.5zM337 1149q-36 0 -60.5 23.5t-24.5 59.5t24.5 60.5t60.5 24.5t60.5 -24.5t24.5 -60.5t-24.5 -59.5
t-60.5 -23.5z" />
    <glyph glyph-name="edotaccent.ss03" horiz-adv-x="1040" 
d="M586 887q-152 0 -252.5 -98.5t-112.5 -247.5h410q90 0 140 42t50 120.5t-64.5 131t-170.5 52.5zM102 469q0 233 140.5 376.5t343.5 143.5q160 0 256 -82t96 -206t-81 -190.5t-234 -66.5h-404q8 -164 102.5 -264t243.5 -100q80 0 144.5 19.5t93 37.5t67.5 49
q47 -23 62 -77q-158 -133 -366 -133.5t-336 130t-128 363.5zM543 1157q-37 0 -64.5 26.5t-27.5 63.5t26.5 63.5t64.5 26.5t63.5 -26.5t25.5 -64.5t-25.5 -63.5t-62.5 -25.5z" />
    <glyph glyph-name="egrave.ss03" horiz-adv-x="1040" 
d="M586 887q-152 0 -252.5 -98.5t-112.5 -247.5h410q90 0 140 42t50 120.5t-64.5 131t-170.5 52.5zM102 469q0 233 140.5 376.5t343.5 143.5q160 0 256 -82t96 -206t-81 -190.5t-234 -66.5h-404q8 -164 102.5 -264t243.5 -100q80 0 144.5 19.5t93 37.5t67.5 49
q47 -23 62 -77q-158 -133 -366 -133.5t-336 130t-128 363.5zM705 1124q-4 -29 -33 -47l-332 223q25 70 74 95z" />
    <glyph glyph-name="emacron.ss03" horiz-adv-x="1040" 
d="M586 887q-152 0 -252.5 -98.5t-112.5 -247.5h410q90 0 140 42t50 120.5t-64.5 131t-170.5 52.5zM102 469q0 233 140.5 376.5t343.5 143.5q160 0 256 -82t96 -206t-81 -190.5t-234 -66.5h-404q8 -164 102.5 -264t243.5 -100q80 0 144.5 19.5t93 37.5t67.5 49
q47 -23 62 -77q-158 -133 -366 -133.5t-336 130t-128 363.5zM809 1212.5q0 -24.5 -8 -47.5h-518q-17 39 0 95h518q8 -23 8 -47.5z" />
    <glyph glyph-name="eogonek.ss03" horiz-adv-x="1040" 
d="M586 887q-152 0 -252.5 -98.5t-112.5 -247.5h410q90 0 140 42t50 120.5t-64.5 131t-170.5 52.5zM684 -189.5q0 -48.5 24.5 -67.5t69.5 -19t99 38q41 -27 41 -75q-74 -61 -164.5 -61.5t-135.5 38.5t-45 109q0 106 111 213q-61 -10 -119 -11q-207 0 -335 130.5t-128 363.5
t140.5 376.5t343.5 143.5q160 0 256 -82t96 -206t-81 -190.5t-234 -66.5h-404q8 -164 102.5 -264t243.5 -100q80 0 144.5 19.5t93 38t67.5 48.5q47 -23 62 -77q-52 -42 -60 -46q-80 -59 -134 -131.5t-54 -121z" />
    <glyph glyph-name="g.ss03" horiz-adv-x="1071" 
d="M488.5 295q132.5 0 211 82t79.5 218t-107 277h-158q-135 0 -220 -74.5t-88 -208.5t73.5 -214t209 -80zM895 601q0 -160 -92 -273q143 -123 143 -307.5t-130 -301t-324 -116.5q-256 0 -396 184q31 53 84 74q115 -152 312 -152q154 0 244.5 87t92.5 226t-114 230
q-100 -61 -226 -62q-186 0 -292.5 112t-106.5 284t124 283.5t304 111.5h168q104 0 155.5 20.5t84.5 85.5q59 -14 92 -63q-68 -133 -225 -150q102 -113 102 -273z" />
    <glyph glyph-name="gbreve.ss03" horiz-adv-x="1071" 
d="M488.5 295q132.5 0 211 82t79.5 218t-107 277h-158q-135 0 -220 -74.5t-88 -208.5t73.5 -214t209 -80zM895 601q0 -160 -92 -273q143 -123 143 -307.5t-130 -301t-324 -116.5q-256 0 -396 184q31 53 84 74q115 -152 312 -152q154 0 244.5 87t92.5 226t-114 230
q-100 -61 -226 -62q-186 0 -292.5 112t-106.5 284t124 283.5t304 111.5h168q104 0 155.5 20.5t84.5 85.5q59 -14 92 -63q-68 -133 -225 -150q102 -113 102 -273zM504 1096q-117 0 -187.5 70.5t-78.5 185.5q39 16 84 10q27 -176 184 -176q76 0 125 46t57 130q49 4 82 -10
q-4 -111 -76.5 -183.5t-189.5 -72.5z" />
    <glyph glyph-name="gcommaaccent.ss03" horiz-adv-x="1071" 
d="M488.5 295q132.5 0 211 82t79.5 218t-107 277h-158q-135 0 -220 -74.5t-88 -208.5t73.5 -214t209 -80zM895 601q0 -160 -92 -273q143 -123 143 -307.5t-130 -301t-324 -116.5q-256 0 -396 184q31 53 84 74q115 -152 312 -152q154 0 244.5 87t92.5 226t-114 230
q-100 -61 -226 -62q-186 0 -292.5 112t-106.5 284t124 283.5t304 111.5h168q104 0 155.5 20.5t84.5 85.5q59 -14 92 -63q-68 -133 -225 -150q102 -113 102 -273zM499 1040q-38 0 -57 9q-10 37 -10 90q0 160 131 250q27 -6 37 -39q-63 -63 -63 -183q0 -59 20 -116
q-20 -11 -58 -11z" />
    <glyph glyph-name="gdotaccent.ss03" horiz-adv-x="1071" 
d="M488.5 295q132.5 0 211 82t79.5 218t-107 277h-158q-135 0 -220 -74.5t-88 -208.5t73.5 -214t209 -80zM895 601q0 -160 -92 -273q143 -123 143 -307.5t-130 -301t-324 -116.5q-256 0 -396 184q31 53 84 74q115 -152 312 -152q154 0 244.5 87t92.5 226t-114 230
q-100 -61 -226 -62q-186 0 -292.5 112t-106.5 284t124 283.5t304 111.5h168q104 0 155.5 20.5t84.5 85.5q59 -14 92 -63q-68 -133 -225 -150q102 -113 102 -273zM506 1157q-37 0 -64.5 26.5t-27.5 63.5t26.5 63.5t64.5 26.5t63.5 -26.5t25.5 -64.5t-25.5 -63.5t-62.5 -25.5z
" />
    <glyph glyph-name="g.ss04" horiz-adv-x="1042" 
d="M244 619q0 -120 66.5 -183t189.5 -63t190.5 64t70.5 188t-87 239l-154 2q-131 2 -203.5 -62.5t-72.5 -184.5zM879 613q0 -149 -104.5 -248t-272.5 -99h-119q-59 0 -93 -35.5t-34 -86t34 -82t95 -31.5h504q8 -25 8 -57t-8 -56h-496q-129 0 -194.5 58.5t-65.5 158.5
q0 66 36 118t97 81q-139 98 -139 272t110.5 274.5t286.5 96.5l162 -2q94 -2 147.5 20.5t86.5 83.5q59 -16 88 -61q-63 -129 -209 -152q80 -104 80 -253z" />
    <glyph glyph-name="gbreve.ss04" horiz-adv-x="1042" 
d="M244 619q0 -120 66.5 -183t189.5 -63t190.5 64t70.5 188t-87 239l-154 2q-131 2 -203.5 -62.5t-72.5 -184.5zM879 613q0 -149 -104.5 -248t-272.5 -99h-119q-59 0 -93 -35.5t-34 -86t34 -82t95 -31.5h504q8 -25 8 -57t-8 -56h-496q-129 0 -194.5 58.5t-65.5 158.5
q0 66 36 118t97 81q-139 98 -139 272t110.5 274.5t286.5 96.5l162 -2q94 -2 147.5 20.5t86.5 83.5q59 -16 88 -61q-63 -129 -209 -152q80 -104 80 -253zM512 1096q-117 0 -187.5 70.5t-78.5 185.5q39 16 84 10q27 -176 184 -176q76 0 125 46t57 130q49 4 82 -10
q-4 -111 -76.5 -183.5t-189.5 -72.5z" />
    <glyph glyph-name="gcommaaccent.ss04" horiz-adv-x="1042" 
d="M244 619q0 -120 66.5 -183t189.5 -63t190.5 64t70.5 188t-87 239l-154 2q-131 2 -203.5 -62.5t-72.5 -184.5zM879 613q0 -149 -104.5 -248t-272.5 -99h-119q-59 0 -93 -35.5t-34 -86t34 -82t95 -31.5h504q8 -25 8 -57t-8 -56h-496q-129 0 -194.5 58.5t-65.5 158.5
q0 66 36 118t97 81q-139 98 -139 272t110.5 274.5t286.5 96.5l162 -2q94 -2 147.5 20.5t86.5 83.5q59 -16 88 -61q-63 -129 -209 -152q80 -104 80 -253zM507 1040q-38 0 -56 9q-10 37 -11 90q0 160 131 250q27 -6 37 -39q-63 -63 -63 -183q0 -59 20 -116q-20 -11 -58 -11z
" />
    <glyph glyph-name="gdotaccent.ss04" horiz-adv-x="1042" 
d="M244 619q0 -120 66.5 -183t189.5 -63t190.5 64t70.5 188t-87 239l-154 2q-131 2 -203.5 -62.5t-72.5 -184.5zM879 613q0 -149 -104.5 -248t-272.5 -99h-119q-59 0 -93 -35.5t-34 -86t34 -82t95 -31.5h504q8 -25 8 -57t-8 -56h-496q-129 0 -194.5 58.5t-65.5 158.5
q0 66 36 118t97 81q-139 98 -139 272t110.5 274.5t286.5 96.5l162 -2q94 -2 147.5 20.5t86.5 83.5q59 -16 88 -61q-63 -129 -209 -152q80 -104 80 -253zM514 1157q-37 0 -64.5 26.5t-27.5 63.5t26.5 63.5t64.5 26.5t63.5 -26.5t25.5 -64.5t-25.5 -63.5t-62.5 -25.5z" />
    <glyph glyph-name="zero.osf" horiz-adv-x="1236" 
d="M618 80q190 0 286 126q95 126 95 341t-95 341q-96 126 -286 126t-285 -126t-95 -341t95 -341t285 -126zM618 -27q-238 0 -370 158t-131 416q0 258 131 416q130 157 370 157t371 -158t131 -415q0 -258 -132 -416t-370 -158z" />
    <glyph glyph-name="one.osf" horiz-adv-x="641" 
d="M410 1108q18 0 39 -4v-1104q-27 -6 -56 -6t-57 6v963l-238 -123q-43 35 -49 96l322 168q21 4 39 4z" />
    <glyph glyph-name="two.osf" horiz-adv-x="1001" 
d="M113 43q0 70 53 111q342 260 452 381t111 236q0 115 -72 180t-194 65q-176 0 -301 -133q-47 14 -70 67q58 72 158 122t213 50q167 0 275 -89t108 -251q0 -126 -92 -259q-37 -52 -120 -127q-82 -75 -144 -123t-185 -142l-37 -25l39 3h606q19 -59 0 -109h-794q-6 18 -6 43z
" />
    <glyph glyph-name="three.osf" horiz-adv-x="985" 
d="M877 207q0 -158 -119 -262t-305 -105q-227 0 -369 127q12 53 61 80q137 -111 293 -111t241 74q85 72 85 198t-93 196t-284 71q-8 25 -8 49t8 43q158 0 233 68q74 68 74 167t-64 157q-65 58 -169 59q-176 0 -287 -119q-55 18 -68 64q127 158 355 157q147 0 247 -80
t99 -221q0 -99 -51 -171t-131 -113q252 -66 252 -328z" />
    <glyph glyph-name="four.osf" horiz-adv-x="1069" 
d="M711 225v658l2 35l-514 -693h512zM989 176q0 -29 -6 -55h-162v-283q-27 -6 -55 -6t-55 6v283h-635q-34 70 12 133l629 840q14 4 52 4t52 -4v-869h162q6 -20 6 -49z" />
    <glyph glyph-name="five.osf" horiz-adv-x="1001" 
d="M895 250q-1 -196 -121 -304t-327 -108t-336 119q16 57 65 86q37 -39 113 -72t168 -32q147 -1 234 77t87 226t-103 216t-347 66h-172v566h678q6 -31 6 -62t-4 -47h-568v-348h60q301 0 434 -93q133 -94 133 -290z" />
    <glyph glyph-name="six.osf" horiz-adv-x="1044" 
d="M538 72q138 0 222 80t84 226t-86 215t-205 69q-190 0 -330 -150q-2 -18 -2 -57q0 -178 89 -281q90 -102 228 -102zM552 764q182 0 292 -100q108 -100 108 -284t-118 -298q-118 -113 -304 -113q-188 0 -305 131t-116 361q0 340 215 567t526 309q41 -23 41 -94
q-220 -59 -397 -192q-94 -72 -162 -181t-94 -243q132 137 314 137z" />
    <glyph glyph-name="seven.osf" horiz-adv-x="964" 
d="M903 1026q0 -45 -39 -115l-581 -1093q-61 10 -97 53l594 1104h-698q-6 18 -6 56t6 56h817q4 -16 4 -61z" />
    <glyph glyph-name="eight.osf" horiz-adv-x="1026" 
d="M514 70q123 0 205 58t82 178t-94 196q-69 55 -211 125h-2l-2 2q-266 -125 -267 -328q0 -115 83 -173t206 -58zM770 1030q0 98 -71 160t-185 61t-188 -63t-74 -160q0 -53 20 -97t86 -96t177 -102q121 63 178 131t57 166zM511 -31q-169 0 -283 78t-113 240q0 242 284 389
q-121 66 -189 146t-69 211q0 131 108 227q107 96 269 96t261 -87t100 -233q0 -215 -250 -350q137 -74 210 -155t72 -209q0 -172 -115 -263q-116 -90 -285 -90z" />
    <glyph glyph-name="nine.osf" horiz-adv-x="1030" 
d="M487 440q162 0 314 109v22q0 209 -86 329q-87 120 -223 120t-217 -81t-81 -219t86 -209t207 -71zM478 338q-168 0 -280 100t-112 280t112 290q112 112 300 112t302 -147t113 -402q0 -392 -212 -560q-193 -155 -490 -171q-14 30 -14 54t6 43q257 16 409 129t183 376
q-150 -104 -317 -104z" />
    <glyph glyph-name="zero.tf" horiz-adv-x="1107" 
d="M554 76q329 0 329 584t-329 583q-329 1 -329 -583t329 -584zM100 659q0 319 117 503t339 184t338 -182t116 -502t-118 -504t-338 -185t-337 183t-117 503z" />
    <glyph glyph-name="one.tf" horiz-adv-x="1107" 
d="M969 53q0 -29 -8 -53h-719q-8 33 -8 50t8 50h321v1063l-327 -159q-43 39 -50 100l414 211q16 6 40 6t38 -6v-1215h283q8 -18 8 -47z" />
    <glyph glyph-name="two.tf" horiz-adv-x="1107" 
d="M989 55q0 -31 -8 -55h-825q-8 25 -9 43q0 53 56 111q373 401 480 543q108 143 108 269t-72 200t-207 73q-180 0 -322 -145q-47 12 -69 67q63 76 167 130t228 55q176 0 286 -96t109 -277q0 -109 -70 -246q-59 -111 -344 -415q-105 -112 -155 -165l-35 -36l43 2h631
q8 -27 8 -58z" />
    <glyph glyph-name="three.tf" horiz-adv-x="1107" 
d="M504 -25q-127 0 -221 37t-144 86q16 57 66 88q133 -108 293 -108t256 83t96 243t-106 240q-106 81 -336 83h-37q-4 16 -4 36t34 60l353 377h-617q-6 31 -6 59t6 56h778q2 -6 3 -17q0 -70 -48 -122l-340 -357q188 -8 312 -107t125 -307q0 -208 -134 -319t-329 -111z" />
    <glyph glyph-name="four.tf" horiz-adv-x="1107" 
d="M997 426q0 -27 -6 -51h-157v-375q-27 -6 -56 -6t-57 6v375h-586q-45 92 17 217l397 768q53 -10 102 -43l-383 -746q-29 -59 -26 -94h479v311q62 7 113 0v-311h157q6 -24 6 -51z" />
    <glyph glyph-name="five.tf" horiz-adv-x="1107" 
d="M506 -29q-219 0 -354 119q16 57 65 86q117 -104 287 -104t263 88t93 242t-89 240q-89 85 -263 85q-72 0 -164 -30q-92 -29 -116 -29t-46 8v639h727q6 -29 6 -52t-4 -61h-616v-414q104 49 227 50q219 0 337 -112t118 -316t-126 -321q-126 -118 -345 -118z" />
    <glyph glyph-name="six.tf" horiz-adv-x="1107" 
d="M573 70q142 0 228 84t86 238t-91 228q-91 73 -218 72q-182 0 -326 -129q-4 -61 -4 -96q0 -182 91 -290q92 -107 234 -107zM593 799q175 -1 291 -105t116 -299t-122 -311t-314 -115q-192 0 -312 133t-121 341q0 556 469 809q127 69 266 98q31 -29 35 -99
q-217 -45 -394 -186t-237 -387q148 121 323 121z" />
    <glyph glyph-name="seven.tf" horiz-adv-x="1107" 
d="M999 1272q0 -66 -41 -137l-612 -1164q-63 10 -100 56l628 1175h-749q-8 37 -8 56t8 57h866q8 -20 8 -43z" />
    <glyph glyph-name="eight.tf" horiz-adv-x="1107" 
d="M554 76q134 0 219 61t85 183t-84 192q-84 71 -305 158q-88 -58 -155 -150q-66 -92 -66 -208t86 -176t220 -60zM557 1249q-119 1 -193 -63t-73 -163q0 -99 66 -154q67 -54 221 -119q10 -4 30 -14t31 -13q180 129 180 295q0 106 -71 169q-72 62 -191 62zM551 -27
q-176 0 -296 84t-120 254q0 223 246 402q-100 53 -151 122q-50 69 -50 177q0 150 106 244t274 96q167 0 268 -90t102 -238q0 -194 -201 -344q113 -61 176 -140t64 -200q0 -186 -121 -276t-297 -91z" />
    <glyph glyph-name="nine.tf" horiz-adv-x="1107" 
d="M219 926q1 -152 95 -233t242 -81t294 99v28q0 254 -86 384t-228 130t-229 -88q-88 -87 -88 -239zM542 1354q192 0 307 -158q114 -158 114 -457q0 -444 -217 -615q-192 -155 -496 -155q-12 25 -12 49t4 54q316 0 447 139q132 139 155 391q-146 -90 -322 -90t-294 108
t-118 301t120 313t312 120z" />
    <glyph glyph-name="currency.osf" horiz-adv-x="1228" 
d="M612 154q152 0 258 108t106 260q0 154 -106 260t-258 106t-257 -106t-105 -260t105 -261t257 -107zM1087 521q0 -165 -102 -294l113 -116q-31 -51 -82 -82l-115 114q-129 -96 -287 -96t-286 96l-113 -114q-47 27 -84 82l113 116q-102 129 -102 294t100 292l-115 119
q35 53 84 84l115 -119q126 98 288 98t287 -98l115 117q47 -29 84 -84l-113 -117q100 -127 100 -292z" />
    <glyph glyph-name="dollar.osf" horiz-adv-x="952" 
d="M530 104q104 10 162 64t60 133q0 80 -46 128t-176 65v-390zM219 803q0 -76 51 -119t168 -59v356q-104 -8 -162 -55t-57 -123zM866 322q0 -142 -91 -226t-245 -98v-217q-12 -4 -42 -4t-50 4v215q-115 6 -210 48t-146 91q16 53 70 84q115 -106 286 -117v400
q-334 37 -334 284q0 129 90 208t244 91v213q12 6 47 6t45 -6v-213q180 -10 306 -104q-8 -61 -58 -88q-115 78 -248 88v-367q336 -42 336 -292z" />
    <glyph glyph-name="sterling.osf" horiz-adv-x="1044" 
d="M946 52q0 -26 -8 -52h-782q0 80 45 211t45 238v34h-146q-4 33 -4 47t4 52h133q-20 106 -20 163q0 163 109 267q110 104 292 104t316 -112q-10 -63 -62 -91q-117 103 -256 103t-214 -72t-74 -190q0 -45 22 -172h381q6 -29 6 -52t-6 -47h-373v-34q0 -96 -34 -206t-39 -143
h657q8 -22 8 -48z" />
    <glyph glyph-name="yen.osf" horiz-adv-x="1079" 
d="M596 430v-143h266q6 -25 6 -47t-6 -45h-266v-195q-26 -6 -56 -6t-61 6v195h-268q-6 25 -6 46t6 46h268v143h-268q-6 20 -6 45t6 45h217l-362 557q36 10 72 10t65 -4l327 -518l17 -33l16 33l332 518q18 4 54 4t67 -10l-365 -557h211q6 -22 6 -46t-6 -44h-266z" />
    <glyph glyph-name="ampersand.ss02" horiz-adv-x="1271" 
d="M522 82q207 0 295 154l-385 423q-106 -31 -163 -109q-56 -80 -56 -194t82 -194t227 -80zM965 664v-261q-4 -82 -27 -145l227 -254q-27 -10 -65 -10t-68 6l-145 160q-61 -86 -157 -134t-210 -49q-188 1 -303 107t-115 281q0 133 72 230t186 144q-68 75 -100 137t-31 136
q-1 129 93 217t254 88t272 -103q-14 -49 -64 -79q-100 90 -210 90q-110 1 -170 -57q-62 -58 -62 -137t36 -136t132 -162l344 -383q2 16 2 53h8v353h326q16 -47 0 -92h-225z" />
    <glyph glyph-name="caroncomb.alt" 
d="M-164 1289.5q0 99.5 -18 148.5q18 14 54 14t54 -12q12 -37 13 -86q-1 -165 -97 -269q-31 6 -45 29q39 76 39 175.5z" />
    <glyph glyph-name="gravecomb.case" 
d="M-70 1391l-368 168q2 70 59 104l334 -221q-2 -33 -25 -51z" />
    <glyph glyph-name="acutecomb.case" 
d="M-420 1391q-25 20 -26 51l333 221q57 -33 60 -104z" />
    <glyph glyph-name="tildecomb.case" 
d="M-510 1616q53 0 142 -43t122 -43q94 0 121 90q61 0 86 -31q-49 -158 -201 -157q-55 0 -143 43t-121 43q-96 -1 -123 -91q-55 0 -86 31q49 158 203 158z" />
    <glyph glyph-name="acute.case" horiz-adv-x="485" 
d="M66 1391q-25 20 -27 51l334 221q57 -33 59 -104z" />
    <glyph glyph-name="breve.case" horiz-adv-x="632" 
d="M315.5 1413q-108.5 0 -182.5 63.5t-84 161.5q41 16 86 11q14 -68 64.5 -106t118.5 -38t121 39t61 105q43 6 82 -11q-6 -94 -82 -159.5t-184.5 -65.5z" />
    <glyph glyph-name="caron.case" horiz-adv-x="620" 
d="M266 1399l-223 194q12 39 43 62l227 -166l219 166q33 -23 41 -62l-223 -194q-43 -12 -84 0z" />
    <glyph glyph-name="circumflex.case" horiz-adv-x="616" 
d="M84 1389q-33 18 -41 59l223 197q43 12 84 0l223 -195q-12 -41 -41 -61l-229 163z" />
    <glyph glyph-name="dieresis.case" horiz-adv-x="677" 
d="M540.5 1452q-34.5 0 -58 23.5t-23.5 59.5t23.5 59.5t57.5 23.5t58.5 -24.5t24.5 -59.5t-24 -58.5t-58.5 -23.5zM138 1452q-36 0 -60.5 23.5t-24.5 59.5t24.5 59.5t59.5 23.5t58.5 -23.5t23.5 -59.5t-22.5 -59.5t-58.5 -23.5z" />
    <glyph glyph-name="dotaccent.case" horiz-adv-x="282" 
d="M142 1452q-36 0 -61.5 24.5t-25.5 61.5t25.5 62.5t61.5 25.5t61.5 -25.5t25.5 -62.5t-25.5 -61.5t-61.5 -24.5z" />
    <glyph glyph-name="grave.case" horiz-adv-x="491" 
d="M416 1391l-369 168q2 70 59 104l334 -221q-1 -33 -24 -51z" />
    <glyph glyph-name="hungarumlaut.case" horiz-adv-x="714" 
d="M408 1370q-33 16 -41 41l215 277q63 -16 84 -80zM90 1370q-31 16 -39 41l213 277q61 -14 84 -80z" />
    <glyph glyph-name="macron.case" horiz-adv-x="655" 
d="M55 1510.5q0 15.5 6 58.5h531q6 -14 6 -46t-6 -48h-531q-6 20 -6 35.5z" />
    <glyph glyph-name="ring.case" horiz-adv-x="473" 
d="M238 1421q45 0 73.5 32t28.5 77t-28.5 76.5t-73.5 31.5t-75 -31.5t-30 -76.5t30 -77t75 -32zM237.5 1341q-77.5 0 -133 55.5t-55.5 133.5t55.5 132t133 54t132 -55t54.5 -132t-54.5 -132.5t-132 -55.5z" />
    <glyph glyph-name="tilde.case" horiz-adv-x="749" 
d="M238 1616q53 0 142 -43t122 -43q94 0 121 90q61 0 86 -31q-49 -158 -201 -157q-55 0 -143.5 43t-120.5 43q-96 -1 -123 -91q-55 0 -86 31q49 158 203 158z" />
    <glyph glyph-name="IJacute" horiz-adv-x="1017" 
d="M496 -180q-86 0 -152 34t-96 70q23 61 74 80q90 -78 174 -78q213 0 213 242v1147q23 8 59 8t59 -8v-1145q0 -176 -95 -263t-236 -87zM241 182q-30 0 -61 6v1129q27 8 60 8t57 -8v-1129q-26 -6 -56 -6zM594 1391q-25 20 -27 51l334 221q57 -33 60 -104zM90 1391
q-25 20 -27 51l334 221q57 -33 60 -104z" />
    <glyph glyph-name="ijacute" horiz-adv-x="933" 
d="M762 -68q0 -164 -90 -248t-219 -85q-129 0 -213 84q20 55 61 79q78 -61 159 -61t135 56t54 175v1026q66 14 113 0v-1026zM228 -6q-28 0 -56 6v963q24 8 56 8t57 -8v-963q-29 -6 -57 -6zM555 1073q-27 16 -35 49l291 271q51 -29 76 -95zM102 1073q-27 16 -34 49l292 271
q49 -29 74 -95z" />
    <glyph glyph-name="slashlong" horiz-adv-x="1163" 
d="M162 -53q-51 16 -64 63l906 1006q47 -18 63 -60z" />
    <glyph glyph-name="slashshort" horiz-adv-x="499" 
d="M70 555q-35 31 -39 78l405 209q33 -29 39 -80z" />
    <glyph glyph-name="stroke" horiz-adv-x="593" 
d="M53 961q0 23 6 47h480q6 -23 6 -45t-6 -48h-480q-6 23 -6 46z" />
    <glyph glyph-name="caronalt" horiz-adv-x="256" 
d="M92 1290q0 100 -18 148q18 14 54 14t54 -12q12 -37 13 -86q-1 -165 -97 -269q-31 6 -45 29q39 76 39 176z" />
    <glyph glyph-name="slashlong.case" horiz-adv-x="1333" 
d="M106 -31q-59 20 -73 74l1192 1305q53 -16 75 -68z" />
    <glyph glyph-name="slashshort.case" horiz-adv-x="573" 
d="M96 547q-35 25 -43 84l463 235q39 -35 43 -86z" />
    <glyph glyph-name="i.loclTRK" horiz-adv-x="456" 
d="M230 -6q-30 0 -58 6v963q25 8 57.5 8t55.5 -8v-963q-25 -6 -55 -6zM229.5 1159q-36.5 0 -64.5 26.5t-28 63.5t26.5 63.5t64.5 26.5t63.5 -26.5t25.5 -64.5t-25.5 -63.5t-62 -25.5z" />
    <glyph glyph-name="uni1EF9.ss01" horiz-adv-x="1132" 
d="M522 -297q150 0 240 84t90 221v115q-90 -45 -180 -62q-4 0 -11 -1q-188 -27 -261.5 -80.5t-73.5 -128.5q0 -148 196 -148zM909 965q29 0 56 -7v-950q0 -184 -122 -295.5t-321 -111.5q-150 0 -231.5 60t-81.5 167q0 170 213 248q-129 29 -197.5 120t-68.5 230v532
q63 13 112 0v-485q0 -154 66.5 -234.5t232.5 -80.5t285 78v722q28 7 57 7zM436 1235q-84 0 -112 -92q-57 0 -88 31q49 158 192 157q57 0 146.5 -43t123.5 -43q82 0 113 90q53 0 84 -30q-20 -74 -71.5 -115t-112.5 -41t-150.5 43t-124.5 43z" />
    <glyph glyph-name="uni1EF9.ss02" horiz-adv-x="1132" 
d="M909 965q29 0 56 -7v-942q0 -184 -118 -297.5t-310 -113.5q-252 0 -383 145q18 57 73 78q117 -121 310 -121q152 0 233.5 84t81.5 225v86q-141 -74 -320.5 -73.5t-277.5 101.5t-98 273v555q63 13 112 0v-514q0 -150 67.5 -229.5t230.5 -79.5t286 78v745q28 7 57 7z
M436 1235q-84 0 -112 -92q-57 0 -88 31q49 158 192 157q57 0 146.5 -43t123.5 -43q82 0 113 90q53 0 84 -30q-20 -74 -71.5 -115t-112.5 -41t-150.5 43t-124.5 43z" />
    <glyph glyph-name="cent.osf" horiz-adv-x="1011" 
d="M219 512q0 -150 79 -251t220 -122v752q-141 -20 -220 -125q-79 -104 -79 -254zM567 -184q-25 0 -49 6v213q-188 20 -302 144t-114 331t117 335t299 150v222q24 6 48 6t46 -6v-218q184 -8 299 -114q-16 -53 -65 -82q-106 86 -234 94v-762q139 6 242 92q47 -31 59 -82
q-125 -106 -301 -114v-209q-20 -6 -45 -6z" />
    <glyph glyph-name="Euro.osf" horiz-adv-x="1165" 
d="M72 433q0 24 6 46h143q-2 23 -2 60t4 86h-110q-13 55 0 92h125q43 186 176 296q133 109 318 109t321 -94q-16 -53 -54 -80q-115 78 -265 78t-249 -80q-100 -80 -135 -229h383q4 -29 4 -44t-4 -48h-397q-4 -49 -4 -86t2 -60h362q6 -23 6 -47t-6 -43h-348q33 -151 133 -233
t260 -83t275 91q45 -37 53 -82q-131 -106 -334 -106t-333 109q-130 110 -169 304h-155q-6 20 -6 44z" />
    <glyph glyph-name="uni0308.case" 
d="M-137 1452q-35 0 -58.5 23.5t-23.5 59.5t23.5 59.5t58.5 23.5t58.5 -24.5t23.5 -59.5t-23.5 -58.5t-58.5 -23.5zM-540 1452q-36 0 -60.5 23.5t-24.5 59.5t25 59.5t59.5 23.5t58 -23.5t23.5 -59.5t-22.5 -59.5t-58.5 -23.5z" />
    <glyph glyph-name="uni0307.case" 
d="M-140 1452q-36 0 -61.5 24.5t-25.5 61.5t25.5 62.5t61.5 25.5t61.5 -25.5t25.5 -62.5t-25.5 -61.5t-61.5 -24.5z" />
    <glyph glyph-name="uni030B.case" 
d="M-307 1370q-33 16 -41 41l215 277q63 -16 84 -80zM-625 1370q-31 16 -39 41l213 277q61 -14 84 -80z" />
    <glyph glyph-name="uni0302.case" 
d="M-539 1389q-33 18 -41 59l224 197q43 12 84 0l223 -195q-12 -41 -41 -61l-229 163z" />
    <glyph glyph-name="uni030C.case" 
d="M-354 1399l-224 194q12 39 43 62l228 -166l219 166q33 -23 41 -62l-223 -194q-43 -12 -84 0z" />
    <glyph glyph-name="uni0306.case" 
d="M-317.5 1413q-108.5 0 -182 63.5t-84.5 161.5q41 16 86 11q14 -68 64.5 -106t119.5 -38t121 39t60 105q43 6 82 -11q-6 -94 -82 -159.5t-184.5 -65.5z" />
    <glyph glyph-name="uni030A.case" 
d="M-235.5 1421q45.5 0 74 32t28.5 77t-28.5 76.5t-74 31.5t-75 -31.5t-29.5 -76.5t29.5 -77t75 -32zM-235.5 1341q-77.5 0 -133 55.5t-55.5 133.5t56 132t132 54t131.5 -55t55.5 -132t-54.5 -132.5t-132 -55.5z" />
    <glyph glyph-name="uni0304.case" 
d="M-600 1510.5q0 15.5 6 58.5h531q6 -14 6 -46t-6 -48h-531q-6 20 -6 35.5z" />
    <glyph glyph-name="uni0337.case" 
d="M-477 547q-35 25 -43 84l463 235q39 -35 43 -86z" />
    <glyph glyph-name="uni0338.case" 
d="M-1227 -31q-59 20 -73 74l1191 1305q53 -16 76 -68z" />
    </font>
</defs>
</svg>
