<?xml version="1.0" standalone="no"?>
<!DOCTYPE svg PUBLIC "-//W3C//DTD SVG 1.1//EN" "http://www.w3.org/Graphics/SVG/1.1/DTD/svg11.dtd" >
<svg xmlns="http://www.w3.org/2000/svg">
<metadata>
Created by FontPrep 20130207 at Tue May 24 17:37:06 2016
 By Levente Kiraly
copyright missing
</metadata>
<defs>
<font id="3f105bf2f3230c8619e4774b555ee077" horiz-adv-x='1024' >
  <font-face 
    font-family="Branding-SemiBold"
    font-weight="600"
    font-stretch="normal"
    units-per-em="2048"
    panose-1="0 0 7 0 0 0 0 0 0 0"
    ascent="1577"
    descent="-471"
    x-height="963"
    cap-height="1327"
    bbox="-1427 -461 2767 1788"
    underline-thickness="102"
    underline-position="-102"
    unicode-range="U+0020-FB02"
  />
<missing-glyph horiz-adv-x="815" 
d="M406 184l-345 346l345 344l346 -344z" />
    <glyph glyph-name="fi" unicode="fi" horiz-adv-x="1136" 
d="M886 -10q-68 0 -118 10v776l-342 2v-780q-62 -10 -112 -10t-117 10v780h-131q-13 87 0 170h131q4 205 127 309q122 105 310 105t312 -102q-4 -48 -35 -96t-67 -64q-100 70 -202 70q-216 -1 -216 -205v-17l575 -2v-946q-47 -10 -115 -10z" />
    <glyph glyph-name="fl" unicode="fl" horiz-adv-x="1177" 
d="M671 1362q208 0 371 -78v-1284q-46 -10 -114 -10t-119 10l-6 1149q-72 16 -146 16q-231 0 -231 -204v-11h197q12 -43 12 -90t-12 -90h-197v-772q-62 -10 -112 -10t-115 10v772h-131q-19 92 0 182h131q2 202 133 306t339 104z" />
    <glyph glyph-name=".notdef" horiz-adv-x="815" 
d="M406 184l-345 346l345 344l346 -344z" />
    <glyph glyph-name=".null" 
 />
    <glyph glyph-name="nonmarkingreturn" horiz-adv-x="681" 
 />
    <glyph glyph-name="space" unicode=" " horiz-adv-x="458" 
 />
    <glyph glyph-name="exclam" unicode="!" horiz-adv-x="530" 
d="M264 -39q-57 0 -97 40t-40 97q0 58 40 98t97 40t97 -40t40 -98t-40 -97q-40 -40 -97 -40zM266 346q-37 0 -67 8q-55 532 -58 957q61 18 124 18t124 -18q-2 -469 -59 -955q-27 -10 -64 -10z" />
    <glyph glyph-name="quotedbl" unicode="&#x22;" horiz-adv-x="659" 
d="M472 918q-22 0 -56 6l-54 413q44 23 102 23t105 -21l-53 -413q-22 -8 -44 -8zM202 918q-24 0 -59 6l-51 413q42 23 100 23t105 -21l-53 -413q-18 -8 -42 -8z" />
    <glyph glyph-name="numbersign" unicode="#" horiz-adv-x="1372" 
d="M788 436l97 289h-299l-97 -289h299zM1167 436q0 -100 -61 -184h-182l-115 -348q-109 -25 -197 0l115 348h-299l-115 -348q-109 -25 -196 0l114 348h-172q-2 109 64 184h170l96 289h-184q-6 96 61 186h185l114 349q104 23 197 0l-115 -349h299l115 349q104 23 196 0
l-114 -349h168q1 -98 -62 -186h-168l-96 -289h182z" />
    <glyph glyph-name="dollar" unicode="$" horiz-adv-x="1077" 
d="M784 406q0 59 -34 96q-35 37 -142 53v-299q176 23 176 150zM305 926q0 -53 33 -84t135 -51v266q-168 -18 -168 -131zM999 444q0 -176 -105 -273t-286 -114v-172q-28 -6 -66 -6t-69 6v172q-135 11 -239 53t-158 91q23 115 119 168q111 -94 278 -113v311q-174 19 -275 101
q-100 82 -102 226t100 242t277 117v172q76 8 135 0v-170q221 -14 363 -122q-33 -111 -111 -166q-102 72 -252 90v-285q186 -20 289 -103q102 -84 102 -225z" />
    <glyph glyph-name="percent" unicode="%" horiz-adv-x="1525" 
d="M1010 278q0 -76 36 -123q36 -46 110 -46q73 0 109 46q35 46 35 123q0 78 -36 124t-108 46q-74 0 -110 -46q-36 -48 -36 -124zM1462 279q0 -139 -81 -225t-225 -87q-144 0 -226 86q-82 85 -82 225t82 225t226 85t225 -85t81 -224zM370 838q72 0 108 46t36 123t-36 123
t-108 48q-72 0 -110 -48q-37 -48 -37 -124t37 -122t110 -46zM211 -96l893 1380q94 20 170 0l-895 -1380q-96 -16 -168 0zM676 1008q0 -140 -81 -226t-225 -86t-227 86q-82 86 -82 226t82 225q83 86 227 86t225 -86t81 -225z" />
    <glyph glyph-name="ampersand" unicode="&#x26;" horiz-adv-x="1271" 
d="M805 592h-207q-266 0 -266 -209q0 -96 66 -153q67 -56 191 -56t216 47v371zM1227 690q0 -55 -15 -98h-190v-486q-184 -135 -420 -135q-236 1 -372 97q-138 96 -138 292q0 240 219 334q-160 92 -159 285q0 158 111 257q112 99 292 99q227 0 354 -104q-18 -111 -108 -170
q-106 72 -212 72q-210 -1 -210 -177t248 -176h583q17 -35 17 -90z" />
    <glyph glyph-name="quotesingle" unicode="'" horiz-adv-x="387" 
d="M202 918q-24 0 -59 6l-53 413q44 23 102 23t105 -21l-53 -413q-18 -8 -42 -8z" />
    <glyph glyph-name="parenleft" unicode="(" horiz-adv-x="573" 
d="M324 518q0 -459 180 -827q-25 -37 -77 -57t-95 -11q-242 412 -244 895q2 483 244 895q41 11 97 -11t75 -56q-180 -369 -180 -828z" />
    <glyph glyph-name="parenright" unicode=")" horiz-adv-x="573" 
d="M252 520q0 460 -182 823q24 37 76 59t96 11q242 -412 242 -895t-242 -895q-42 -8 -94 11t-76 57q180 369 180 829z" />
    <glyph glyph-name="asterisk" unicode="*" horiz-adv-x="733" 
d="M396 1032q-5 0 -7 -2l-14 -182q-100 -14 -172 57l94 156q-4 4 -8 12l-180 -43q-45 92 0 182l180 -45q4 8 8 13l-98 159q72 72 174 58l12 -187q4 0 16 -4l119 140q92 -45 107 -146l-166 -67v-19l166 -70q-18 -104 -107 -147l-117 137q-2 -2 -7 -2z" />
    <glyph glyph-name="plus" unicode="+" horiz-adv-x="1034" 
d="M602 418v-350q-86 -18 -172 0v350h-348q-18 86 0 170h348v350q86 18 172 0v-350h350q18 -84 0 -170h-350z" />
    <glyph glyph-name="comma" unicode="," horiz-adv-x="468" 
d="M354 64q0 -106 -60 -222t-136 -184q-29 0 -57 17t-35 42q66 115 65 299q0 100 -27 179q59 25 126 25t110 -19q14 -31 14 -137z" />
    <glyph glyph-name="hyphen" unicode="-" horiz-adv-x="798" 
d="M123 511q0 54 12 89h529q12 -43 12 -88t-12 -88h-529q-12 33 -12 87z" />
    <glyph glyph-name="period" unicode="." horiz-adv-x="501" 
d="M251 -33q-67 0 -114 48q-47 49 -47 113t47 112t114 49q67 0 113 -47t46 -114t-46 -114t-113 -47z" />
    <glyph glyph-name="slash" unicode="/" horiz-adv-x="1134" 
d="M143 -389q-45 0 -96 10l838 1747q55 10 100 10t102 -10l-837 -1747q-62 -10 -107 -10z" />
    <glyph glyph-name="zero" unicode="0" horiz-adv-x="1255" 
d="M628 174q288 0 288 484t-288 485q-288 -1 -288 -485t288 -484zM627 -33q-255 1 -393 191t-138 504t138 505t396 191t393 -192q136 -192 136 -503q0 -312 -138 -504t-394 -192z" />
    <glyph glyph-name="one" unicode="1" horiz-adv-x="749" 
d="M494 1341q43 0 84 -10v-1331q-50 -10 -114 -10t-114 10v1049l-235 -109q-82 82 -88 199l383 192q41 10 84 10z" />
    <glyph glyph-name="two" unicode="2" horiz-adv-x="1085" 
d="M90 74q0 98 80 176q342 322 441 446t99 226q0 100 -54 156t-156 57q-150 0 -287 -138q-102 29 -147 142q68 94 184 156t258 63q196 0 320 -112t124 -293t-121 -338t-374 -377l-41 -29l49 4l532 2q15 -43 15 -104t-15 -111h-897q-10 35 -10 74z" />
    <glyph glyph-name="three" unicode="3" horiz-adv-x="1071" 
d="M473 -33q-137 0 -239 46t-158 104q31 113 135 174q127 -117 257 -117t201 62t71 185q0 122 -76 184t-252 63h-88q-6 20 -6 46t42 85l244 305h-498q-24 108 0 217h822q12 -115 -58 -205l-241 -282q137 -18 241 -114t104 -307q0 -210 -142 -328q-144 -118 -359 -118z" />
    <glyph glyph-name="four" unicode="4" horiz-adv-x="1069" 
d="M1022 390q0 -50 -12 -103h-146v-287q-47 -8 -107 -8t-110 8v287h-561q-74 133 12 329l340 750q113 -14 215 -76l-307 -692q-31 -68 -31 -102h332v329q117 19 217 0v-329h148q10 -56 10 -106z" />
    <glyph glyph-name="five" unicode="5" horiz-adv-x="1077" 
d="M486 -33q-241 0 -388 131q27 123 117 178q125 -104 267 -104t210 67t68 181t-68 173q-68 60 -200 60q-66 -1 -160 -25t-135 -24t-62 12v705h778q23 -106 2 -215h-567v-275q70 31 170 31q236 0 356 -112t119 -324q0 -211 -133 -335t-374 -124z" />
    <glyph glyph-name="six" unicode="6" horiz-adv-x="1110" 
d="M576 166q110 0 176 62t66 176t-70 168t-166 55q-150 0 -260 -86q-2 -18 -3 -56q0 -151 73 -235t184 -84zM647 829q168 -1 280 -109q111 -108 111 -306t-132 -324q-132 -125 -347 -125t-341 141t-126 388q0 188 64 346q114 286 415 441q133 69 283 97q63 -57 68 -204
q-457 -92 -566 -433q123 88 291 88z" />
    <glyph glyph-name="seven" unicode="7" horiz-adv-x="983" 
d="M940 1214q0 -78 -41 -159l-534 -1102q-131 16 -197 98l518 1047h-629q-10 57 -10 108t10 109h873q10 -23 10 -101z" />
    <glyph glyph-name="eight" unicode="8" horiz-adv-x="1128" 
d="M563 154q248 0 248 190q0 85 -81 140q-42 30 -82 48t-78 35t-60 26q-23 9 -35 15q-154 -115 -153 -266q0 -98 66 -143t175 -45zM564 1171q-95 0 -152 -45q-58 -44 -58 -116t58 -117t120 -73q64 -28 107 -46q71 54 105 104t34 126t-59 121q-60 46 -155 46zM1032 366
q0 -202 -138 -300t-338 -98t-331 83q-131 84 -131 268q0 213 217 375q-174 109 -175 285t117 277q119 102 313 102t311 -95t116 -253q0 -185 -178 -318q217 -124 217 -326z" />
    <glyph glyph-name="nine" unicode="9" horiz-adv-x="1110" 
d="M287 897q-1 -119 67 -179t172 -61q147 0 260 76q-4 201 -72 309t-182 109q-113 1 -179 -67t-66 -187zM506 459q-201 -1 -320 113q-118 114 -118 319t130 336t347 131q219 0 343 -170t124 -477q0 -440 -225 -602q-111 -80 -241 -112t-306 -32q-29 53 -29 103t8 98
q254 7 344 44t143 116t72 223q-117 -90 -272 -90z" />
    <glyph glyph-name="colon" unicode=":" horiz-adv-x="550" 
d="M276 -35q-66 0 -112 47t-47 113q0 66 47 114q46 48 112 48t113 -48t47 -114t-47 -113t-113 -47zM276 625q-66 0 -112 48q-46 47 -47 113q0 66 47 113q46 47 112 47t113 -47t47 -113t-47 -114t-113 -47z" />
    <glyph glyph-name="semicolon" unicode=";" horiz-adv-x="561" 
d="M213 -342q-29 0 -57 17t-35 42q66 115 65 299q0 98 -24 179q54 25 124 25t109 -19q17 -37 17 -139t-62 -218q-62 -118 -137 -186zM276 600q-68 0 -116 49t-49 116q0 67 49 116q48 49 116 49t116 -48t48 -117t-48 -117t-116 -48z" />
    <glyph glyph-name="less" unicode="&#x3c;" horiz-adv-x="1181" 
d="M68 488q0 66 12 116l932 348q57 -82 63 -192l-762 -264l-45 -11l45 -14l772 -283q-2 -100 -63 -186l-940 365q-14 55 -14 121z" />
    <glyph glyph-name="equal" unicode="=" horiz-adv-x="1144" 
d="M129 270q0 47 8 86h869q10 -47 10 -86t-10 -86h-869q-8 39 -8 86zM129 678q0 47 8 86h869q10 -47 10 -86t-10 -86h-869q-8 39 -8 86z" />
    <glyph glyph-name="greater" unicode="&#x3e;" horiz-adv-x="1181" 
d="M1114 488q0 -66 -14 -121l-940 -365q-59 80 -66 186l774 283l45 14l-45 11l-764 264q6 106 66 192l932 -348q12 -50 12 -116z" />
    <glyph glyph-name="question" unicode="?" horiz-adv-x="874" 
d="M365 -39q-57 0 -98 40q-40 40 -40 97q0 58 40 98q39 40 97 40t98 -40t40 -98t-40 -97q-40 -40 -97 -40zM366 324q-24 0 -61 4q-41 174 -41 315h17q137 0 214 68t77 176q0 107 -64 169t-166 62t-197 -55q-76 59 -90 164q121 98 309 98t311 -114q124 -114 124 -290
q1 -177 -97 -289t-253 -151q-4 -33 -29 -151q-30 -6 -54 -6z" />
    <glyph glyph-name="at" unicode="@" horiz-adv-x="1775" 
d="M882 313q94 0 158 66v362q-61 29 -146 29q-86 0 -148 -63t-62 -169t52 -166q52 -59 146 -59zM86 530q0 346 236 572t574 225q339 0 560 -211t221 -559q0 -223 -93 -339t-250 -116t-240 123q-100 -88 -255 -88q-155 1 -255 105t-100 286t119 301t311 119t321 -92v-453
q0 -125 111 -124q135 0 135 278q0 244 -167 415t-422 171t-429 -171q-174 -170 -174 -436t162 -435t407 -169q141 0 275 64q25 -18 45 -72t20 -98q-145 -78 -340 -78q-340 0 -556 218t-216 564z" />
    <glyph glyph-name="A" unicode="A" horiz-adv-x="1255" 
d="M436 512h373l-152 410l-36 120l-37 -120zM137 -8q-68 0 -119 22l490 1301q47 12 118.5 12t118.5 -12l494 -1301q-61 -23 -131.5 -22.5t-110.5 8.5l-116 315h-516l-113 -315q-47 -8 -115 -8z" />
    <glyph glyph-name="B" unicode="B" horiz-adv-x="1200" 
d="M610 164q275 0 275 213q0 197 -273 196h-221v-399q89 -10 219 -10zM588.5 1139q-113.5 0 -197.5 -9v-362h203q240 0 240 193q0 86 -66 132t-179.5 46zM1118 373q0 -193 -138 -298.5t-395.5 -105.5t-424.5 33v1290q188 37 401 37q498 0 498 -362q0 -201 -166 -283
q225 -76 225 -311z" />
    <glyph glyph-name="C" unicode="C" horiz-adv-x="1218" 
d="M731.5 -35q-285.5 0 -467.5 192.5t-182 497.5t192.5 502t483.5 197q244 0 403 -123q-10 -53 -45 -105.5t-82 -76.5q-125 86 -272 86q-190 0 -310 -129t-120 -346.5t118.5 -346.5t302 -129t302.5 99q100 -57 123 -183q-161 -135 -446.5 -135z" />
    <glyph glyph-name="D" unicode="D" horiz-adv-x="1378" 
d="M569 193q227 0 350 128t123 341t-124.5 335.5t-366.5 122.5q-98 0 -158 -6v-915q80 -6 176 -6zM545 1337q358 0 553.5 -181t195.5 -490t-200.5 -497.5t-536.5 -188.5q-233 0 -397 24v1305q180 28 385 28z" />
    <glyph glyph-name="E" unicode="E" horiz-adv-x="1118" 
d="M1036 107q0 -57 -14 -107h-860v1315h842q12 -49 12 -104.5t-12 -106.5h-611v-326h543q12 -53 12 -103t-12 -106h-543v-360h629q14 -45 14 -102z" />
    <glyph glyph-name="F" unicode="F" horiz-adv-x="1056" 
d="M393 1102v-381h535q10 -43 10 -104.5t-10 -104.5h-535v-512q-57 -12 -114.5 -12t-116.5 12v1315h833q10 -43 10 -106.5t-10 -106.5h-602z" />
    <glyph glyph-name="G" unicode="G" horiz-adv-x="1335" 
d="M1227 721v-653q-197 -102 -459 -103q-305 0 -494.5 186.5t-189.5 502t194.5 508t476 192.5t445.5 -115q-20 -135 -121 -195q-133 88 -317 88.5t-306 -126.5t-122 -348.5t110.5 -348.5t325.5 -127q131 0 227 31v291h-247q-12 57 -12 109.5t12 107.5h477z" />
    <glyph glyph-name="H" unicode="H" horiz-adv-x="1409" 
d="M1131 1325q56 0 116 -12v-1313q-55 -12 -112 -12t-121 12v561h-621v-561q-57 -12 -113.5 -12t-117.5 12v1313q45 12 114.5 12t116.5 -12v-539h621v539q61 12 117 12z" />
    <glyph glyph-name="I" unicode="I" horiz-adv-x="555" 
d="M280.5 -12q-57.5 0 -118.5 12v1313q55 14 115 14t116 -14v-1313q-55 -12 -112.5 -12z" />
    <glyph glyph-name="J" unicode="J" horiz-adv-x="849" 
d="M305 -43q-98 0 -175 35t-116 82q23 123 125 178q76 -80 160 -80q168 0 168 180v961q41 12 113 12t118 -12v-959q0 -190 -106.5 -293.5t-286.5 -103.5z" />
    <glyph glyph-name="K" unicode="K" horiz-adv-x="1253" 
d="M280.5 -12q-57.5 0 -118.5 12v1313q55 12 114 12t117 -12v-584q176 135 292 264t245 326q55 6 127 6t143 -12q-221 -350 -506 -604l574 -697q-76 -16 -159 -16t-140 4l-455 557q-25 -21 -121 -90v-467q-55 -12 -112.5 -12z" />
    <glyph glyph-name="L" unicode="L" horiz-adv-x="1009" 
d="M979 105.5q0 -50.5 -12 -105.5h-805v1315q59 12 116 12t115 -12v-1106h574q12 -53 12 -103.5z" />
    <glyph glyph-name="M" unicode="M" horiz-adv-x="1624" 
d="M1342 1323q62 0 122 -14v-1309q-61 -12 -109 -12t-112 12v719l10 190l-34 -98l-299 -692q-51 -8 -99.5 -8t-103.5 8l-309 696l-37 92l8 -188v-719q-55 -12 -105.5 -12t-111.5 12v1309q66 16 127 16t110 -10l406 -887l24 -66l21 66l381 887q49 8 111 8z" />
    <glyph glyph-name="N" unicode="N" horiz-adv-x="1406" 
d="M1134 1325q53 0 111 -12v-1303q-92 -23 -215 -18l-608 872l-37 70l4 -82v-852q-61 -12 -112.5 -12t-114.5 12v1300q104 39 217 21l606 -872l37 -66l-4 92v838q63 12 116 12z" />
    <glyph glyph-name="O" unicode="O" horiz-adv-x="1507" 
d="M753.5 184q190.5 0 306.5 132q116 134 116 346t-115 343.5t-307.5 131.5t-307 -131.5t-114.5 -344.5t115.5 -345t306 -132zM754 -33q-293 0 -482.5 194.5t-189.5 496.5t189.5 499t483.5 197t482 -194t188 -496t-189 -499.5t-482 -197.5z" />
    <glyph glyph-name="P" unicode="P" horiz-adv-x="1179" 
d="M578 647q158 0 232.5 70.5t74.5 185.5t-78 176.5t-232 61.5q-84 0 -182 -11v-477q81 -6 185 -6zM569 1343q283 0 420 -114.5t137 -323.5t-145 -334t-403 -125q-102 0 -185 7v-453q-57 -12 -115 -12t-118 12v1298q184 45 409 45z" />
    <glyph glyph-name="Q" unicode="Q" horiz-adv-x="1507" 
d="M332 661q0 -213 115.5 -345t306 -132t306.5 132.5t116 345t-115 344t-307.5 131.5t-307 -131.5t-114.5 -344.5zM82 659.5q0 301.5 189.5 498t483.5 196.5t482 -193.5t188 -501.5q0 -190 -82 -345.5t-227 -245.5q244 -102 328 -281q-59 -76 -205 -119q-186 299 -498 299
q-289 4 -474 197.5t-185 495z" />
    <glyph glyph-name="R" unicode="R" horiz-adv-x="1216" 
d="M596 682q135 0 202.5 64.5t67.5 171.5q0 219 -276 219q-90 0 -197 -11v-440q68 -4 203 -4zM1011.5 -8q-81.5 0 -102.5 4l-293 487h-30q-127 0 -193 4v-487q-57 -12 -114.5 -12t-118.5 12v1294q195 43 439.5 43t373.5 -107.5t129 -299.5q0 -280 -256 -395l321 -523
q-74 -20 -155.5 -20z" />
    <glyph glyph-name="S" unicode="S" horiz-adv-x="1105" 
d="M539 -33q-301 0 -473 164q20 123 120 182q145 -131 355 -131q127 0 190.5 48.5t63.5 125t-57.5 124.5t-186.5 78.5t-195 57.5t-126 71q-126 92 -126 271t126 284.5t335 105.5q270 0 439 -131q-4 -55 -36 -109.5t-77 -79.5q-147 106 -334 107q-102 0 -163.5 -44
t-61.5 -111t52 -108t237.5 -85.5t293 -138t109.5 -278t-128 -294t-357 -109.5z" />
    <glyph glyph-name="T" unicode="T" horiz-adv-x="1112" 
d="M1081 1211q0 -50 -12 -105h-397v-1108q-78 -12 -116 -12t-116 12v1108h-399q-12 53 -12 104.5t12 104.5h1028q12 -54 12 -104z" />
    <glyph glyph-name="U" unicode="U" horiz-adv-x="1376" 
d="M688 -35q-248 0 -395.5 144.5t-147.5 410.5v793q59 12 116.5 12t119.5 -12v-791q0 -156 81 -247t230.5 -91t230.5 91.5t81 246.5v791q57 12 114.5 12t114.5 -12v-789q0 -264 -148.5 -411.5t-396.5 -147.5z" />
    <glyph glyph-name="V" unicode="V" horiz-adv-x="1263" 
d="M1105 1329q75 0 130 -20q-154 -645 -481 -1305q-47 -12 -117 -12t-127 12q-305 614 -481 1305q79 20 145 20t109 -6q131 -561 362 -1098q231 547 348 1098q37 6 112 6z" />
    <glyph glyph-name="W" unicode="W" horiz-adv-x="1898" 
d="M1730.5 1329q73.5 0 133.5 -22q-172 -770 -396 -1305q-61 -12 -121.5 -12t-129.5 12l-226 772l-33 146l-32 -148l-250 -768q-57 -12 -121.5 -12t-138.5 12q-225 555 -367 1305q82 20 149.5 20t106.5 -6q76 -539 250 -1075l33 143l256 819q47 12 118 12.5t117 -12.5
l242 -819l35 -145q176 530 270 1075q31 8 104.5 8z" />
    <glyph glyph-name="X" unicode="X" horiz-adv-x="1234" 
d="M1078.5 -8q-60.5 0 -130.5 8l-340 504l-332 -504q-61 -8 -132.5 -8t-133.5 18l455 656l-424 645q84 18 157.5 18t116.5 -6l314 -504l303 504q43 6 118.5 6t145.5 -18l-422 -652l449 -649q-84 -18 -144.5 -18z" />
    <glyph glyph-name="Y" unicode="Y" horiz-adv-x="1222" 
d="M611.5 -12q-56.5 0 -117.5 12v506l-482 803q86 20 144.5 20t119.5 -8l306 -522l39 -86l38 86l299 522q43 8 103.5 8t142.5 -18l-477 -817v-494q-59 -12 -115.5 -12z" />
    <glyph glyph-name="Z" unicode="Z" horiz-adv-x="1175" 
d="M1114 102.5q0 -57.5 -12 -102.5h-1020q-12 37 -12 97.5t61 138.5l660 874l-707 -2q-12 45 -12 105t12 102h999q10 -41 10.5 -98.5t-59.5 -137.5l-614 -813l-47 -59h729q12 -47 12 -104.5z" />
    <glyph glyph-name="bracketleft" unicode="[" horiz-adv-x="636" 
d="M371 -205h200q18 -90 0 -182h-407v1810h407q23 -92 0 -182h-200v-1446z" />
    <glyph glyph-name="backslash" unicode="\" horiz-adv-x="1114" 
d="M969 -389q-45 0 -103 10l-819 1700q61 10 107 10t96 -10l819 -1700q-55 -10 -100 -10z" />
    <glyph glyph-name="bracketright" unicode="]" horiz-adv-x="638" 
d="M475 1423v-1810h-407q-23 92 0 182h198v1446h-198q-18 90 0 182h407z" />
    <glyph glyph-name="asciicircum" unicode="^" horiz-adv-x="1130" 
d="M250 637q-106 20 -174 100l385 666q104 25 209 0l385 -666q-63 -80 -174 -100l-316 545z" />
    <glyph glyph-name="underscore" unicode="_" horiz-adv-x="911" 
d="M0 -154q0 45 14 86h885q12 -39 12 -84t-12 -84h-885q-14 37 -14 82z" />
    <glyph glyph-name="grave" unicode="`" horiz-adv-x="548" 
d="M438 1059l-389 211q31 129 133 184l322 -303q-19 -63 -66 -92z" />
    <glyph glyph-name="a" unicode="a" horiz-adv-x="1048" 
d="M299 295q0 -68 54.5 -108t157.5 -40t202 31v209q-92 39 -221 39q-193 0 -193 -131zM713 610q1 187 -253 187q-134 0 -251 -86q-90 45 -107 149q53 51 160 94t234 43q205 0 324.5 -98t119.5 -303v-530q-199 -96 -429 -96.5t-339 82.5t-109 231.5t114 229.5t296 79
q137 0 240 -37v55z" />
    <glyph glyph-name="b" unicode="b" horiz-adv-x="1161" 
d="M551 174q141 0 220 84t79 223t-78 223t-204 84t-208 -43v-536q91 -35 191 -35zM571 997q225 0 369 -134q144 -133 143 -371q0 -238 -148 -380q-149 -142 -385 -142t-421 93v1285q68 10 119 10t112 -10v-396q94 45 211 45z" />
    <glyph glyph-name="c" unicode="c" horiz-adv-x="980" 
d="M579.5 -31q-223.5 0 -363.5 136.5t-140 371.5t145.5 378.5t368.5 143.5q100 0 189 -32.5t139 -77.5q-27 -106 -125 -166q-90 76 -213 76t-196 -90.5t-73 -224.5t72 -224t201 -90t225 82q92 -47 123 -158q-129 -125 -352.5 -125z" />
    <glyph glyph-name="d" unicode="d" horiz-adv-x="1161" 
d="M607 791q-126 0 -211 -85t-85 -225.5t82 -224.5t215 -84q100 -2 193 31v545q-68 43 -194 43zM915.5 1356q67.5 0 116.5 -10v-1280q-182 -96 -423 -96.5t-387 133t-146 370.5t151.5 379.5t376.5 142.5q117 0 197 -30v381q47 10 114.5 10z" />
    <glyph glyph-name="e" unicode="e" horiz-adv-x="1083" 
d="M780 575q0 96 -53 164t-160.5 69t-173.5 -64t-78 -169h465zM1008 559q0 -66 -9 -137h-686q14 -121 86 -189.5t205 -68.5t275 100q86 -55 100 -158q-172 -137 -398.5 -137t-365.5 138.5t-139 367.5t139 375.5t342 146.5t327 -121.5t124 -316.5z" />
    <glyph glyph-name="f" unicode="f" horiz-adv-x="698" 
d="M199 979q0 187 105 285t264 98t251 -82q-14 -106 -100 -162q-70 49 -150 49q-141 0 -141 -155v-58h231q25 -100 0 -188h-231v-768q-62 -10 -112 -10t-117 10v770h-131q-10 47 -11 92q0 45 11 96h131v23z" />
    <glyph glyph-name="g" unicode="g" horiz-adv-x="1146" 
d="M590.5 213q115.5 0 195.5 45v496q-80 43 -194.5 43t-198.5 -82t-84 -214t83 -210t198.5 -78zM610.5 999q233.5 0 409.5 -133v-825q0 -207 -135 -328t-350 -121q-293 0 -451 175q12 47 47 90t88 61q115 -133 307 -133q131 0 195.5 62.5t64.5 166.5v45q-90 -39 -200 -39
q-219 0 -365.5 128t-146.5 350.5t151.5 361.5t385 139z" />
    <glyph glyph-name="h" unicode="h" horiz-adv-x="1167" 
d="M616 999q207 0 319 -111.5t112 -279.5v-608q-49 -10 -117 -10t-117 10v539q0 246 -233 245q-109 0 -213 -57v-727q-47 -10 -115 -10t-119 10v1343q121 25 234 0v-401q122 57 249 57z" />
    <glyph glyph-name="i" unicode="i" horiz-adv-x="501" 
d="M251.5 -10q-67.5 0 -116.5 10v969q49 10 116.5 10t115.5 -10v-969q-48 -10 -115.5 -10zM250 1116q-61 0 -105.5 43t-44.5 104.5t44 104.5t105.5 43t105.5 -43t44 -104.5t-44 -104.5t-105 -43z" />
    <glyph glyph-name="j" unicode="j" horiz-adv-x="526" 
d="M29.5 -406q-156.5 0 -242.5 82q4 45 35 91.5t74 68.5q63 -45 118 -45q143 0 144 170v1006q49 10 116.5 10t116.5 -10v-1000q0 -178 -102.5 -275.5t-259 -97.5zM272.5 1114q-61.5 0 -105.5 43t-44 104.5t43 104.5t105 43t105.5 -43t43.5 -104.5t-43 -104.5t-104.5 -43z
" />
    <glyph glyph-name="k" unicode="k" horiz-adv-x="1050" 
d="M900.5 -12q-76.5 0 -130.5 6l-326 371q-53 -33 -79 -48v-317q-47 -10 -114 -10t-118 10v1343q122 25 232 0v-782q244 156 378 404q41 6 120 6t138 -15q-153 -272 -374 -460l428 -490q-78 -18 -154.5 -18z" />
    <glyph glyph-name="l" unicode="l" horiz-adv-x="503" 
d="M255 -10q-69 0 -120 10v1343q45 10 114.5 10.5t119.5 -10.5v-1343q-45 -10 -114 -10z" />
    <glyph glyph-name="m" unicode="m" horiz-adv-x="1777" 
d="M1240 999q194 -1 304 -109t111 -274v-616q-45 -10 -115 -10t-117 10v547q0 240 -219 239q-111 0 -207 -79q10 -47 11 -91v-616q-45 -10 -115 -10t-119 10v547q0 240 -217 239q-111 0 -199 -53v-733q-46 -10 -114 -10t-117 10v846q69 59 193 106t264 47q201 0 317 -112
q145 112 339 112z" />
    <glyph glyph-name="n" unicode="n" horiz-adv-x="1163" 
d="M592 999q223 0 336.5 -112.5t113.5 -290.5v-596q-50 -10 -116 -10t-117 10v541q0 246 -236 245q-125 0 -215 -53v-733q-46 -10 -114 -10t-117 10v846q74 61 198 107t267 46z" />
    <glyph glyph-name="o" unicode="o" horiz-adv-x="1179" 
d="M590 172q129 0 204.5 86t75.5 226t-75.5 227.5t-204.5 87.5t-205 -87q-76 -88 -76 -228t76 -226t205 -86zM585.5 -31q-225.5 0 -367.5 143.5t-142 369.5t146.5 371.5t371.5 145.5q226 0 368 -144q142 -143 142 -369t-146.5 -371.5t-372 -145.5z" />
    <glyph glyph-name="p" unicode="p" horiz-adv-x="1157" 
d="M561 176q123 0 205 83t82 224t-82 221t-202 80t-206 -47v-522q80 -39 203 -39zM548 997q242 0 388 -133t145 -373q-1 -241 -151 -381t-363 -141q-123 0 -209 29v-377q-48 -10 -114 -10t-117 10v1227q179 149 421 149z" />
    <glyph glyph-name="q" unicode="q" horiz-adv-x="1157" 
d="M596 178q123 0 205 41v520q-92 49 -208 49t-200 -85t-84 -225t82 -220t205 -80zM626 997q242 0 406 -145l-2 -1231q-49 -10 -118 -10t-113 10v385q-86 -37 -201 -37q-229 0 -376 132q-146 132 -146 371t153 382q155 143 397 143z" />
    <glyph glyph-name="r" unicode="r" horiz-adv-x="768" 
d="M538 997q130 0 214 -30q0 -121 -62 -201q-72 18 -167 18t-163 -39v-745q-45 -10 -114.5 -10t-118.5 10v858q63 57 172 98t239 41z" />
    <glyph glyph-name="s" unicode="s" horiz-adv-x="960" 
d="M467 -33q-258 0 -401 123q27 111 106 160q133 -96 309 -96t176 116q0 51 -51 80q-52 30 -192 52t-231 87.5t-91 202.5t111.5 221t319.5 84t341 -94q-16 -109 -88 -166q-128 74 -294 74t-167 -100q0 -49 44 -75q45 -26 193 -50t242.5 -91t94.5 -211t-111.5 -230.5
t-310.5 -86.5z" />
    <glyph glyph-name="t" unicode="t" horiz-adv-x="876" 
d="M209 299v469h-166q-8 41 -8 94t8 94h166v258q49 10 116 10.5t113 -10.5v-258h363q10 -39 10 -93t-10 -95h-363v-416q0 -100 42 -140t128 -40t156 66q84 -57 98 -162q-121 -104 -289 -104.5t-266 79.5t-98 248z" />
    <glyph glyph-name="u" unicode="u" horiz-adv-x="1150" 
d="M905.5 973q67.5 0 116.5 -10v-891q-212 -102 -448 -102t-344.5 101t-108.5 283v609q51 10 118.5 10t114.5 -10v-541q0 -127 49.5 -186.5t172.5 -59.5t212 37v750q50 10 117.5 10z" />
    <glyph glyph-name="v" unicode="v" horiz-adv-x="1038" 
d="M886 975q62 0 124 -21q-129 -526 -377 -954q-47 -10 -112 -10t-113 10q-236 393 -381 954q111 34 249 13q102 -406 240 -721q8 -20 10 -31l13 31q131 303 233 721q52 8 114 8z" />
    <glyph glyph-name="w" unicode="w" horiz-adv-x="1542" 
d="M1385.5 973q68.5 0 127.5 -19q-137 -571 -360 -954q-47 -10 -112.5 -10t-112.5 10q-92 174 -164 371q-53 -201 -139 -371q-47 -10 -118 -10t-114 10q-229 381 -360 954q59 18 134.5 18.5t115.5 -5.5q96 -455 229 -756l6 -27q6 20 8 27q90 205 146 442q-31 109 -78 301
q107 33 242 13q96 -487 206 -756l7 -33q4 20 8 33q123 285 219 756q41 6 109.5 6z" />
    <glyph glyph-name="x" unicode="x" horiz-adv-x="1024" 
d="M882 -12q-90 0 -137 8l-241 348l-228 -348q-38 -8 -116 -8t-133 16l344 488l-332 462q53 20 135 20t119 -5l225 -334l209 334q45 6 119 6t129 -21l-324 -465l355 -485q-34 -16 -124 -16z" />
    <glyph glyph-name="y" unicode="y" horiz-adv-x="1058" 
d="M899.5 975q55.5 0 124.5 -25q-92 -465 -263 -789.5t-466 -588.5q-104 29 -148 152q182 176 263 301q-246 397 -375 929q101 33 254 13q82 -381 243 -721q12 -29 17 -41q11 34 16 41q131 272 221 721q58 8 113.5 8z" />
    <glyph glyph-name="z" unicode="z" horiz-adv-x="964" 
d="M905 96q0 -57 -14 -96h-807q-14 37 -14 76q0 84 65 160l434 491l43 45h-522q-12 53 -12 97t12 94h774q12 -31 13 -68q0 -100 -66 -174l-420 -494l-35 -37h535q14 -37 14 -94z" />
    <glyph glyph-name="braceleft" unicode="{" horiz-adv-x="712" 
d="M573 -205h72q18 -90 0 -182h-115q-150 0 -222 84t-72 219v363q0 139 -127 139h-72q-34 116 0 207h86q113 0 113 133v362q0 135 72 219q73 84 222 84h115q18 -92 0 -182h-72q-127 0 -127 -121v-377q0 -150 -104 -225q104 -76 104 -225v-377q0 -121 127 -121z" />
    <glyph glyph-name="bar" unicode="|" horiz-adv-x="495" 
d="M160 -369v1792q86 23 176 0v-1792q-86 -33 -176 0z" />
    <glyph glyph-name="braceright" unicode="}" horiz-adv-x="712" 
d="M690 526q0 -60 -16 -108h-72q-127 0 -127 -139v-363q0 -135 -73 -219t-222 -84h-114q-18 92 0 182h71q127 0 127 121v377q0 150 105 225q-104 76 -105 225v377q0 121 -127 121h-71q-18 90 0 182h114q150 0 222 -84t73 -219v-362q0 -133 115 -133h84q16 -39 16 -99z" />
    <glyph glyph-name="asciitilde" unicode="~" horiz-adv-x="1142" 
d="M384 610q76 0 187 -37t160 -36q84 0 133 94q104 -6 166 -84q-37 -97 -116 -153t-163 -56q-83 0 -193 37t-146 37q-83 0 -136 -88q-104 10 -165 79q41 98 118 153q79 54 155 54z" />
    <glyph glyph-name="uni00A0" unicode="&#xa0;" horiz-adv-x="458" 
 />
    <glyph glyph-name="exclamdown" unicode="&#xa1;" horiz-adv-x="507" 
d="M252 -354q-62 0 -123 18q2 438 59 954q69 20 131 3q55 -571 58 -957q-63 -18 -125 -18zM254 739q-57 0 -97 40q-40 39 -40 97t40 98t97 40t97 -40t40 -97t-40 -97t-97 -41z" />
    <glyph glyph-name="cent" unicode="&#xa2;" horiz-adv-x="1024" 
d="M313 637q1 -106 53 -185t152 -104v578q-100 -25 -152 -104t-53 -185zM586 -74q-42 0 -68 6v211q-200 23 -320 153t-120 337t122 340t318 155v215q75 17 137 0v-213q186 -20 289 -126q-31 -104 -127 -156q-68 68 -162 82v-586q90 12 172 86q92 -54 119 -156
q-115 -115 -291 -131v-211q-27 -6 -69 -6z" />
    <glyph glyph-name="sterling" unicode="&#xa3;" horiz-adv-x="1134" 
d="M150 0q0 111 65 255q66 144 66 251v33h-191q-12 43 -12 88t12 88h156q-43 129 -43 219q0 174 127 297t342 123t372 -125q-23 -127 -118 -185q-115 92 -241 92t-188 -58q-63 -58 -63 -144t21 -141q18 -63 24 -78h303q24 -95 0 -176h-270v-35q0 -56 -26 -142t-62 -149h616
q24 -110 0 -213h-890z" />
    <glyph glyph-name="currency" unicode="&#xa4;" horiz-adv-x="1271" 
d="M635 393q113 0 193 81t79 198q0 118 -79 198q-78 80 -192 80t-193 -81t-79 -197t80 -198q78 -81 191 -81zM1135 670q0 -150 -82 -275l108 -112q-57 -100 -151 -154l-115 117q-115 -74 -257 -74t-261 74l-113 -117q-98 57 -153 154l110 114q-82 125 -82 274t82 273
l-110 115q57 100 153 151l115 -116q115 74 255 74t261 -72l115 114q92 -49 151 -151l-110 -113q84 -126 84 -276z" />
    <glyph glyph-name="yen" unicode="&#xa5;" horiz-adv-x="1202" 
d="M715 522v-116h264q8 -31 8 -68t-8 -68h-264v-270q-47 -10 -116 -10t-120 10v270h-268q-8 31 -8 68t8 68h268v116h-268q-8 31 -8 68t8 67h221l-379 643q138 28 260 11l262 -473l33 -68l31 68l274 473q35 6 101 6t137 -17l-385 -643h213q8 -31 8 -67t-8 -68h-264z" />
    <glyph glyph-name="brokenbar" unicode="&#xa6;" horiz-adv-x="493" 
d="M160 -369v723q90 25 174 0v-723q-88 -33 -174 0zM160 686v737q90 25 174 0v-737q-84 -33 -174 0z" />
    <glyph glyph-name="section" unicode="&#xa7;" horiz-adv-x="1165" 
d="M566 -250q-232 0 -408 152q10 57 46 105t89 71q131 -106 271 -106t224 82q86 83 86 214t-116 238l-258 229q39 115 145 158l266 -238q187 -178 187 -396q0 -217 -150 -363t-382 -146zM70 851q0 220 149 366q149 145 379 145t410 -150q-8 -57 -44 -105t-92 -71
q-131 106 -269 106t-225 -83q-87 -84 -87 -213t121 -234l258 -231q-46 -115 -146 -156l-266 238q-188 168 -188 388z" />
    <glyph glyph-name="dieresis" unicode="&#xa8;" horiz-adv-x="774" 
d="M600 1116q-53 0 -92 38t-39 92t38 92t92 38t93 -38t39 -92t-39 -92t-92 -38zM173 1116q-54 0 -93 38t-39 92t38 92t93 38t93 -38t38 -92t-38 -92t-92 -38z" />
    <glyph glyph-name="copyright" unicode="&#xa9;" horiz-adv-x="1556" 
d="M793 219q-178 0 -289 109t-111 297t115 301t293 112q85 0 157 -26t111 -66q-18 -90 -102 -143q-70 61 -170 61t-156 -65q-55 -66 -55 -169t54 -170t160 -67t175 62q78 -43 98 -138q-102 -98 -280 -98zM777 63q226 0 386 165t160 404q0 240 -159 402t-386 162t-386 -162
t-159 -402t159 -405q159 -164 385 -164zM779 -76q-291 0 -491 204t-200 503t200 504t492 205t489 -206q197 -204 197 -503t-198 -503t-489 -204z" />
    <glyph glyph-name="ordfeminine" unicode="&#xaa;" horiz-adv-x="788" 
d="M276 907q0 -80 115 -80q57 0 111 17v121q-49 23 -113 22q-113 0 -113 -80zM397 1368q283 0 283 -276v-332q-158 -64 -301 -64t-216 56t-73 152q0 98 76 152t201 54q86 -4 135 -20v30q0 98 -129 99q-100 2 -187 -60q-72 39 -80 115q119 94 291 94z" />
    <glyph glyph-name="guillemotleft" unicode="&#xab;" horiz-adv-x="954" 
d="M750 174l-308 344l303 350q68 -12 99 -67l-162 -279l162 -284q-24 -52 -94 -64zM375 174l-307 344l303 350q68 -12 98 -67l-162 -279l162 -284q-24 -52 -94 -64z" />
    <glyph glyph-name="registered" unicode="&#xae;" horiz-adv-x="1554" 
d="M778 885q154 0 154 121q0 115 -154 114q-74 0 -137 -8v-221q47 -6 137 -6zM1090 1008q0 -166 -162 -236l192 -330q-41 -10 -92 -10t-72 2l-180 309q-68 0 -135 7v-312q-20 -6 -68 -6t-81 6v791q125 29 284 28q314 1 314 -249zM778 274q229 0 388 165t159 404t-159 401
t-388 163q-229 0 -387 -163q-158 -162 -158 -402t158 -404t387 -164zM88 842q0 298 200 504t489 206q288 0 489 -206q200 -206 200 -504q0 -299 -200 -504t-488 -205q-290 0 -490 205t-200 504z" />
    <glyph glyph-name="macron" unicode="&#xaf;" horiz-adv-x="696" 
d="M47 1249q0 55 12 90h580q10 -47 10 -90t-10 -90h-580q-12 35 -12 90z" />
    <glyph glyph-name="degree" unicode="&#xb0;" horiz-adv-x="677" 
d="M340 1010q51 0 90 38t39 91t-38 90t-91 37t-91 -37t-38 -90t39 -91t90 -38zM338 874q-110 0 -186 77t-76 185t77 186q77 77 185 77t186 -77q78 -78 78 -186t-78 -185t-186 -77z" />
    <glyph glyph-name="plusminus" unicode="&#xb1;" horiz-adv-x="1107" 
d="M121 123h868q18 -86 0 -170h-868q-23 84 0 170zM467 547h-346q-23 86 0 172h346v276q86 18 174 0v-276h348q18 -86 0 -172h-348v-283q-88 -23 -174 0v283z" />
    <glyph glyph-name="acute" unicode="&#xb4;" horiz-adv-x="524" 
d="M111 1059q-51 35 -66 94l322 301q98 -53 133 -184z" />
    <glyph glyph-name="paragraph" unicode="&#xb6;" horiz-adv-x="1265" 
d="M596 291q58 0 102 -10v-662q-49 -12 -108 -12t-109 12v662q57 10 115 10zM299 887q-1 -117 79 -187t232 -69q152 0 256 12v477q-133 20 -250 21q-317 0 -317 -254zM622 1343q278 0 465 -59v-1665q-47 -12 -111 -12t-110 12v821q-135 -14 -254 -14q-262 0 -409 126
t-147 336t144 332t422 123z" />
    <glyph glyph-name="periodcentered" unicode="&#xb7;" horiz-adv-x="491" 
d="M246 543q-57 0 -100 42q-42 42 -42 99t42 99t100 42t99 -42q42 -42 42 -99t-42 -99t-99 -42z" />
    <glyph glyph-name="cedilla" unicode="&#xb8;" horiz-adv-x="516" 
d="M475 -225q0 -104 -76.5 -148.5t-180.5 -44.5t-163 43q4 74 54 121q45 -29 94 -29q80 0 80 60q0 66 -133 69l67 177h137l-35 -99q156 -31 156 -149z" />
    <glyph glyph-name="ordmasculine" unicode="&#xba;" horiz-adv-x="841" 
d="M421 852q73 0 114 47t41 134t-41 134t-114 47t-114 -48t-41 -134t41 -133t114 -47zM418 696q-152 0 -245 90t-93 246t96 247t248 91t245 -90t93 -246t-96 -247t-248 -91z" />
    <glyph glyph-name="guillemotright" unicode="&#xbb;" horiz-adv-x="954" 
d="M582 174q-70 12 -97 64l162 280l-164 283q29 55 95 67l307 -348zM207 174q-70 12 -96 64l161 280l-163 283q29 55 94 67l307 -348z" />
    <glyph glyph-name="onequarter" unicode="&#xbc;" horiz-adv-x="1585" 
d="M1524 195q0 -35 -6 -74h-68v-125q-29 -4 -87 -4t-87 4v125h-369q-43 86 8 196l242 498q92 -2 166 -65l-188 -410q-18 -43 -19 -61h160v198q43 6 87 6t87 -6v-198h70q4 -49 4 -84zM350 535q-47 0 -92 6v589l-137 -61q-55 49 -66 139q147 72 221 100t170 9v-776
q-49 -6 -96 -6zM1110 1362q86 18 176 0l-964 -1458q-90 -23 -177 0z" />
    <glyph glyph-name="onehalf" unicode="&#xbd;" horiz-adv-x="1585" 
d="M1513 82q0 -51 -10 -82h-563q-6 18 -6 45q0 59 49 109q182 186 240 256q57 70 57 118t-27 74t-75 25q-78 0 -144 -70q-76 20 -110 92q98 139 286 139q104 0 181 -63t77 -163t-60 -186q-60 -85 -183 -202l-41 -24l59 6h260q10 -23 10 -74zM350 533q-47 0 -92 6v587
l-139 -61q-53 49 -64 141q145 74 203 96q103 39 188 13v-776q-49 -6 -96 -6zM1124 1362q88 18 176 0l-962 -1458q-94 -20 -176 0z" />
    <glyph glyph-name="threequarters" unicode="&#xbe;" horiz-adv-x="1667" 
d="M1608 195q0 -35 -6 -74h-68v-125q-29 -4 -87 -4t-87 4v125h-369q-41 82 8 196l244 498q92 -2 164 -61l-186 -414q-18 -43 -19 -61h158v198q43 6 87 6t87 -6v-198h70q4 -49 4 -84zM328 672q78 0 116 34t39 91q0 125 -172 125h-69q-4 6 -4 30t16 49l131 162h-289
q-8 41 -8 84t8 74h537q10 -70 -33 -123l-139 -162q84 -12 144 -70q61 -58 61 -178t-92 -193t-244 -73q-150 0 -254 94q18 78 90 123q84 -67 162 -67zM1214 1362q86 18 177 0l-965 -1458q-90 -23 -176 0z" />
    <glyph glyph-name="questiondown" unicode="&#xbf;" horiz-adv-x="862" 
d="M504 -346q-186 0 -312 114q-124 114 -124 291t96 289t254 150q4 33 28 151q30 6 54 6t61 -4q41 -170 43 -315h-18q-137 0 -214 -67t-77 -176t63 -171q62 -62 166 -61q104 0 197 57q78 -61 90 -166q-121 -98 -307 -98zM502 745q-57 0 -98 39q-40 38 -40 96t40 98t98 40
t97 -40q40 -40 40 -97t-40 -97t-97 -39z" />
    <glyph glyph-name="Agrave" unicode="&#xc0;" horiz-adv-x="1255" 
d="M436 512h373l-152 410l-36 120l-37 -120zM137 -8q-68 0 -119 22l490 1301q47 12 118.5 12t118.5 -12l494 -1301q-61 -23 -131.5 -22.5t-110.5 8.5l-116 315h-516l-113 -315q-47 -8 -115 -8zM848 1479q-10 -63 -49 -95l-430 154q0 131 104 201z" />
    <glyph glyph-name="Aacute" unicode="&#xc1;" horiz-adv-x="1255" 
d="M436 512h373l-152 410l-36 120l-37 -120zM137 -8q-68 0 -119 22l490 1301q47 12 118.5 12t118.5 -12l494 -1301q-61 -23 -131.5 -22.5t-110.5 8.5l-116 315h-516l-113 -315q-47 -8 -115 -8zM438 1384q-41 35 -47 95l375 260q100 -68 104 -201z" />
    <glyph glyph-name="Acircumflex" unicode="&#xc2;" horiz-adv-x="1255" 
d="M436 512h373l-152 410l-36 120l-37 -120zM137 -8q-68 0 -119 22l490 1301q47 12 118.5 12t118.5 -12l494 -1301q-61 -23 -131.5 -22.5t-110.5 8.5l-116 315h-516l-113 -315q-47 -8 -115 -8zM395 1403q-59 37 -71 108l235 193q72 18 141 0l238 -188q-14 -72 -74 -113
l-241 139z" />
    <glyph glyph-name="Atilde" unicode="&#xc3;" horiz-adv-x="1255" 
d="M436 512h373l-152 410l-36 120l-37 -120zM137 -8q-68 0 -119 22l490 1301q47 12 118.5 12t118.5 -12l494 -1301q-61 -23 -131.5 -22.5t-110.5 8.5l-116 315h-516l-113 -315q-47 -8 -115 -8zM471.5 1683q76.5 0 167 -38.5t117.5 -38.5q76 0 96 88q106 0 162 -56
q-20 -100 -87 -158.5t-139.5 -58.5t-165 37t-118.5 37q-81 0 -101 -86q-43 0 -91 15.5t-70 41.5q20 102 86.5 159.5t143 57.5z" />
    <glyph glyph-name="Adieresis" unicode="&#xc4;" horiz-adv-x="1255" 
d="M436 512h373l-152 410l-36 120l-37 -120zM137 -8q-68 0 -119 22l490 1301q47 12 118.5 12t118.5 -12l494 -1301q-61 -23 -131.5 -22.5t-110.5 8.5l-116 315h-516l-113 -315q-47 -8 -115 -8zM846 1434q-53 0 -92 37.5t-39 91t38 91.5t92 38t92 -38t38 -91.5t-38 -91
t-91 -37.5zM413 1434q-54 0 -92 37.5t-38 91t37.5 91.5t92 38t91.5 -38t37 -91.5t-37 -91t-91 -37.5z" />
    <glyph glyph-name="Aring" unicode="&#xc5;" horiz-adv-x="1255" 
d="M436 512h373l-152 410l-36 120l-37 -120zM137 -8q-68 0 -119 22l490 1301q47 12 118.5 12t118.5 -12l494 -1301q-61 -23 -131.5 -22.5t-110.5 8.5l-116 315h-516l-113 -315q-47 -8 -115 -8zM629 1655q-37 0 -59.5 -25.5t-22.5 -61.5t23.5 -61.5t58.5 -25.5t58.5 25.5
t23.5 61.5t-22.5 61.5t-59.5 25.5zM630 1348q-91 0 -155.5 64.5t-64.5 155.5t64.5 155.5t155.5 64.5t154.5 -64.5t63.5 -155.5t-63.5 -155.5t-154.5 -64.5z" />
    <glyph glyph-name="AE" unicode="&#xc6;" horiz-adv-x="1738" 
d="M860 682v317l6 127l-65 -129l-183 -315h242zM1659 108q0 -52 -12 -108h-787v483h-356l-281 -483q-49 -8 -116.5 -8t-124.5 22l745 1301h895q12 -53 12 -106.5t-12 -104.5h-528v-402h469q12 -49 12 -97t-12 -101h-469v-293h553q12 -51 12 -103z" />
    <glyph glyph-name="Ccedilla" unicode="&#xc7;" horiz-adv-x="1218" 
d="M936 -225q0 -104 -77 -148.5t-180.5 -44.5t-162.5 43q4 74 53 121q45 -29 95 -29q80 0 79 60q0 66 -133 69l47 123q-262 29 -418.5 217.5t-156.5 481t192.5 489.5t483.5 197q244 0 403 -123q-10 -53 -45 -105.5t-82 -76.5q-125 86 -272 86q-190 0 -310 -129t-120 -346.5
t118.5 -346.5t302 -129t302.5 99q100 -57 123 -183q-143 -123 -383 -133l-15 -43q156 -31 156 -149z" />
    <glyph glyph-name="Egrave" unicode="&#xc8;" horiz-adv-x="1118" 
d="M1036 107q0 -57 -14 -107h-860v1315h842q12 -49 12 -104.5t-12 -106.5h-611v-326h543q12 -53 12 -103t-12 -106h-543v-360h629q14 -45 14 -102zM821 1479q-10 -63 -49 -95l-430 154q0 131 104 201z" />
    <glyph glyph-name="Eacute" unicode="&#xc9;" horiz-adv-x="1118" 
d="M1036 107q0 -57 -14 -107h-860v1315h842q12 -49 12 -104.5t-12 -106.5h-611v-326h543q12 -53 12 -103t-12 -106h-543v-360h629q14 -45 14 -102zM412 1384q-41 35 -47 95l374 260q100 -68 105 -201z" />
    <glyph glyph-name="Ecircumflex" unicode="&#xca;" horiz-adv-x="1118" 
d="M1036 107q0 -57 -14 -107h-860v1315h842q12 -49 12 -104.5t-12 -106.5h-611v-326h543q12 -53 12 -103t-12 -106h-543v-360h629q14 -45 14 -102zM369 1403q-59 37 -72 108l235 193q70 18 142 0l237 -188q-14 -72 -73 -113l-242 139z" />
    <glyph glyph-name="Edieresis" unicode="&#xcb;" horiz-adv-x="1118" 
d="M1036 107q0 -57 -14 -107h-860v1315h842q12 -49 12 -104.5t-12 -106.5h-611v-326h543q12 -53 12 -103t-12 -106h-543v-360h629q14 -45 14 -102zM819 1434q-53 0 -92 37.5t-39 91t38 91.5t92 38t92 -38t38 -91.5t-38 -91t-91 -37.5zM386 1434q-54 0 -92 37.5t-38 91
t38 91.5t92 38t91 -38t37 -91.5t-37 -91t-91 -37.5z" />
    <glyph glyph-name="Igrave" unicode="&#xcc;" horiz-adv-x="555" 
d="M280.5 -12q-57.5 0 -118.5 12v1313q55 14 115 14t116 -14v-1313q-55 -12 -112.5 -12zM422 1393l-402 145q2 131 107 195l342 -250q-2 -53 -47 -90z" />
    <glyph glyph-name="Iacute" unicode="&#xcd;" horiz-adv-x="555" 
d="M280.5 -12q-57.5 0 -118.5 12v1313q55 14 115 14t116 -14v-1313q-55 -12 -112.5 -12zM104 1389q-45 37 -47 90l342 250q104 -63 107 -195z" />
    <glyph glyph-name="Icircumflex" unicode="&#xce;" horiz-adv-x="555" 
d="M280.5 -12q-57.5 0 -118.5 12v1313q55 14 115 14t116 -14v-1313q-55 -12 -112.5 -12zM346 1706l205 -203q-25 -68 -90 -102l-191 139l-176 -137q-72 29 -90 90l205 213q67 16 137 0z" />
    <glyph glyph-name="Idieresis" unicode="&#xcf;" horiz-adv-x="555" 
d="M280.5 -12q-57.5 0 -118.5 12v1313q55 14 115 14t116 -14v-1313q-55 -12 -112.5 -12zM448.5 1427q-53.5 0 -91.5 37t-38 91t37 91t91.5 37t92.5 -36.5t38 -91t-38 -91.5t-91.5 -37zM112 1427q-54 0 -92 37t-38 91t36.5 91t92 37t92.5 -36.5t37 -91t-37 -91.5t-91 -37z
" />
    <glyph glyph-name="Eth" unicode="&#xd0;" horiz-adv-x="1378" 
d="M569 193q227 0 350 128t123 341t-124.5 335.5t-366.5 122.5q-98 0 -158 -6v-369h215q12 -53 12 -84t-12 -92h-215v-370q80 -6 176 -6zM545 1337q358 0 553.5 -181t195.5 -490t-200.5 -497.5t-536.5 -188.5q-233 0 -397 24v565h-152q-14 47 -14 87t14 89h152v564
q180 28 385 28z" />
    <glyph glyph-name="Ntilde" unicode="&#xd1;" horiz-adv-x="1406" 
d="M1134 1325q53 0 111 -12v-1303q-92 -23 -215 -18l-608 872l-37 70l4 -82v-852q-61 -12 -112.5 -12t-114.5 12v1300q104 39 217 21l606 -872l37 -66l-4 92v838q63 12 116 12zM553.5 1683q76.5 0 167 -38.5t117.5 -38.5q76 0 96 88q106 0 162 -56q-20 -100 -87 -158.5
t-139.5 -58.5t-165 37t-118.5 37q-81 0 -101 -86q-43 0 -91 15.5t-70 41.5q20 102 86.5 159.5t143 57.5z" />
    <glyph glyph-name="Ograve" unicode="&#xd2;" horiz-adv-x="1507" 
d="M753.5 184q190.5 0 306.5 132q116 134 116 346t-115 343.5t-307.5 131.5t-307 -131.5t-114.5 -344.5t115.5 -345t306 -132zM754 -33q-293 0 -482.5 194.5t-189.5 496.5t189.5 499t483.5 197t482 -194t188 -496t-189 -499.5t-482 -197.5zM928 1384l-430 154q0 131 104 201
l375 -260q-10 -64 -49 -95z" />
    <glyph glyph-name="Oacute" unicode="&#xd3;" horiz-adv-x="1507" 
d="M753.5 184q190.5 0 306.5 132q116 134 116 346t-115 343.5t-307.5 131.5t-307 -131.5t-114.5 -344.5t115.5 -345t306 -132zM754 -33q-293 0 -482.5 194.5t-189.5 496.5t189.5 499t483.5 197t482 -194t188 -496t-189 -499.5t-482 -197.5zM569 1384q-41 35 -47 95l375 260
q100 -68 104 -201z" />
    <glyph glyph-name="Ocircumflex" unicode="&#xd4;" horiz-adv-x="1507" 
d="M753.5 184q190.5 0 306.5 132q116 134 116 346t-115 343.5t-307.5 131.5t-307 -131.5t-114.5 -344.5t115.5 -345t306 -132zM754 -33q-293 0 -482.5 194.5t-189.5 496.5t189.5 499t483.5 197t482 -194t188 -496t-189 -499.5t-482 -197.5zM524 1403q-59 37 -71 108l235 193
q70 18 141 0l238 -188q-14 -72 -74 -113l-241 139z" />
    <glyph glyph-name="Otilde" unicode="&#xd5;" horiz-adv-x="1507" 
d="M753.5 184q190.5 0 306.5 132.5t116 345t-115 344t-307.5 131.5t-307 -131.5t-114.5 -344.5t115.5 -345t306 -132zM754 -33q-293 0 -482.5 194.5t-189.5 496.5t189.5 499t483.5 197t482 -193.5t188 -496t-189 -500t-482 -197.5zM602.5 1683q76.5 0 167 -38.5t117.5 -38.5
q76 0 96 88q106 0 162 -56q-20 -100 -87 -158.5t-139.5 -58.5t-164.5 37t-119 37q-80 0 -100 -86q-43 0 -91.5 15.5t-70.5 41.5q20 102 86.5 159.5t143 57.5z" />
    <glyph glyph-name="Odieresis" unicode="&#xd6;" horiz-adv-x="1507" 
d="M753.5 184q190.5 0 306.5 132.5t116 345t-115 344t-307.5 131.5t-307 -131.5t-114.5 -344.5t115.5 -345t306 -132zM754 -33q-293 0 -482.5 194.5t-189.5 496.5t189.5 499t483.5 197t482 -193.5t188 -496t-189 -500t-482 -197.5zM977 1434q-53 0 -92 37.5t-39 91t38 91.5
t92 38t92 -38t38 -91.5t-38 -91t-91 -37.5zM544 1434q-54 0 -92 37.5t-38 91t37.5 91.5t92 38t91.5 -38t37 -91.5t-37 -91t-91 -37.5z" />
    <glyph glyph-name="multiply" unicode="&#xd7;" horiz-adv-x="958" 
d="M858 758l-258 -258l258 -258q-49 -74 -123 -121l-256 258l-256 -256q-78 51 -121 121l256 256l-256 256q49 76 121 121l256 -256l256 258q74 -47 123 -121z" />
    <glyph glyph-name="Oslash" unicode="&#xd8;" horiz-adv-x="1507" 
d="M1176 659q0 150 -58 261l-604 -664q104 -72 240 -72q190 0 306 132t116 343zM332 659q0 -145 57 -256l606 662q-100 72 -241 72q-193 0 -307.5 -131.5t-114.5 -346.5zM1425 641q0 -279 -189 -476.5t-482 -197.5q-225 0 -396 119l-141 -156q-102 31 -139 133l143 156
q-139 184 -139 440q0 301 189.5 498t482.5 197q229 0 397 -121l139 153q99 -30 140 -124l-144 -158q139 -184 139 -463z" />
    <glyph glyph-name="Ugrave" unicode="&#xd9;" horiz-adv-x="1376" 
d="M688 -35q-248 0 -395.5 144.5t-147.5 410.5v793q59 12 116.5 12t119.5 -12v-791q0 -156 81 -247t230.5 -91t230.5 91.5t81 246.5v791q57 12 114.5 12t114.5 -12v-789q0 -264 -148.5 -411.5t-396.5 -147.5zM866 1384l-430 154q0 131 105 201l374 -260q-10 -64 -49 -95z
" />
    <glyph glyph-name="Uacute" unicode="&#xda;" horiz-adv-x="1376" 
d="M688 -35q-248 0 -395.5 144.5t-147.5 410.5v793q59 12 116.5 12t119.5 -12v-791q0 -156 81 -247t230.5 -91t230.5 91.5t81 246.5v791q57 12 114.5 12t114.5 -12v-789q0 -264 -148.5 -411.5t-396.5 -147.5zM508 1384q-41 35 -47 95l375 260q100 -68 104 -201z" />
    <glyph glyph-name="Ucircumflex" unicode="&#xdb;" horiz-adv-x="1376" 
d="M688 -35q-248 0 -395.5 144.5t-147.5 410.5v793q59 12 116.5 12t119.5 -12v-791q0 -156 81 -247t230.5 -91t230.5 91.5t81 246.5v791q57 12 114.5 12t114.5 -12v-789q0 -264 -148.5 -411.5t-396.5 -147.5zM463 1403q-59 37 -72 108l236 193q70 18 141 0l238 -188
q-14 -72 -74 -113l-242 139z" />
    <glyph glyph-name="Udieresis" unicode="&#xdc;" horiz-adv-x="1376" 
d="M688 -35q-248 0 -395.5 144.5t-147.5 410.5v793q59 12 116.5 12t119.5 -12v-791q0 -156 81 -247t230.5 -91t230.5 91.5t81 246.5v791q57 12 114.5 12t114.5 -12v-789q0 -264 -148.5 -411.5t-396.5 -147.5zM915.5 1434q-53.5 0 -92.5 37.5t-39 91t38 91.5t92 38t92 -38
t38 -91.5t-37.5 -91t-91 -37.5zM482 1434q-54 0 -92 37.5t-38 91t38 91.5t92 38t91 -38t37 -91.5t-37 -91t-91 -37.5z" />
    <glyph glyph-name="Yacute" unicode="&#xdd;" horiz-adv-x="1222" 
d="M611.5 -12q-56.5 0 -117.5 12v506l-482 803q86 20 144.5 20t119.5 -8l306 -522l39 -86l38 86l299 522q43 8 103.5 8t142.5 -18l-477 -817v-494q-59 -12 -115.5 -12zM422 1384q-41 35 -47 95l375 260q100 -68 104 -201z" />
    <glyph glyph-name="Thorn" unicode="&#xde;" horiz-adv-x="1136" 
d="M557 414q143 0 212 68t69 180t-74 173.5t-213 61.5q-66 0 -154 -10v-465q64 -8 160 -8zM547 1098q268 0 400 -114t132 -318t-140 -329.5t-380 -125.5q-88 0 -162 6v-217q-57 -12 -115 -12t-120 12v1313q59 12 116.5 12t118.5 -12v-223q95 8 150 8z" />
    <glyph glyph-name="germandbls" unicode="&#xdf;" horiz-adv-x="1234" 
d="M819 -33q-109 0 -199 39t-131 84q8 51 39 93t72 61q102 -88 211 -88q135 0 135 108q0 49 -36 79t-108 58q-72 27 -108 45q-164 82 -164 248q0 141 100 216t234 75h4q0 100 -63 171t-183 71t-189 -71t-68 -208v-948q-47 -10 -115 -10t-117 10v958q0 217 141 342
q142 125 350 125q208 -1 340 -121t134 -341q-2 -111 -27 -172q-80 18 -158 18q-79 0 -117 -27q-38 -26 -38 -68t32 -68t130 -60q252 -90 251 -299q0 -147 -94 -233t-258 -87z" />
    <glyph glyph-name="agrave" unicode="&#xe0;" horiz-adv-x="1048" 
d="M299 295q0 -68 54.5 -108t157.5 -40t202 31v209q-92 39 -221 39q-193 0 -193 -131zM713 610q1 187 -253 187q-134 0 -251 -86q-90 45 -107 149q53 51 160 94t234 43q205 0 324.5 -98t119.5 -303v-530q-199 -96 -429 -96.5t-339 82.5t-109 231.5t114 229.5t296 79
q137 0 240 -37v55zM721 1151q-18 -63 -66 -92l-389 211q31 129 133 184z" />
    <glyph glyph-name="aacute" unicode="&#xe1;" horiz-adv-x="1048" 
d="M299 295q0 -68 54.5 -108t157.5 -40t202 31v209q-92 39 -221 39q-193 0 -193 -131zM713 610q1 187 -253 187q-134 0 -251 -86q-90 45 -107 149q53 51 160 94t234 43q205 0 324.5 -98t119.5 -303v-530q-199 -96 -429 -96.5t-339 82.5t-109 231.5t114 229.5t296 79
q137 0 240 -37v55zM350 1059q-51 35 -65 94l321 301q98 -53 133 -184z" />
    <glyph glyph-name="acircumflex" unicode="&#xe2;" horiz-adv-x="1048" 
d="M299 295q0 -68 54.5 -108t157.5 -40t202 31v209q-92 39 -221 39q-193 0 -193 -131zM713 610q1 187 -253 187q-134 0 -251 -86q-90 45 -107 149q53 51 160 94t234 43q205 0 324.5 -98t119.5 -303v-530q-199 -96 -429 -96.5t-339 82.5t-109 231.5t114 229.5t296 79
q137 0 240 -37v55zM303 1075q-74 27 -96 103l233 241q72 14 142 0l227 -233q-23 -80 -98 -113l-207 164z" />
    <glyph glyph-name="atilde" unicode="&#xe3;" horiz-adv-x="1048" 
d="M299 295q0 -68 54.5 -108t157.5 -40t202 31v209q-92 39 -221 39q-193 0 -193 -131zM713 610q1 187 -253 187q-134 0 -251 -86q-90 45 -107 149q53 51 160 94t234 43q205 0 324.5 -98t119.5 -303v-530q-199 -96 -429 -96.5t-339 82.5t-109 231.5t114 229.5t296 79
q137 0 240 -37v55zM633 1317q70 0 96 86q96 0 162 -55q-23 -100 -88.5 -157.5t-137 -57.5t-158.5 38.5t-114 38.5q-71 0 -98 -92q-43 0 -92 15.5t-72 42.5q20 102 87 161.5t140.5 58.5t159.5 -40t115 -39z" />
    <glyph glyph-name="adieresis" unicode="&#xe4;" horiz-adv-x="1048" 
d="M299 295q0 -68 54.5 -108t157.5 -40t202 31v209q-92 39 -221 39q-193 0 -193 -131zM713 610q1 187 -253 187q-134 0 -251 -86q-90 45 -107 149q53 51 160 94t234 43q205 0 324.5 -98t119.5 -303v-530q-199 -96 -429 -96.5t-339 82.5t-109 231.5t114 229.5t296 79
q137 0 240 -37v55zM723 1116q-53 0 -92 38t-39 92t38 92t92 38t93 -38t39 -92t-39 -92t-92 -38zM296 1116q-54 0 -93 38t-39 92t38 92t93 38t93 -38t38 -92t-38 -92t-92 -38z" />
    <glyph glyph-name="aring" unicode="&#xe5;" horiz-adv-x="1048" 
d="M299 295q0 -68 54.5 -108t157.5 -40t202 31v209q-92 39 -221 39q-193 0 -193 -131zM713 610q1 187 -253 187q-134 0 -251 -86q-90 45 -107 149q53 51 160 94t234 43q205 0 324.5 -98t119.5 -303v-530q-199 -96 -429 -96.5t-339 82.5t-109 231.5t114 229.5t296 79
q137 0 240 -37v55zM511 1346q-36 0 -60.5 -27t-24.5 -63t24.5 -61.5t60.5 -25.5t60.5 26t24.5 61.5t-24.5 62.5t-60.5 27zM511 1036q-91 0 -156.5 64.5t-65.5 155.5t65.5 156t156.5 65t155.5 -64.5t64.5 -156t-64.5 -156t-155.5 -64.5z" />
    <glyph glyph-name="ae" unicode="&#xe6;" horiz-adv-x="1640" 
d="M465 152q86 0 153.5 67.5t67.5 200.5l-203 -2q-188 0 -188 -133q0 -61 42 -97t128 -36zM1335 582q0 90 -44 156.5t-141 66.5t-157.5 -66.5t-70.5 -156.5h413zM686 629q0 166 -246 166q-126 0 -243 -86q-78 57 -99 157q53 49 155.5 90t221.5 41q274 0 354 -182
q49 84 139.5 133t192.5 49q184 0 292 -124.5t106 -329.5q0 -63 -7 -123h-628v-2q6 -113 76.5 -182.5t179.5 -69.5q61 0 118.5 18.5t84 33.5t69.5 46q82 -55 98 -166q-168 -129 -383 -129q-274 0 -385 211q-118 -211 -370 -211q-158 0 -252 82t-94 226.5t109.5 224.5
t289.5 80h221v47z" />
    <glyph glyph-name="ccedilla" unicode="&#xe7;" horiz-adv-x="980" 
d="M774 -225q0 -104 -76.5 -148.5t-180.5 -44.5t-163 43q4 74 54 121q45 -29 94 -29q80 0 80 60q0 66 -133 69l49 129q-195 27 -308.5 160t-113.5 355t145.5 365.5t368.5 143.5q100 0 189 -32.5t139 -77.5q-27 -106 -125 -166q-90 76 -213 76t-196 -90.5t-73 -224.5t72 -224
t201 -90t225 82q92 -47 123 -158q-113 -109 -297 -123l-17 -47q156 -31 156 -149z" />
    <glyph glyph-name="egrave" unicode="&#xe8;" horiz-adv-x="1083" 
d="M780 575q0 96 -53 164t-160.5 69t-173.5 -64t-78 -169h465zM1008 559q0 -66 -9 -137h-686q14 -121 86 -189.5t205 -68.5t275 100q86 -55 100 -158q-172 -137 -398.5 -137t-365.5 138.5t-139 367.5t139 375.5t342 146.5t327 -121.5t124 -316.5zM766 1151q-18 -63 -66 -92
l-389 211q31 129 133 184z" />
    <glyph glyph-name="eacute" unicode="&#xe9;" horiz-adv-x="1083" 
d="M780 575q0 96 -53 164t-160.5 69t-173.5 -64t-78 -169h465zM1008 559q0 -66 -9 -137h-686q14 -121 86 -189.5t205 -68.5t275 100q86 -55 100 -158q-172 -137 -398.5 -137t-365.5 138.5t-139 367.5t139 375.5t342 146.5t327 -121.5t124 -316.5zM395 1059q-51 35 -65 94
l321 301q98 -53 133 -184z" />
    <glyph glyph-name="ecircumflex" unicode="&#xea;" horiz-adv-x="1083" 
d="M780 575q0 96 -53 164t-160.5 69t-173.5 -64t-78 -169h465zM1008 559q0 -66 -9 -137h-686q14 -121 86 -189.5t205 -68.5t275 100q86 -55 100 -158q-172 -137 -398.5 -137t-365.5 138.5t-139 367.5t139 375.5t342 146.5t327 -121.5t124 -316.5zM346 1075q-74 27 -96 103
l233 241q70 14 142 0l227 -233q-23 -80 -98 -113l-207 164z" />
    <glyph glyph-name="edieresis" unicode="&#xeb;" horiz-adv-x="1083" 
d="M780 575q0 96 -53 164t-160.5 69t-173.5 -64t-78 -169h465zM1008 559q0 -66 -9 -137h-686q14 -121 86 -189.5t205 -68.5t275 100q86 -55 100 -158q-172 -137 -398.5 -137t-365.5 138.5t-139 367.5t139 375.5t342 146.5t327 -121.5t124 -316.5zM768 1116q-53 0 -92 38
t-39 92t38 92t92 38t93 -38t39 -92t-39 -92t-92 -38zM341 1116q-54 0 -93 38t-39 92t38 92t93 38t93 -38t38 -92t-38 -92t-92 -38z" />
    <glyph glyph-name="igrave" unicode="&#xec;" horiz-adv-x="501" 
d="M251.5 -10q-67.5 0 -116.5 10v969q49 10 116.5 10t115.5 -10v-969q-48 -10 -115.5 -10zM381 1061l-377 231q31 131 148 183l299 -326q-15 -61 -70 -88z" />
    <glyph glyph-name="iacute" unicode="&#xed;" horiz-adv-x="501" 
d="M251.5 -10q-67.5 0 -116.5 10v969q49 10 116.5 10t115.5 -10v-969q-48 -10 -115.5 -10zM129 1057q-53 25 -72 84l287 336q121 -45 156 -177z" />
    <glyph glyph-name="icircumflex" unicode="&#xee;" horiz-adv-x="501" 
d="M251.5 -10q-67.5 0 -116.5 10v969q49 10 116.5 10t115.5 -10v-969q-48 -10 -115.5 -10zM299 1419l207 -241q-18 -61 -92 -93l-174 140l-170 -140q-70 23 -93 93l211 241q56 12 111 0z" />
    <glyph glyph-name="idieresis" unicode="&#xef;" horiz-adv-x="503" 
d="M251.5 -10q-67.5 0 -116.5 10v969q49 10 116.5 10t115.5 -10v-969q-48 -10 -115.5 -10zM415.5 1116q-53.5 0 -91 37t-37.5 91t37.5 91t91 37t91.5 -37t38 -91t-38 -91t-91.5 -37zM65 1116q-54 0 -92.5 37t-38.5 91t38 91t92.5 37t92.5 -37t38 -91t-38 -91t-92 -37z" />
    <glyph glyph-name="eth" unicode="&#xf0;" horiz-adv-x="1120" 
d="M554 707q-110 0 -176 -72t-67 -197q-1 -124 65 -198t181 -74t178 77t63 199t-67 193q-67 72 -177 72zM1036 475q0 -225 -133 -365t-350 -140t-346 125q-129 126 -129 333t135 337t332 130q109 0 209 -45q-76 137 -232 221l-135 -121q-33 18 -51 45q-23 27 -35 56l88 77
q-76 25 -156 43q-10 135 72 205q154 -37 262 -90l123 111q23 -14 49 -41q27 -35 37 -60l-88 -79q348 -236 348 -742z" />
    <glyph glyph-name="ntilde" unicode="&#xf1;" horiz-adv-x="1163" 
d="M592 999q223 0 336.5 -112.5t113.5 -290.5v-596q-49 -10 -115.5 -10t-117.5 10v541q0 246 -236 245q-125 0 -215 -53v-733q-47 -10 -114.5 -10t-116.5 10v846q74 61 198 107t267 46zM698 1317q70 0 97 86q96 0 161 -55q-23 -100 -88 -157.5t-136.5 -57.5t-159 38.5
t-113.5 38.5q-72 0 -99 -92q-43 0 -92 15.5t-71 42.5q20 102 86.5 161.5t140 58.5t160 -40t114.5 -39z" />
    <glyph glyph-name="ograve" unicode="&#xf2;" horiz-adv-x="1179" 
d="M590 172q129 0 204.5 86t75.5 226t-75.5 227.5t-204.5 87.5t-205 -87q-76 -88 -76 -228t76 -226t205 -86zM585.5 -31q-225.5 0 -367.5 143.5t-142 369.5t146.5 371.5t371.5 145.5q226 0 368 -144q142 -143 142 -369t-146.5 -371.5t-372 -145.5zM735 1059l-389 211
q31 129 133 184l322 -303q-19 -63 -66 -92z" />
    <glyph glyph-name="oacute" unicode="&#xf3;" horiz-adv-x="1179" 
d="M590 172q129 0 204.5 86t75.5 226t-75.5 227.5t-204.5 87.5t-205 -87q-76 -88 -76 -228t76 -226t205 -86zM585.5 -31q-225.5 0 -367.5 143.5t-142 369.5t146.5 371.5t371.5 145.5q226 0 368 -144q142 -143 142 -369t-146.5 -371.5t-372 -145.5zM430 1059q-51 35 -65 94
l321 301q98 -53 133 -184z" />
    <glyph glyph-name="ocircumflex" unicode="&#xf4;" horiz-adv-x="1179" 
d="M590 172q129 0 204.5 86t75.5 226t-75.5 227.5t-204.5 87.5t-205 -87q-76 -88 -76 -228t76 -226t205 -86zM585.5 -31q-225.5 0 -367.5 143.5t-142 369.5t146.5 371.5t371.5 145.5q226 0 368 -144q142 -143 142 -369t-146.5 -371.5t-372 -145.5zM662 1419l227 -233
q-23 -80 -98 -113l-207 164l-201 -162q-74 27 -96 103l233 241q70 14 142 0z" />
    <glyph glyph-name="otilde" unicode="&#xf5;" horiz-adv-x="1179" 
d="M590 172q129 0 204.5 86t75.5 226t-75.5 227.5t-204.5 87.5t-205 -87t-76 -227.5t76 -226.5t205 -86zM585.5 -31q-225.5 0 -367.5 143.5t-142 369.5t146.5 371.5t371.5 145.5t367.5 -144t142.5 -369.5t-146.5 -371t-372 -145.5zM713 1317q70 0 96 86q96 0 162 -55
q-23 -100 -88.5 -157.5t-137 -57.5t-158.5 38.5t-114 38.5q-71 0 -98 -92q-43 0 -92.5 15.5t-71.5 42.5q20 102 87 161.5t140.5 58.5t159.5 -40t115 -39z" />
    <glyph glyph-name="odieresis" unicode="&#xf6;" horiz-adv-x="1179" 
d="M590 172q129 0 204.5 86t75.5 226t-75.5 227.5t-204.5 87.5t-205 -87t-76 -227.5t76 -226.5t205 -86zM585.5 -31q-225.5 0 -367.5 143.5t-142 369.5t146.5 371.5t371.5 145.5t367.5 -144t142.5 -369.5t-146.5 -371t-372 -145.5zM803 1116q-53 0 -92 38t-39 92t38 92
t92 38t93 -38t39 -92t-39 -92t-92 -38zM376 1116q-54 0 -93 38t-39 92t37.5 92t93 38t93.5 -38t38 -92t-38 -92t-92 -38z" />
    <glyph glyph-name="divide" unicode="&#xf7;" horiz-adv-x="1056" 
d="M528 20q-59 0 -102 43t-43 103t43 101q43 42 102 42q58 0 102 -42t44 -101t-43 -103q-44 -43 -103 -43zM88 488q0 36 10 81h860q19 -86 0 -163h-860q-10 46 -10 82zM528 668q-59 0 -102 42t-43 101t43 102t102 43q58 0 102 -43t44 -102t-44 -101t-102 -42z" />
    <glyph glyph-name="oslash" unicode="&#xf8;" horiz-adv-x="1183" 
d="M592 172q129 0 204.5 86t75.5 204.5t-36 192.5l-398 -442q66 -41 154 -41zM311 483q0 -98 37 -170l400 443q-70 43 -156 43q-129 0 -205 -87.5t-76 -228.5zM1106 473q0 -213 -146.5 -358.5t-371.5 -145.5q-166 0 -293 84l-105 -116q-70 27 -96 96l99 110
q-115 141 -115 353t147.5 357.5t370.5 145.5q170 0 295 -86l102 113q72 -23 97 -88l-101 -113q117 -139 117 -352z" />
    <glyph glyph-name="ugrave" unicode="&#xf9;" horiz-adv-x="1150" 
d="M905.5 973q67.5 0 116.5 -10v-891q-212 -102 -448 -102t-344.5 101t-108.5 283v609q51 10 118.5 10t114.5 -10v-541q0 -127 49.5 -186.5t172.5 -59.5t212 37v750q50 10 117.5 10zM786 1151q-18 -63 -65 -92l-389 211q31 129 133 184z" />
    <glyph glyph-name="uacute" unicode="&#xfa;" horiz-adv-x="1150" 
d="M905.5 973q67.5 0 116.5 -10v-891q-212 -102 -448 -102t-344.5 101t-108.5 283v609q51 10 118.5 10t114.5 -10v-541q0 -127 49.5 -186.5t172.5 -59.5t212 37v750q50 10 117.5 10zM416 1059q-51 35 -66 94l322 301q98 -53 133 -184z" />
    <glyph glyph-name="ucircumflex" unicode="&#xfb;" horiz-adv-x="1150" 
d="M905.5 973q67.5 0 116.5 -10v-891q-212 -102 -448 -102t-344.5 101t-108.5 283v609q51 10 118.5 10t114.5 -10v-541q0 -127 49.5 -186.5t172.5 -59.5t212 37v750q50 10 117.5 10zM367 1075q-74 27 -97 103l234 241q70 14 141 0l227 -233q-23 -80 -98 -113l-207 164z" />
    <glyph glyph-name="udieresis" unicode="&#xfc;" horiz-adv-x="1150" 
d="M905.5 973q67.5 0 116.5 -10v-891q-213 -102 -448.5 -102.5t-344 101t-108.5 283.5v609q51 10 118.5 10t114.5 -10v-541q0 -127 49.5 -186.5t172.5 -59.5t212 37v750q50 10 117.5 10zM788.5 1116q-53.5 0 -92.5 38t-39 92t38 92t92 38t93.5 -38t39.5 -92t-39 -92
t-92.5 -38zM361 1116q-54 0 -93 38t-39 92t38 92t93 38t93.5 -38t38.5 -92t-38.5 -92t-92.5 -38z" />
    <glyph glyph-name="yacute" unicode="&#xfd;" horiz-adv-x="1058" 
d="M899.5 975q55.5 0 124.5 -25q-92 -465 -263 -789.5t-466 -588.5q-104 29 -148 152q182 176 263 301q-246 397 -375 929q101 33 254 13q82 -381 243 -721q12 -29 17 -41q11 34 16 41q131 272 221 721q58 8 113.5 8zM383 1059q-51 35 -66 94l322 301q98 -53 133 -184z" />
    <glyph glyph-name="thorn" unicode="&#xfe;" horiz-adv-x="1163" 
d="M567 176q123 0 205 83t82 223t-81 221t-199 81t-209 -36v-533q79 -39 202 -39zM569 997q229 0 373 -132q144 -131 145 -369t-149 -382t-371 -145q-117 0 -202 31v-379q-47 -10 -115 -10t-117 10v1722q122 25 232 0v-380q104 34 204 34z" />
    <glyph glyph-name="ydieresis" unicode="&#xff;" horiz-adv-x="1058" 
d="M899.5 975q55.5 0 124.5 -25q-92 -465 -263 -789.5t-466 -588.5q-104 29 -148 152q182 176 263 301q-246 397 -375 929q101 33 254 13q82 -381 243 -721q12 -29 17 -41q11 34 16 41q131 272 221 721q58 8 113.5 8zM755.5 1116q-53.5 0 -92 38t-38.5 92t37.5 92t92 38
t93.5 -38t39 -92t-39 -92t-92.5 -38zM329 1116q-54 0 -93 38t-39 92t37.5 92t93 38t93.5 -38t38 -92t-38 -92t-92 -38z" />
    <glyph glyph-name="Amacron" unicode="&#x100;" horiz-adv-x="1255" 
d="M436 512h373l-152 410l-36 120l-37 -120zM137 -8q-68 0 -119 22l490 1301q47 12 118.5 12t118.5 -12l494 -1301q-61 -23 -131.5 -22.5t-110.5 8.5l-116 315h-516l-113 -315q-47 -8 -115 -8zM936 1556q0 -45 -12 -86h-592q-12 53 -12.5 83t12.5 87h592q12 -39 12 -84z" />
    <glyph glyph-name="amacron" unicode="&#x101;" horiz-adv-x="1048" 
d="M299 295q0 -68 54.5 -108t157.5 -40t202 31v209q-92 39 -221 39q-193 0 -193 -131zM713 610q1 187 -253 187q-134 0 -251 -86q-90 45 -107 149q53 51 160 94t234 43q205 0 324.5 -98t119.5 -303v-530q-199 -96 -429 -96.5t-339 82.5t-109 231.5t114 229.5t296 79
q137 0 240 -37v55zM209 1249q0 55 12 90h580q10 -47 10 -90t-10 -90h-580q-12 35 -12 90z" />
    <glyph glyph-name="Abreve" unicode="&#x102;" horiz-adv-x="1255" 
d="M436 512h373l-152 410l-36 120l-37 -120zM137 -8q-68 0 -119 22l490 1301q47 12 118.5 12t118.5 -12l494 -1301q-61 -23 -131.5 -22.5t-110.5 8.5l-116 315h-516l-113 -315q-47 -8 -115 -8zM629 1405q-145 0 -230.5 82t-85.5 196q66 27 150 17q31 -123 172 -123
q63 0 109.5 31.5t54.5 91.5q84 10 145 -17q0 -111 -85 -194.5t-230 -83.5z" />
    <glyph glyph-name="abreve" unicode="&#x103;" horiz-adv-x="1048" 
d="M299 295q0 -68 54.5 -108t157.5 -40t202 31v209q-92 39 -221 39q-193 0 -193 -131zM713 610q1 187 -253 187q-134 0 -251 -86q-90 45 -107 149q53 51 160 94t234 43q205 0 324.5 -98t119.5 -303v-530q-199 -96 -429 -96.5t-339 82.5t-109 231.5t114 229.5t296 79
q137 0 240 -37v55zM511 1083q-155 0 -238 91.5t-83 214.5q68 29 156 18q29 -158 170 -158q72 0 113 42t49 116q94 10 153 -18q0 -121 -82.5 -213.5t-237.5 -92.5z" />
    <glyph glyph-name="Aogonek" unicode="&#x104;" horiz-adv-x="1255" 
d="M436 512h373l-152 410l-36 120l-37 -120zM1100 -414q-86 0 -144.5 48.5t-58.5 129.5q0 121 131 232q-10 0 -31 4l-116 315h-516l-113 -315q-47 -8 -115 -8t-119 22l490 1301q47 12 119 12t118 -12l494 -1301q-154 -88 -154 -182q0 -70 70 -70q54 0 105 41q76 -51 75 -133
q-88 -84 -235 -84z" />
    <glyph glyph-name="aogonek" unicode="&#x105;" horiz-adv-x="1048" 
d="M299 295q0 -68 54.5 -108t157.5 -40t202 31v209q-92 39 -221 39q-193 0 -193 -131zM713 610q1 187 -253 187q-134 0 -251 -86q-90 45 -107 149q53 51 160 94t234 43q205 0 324.5 -98t119.5 -303v-530q-74 -57 -123 -121t-49 -111q0 -68 72 -67q45 -1 102 40
q76 -51 76 -133q-88 -84 -236 -84q-86 0 -144 48.5t-58 125.5q0 113 110 224q-96 -18 -198 -19q-211 0 -320 83t-109 231.5t114 229.5t296 79q137 0 240 -37v55z" />
    <glyph glyph-name="Cacute" unicode="&#x106;" horiz-adv-x="1218" 
d="M731.5 -35q-285.5 0 -467.5 192.5t-182 497.5t192.5 502t483.5 197q244 0 403 -123q-10 -53 -45 -105.5t-82 -76.5q-125 86 -272 86q-190 0 -310 -129t-120 -346.5t118.5 -346.5t302 -129t302.5 99q100 -57 123 -183q-161 -135 -446.5 -135zM532 1384q-41 35 -47 95
l375 260q100 -68 105 -201z" />
    <glyph glyph-name="cacute" unicode="&#x107;" horiz-adv-x="980" 
d="M579.5 -31q-223.5 0 -363.5 136.5t-140 371.5t145.5 378.5t368.5 143.5q100 0 189 -32.5t139 -77.5q-27 -106 -125 -166q-90 76 -213 76t-196 -90.5t-73 -224.5t72 -224t201 -90t225 82q92 -47 123 -158q-129 -125 -352.5 -125zM406 1059q-51 35 -66 94l322 301
q98 -53 133 -184z" />
    <glyph glyph-name="Cdotaccent" unicode="&#x10a;" horiz-adv-x="1218" 
d="M731.5 -35q-285.5 0 -467.5 192.5t-182 497.5t192.5 502t483.5 197q244 0 403 -123q-10 -53 -45 -105.5t-82 -76.5q-125 86 -272 86q-190 0 -310 -129t-120 -346.5t118.5 -346.5t302 -129t302.5 99q100 -57 123 -183q-161 -135 -446.5 -135zM722 1417q-60 0 -103.5 42
t-43.5 103.5t43.5 103.5t103.5 42t103 -42t43 -103.5t-43 -103.5t-103 -42z" />
    <glyph glyph-name="cdotaccent" unicode="&#x10b;" horiz-adv-x="980" 
d="M579.5 -31q-223.5 0 -363.5 136.5t-140 371.5t145.5 378.5t368.5 143.5q100 0 189 -32.5t139 -77.5q-27 -106 -125 -166q-90 76 -213 76t-196 -90.5t-73 -224.5t72 -224t201 -90t225 82q92 -47 123 -158q-129 -125 -352.5 -125zM563 1114q-61 0 -105 43t-44 104.5
t44 104.5t105 43t105.5 -43t44.5 -104.5t-44.5 -104.5t-105.5 -43z" />
    <glyph glyph-name="Ccaron" unicode="&#x10c;" horiz-adv-x="1218" 
d="M731.5 -35q-285.5 0 -467.5 192.5t-182 497.5t192.5 502t483.5 197q244 0 403 -123q-10 -53 -45 -105.5t-82 -76.5q-125 86 -272 86q-190 0 -310 -129t-120 -346.5t118.5 -346.5t302 -129t302.5 99q100 -57 123 -183q-161 -135 -446.5 -135zM653 1417l-237 191
q14 72 73 110l242 -139l227 139q59 -33 72 -106l-235 -195q-70 -18 -142 0z" />
    <glyph glyph-name="ccaron" unicode="&#x10d;" horiz-adv-x="980" 
d="M579.5 -31q-223.5 0 -363.5 136.5t-140 371.5t145.5 378.5t368.5 143.5q100 0 189 -32.5t139 -77.5q-27 -106 -125 -166q-90 76 -213 76t-196 -90.5t-73 -224.5t72 -224t201 -90t225 82q92 -47 123 -158q-129 -125 -352.5 -125zM487 1087l-223 234q18 82 96 113l203 -162
l207 162q72 -27 96 -105l-237 -242q-72 -14 -142 0z" />
    <glyph glyph-name="Dcaron" unicode="&#x10e;" horiz-adv-x="1378" 
d="M569 193q227 0 350 128t123 341t-124.5 335.5t-366.5 122.5q-98 0 -158 -6v-915q80 -6 176 -6zM545 1337q358 0 553.5 -181t195.5 -490t-200.5 -497.5t-536.5 -188.5q-233 0 -397 24v1305q180 28 385 28zM700 1417q-70 -18 -141 0l-237 191q14 72 73 110l242 -139
l227 139q59 -33 72 -106z" />
    <glyph glyph-name="dcaron" unicode="&#x10f;" horiz-adv-x="1169" 
d="M607 791q-126 0 -211 -85t-85 -225.5t82 -224.5t215 -84q100 -2 193 31v545q-68 43 -194 43zM915.5 1356q67.5 0 116.5 -10v-1280q-182 -96 -423 -96.5t-387 133t-146 370.5t151.5 379.5t376.5 142.5q117 0 197 -30v381q47 10 114.5 10zM1360 1345.5q0 -69.5 -39 -156.5
t-100 -142q-59 4 -86 49q41 86 41 193.5t-25 164.5q37 23 100.5 22.5t98.5 -20.5q10 -41 10 -110.5z" />
    <glyph glyph-name="Dcroat" unicode="&#x110;" horiz-adv-x="1378" 
d="M569 193q227 0 350 128t123 341t-124.5 335.5t-366.5 122.5q-98 0 -158 -6v-369h215q12 -53 12 -84t-12 -92h-215v-370q80 -6 176 -6zM545 1337q358 0 553.5 -181t195.5 -490t-200.5 -497.5t-536.5 -188.5q-233 0 -397 24v565h-152q-14 47 -14 87t14 89h152v564
q180 28 385 28z" />
    <glyph glyph-name="dcroat" unicode="&#x111;" horiz-adv-x="1161" 
d="M607 791q-126 0 -211 -85t-85 -225.5t82 -224.5t215 -84q100 -2 193 31v545q-68 43 -194 43zM1206 1180q0 -41 -12 -78h-162v-1036q-182 -96 -423 -96.5t-387 133t-146 370.5t151.5 379.5t376.5 142.5q117 0 197 -30v137h-168q-12 33 -12 74t12 81h168v89q47 10 114.5 10
t116.5 -10v-89h162q12 -36 12 -77z" />
    <glyph glyph-name="Emacron" unicode="&#x112;" horiz-adv-x="1118" 
d="M1036 107q0 -57 -14 -107h-860v1315h842q12 -49 12 -104.5t-12 -106.5h-611v-326h543q12 -53 12 -103t-12 -106h-543v-360h629q14 -45 14 -102zM293 1553q0 30 12 87h592q12 -39 12 -84t-12 -86h-592q-12 53 -12 83z" />
    <glyph glyph-name="emacron" unicode="&#x113;" horiz-adv-x="1083" 
d="M780 575q0 96 -53 164t-160.5 69t-173.5 -64t-78 -169h465zM1008 559q0 -66 -9 -137h-686q14 -121 86 -189.5t205 -68.5t275 100q86 -55 100 -158q-172 -137 -398.5 -137t-365.5 138.5t-139 367.5t139 375.5t342 146.5t327 -121.5t124 -316.5zM252 1249q0 55 12 90h580
q10 -47 10 -90t-10 -90h-580q-12 35 -12 90z" />
    <glyph glyph-name="Edotaccent" unicode="&#x116;" horiz-adv-x="1118" 
d="M1036 107q0 -57 -14 -107h-860v1315h842q12 -49 12 -104.5t-12 -106.5h-611v-326h543q12 -53 12 -103t-12 -106h-543v-360h629q14 -45 14 -102zM603 1417q-60 0 -103 42t-43 103.5t43 103.5t103 42t103.5 -42t43.5 -103.5t-43.5 -103.5t-103.5 -42z" />
    <glyph glyph-name="edotaccent" unicode="&#x117;" horiz-adv-x="1083" 
d="M780 575q0 96 -53 164t-160.5 69t-173.5 -64t-78 -169h465zM1008 559q0 -66 -9 -137h-686q14 -121 86 -189.5t205 -68.5t275 100q86 -55 100 -158q-172 -137 -398.5 -137t-365.5 138.5t-139 367.5t139 375.5t342 146.5t327 -121.5t124 -316.5zM553 1114q-61 0 -105.5 43
t-44.5 104.5t44.5 104.5t105.5 43t105 -43t44 -104.5t-44 -104.5t-105 -43z" />
    <glyph glyph-name="Eogonek" unicode="&#x118;" horiz-adv-x="1118" 
d="M1022 0q-131 -98 -131 -167t83 -69q42 0 91 39q76 -47 76 -131q-84 -84 -221 -84q-94 0 -156 47.5t-62 128.5q0 143 142 236h-682v1315h842q12 -49 12 -104.5t-12 -106.5h-611v-326h543q12 -53 12 -103t-12 -106h-543v-360h629q14 -45 14 -102t-14 -107z" />
    <glyph glyph-name="eogonek" unicode="&#x119;" horiz-adv-x="1083" 
d="M780 575q0 96 -53 164t-160.5 69t-173.5 -64t-78 -169h465zM1008 559q0 -66 -9 -137h-686q14 -121 86 -189.5t205 -68.5t275 100q86 -55 100 -158q-27 -23 -59 -40q-170 -135 -170 -232q0 -68 71 -67q47 0 103 40q76 -51 75 -133q-88 -84 -235 -84q-86 0 -144.5 48.5
t-58.5 138t98 196.5q-53 -4 -84 -4q-221 0 -360 138.5t-139 367.5t139 375.5t342 146.5t327 -121.5t124 -316.5z" />
    <glyph glyph-name="Ecaron" unicode="&#x11a;" horiz-adv-x="1118" 
d="M1036 107q0 -57 -14 -107h-860v1315h842q12 -49 12 -104.5t-12 -106.5h-611v-326h543q12 -53 12 -103t-12 -106h-543v-360h629q14 -45 14 -102zM676 1417q-70 -18 -141 0l-238 191q14 72 74 110l241 -139l228 139q59 -33 71 -106z" />
    <glyph glyph-name="ecaron" unicode="&#x11b;" horiz-adv-x="1083" 
d="M780 575q0 96 -53 164t-160.5 69t-173.5 -64t-78 -169h465zM1008 559q0 -66 -9 -137h-686q14 -121 86 -189.5t205 -68.5t275 100q86 -55 100 -158q-172 -137 -398.5 -137t-365.5 138.5t-139 367.5t139 375.5t342 146.5t327 -121.5t124 -316.5zM618 1087q-70 -14 -141 0
l-223 234q18 82 96 113l203 -162l207 162q72 -27 96 -105z" />
    <glyph glyph-name="Gbreve" unicode="&#x11e;" horiz-adv-x="1335" 
d="M1227 721v-653q-197 -102 -459 -103q-305 0 -494.5 186.5t-189.5 502t194.5 508t476 192.5t445.5 -115q-20 -135 -121 -195q-133 88 -317 88.5t-306 -126.5t-122 -348.5t110.5 -348.5t325.5 -127q131 0 227 31v291h-247q-12 57 -12 109.5t12 107.5h477zM727 1405
q-145 0 -230 82t-85 196q66 27 149 17q31 -123 172 -123q63 0 109.5 31.5t54.5 91.5q84 10 145 -17q0 -111 -85 -194.5t-230 -83.5z" />
    <glyph glyph-name="gbreve" unicode="&#x11f;" horiz-adv-x="1146" 
d="M590.5 213q115.5 0 195.5 45v496q-80 43 -194.5 43t-198.5 -82t-84 -214t83 -210t198.5 -78zM610.5 999q233.5 0 409.5 -133v-825q0 -207 -135 -328t-350 -121q-293 0 -451 175q12 47 47 90t88 61q115 -133 307 -133q131 0 195.5 62.5t64.5 166.5v45q-90 -39 -200 -39
q-219 0 -365.5 128t-146.5 350.5t151.5 361.5t385 139zM591 1083q-155 0 -238 91.5t-83 214.5q68 29 156 18q29 -158 170 -158q72 0 113 42t49 116q94 10 153 -18q0 -121 -82.5 -213.5t-237.5 -92.5z" />
    <glyph glyph-name="Gdotaccent" unicode="&#x120;" horiz-adv-x="1335" 
d="M1227 721v-653q-197 -102 -459 -103q-305 0 -494.5 186.5t-189.5 502t194.5 508t476 192.5t445.5 -115q-20 -135 -121 -195q-133 88 -317 88.5t-306 -126.5t-122 -348.5t110.5 -348.5t325.5 -127q131 0 227 31v291h-247q-12 57 -12 109.5t12 107.5h477zM726 1417
q-60 0 -103 42t-43 103.5t43 103.5t103 42t103 -42t43 -103.5t-43 -103.5t-103 -42z" />
    <glyph glyph-name="gdotaccent" unicode="&#x121;" horiz-adv-x="1146" 
d="M590.5 213q115.5 0 195.5 45v496q-80 43 -194.5 43t-198.5 -82t-84 -214t83 -210t198.5 -78zM610.5 999q233.5 0 409.5 -133v-825q0 -207 -135 -328t-350 -121q-293 0 -451 175q12 47 47 90t88 61q115 -133 307 -133q131 0 195.5 62.5t64.5 166.5v45q-90 -39 -200 -39
q-219 0 -365.5 128t-146.5 350.5t151.5 361.5t385 139zM588 1114q-61 0 -105.5 43t-44.5 104.5t44 104.5t105.5 43t105.5 -43t44 -104.5t-44 -104.5t-105 -43z" />
    <glyph glyph-name="Gcommaaccent" unicode="&#x122;" horiz-adv-x="1335" 
d="M745 -76q58 0 99 -18q6 -41 6 -76q0 -88 -43 -166t-121 -125q-57 8 -82 62q57 74 58 186q0 59 -21 117q46 20 104 20zM1227 721v-653q-197 -102 -459 -103q-305 0 -494.5 186.5t-189.5 502t194.5 508t476 192.5t445.5 -115q-20 -135 -121 -195q-133 88 -317 88.5
t-306 -126.5t-122 -348.5t110.5 -348.5t325.5 -127q131 0 227 31v291h-247q-12 57 -12 109.5t12 107.5h477z" />
    <glyph glyph-name="gcommaaccent" unicode="&#x123;" horiz-adv-x="1146" 
d="M590.5 213q115.5 0 195.5 45v496q-80 43 -194.5 43t-198.5 -82t-84 -214t83 -210t198.5 -78zM610.5 999q233.5 0 409.5 -133v-825q0 -207 -135 -328t-350 -121q-293 0 -451 175q12 47 47 90t88 61q115 -133 307 -133q131 0 195.5 62.5t64.5 166.5v45q-90 -39 -200 -39
q-219 0 -365.5 128t-146.5 350.5t151.5 361.5t385 139zM583 1040q-58 0 -100 19q-6 39 -6 76q0 88 43 165.5t121 124.5q57 -8 82 -61q-57 -74 -57 -186q0 -59 20 -117q-45 -21 -103 -21z" />
    <glyph glyph-name="Hbar" unicode="&#x126;" horiz-adv-x="1409" 
d="M1014 774v150h-621v-150h621zM1401 1006q0 -43 -12 -82h-142v-924q-55 -12 -112 -12t-121 12v561h-621v-561q-57 -12 -113.5 -12t-117.5 12v924h-133q-32 81 0 157h133v232q45 12 114.5 12t116.5 -12v-232h621v232q61 12 117 12t116 -12v-232h142q12 -32 12 -75z" />
    <glyph glyph-name="hbar" unicode="&#x127;" horiz-adv-x="1167" 
d="M616 999q207 0 319 -111.5t112 -279.5v-608q-49 -10 -117 -10t-117 10v539q0 246 -233 245q-109 0 -213 -57v-727q-47 -10 -115 -10t-119 10v1104h-121q-12 35 -12 76t12 80h121v83q121 25 234 0v-83h206q26 -81 0 -156h-206v-162q122 57 249 57z" />
    <glyph glyph-name="Itilde" unicode="&#x128;" horiz-adv-x="555" 
d="M280.5 -12q-57.5 0 -118.5 12v1313q55 14 115 14t116 -14v-1313q-55 -12 -112.5 -12zM402.5 1419q-62.5 0 -132 33t-90.5 33q-61 0 -76 -64q-102 -10 -155 56q16 92 75.5 146t120 54t136 -33.5t92.5 -33.5q55 0 67 63q102 14 156 -53q-18 -94 -74.5 -147.5t-119 -53.5z
" />
    <glyph glyph-name="itilde" unicode="&#x129;" horiz-adv-x="501" 
d="M251.5 -10q-67.5 0 -116.5 10v969q49 10 116.5 10t115.5 -10v-969q-48 -10 -115.5 -10zM361.5 1149q-58.5 0 -120 25.5t-81.5 25.5q-51 0 -78 -67q-96 -8 -156 61q23 86 81.5 137t113.5 51t115.5 -24.5t87.5 -24.5q49 0 75 62q100 6 154 -62q-23 -86 -78 -135t-113.5 -49
z" />
    <glyph glyph-name="Imacron" unicode="&#x12a;" horiz-adv-x="555" 
d="M280.5 -12q-57.5 0 -118.5 12v1313q55 14 115 14t116 -14v-1313q-55 -12 -112.5 -12zM35 1554.5q0 47.5 12 92.5h461q10 -37 10 -90.5t-10 -92.5h-461q-12 43 -12 90.5z" />
    <glyph glyph-name="imacron" unicode="&#x12b;" horiz-adv-x="501" 
d="M251.5 -10q-67.5 0 -116.5 10v969q49 10 116.5 10t115.5 -10v-969q-48 -10 -115.5 -10zM31 1251q0 55 10 90h424q8 -57 8 -89.5t-8 -90.5h-424q-10 35 -10 90z" />
    <glyph glyph-name="Iogonek" unicode="&#x12e;" horiz-adv-x="555" 
d="M270 -414q-86 0 -143 48.5t-57 129.5q0 123 127 230l-35 6v1313q55 14 115 14t116 -14v-1313q-135 -84 -135 -161t68 -77q53 0 104 41q78 -51 78 -133q-88 -84 -238 -84z" />
    <glyph glyph-name="iogonek" unicode="&#x12f;" horiz-adv-x="501" 
d="M240 -420q-90 0 -148.5 48t-58.5 130q0 125 145 236l-43 6v969q49 10 116.5 10t115.5 -10v-969l-9 -2q-133 -92 -133 -167t72 -75q53 0 102 39q76 -47 76 -131q-84 -84 -235 -84zM249.5 1116q-61.5 0 -105.5 43t-44 105.5t43 105.5t105.5 43t105.5 -43t43 -105
t-43 -105.5t-104.5 -43.5z" />
    <glyph glyph-name="Idotaccent" unicode="&#x130;" horiz-adv-x="555" 
d="M280.5 -12q-57.5 0 -118.5 12v1313q55 14 115 14t116 -14v-1313q-55 -12 -112.5 -12zM280 1417q-60 0 -103.5 42t-43.5 103.5t43 103.5t103.5 42t103.5 -42t43 -103.5t-43 -103.5t-103 -42z" />
    <glyph glyph-name="dotlessi" unicode="&#x131;" horiz-adv-x="501" 
d="M251.5 -10q-67.5 0 -116.5 10v969q49 10 116.5 10t115.5 -10v-969q-48 -10 -115.5 -10z" />
    <glyph glyph-name="IJ" unicode="&#x132;" horiz-adv-x="1120" 
d="M578 -51q-96 0 -174 36t-117 81q18 123 125 180q72 -80 159 -80q168 0 168 180v967q41 12 112 12t120 -12v-965q-1 -190 -107 -294t-286 -105zM267 332q-69 0 -122 10v971q47 12 117 12t119 -12v-971q-45 -10 -114 -10z" />
    <glyph glyph-name="ij" unicode="&#x133;" horiz-adv-x="1001" 
d="M504.5 -406q-156.5 0 -242.5 82q6 45 37 91.5t72 68.5q68 -45 121 -45q143 0 143 170v1006q47 10 115 10t116 -10v-1000q0 -178 -102.5 -275.5t-259 -97.5zM251.5 -10q-67.5 0 -116.5 10v969q49 10 116.5 10t115.5 -10v-969q-48 -10 -115.5 -10zM748 1114
q-61 0 -105.5 43t-44.5 104.5t44 104.5t105.5 43t105.5 -43t44 -104.5t-44 -104.5t-105 -43zM250 1116q-61 0 -105.5 43t-44.5 104.5t44 104.5t105.5 43t105.5 -43t44 -104.5t-44 -104.5t-105 -43z" />
    <glyph glyph-name="Kcommaaccent" unicode="&#x136;" horiz-adv-x="1253" 
d="M646 -76q58 0 99 -18q6 -41 6.5 -102.5t-42.5 -139.5t-121 -125q-57 8 -82 62q57 74 57 186q0 59 -20 117q45 20 103 20zM280.5 -12q-57.5 0 -118.5 12v1313q55 12 114 12t117 -12v-584q176 135 292 264t245 326q55 6 127 6t143 -12q-221 -350 -506 -604l574 -697
q-76 -16 -159 -16t-140 4l-455 557q-25 -21 -121 -90v-467q-55 -12 -112.5 -12z" />
    <glyph glyph-name="kcommaaccent" unicode="&#x137;" horiz-adv-x="1050" 
d="M503 -76q58 0 99 -18q6 -41 6 -76q0 -88 -43 -166t-121 -125q-57 8 -82 62q57 74 58 186q0 59 -21 117q46 20 104 20zM900.5 -12q-76.5 0 -130.5 6l-326 371q-53 -33 -79 -48v-317q-47 -10 -114 -10t-118 10v1343q122 25 232 0v-782q244 156 378 404q41 6 120 6t138 -15
q-153 -272 -374 -460l428 -490q-78 -18 -154.5 -18z" />
    <glyph glyph-name="kgreenlandic" unicode="&#x138;" horiz-adv-x="1058" 
d="M899 -12q-82 0 -125 6l-338 377q-10 -6 -76 -45v-326q-45 -10 -111 -10t-118 10v963q47 10 114 10t115 -10v-394q240 152 383 396q33 6 115 6t146 -15q-158 -264 -381 -450l442 -500q-84 -18 -166 -18z" />
    <glyph glyph-name="Lacute" unicode="&#x139;" horiz-adv-x="1009" 
d="M979 105.5q0 -50.5 -12 -105.5h-805v1315q59 12 116 12t115 -12v-1106h574q12 -53 12 -103.5zM465 1739q100 -68 104 -201l-432 -154q-41 35 -47 95z" />
    <glyph glyph-name="lacute" unicode="&#x13a;" horiz-adv-x="503" 
d="M255 -10q-69 0 -120 10v1343q45 10 114.5 10.5t119.5 -10.5v-1343q-45 -10 -114 -10zM70 1384q-41 35 -47 95l374 260q100 -68 105 -201z" />
    <glyph glyph-name="Lcommaaccent" unicode="&#x13b;" horiz-adv-x="1009" 
d="M577 -76q58 0 99 -18q6 -41 6 -76q0 -88 -43 -166t-121 -125q-57 8 -82 62q57 74 58 186q0 59 -21 117q46 20 104 20zM979 105.5q0 -50.5 -12 -105.5h-805v1315q59 12 116 12t115 -12v-1106h574q12 -53 12 -103.5z" />
    <glyph glyph-name="lcommaaccent" unicode="&#x13c;" horiz-adv-x="503" 
d="M168 -213q0 59 -21 117q45 20 104.5 20t98.5 -18q6 -39 6 -76q0 -88 -42.5 -166t-120.5 -125q-57 8 -82 62q57 74 57 186zM255 -10q-69 0 -120 10v1343q45 10 114.5 10.5t119.5 -10.5v-1343q-45 -10 -114 -10z" />
    <glyph glyph-name="Lcaron" unicode="&#x13d;" horiz-adv-x="1009" 
d="M979 105.5q0 -50.5 -12 -105.5h-805v1315q59 12 116 12t115 -12v-1106h574q12 -53 12 -103.5zM686 1291.5q0 105.5 -24 164.5q41 23 102 23t96 -21q10 -41 10 -110.5t-39 -158.5t-100 -142q-57 8 -86 49q41 90 41 195.5z" />
    <glyph glyph-name="lcaron" unicode="&#x13e;" horiz-adv-x="512" 
d="M255 -10q-69 0 -120 10v1343q45 10 114.5 10.5t119.5 -10.5v-1343q-45 -10 -114 -10zM508 1291.5q0 105.5 -25 164.5q41 23 102.5 23t96.5 -21q12 -49 12 -114.5t-39 -154.5t-102 -142q-57 8 -86 49q41 90 41 195.5z" />
    <glyph glyph-name="Ldot" unicode="&#x13f;" horiz-adv-x="1015" 
d="M762 567q-57 0 -99 42t-42 99.5t42 99.5t99 42t99 -42t42 -99.5t-42 -99.5t-99 -42zM979 105.5q0 -50.5 -12 -105.5h-805v1315q59 12 116 12t115 -12v-1106h574q12 -53 12 -103.5z" />
    <glyph glyph-name="ldot" unicode="&#x140;" horiz-adv-x="663" 
d="M581 528q-58 0 -99.5 42t-41.5 99.5t41 99.5t99.5 42t100.5 -41t42 -100.5t-42 -100.5t-100 -41zM255 -10q-69 0 -120 10v1343q45 10 114.5 10.5t119.5 -10.5v-1343q-45 -10 -114 -10z" />
    <glyph glyph-name="Lslash" unicode="&#x141;" horiz-adv-x="1009" 
d="M979 105.5q0 -50.5 -12 -105.5h-805v502l-105 -53q-27 20 -48 65t-25 82l178 92v627q59 12 116 12t115 -12v-506l129 68q66 -66 72 -150l-201 -104v-414h574q12 -53 12 -103.5z" />
    <glyph glyph-name="lslash" unicode="&#x142;" horiz-adv-x="503" 
d="M255 -10q-69 0 -120 10v532l-106 -55q-63 49 -70 139l176 93v634q45 10 114.5 10.5t119.5 -10.5v-514l104 54q58 -58 68 -142l-172 -88v-653q-45 -10 -114 -10z" />
    <glyph glyph-name="Nacute" unicode="&#x143;" horiz-adv-x="1406" 
d="M1134 1325q53 0 111 -12v-1303q-92 -23 -215 -18l-608 872l-37 70l4 -82v-852q-61 -12 -112.5 -12t-114.5 12v1300q104 39 217 21l606 -872l37 -66l-4 92v838q63 12 116 12zM520 1384q-41 35 -47 95l375 260q100 -68 104 -201z" />
    <glyph glyph-name="nacute" unicode="&#x144;" horiz-adv-x="1163" 
d="M592 999q223 0 336.5 -112.5t113.5 -290.5v-596q-50 -10 -116 -10t-117 10v541q0 246 -236 245q-125 0 -215 -53v-733q-46 -10 -114 -10t-117 10v846q74 61 198 107t267 46zM416 1059q-51 35 -66 94l322 301q98 -53 133 -184z" />
    <glyph glyph-name="Ncommaaccent" unicode="&#x145;" horiz-adv-x="1406" 
d="M716 -76q58 0 99 -18q6 -41 6 -76q0 -88 -43 -166t-121 -125q-57 8 -82 62q57 74 58 186q0 59 -21 117q46 20 104 20zM1134 1325q53 0 111 -12v-1303q-92 -23 -215 -18l-608 872l-37 70l4 -82v-852q-61 -12 -112.5 -12t-114.5 12v1300q104 39 217 21l606 -872l37 -66
l-4 92v838q63 12 116 12z" />
    <glyph glyph-name="ncommaaccent" unicode="&#x146;" horiz-adv-x="1163" 
d="M585 -76q58 0 99 -18q6 -41 6 -76q0 -88 -43 -166t-121 -125q-57 8 -82 62q57 74 58 186q0 59 -21 117q46 20 104 20zM592 999q223 0 336.5 -112.5t113.5 -290.5v-596q-49 -10 -115.5 -10t-117.5 10v541q0 246 -236 245q-125 0 -215 -53v-733q-47 -10 -114.5 -10
t-116.5 10v846q74 61 198 107t267 46z" />
    <glyph glyph-name="Ncaron" unicode="&#x147;" horiz-adv-x="1406" 
d="M1134 1325q53 0 111 -12v-1303q-92 -23 -215 -18l-608 872l-37 70l4 -82v-852q-61 -12 -112.5 -12t-114.5 12v1300q104 39 217 21l606 -872l37 -66l-4 92v838q63 12 116 12zM782 1417q-70 -18 -141 0l-238 191q14 72 74 110l242 -139l227 139q59 -33 72 -106z" />
    <glyph glyph-name="ncaron" unicode="&#x148;" horiz-adv-x="1163" 
d="M592 999q223 0 336.5 -112.5t113.5 -290.5v-596q-50 -10 -116 -10t-117 10v541q0 246 -236 245q-125 0 -215 -53v-733q-46 -10 -114 -10t-117 10v846q74 61 198 107t267 46zM639 1087q-70 -14 -141 0l-224 234q18 82 97 113l202 -162l207 162q72 -27 97 -105z" />
    <glyph glyph-name="napostrophe" unicode="&#x149;" horiz-adv-x="1202" 
d="M592 999q223 0 336.5 -112.5t113.5 -290.5v-596q-49 -10 -115.5 -10t-117.5 10v541q0 246 -236 245q-125 0 -215 -53v-733q-47 -10 -114.5 -10t-116.5 10v846q74 61 198 107t267 46zM268 1260.5q0 -91.5 -55 -188.5t-125 -152q-25 2 -50.5 18t-33.5 39q63 82 64 246
q0 98 -29 159q51 23 113.5 23t99.5 -14q16 -39 16 -130.5z" />
    <glyph glyph-name="Eng" unicode="&#x14a;" horiz-adv-x="1406" 
d="M1134 1325q53 0 111 -12v-1340q0 -190 -108.5 -293.5t-284.5 -103.5q-98 0 -174 35t-119 82q10 57 44 103t81 69q80 -80 160 -80q172 0 172 186v41l-594 852l-37 70l4 -82v-852q-61 -12 -112.5 -12t-114.5 12v1300q104 39 217 21l606 -872l37 -66l-4 92v838q63 12 116 12
z" />
    <glyph glyph-name="eng" unicode="&#x14b;" horiz-adv-x="1163" 
d="M592 999q223 -1 336 -113t112 -290v-649q0 -175 -106 -271t-262 -96t-250 88q25 111 108 158q59 -53 129 -53q150 0 150 186v582q0 244 -242 243q-113 0 -209 -61v-723q-50 -10 -116 -10t-115 10v838q74 66 197 114t268 47z" />
    <glyph glyph-name="Omacron" unicode="&#x14c;" horiz-adv-x="1507" 
d="M753.5 184q190.5 0 306.5 132.5t116 345t-115 344t-307.5 131.5t-307 -131.5t-114.5 -344.5t115.5 -345t306 -132zM754 -33q-293 0 -482.5 194.5t-189.5 496.5t189.5 499t483.5 197t482 -193.5t188 -496t-189 -500t-482 -197.5zM451 1553q0 30 12 87h592q12 -39 12 -84
t-12 -86h-592q-12 53 -12 83z" />
    <glyph glyph-name="omacron" unicode="&#x14d;" horiz-adv-x="1179" 
d="M590 172q129 0 204.5 86t75.5 226t-75.5 227.5t-204.5 87.5t-205 -87t-76 -227.5t76 -226.5t205 -86zM585.5 -31q-225.5 0 -367.5 143.5t-142 369.5t146.5 371.5t371.5 145.5t367.5 -144t142.5 -369.5t-146.5 -371t-372 -145.5zM289 1249q0 55 12 90h580q10 -47 10 -90
t-10 -90h-580q-12 35 -12 90z" />
    <glyph glyph-name="Ohungarumlaut" unicode="&#x150;" horiz-adv-x="1507" 
d="M753.5 184q190.5 0 306.5 132q116 134 116 346t-115 343.5t-307.5 131.5t-307 -131.5t-114.5 -344.5t115.5 -345t306 -132zM754 -33q-293 0 -482.5 194.5t-189.5 496.5t189.5 499t483.5 197t482 -194t188 -496t-189 -499.5t-482 -197.5zM872 1360q-55 23 -77 74l215 295
q115 -23 149 -136zM520 1360q-55 23 -78 74l215 295q115 -23 150 -136z" />
    <glyph glyph-name="ohungarumlaut" unicode="&#x151;" horiz-adv-x="1179" 
d="M590 172q129 0 204.5 86t75.5 226t-75.5 227.5t-204.5 87.5t-205 -87q-76 -88 -76 -228t76 -226t205 -86zM585.5 -31q-225.5 0 -367.5 143.5t-142 369.5t146.5 371.5t371.5 145.5q226 0 368 -144q142 -143 142 -369t-146.5 -371.5t-372 -145.5zM692 1063q-61 20 -84 67
l187 330q106 -20 157 -121zM369 1063q-61 23 -84 65l180 334q109 -16 162 -119z" />
    <glyph glyph-name="OE" unicode="&#x152;" horiz-adv-x="1822" 
d="M336 655q0 -203 114.5 -329.5t311.5 -126.5q80 0 158 16v879q-66 14 -158 14q-193 0 -309.5 -125t-116.5 -328zM1741 108q0 -52 -12 -108h-771q-113 -20 -202 -20q-299 0 -485.5 185t-186.5 485t190.5 490.5t487.5 190.5q117 0 207 -16h739q12 -53 12 -105.5t-12 -107.5
h-553v-322h485q25 -114 0 -213h-485v-354h574q12 -53 12 -105z" />
    <glyph glyph-name="oe" unicode="&#x153;" horiz-adv-x="1824" 
d="M576 170q122 0 197 86t75 226t-76 227.5t-197 87.5t-194.5 -87t-73.5 -226.5t73.5 -226.5t195.5 -87zM1524 580q0 92 -53.5 159.5t-153.5 67.5t-160 -65.5t-74 -161.5h441zM1747 559q0 -63 -6 -143h-658q12 -119 82 -184.5t195 -65.5t268 100q76 -51 96 -166
q-166 -131 -404.5 -131t-365.5 181q-141 -180 -370.5 -180.5t-368.5 142t-139 367.5t142 372.5t355 147.5q248 0 390 -186q131 184 337 184t326.5 -121.5t120.5 -316.5z" />
    <glyph glyph-name="Racute" unicode="&#x154;" horiz-adv-x="1216" 
d="M596 682q135 0 202.5 64.5t67.5 171.5q0 219 -276 219q-90 0 -197 -11v-440q68 -4 203 -4zM1011.5 -8q-81.5 0 -102.5 4l-293 487h-30q-127 0 -193 4v-487q-57 -12 -114.5 -12t-118.5 12v1294q195 43 439.5 43t373.5 -107.5t129 -299.5q0 -280 -256 -395l321 -523
q-74 -20 -155.5 -20zM389 1384q-41 35 -47 95l375 260q100 -68 104 -201z" />
    <glyph glyph-name="racute" unicode="&#x155;" horiz-adv-x="768" 
d="M538 997q130 0 214 -30q0 -121 -62 -201q-72 18 -167 18t-163 -39v-745q-45 -10 -114.5 -10t-118.5 10v858q63 57 172 98t239 41zM299 1059q-51 35 -66 94l322 301q98 -53 133 -184z" />
    <glyph glyph-name="Rcommaaccent" unicode="&#x156;" horiz-adv-x="1216" 
d="M621 -76q59 0 98 -18q6 -41 6 -76q0 -88 -43 -166t-121 -125q-57 8 -82 62q57 74 58 186q0 59 -21 117q46 20 105 20zM596 682q135 0 202.5 64.5t67.5 171.5q0 219 -276 219q-90 0 -197 -11v-440q68 -4 203 -4zM1011.5 -8q-81.5 0 -102.5 4l-293 487h-30q-127 0 -193 4
v-487q-57 -12 -114.5 -12t-118.5 12v1294q195 43 439.5 43t373.5 -107.5t129 -299.5q0 -280 -256 -395l321 -523q-74 -20 -155.5 -20z" />
    <glyph glyph-name="rcommaaccent" unicode="&#x157;" horiz-adv-x="768" 
d="M245 -76q58 0 99 -18q6 -39 6 -76q0 -88 -43 -166t-121 -125q-57 8 -82 62q57 74 58 186q0 59 -21 117q46 20 104 20zM538 997q130 0 214 -30q0 -121 -62 -201q-72 18 -167 18t-163 -39v-745q-45 -10 -114.5 -10t-118.5 10v858q63 57 172 98t239 41z" />
    <glyph glyph-name="Rcaron" unicode="&#x158;" horiz-adv-x="1216" 
d="M596 682q135 0 202.5 64.5t67.5 171.5q0 219 -276 219q-90 0 -197 -11v-440q68 -4 203 -4zM1011.5 -8q-81.5 0 -102.5 4l-293 487h-30q-127 0 -193 4v-487q-57 -12 -114.5 -12t-118.5 12v1294q195 43 439.5 43t373.5 -107.5t129 -299.5q0 -280 -256 -395l321 -523
q-74 -20 -155.5 -20zM651 1417q-70 -18 -141 0l-238 191q14 72 74 110l242 -139l227 139q59 -33 72 -106z" />
    <glyph glyph-name="rcaron" unicode="&#x159;" horiz-adv-x="768" 
d="M538 997q130 0 214 -30q0 -121 -62 -201q-72 18 -167 18t-163 -39v-745q-45 -10 -114.5 -10t-118.5 10v858q63 57 172 98t239 41zM522 1087q-72 -14 -141 0l-223 234q18 82 96 113l203 -162l207 162q72 -27 96 -105z" />
    <glyph glyph-name="Sacute" unicode="&#x15a;" horiz-adv-x="1105" 
d="M539 -33q-301 0 -473 164q20 123 120 182q145 -131 355 -131q127 0 190.5 48.5t63.5 125t-57.5 124.5t-186.5 78.5t-195 57.5t-126 71q-126 92 -126 271t126 284.5t335 105.5q270 0 439 -131q-4 -55 -36 -109.5t-77 -79.5q-147 106 -334 107q-102 0 -163.5 -44
t-61.5 -111t52 -108t237.5 -85.5t293 -138t109.5 -278t-128 -294t-357 -109.5zM369 1384q-41 35 -47 95l374 260q100 -68 105 -201z" />
    <glyph glyph-name="sacute" unicode="&#x15b;" horiz-adv-x="960" 
d="M467 -33q-258 0 -401 123q27 111 106 160q133 -96 309 -96t176 116q0 51 -51 80q-52 30 -192 52t-231 87.5t-91 202.5t111.5 221t319.5 84t341 -94q-16 -109 -88 -166q-128 74 -294 74t-167 -100q0 -49 44 -75q45 -26 193 -50t242.5 -91t94.5 -211t-111.5 -230.5
t-310.5 -86.5zM324 1059q-51 35 -66 94l322 301q98 -53 133 -184z" />
    <glyph glyph-name="Scedilla" unicode="&#x15e;" horiz-adv-x="1105" 
d="M760 -225q0 -104 -77 -148.5t-180.5 -44.5t-162.5 43q4 74 53 121q45 -29 94 -29q80 0 80 60q0 66 -133 69l47 123q-260 14 -415 162q20 123 120 182q145 -131 355 -131q127 0 190.5 48.5t63.5 125t-57.5 124.5t-186.5 78.5t-195 57.5t-126 71q-126 92 -126 271
t126 284.5t335 105.5q270 0 439 -131q-4 -55 -36 -109.5t-77 -79.5q-147 106 -334 107q-102 0 -163.5 -44t-61.5 -111t52 -108t237.5 -85.5t293 -138t109.5 -267.5t-105.5 -281.5t-297.5 -128.5l-17 -47q156 -31 156 -149z" />
    <glyph glyph-name="scedilla" unicode="&#x15f;" horiz-adv-x="960" 
d="M889 294q0 -134 -87 -218t-245 -103l-16 -49q156 -31 155 -149q0 -104 -76.5 -148.5t-180.5 -44.5t-163 43q4 74 54 121q45 -29 94 -29q80 0 80 60q0 66 -133 69l47 123q-223 12 -352 121q27 111 106 160q133 -96 309 -96t176 116q0 51 -51 80t-191.5 51.5t-231.5 88
t-91 202.5t111.5 221t319.5 84t341 -94q-16 -109 -88 -166q-129 74 -294.5 74t-166.5 -100q0 -49 44 -75t192.5 -49.5t243 -91t94.5 -201.5z" />
    <glyph glyph-name="Scaron" unicode="&#x160;" horiz-adv-x="1105" 
d="M539 -33q-301 0 -473 164q20 123 120 182q145 -131 355 -131q127 0 190.5 48.5t63.5 125t-57.5 124.5t-186.5 78.5t-195 57.5t-126 71q-126 92 -126 271t126 284.5t335 105.5q270 0 439 -131q-4 -55 -36 -109.5t-77 -79.5q-147 106 -334 107q-102 0 -163.5 -44
t-61.5 -111t52 -108t237.5 -85.5t293 -138t109.5 -278t-128 -294t-357 -109.5zM489 1417l-237 191q14 72 74 110l241 -139l228 139q59 -33 71 -106l-235 -195q-70 -18 -142 0z" />
    <glyph glyph-name="scaron" unicode="&#x161;" horiz-adv-x="960" 
d="M467 -33q-258 0 -401 123q27 111 106 160q133 -96 309 -96t176 116q0 51 -51 80q-52 30 -192 52t-231 87.5t-91 202.5t111.5 221t319.5 84t341 -94q-16 -109 -88 -166q-128 74 -294 74t-167 -100q0 -49 44 -75q45 -26 193 -50t242.5 -91t94.5 -211t-111.5 -230.5
t-310.5 -86.5zM406 1087l-224 234q18 82 97 113l202 -162l207 162q72 -27 96 -105l-237 -242q-71 -14 -141 0z" />
    <glyph glyph-name="uni0162" unicode="&#x162;" horiz-adv-x="1112" 
d="M672 -2q-11 0 -51 -8l-23 -66q156 -31 156 -149q0 -104 -77 -148.5t-180.5 -44.5t-162.5 43q4 74 53 121q45 -29 94 -29q80 0 80 60q0 66 -133 69l55 146l-43 6v1108h-399q-12 53 -12 104.5t12 104.5h1028q12 -53 12 -103.5t-12 -105.5h-397v-1108z" />
    <glyph glyph-name="uni0163" unicode="&#x163;" horiz-adv-x="876" 
d="M727 -225q0 -104 -77 -148.5t-180.5 -44.5t-162.5 43q4 74 53 121q45 -29 95 -29q80 0 80 60q0 66 -134 69l54 138q-246 51 -246 315v469h-166q-8 41 -8 94t8 94h166v258q49 10 116 10.5t113 -10.5v-258h363q10 -39 10 -93t-10 -95h-363v-416q0 -100 42 -140t128 -40
t156 66q84 -57 98 -162q-117 -98 -274 -105l-17 -47q156 -31 156 -149z" />
    <glyph glyph-name="Tcaron" unicode="&#x164;" horiz-adv-x="1112" 
d="M1081 1211q0 -50 -12 -105h-397v-1108q-78 -12 -116 -12t-116 12v1108h-399q-12 53 -12 104.5t12 104.5h1028q12 -54 12 -104zM629 1417q-72 -18 -142 0l-237 191q16 72 74 110l241 -139l228 139q59 -33 71 -106z" />
    <glyph glyph-name="tcaron" unicode="&#x165;" horiz-adv-x="876" 
d="M209 299v469h-166q-8 41 -8 94t8 94h166v258q49 10 116 10.5t113 -10.5v-258h363q10 -39 10 -93t-10 -95h-363v-416q0 -100 42 -140t128 -40t156 66q84 -57 98 -162q-121 -104 -289 -104.5t-266 79.5t-98 248zM639 1291.5q0 105.5 -25 164.5q41 23 102.5 23t96.5 -21
q10 -41 10 -110.5t-39 -158.5t-100 -142q-57 8 -86 49q41 90 41 195.5z" />
    <glyph glyph-name="Tbar" unicode="&#x166;" horiz-adv-x="1112" 
d="M672 1106v-373h190q12 -53 12 -84t-12 -92h-190v-559q-78 -12 -116 -12t-116 12v559h-192q-33 87 0 176h192v373h-399q-12 53 -12 104.5t12 104.5h1028q12 -53 12 -103.5t-12 -105.5h-397z" />
    <glyph glyph-name="tbar" unicode="&#x167;" horiz-adv-x="876" 
d="M209 299v160h-125q-14 31 -14 75t14 80h125v154h-166q-8 41 -8 94t8 94h166v258q49 10 116 10.5t113 -10.5v-258h363q10 -39 10 -93t-10 -95h-363v-154h221q26 -81 0 -155h-221v-107q0 -100 42 -140t128 -40t156 66q84 -57 98 -162q-121 -104 -289 -104.5t-266 79.5
t-98 248z" />
    <glyph glyph-name="Utilde" unicode="&#x168;" horiz-adv-x="1376" 
d="M688 -35q-248 0 -395.5 144.5t-147.5 410.5v793q59 12 116.5 12t119.5 -12v-791q0 -156 81 -247t230.5 -91t230.5 91.5t81 246.5v791q57 12 114.5 12t114.5 -12v-789q0 -264 -148.5 -411.5t-396.5 -147.5zM541.5 1683q76.5 0 167 -38.5t116.5 -38.5q76 0 97 88
q106 0 161 -56q-20 -100 -86.5 -158.5t-139 -58.5t-165 37t-119.5 37q-80 0 -100 -86q-43 0 -91 15.5t-71 41.5q20 102 87 159.5t143.5 57.5z" />
    <glyph glyph-name="utilde" unicode="&#x169;" horiz-adv-x="1150" 
d="M905.5 973q67.5 0 116.5 -10v-891q-213 -102 -448.5 -102.5t-344 101t-108.5 283.5v609q51 10 118.5 10t114.5 -10v-541q0 -127 49.5 -186.5t172.5 -59.5t212 37v750q50 10 117.5 10zM698 1317q70 0 97 86q96 0 161 -55q-23 -100 -88 -157.5t-136.5 -57.5t-159 38.5
t-113.5 38.5q-72 0 -99 -92q-43 0 -92 15.5t-71 42.5q20 102 86.5 161.5t140 58.5t160 -40t114.5 -39z" />
    <glyph glyph-name="Umacron" unicode="&#x16a;" horiz-adv-x="1376" 
d="M688 -35q-248 0 -395.5 144.5t-147.5 410.5v793q59 12 116.5 12t119.5 -12v-791q0 -156 81 -247t230.5 -91t230.5 91.5t81 246.5v791q57 12 114.5 12t114.5 -12v-789q0 -264 -148.5 -411.5t-396.5 -147.5zM389 1553q0 30 12 87h592q27 -86 0 -170h-592q-12 53 -12 83z
" />
    <glyph glyph-name="umacron" unicode="&#x16b;" horiz-adv-x="1150" 
d="M905.5 973q67.5 0 116.5 -10v-891q-213 -102 -448.5 -102.5t-344 101t-108.5 283.5v609q51 10 118.5 10t114.5 -10v-541q0 -127 49.5 -186.5t172.5 -59.5t212 37v750q50 10 117.5 10zM874 1249q0 -43 -10 -90h-579q-12 35 -12.5 90t12.5 90h579q10 -47 10 -90z" />
    <glyph glyph-name="Uring" unicode="&#x16e;" horiz-adv-x="1376" 
d="M688 -35q-248 0 -395.5 144.5t-147.5 410.5v793q59 12 116.5 12t119.5 -12v-791q0 -156 81 -247t230.5 -91t230.5 91.5t81 246.5v791q57 12 114.5 12t114.5 -12v-789q0 -264 -148.5 -411.5t-396.5 -147.5zM698.5 1481q34.5 0 58 25.5t23.5 61.5t-22.5 61.5t-59 25.5
t-59.5 -25.5t-23 -61.5t24 -61.5t58.5 -25.5zM699 1348q-91 0 -155.5 64.5t-64.5 155.5t64.5 155.5t155.5 64.5t155 -64.5t64 -155.5t-64 -155.5t-155 -64.5z" />
    <glyph glyph-name="uring" unicode="&#x16f;" horiz-adv-x="1150" 
d="M905.5 973q67.5 0 116.5 -10v-891q-213 -102 -448.5 -102.5t-344 101t-108.5 283.5v609q51 10 118.5 10t114.5 -10v-541q0 -127 49.5 -186.5t172.5 -59.5t212 37v750q50 10 117.5 10zM576 1346q-36 0 -60 -27t-24 -63t24.5 -61.5t60 -25.5t60.5 26t25 61.5t-25 62.5
t-61 27zM577 1036q-91 0 -157 64.5t-66 155.5t65.5 156t157 65t156 -64.5t64.5 -156t-64.5 -156t-155.5 -64.5z" />
    <glyph glyph-name="Uhungarumlaut" unicode="&#x170;" horiz-adv-x="1376" 
d="M688 -35q-248 0 -395.5 144.5t-147.5 410.5v793q59 12 116.5 12t119.5 -12v-791q0 -156 81 -247t230.5 -91t230.5 91.5t81 246.5v791q57 12 114.5 12t114.5 -12v-789q0 -264 -148.5 -411.5t-396.5 -147.5zM811 1360q-55 23 -78 74l215 295q115 -23 150 -136zM459 1360
q-55 23 -78 74l215 295q115 -23 149 -136z" />
    <glyph glyph-name="uhungarumlaut" unicode="&#x171;" horiz-adv-x="1150" 
d="M905.5 973q67.5 0 116.5 -10v-891q-212 -102 -448 -102t-344.5 101t-108.5 283v609q51 10 118.5 10t114.5 -10v-541q0 -127 49.5 -186.5t172.5 -59.5t212 37v750q50 10 117.5 10zM676 1063q-61 20 -84 67l186 330q106 -20 158 -121zM352 1063q-61 23 -84 65l181 334
q109 -16 161 -119z" />
    <glyph glyph-name="Uogonek" unicode="&#x172;" horiz-adv-x="1376" 
d="M844 -160q0 -74 71 -73q45 0 103 40q76 -51 76 -133q-88 -84 -236 -84q-86 0 -144.5 48.5t-58.5 137t93 191.5q-18 -2 -58 -2q-250 0 -397.5 144.5t-147.5 410.5v793q59 12 116.5 12t119.5 -12v-791q0 -156 81 -247t230.5 -91t230.5 91.5t81 246.5v791q57 12 114.5 12
t114.5 -12v-789q0 -356 -260 -495q-129 -115 -129 -189z" />
    <glyph glyph-name="uogonek" unicode="&#x173;" horiz-adv-x="1150" 
d="M852 -410q-86 0 -144.5 48.5t-58.5 125.5q0 111 111 222q-94 -16 -201 -17q-221 0 -329.5 101.5t-108.5 283.5v609q51 10 118.5 10t114.5 -10v-541q0 -127 49.5 -186.5t172.5 -59.5t212 37v750q49 10 117 10t117 -10v-891l-12 -6q-74 -57 -123 -121t-49 -111
q0 -68 71 -67q48 -1 103 40q76 -51 75 -133q-88 -84 -235 -84z" />
    <glyph glyph-name="Wcircumflex" unicode="&#x174;" horiz-adv-x="1898" 
d="M1730.5 1329q73.5 0 133.5 -22q-172 -770 -396 -1305q-61 -12 -121.5 -12t-129.5 12l-226 772l-33 146l-32 -148l-250 -768q-57 -12 -121.5 -12t-138.5 12q-225 555 -367 1305q82 20 149.5 20t106.5 -6q76 -539 250 -1075l33 143l256 819q47 12 118 12.5t117 -12.5
l242 -819l35 -145q176 530 270 1075q31 8 104.5 8zM727 1403q-59 37 -72 108l236 193q72 18 141 0l238 -188q-14 -72 -74 -113l-242 139z" />
    <glyph glyph-name="wcircumflex" unicode="&#x175;" horiz-adv-x="1542" 
d="M1385.5 973q68.5 0 127.5 -19q-137 -571 -360 -954q-47 -10 -112.5 -10t-112.5 10q-92 174 -164 371q-53 -201 -139 -371q-47 -10 -118 -10t-114 10q-229 381 -360 954q59 18 134.5 18.5t115.5 -5.5q96 -455 229 -756l6 -27q6 20 8 27q90 205 146 442q-31 109 -78 301
q107 33 242 13q96 -487 206 -756l7 -33q4 20 8 33q123 285 219 756q41 6 109.5 6zM557 1075q-74 27 -96 103l233 241q72 14 142 0l227 -233q-23 -80 -98 -113l-207 164z" />
    <glyph glyph-name="Ycircumflex" unicode="&#x176;" horiz-adv-x="1222" 
d="M611.5 -12q-56.5 0 -117.5 12v506l-482 803q86 20 144.5 20t119.5 -8l306 -522l39 -86l38 86l299 522q43 8 103.5 8t142.5 -18l-477 -817v-494q-59 -12 -115.5 -12zM379 1403q-59 37 -72 108l236 193q72 18 141 0l238 -188q-14 -72 -74 -113l-242 139z" />
    <glyph glyph-name="ycircumflex" unicode="&#x177;" horiz-adv-x="1058" 
d="M899.5 975q55.5 0 124.5 -25q-92 -465 -263 -789.5t-466 -588.5q-104 29 -148 152q182 176 263 301q-246 397 -375 929q101 33 254 13q82 -381 243 -721q12 -29 17 -41q11 34 16 41q131 272 221 721q58 8 113.5 8zM334 1075q-74 27 -96 103l233 241q70 14 141 0l228 -233
q-23 -80 -99 -113l-206 164z" />
    <glyph glyph-name="Ydieresis" unicode="&#x178;" horiz-adv-x="1222" 
d="M611.5 -12q-56.5 0 -117.5 12v506l-482 803q86 20 144.5 20t119.5 -8l306 -522l39 -86l38 86l299 522q43 8 103.5 8t142.5 -18l-477 -817v-494q-59 -12 -115.5 -12zM829.5 1434q-53.5 0 -92.5 37.5t-39 91t38 91.5t92 38t92 -38t38 -91.5t-37.5 -91t-91 -37.5zM396 1434
q-54 0 -92 37.5t-38 91t38 91.5t92 38t91 -38t37 -91.5t-37 -91t-91 -37.5z" />
    <glyph glyph-name="Zacute" unicode="&#x179;" horiz-adv-x="1175" 
d="M1114 102.5q0 -57.5 -12 -102.5h-1020q-12 37 -12 97.5t61 138.5l660 874l-707 -2q-12 45 -12 105t12 102h999q10 -41 10.5 -98.5t-59.5 -137.5l-614 -813l-47 -59h729q12 -47 12 -104.5zM395 1384q-41 35 -47 95l375 260q100 -68 104 -201z" />
    <glyph glyph-name="zacute" unicode="&#x17a;" horiz-adv-x="964" 
d="M905 96q0 -57 -14 -96h-807q-14 37 -14 76q0 84 65 160l434 491l43 45h-522q-12 53 -12 97t12 94h774q12 -31 13 -68q0 -100 -66 -174l-420 -494l-35 -37h535q14 -37 14 -94zM317 1059q-51 35 -65 94l321 301q98 -53 134 -184z" />
    <glyph glyph-name="Zdotaccent" unicode="&#x17b;" horiz-adv-x="1175" 
d="M1114 102.5q0 -57.5 -12 -102.5h-1020q-12 37 -12 97.5t61 138.5l660 874l-707 -2q-12 45 -12 105t12 102h999q10 -41 10.5 -98.5t-59.5 -137.5l-614 -813l-47 -59h729q12 -47 12 -104.5zM585 1417q-60 0 -103.5 42t-43.5 103.5t43 103.5t103.5 42t103.5 -42t43 -103.5
t-43 -103.5t-103 -42z" />
    <glyph glyph-name="zdotaccent" unicode="&#x17c;" horiz-adv-x="964" 
d="M905 96q0 -57 -14 -96h-807q-14 37 -14 76q0 84 65 160l434 491l43 45h-522q-12 53 -12 97t12 94h774q12 -31 13 -68q0 -100 -66 -174l-420 -494l-35 -37h535q14 -37 14 -94zM475 1114q-61 0 -105 43t-44 104.5t44 104.5t105 43t105.5 -43t44.5 -104.5t-44.5 -104.5
t-105.5 -43z" />
    <glyph glyph-name="Zcaron" unicode="&#x17d;" horiz-adv-x="1175" 
d="M1114 102.5q0 -57.5 -12 -102.5h-1020q-12 37 -12 97.5t61 138.5l660 874l-707 -2q-12 45 -12 105t12 102h999q10 -41 10.5 -98.5t-59.5 -137.5l-614 -813l-47 -59h729q12 -47 12 -104.5zM657 1417q-72 -18 -141 0l-237 191q16 72 73 110l242 -139l227 139
q59 -33 72 -106z" />
    <glyph glyph-name="zcaron" unicode="&#x17e;" horiz-adv-x="964" 
d="M905 96q0 -57 -14 -96h-807q-14 37 -14 76q0 84 65 160l434 491l43 45h-522q-12 53 -12 97t12 94h774q12 -31 13 -68q0 -100 -66 -174l-420 -494l-35 -37h535q14 -37 14 -94zM541 1087q-70 -14 -142 0l-223 234q18 82 96 113l203 -162l207 162q72 -27 96 -105z" />
    <glyph glyph-name="uni01EA" unicode="&#x1ea;" horiz-adv-x="1507" 
d="M332 661q0 -213 115.5 -345t306 -132t306.5 132.5t116 345t-115 344t-307.5 131.5t-307 -131.5t-114.5 -344.5zM930 -166q0 -68 71 -67q47 0 103 40q76 -51 76 -133q-88 -84 -236 -84q-86 0 -144.5 48.5t-58.5 138t97 194.5q-53 -4 -84 -4q-293 0 -482.5 194.5
t-189.5 496.5t189.5 499t483.5 197t482 -193.5t188 -501.5q0 -205 -94 -366.5t-256 -247.5q-145 -123 -145 -211z" />
    <glyph glyph-name="uni01EB" unicode="&#x1eb;" horiz-adv-x="1179" 
d="M309 484q0 -140 76 -226t205 -86t204.5 86t75.5 226t-75.5 227.5t-204.5 87.5t-205 -87.5t-76 -227.5zM729 -410q-86 0 -144.5 48.5t-58.5 138t95 192.5h-35q-225 0 -367.5 143.5t-142.5 369.5t146.5 371.5t371.5 145.5t367.5 -144t142.5 -372q0 -147 -68.5 -266
t-187.5 -184q-133 -115 -133 -191t71 -75q46 -1 103 40q76 -51 76 -133q-88 -84 -236 -84z" />
    <glyph glyph-name="AEacute" unicode="&#x1fc;" horiz-adv-x="1738" 
d="M860 682v317l6 127l-65 -129l-183 -315h242zM1659 108q0 -52 -12 -108h-787v483h-356l-281 -483q-49 -8 -116.5 -8t-124.5 22l745 1301h895q12 -53 12 -106.5t-12 -104.5h-528v-402h469q12 -49 12 -97t-12 -101h-469v-293h553q12 -51 12 -103zM827 1384q-41 35 -47 95
l375 260q100 -68 105 -201z" />
    <glyph glyph-name="aeacute" unicode="&#x1fd;" horiz-adv-x="1640" 
d="M465 152q86 0 153.5 67.5t67.5 200.5l-203 -2q-188 0 -188 -133q0 -61 42 -97t128 -36zM1335 582q0 90 -44 156.5t-141 66.5t-157.5 -66.5t-70.5 -156.5h413zM686 629q0 166 -246 166q-126 0 -243 -86q-78 57 -99 157q53 49 155.5 90t221.5 41q274 0 354 -182
q49 84 139.5 133t192.5 49q184 0 292 -124.5t106 -329.5q0 -63 -7 -123h-628v-2q6 -113 76.5 -182.5t179.5 -69.5q61 0 118.5 18.5t84 33.5t69.5 46q82 -55 98 -166q-168 -129 -383 -129q-274 0 -385 211q-118 -211 -370 -211q-158 0 -252 82t-94 226.5t109.5 224.5
t289.5 80h221v47zM668 1059q-51 35 -66 94l322 301q98 -53 133 -184z" />
    <glyph glyph-name="Oslashacute" unicode="&#x1fe;" horiz-adv-x="1507" 
d="M1176 659q0 150 -58 261l-604 -664q104 -72 240 -72q190 0 306 132t116 343zM332 659q0 -145 57 -256l606 662q-100 72 -241 72q-193 0 -307.5 -131.5t-114.5 -346.5zM1425 641q0 -279 -189 -476.5t-482 -197.5q-225 0 -396 119l-141 -156q-102 31 -139 133l143 156
q-139 184 -139 440q0 301 189.5 498t482.5 197q229 0 397 -121l139 153q99 -30 140 -124l-144 -158q139 -184 139 -463zM569 1384q-41 35 -47 95l375 260q100 -68 104 -201z" />
    <glyph glyph-name="oslashacute" unicode="&#x1ff;" horiz-adv-x="1183" 
d="M592 172q129 0 204.5 86t75.5 204.5t-36 192.5l-398 -442q66 -41 154 -41zM311 483q0 -98 37 -170l400 443q-70 43 -156 43q-129 0 -205 -87.5t-76 -228.5zM1106 473q0 -213 -146.5 -358.5t-371.5 -145.5q-166 0 -293 84l-105 -116q-70 27 -96 96l99 110
q-115 141 -115 353t147.5 357.5t370.5 145.5q170 0 295 -86l102 113q72 -23 97 -88l-101 -113q117 -139 117 -352zM434 1059q-51 35 -65 94l321 301q98 -53 133 -184z" />
    <glyph glyph-name="Scommaaccent" unicode="&#x218;" horiz-adv-x="1105" 
d="M485 -213q0 59 -20 117q45 20 103 20t100 -18q6 -41 6 -76q0 -88 -43 -166t-121 -125q-57 8 -82 62q57 74 57 186zM539 -33q-301 0 -473 164q20 123 120 182q145 -131 355 -131q127 0 190.5 48.5t63.5 125t-57.5 124.5t-186.5 78.5t-195 57.5t-126 71q-126 92 -126 271
t126 284.5t335 105.5q270 0 439 -131q-4 -55 -36 -109.5t-77 -79.5q-147 106 -334 107q-102 0 -163.5 -44t-61.5 -111t52 -108t237.5 -85.5t293 -138t109.5 -278t-128 -294t-357 -109.5z" />
    <glyph glyph-name="scommaaccent" unicode="&#x219;" horiz-adv-x="960" 
d="M422 -213q0 59 -21 117q45 20 104.5 20t98.5 -18q6 -41 6 -76q0 -88 -43 -166t-121 -125q-57 8 -81 62q57 74 57 186zM467 -33q-258 0 -401 123q27 111 106 160q133 -96 309 -96t176 116q0 51 -51 80t-191.5 51.5t-231.5 88t-91 202.5t111.5 221t319.5 84t341 -94
q-16 -109 -88 -166q-129 74 -294.5 74t-166.5 -100q0 -49 44 -75t192.5 -49.5t243 -91t94.5 -211t-111.5 -230.5t-310.5 -87z" />
    <glyph glyph-name="uni021A" unicode="&#x21a;" horiz-adv-x="1112" 
d="M563 -76q59 0 99 -18q6 -41 6 -76q0 -88 -43 -166t-121 -125q-57 8 -82 62q57 74 57 186q0 59 -20 117q45 20 104 20zM1081 1211q0 -50 -12 -105h-397v-1108q-78 -12 -116 -12t-116 12v1108h-399q-12 53 -12 104.5t12 104.5h1028q12 -54 12 -104z" />
    <glyph glyph-name="uni021B" unicode="&#x21b;" horiz-adv-x="876" 
d="M539 -76q59 0 98 -18q6 -41 6 -76q0 -88 -43 -166t-121 -125q-57 8 -82 62q57 74 58 186q0 59 -21 117q46 20 105 20zM209 299v469h-166q-8 41 -8 94t8 94h166v258q49 10 116 10.5t113 -10.5v-258h363q10 -39 10 -93t-10 -95h-363v-416q0 -100 42 -140t128 -40t156 66
q84 -58 98 -162q-121 -104 -289 -104.5t-266 79.5t-98 248z" />
    <glyph glyph-name="circumflex" unicode="&#x2c6;" horiz-adv-x="694" 
d="M424 1419l227 -233q-23 -80 -98 -113l-207 164l-201 -162q-74 27 -96 103l234 241q69 14 141 0z" />
    <glyph glyph-name="caron" unicode="&#x2c7;" horiz-adv-x="692" 
d="M276 1087l-223 234q18 82 97 113l202 -162l207 162q72 -27 96 -105l-237 -242q-70 -14 -142 0z" />
    <glyph glyph-name="breve" unicode="&#x2d8;" horiz-adv-x="729" 
d="M364 1083q-155 0 -238 91.5t-83 214.5q68 29 156 18q29 -158 170 -158q72 0 112.5 42t48.5 116q94 10 154 -18q0 -121 -82.5 -213.5t-237.5 -92.5z" />
    <glyph glyph-name="dotaccent" unicode="&#x2d9;" horiz-adv-x="475" 
d="M238 1114q-61 0 -105.5 43t-44.5 104.5t44 104.5t105.5 43t105.5 -43t44 -104.5t-44 -104.5t-105 -43z" />
    <glyph glyph-name="ring" unicode="&#x2da;" horiz-adv-x="520" 
d="M261 1169q36 0 60.5 26t24.5 61.5t-24.5 62.5t-60.5 27t-60.5 -27t-24.5 -63t24.5 -61.5t60.5 -25.5zM261 1036q-91 0 -156.5 64.5t-65.5 155.5t65.5 156t156.5 65t155.5 -64.5t64.5 -156t-64.5 -156t-155.5 -64.5z" />
    <glyph glyph-name="ogonek" unicode="&#x2db;" horiz-adv-x="567" 
d="M266 -410q-86 0 -144 48t-59 126q0 152 203 302h158q-74 -56 -123 -120t-49 -112q0 -68 72 -67q45 0 102 40q76 -51 76 -133q-89 -84 -236 -84z" />
    <glyph glyph-name="tilde" unicode="&#x2dc;" horiz-adv-x="802" 
d="M524 1317q74 0 97 86q100 0 161 -55q-23 -100 -87 -157.5t-135.5 -57.5t-160 38.5t-112.5 38.5q-74 0 -101 -92q-41 0 -91 15.5t-72 42.5q23 104 88 162.5t138.5 57.5t160 -40t114.5 -39z" />
    <glyph glyph-name="hungarumlaut" unicode="&#x2dd;" horiz-adv-x="722" 
d="M436 1063q-61 20 -84 67l187 330q106 -20 157 -121zM113 1063q-61 23 -84 65l180 334q109 -16 162 -119z" />
    <glyph glyph-name="gravecomb" unicode="&#x300;" 
d="M-109 1059l-389 211q31 129 133 184l322 -303q-19 -63 -66 -92z" />
    <glyph glyph-name="acutecomb" unicode="&#x301;" 
d="M-424 1059q-51 35 -65 94l321 301q98 -53 133 -184z" />
    <glyph glyph-name="uni0302" unicode="&#x302;" 
d="M-285 1419l228 -233q-23 -80 -99 -113l-206 164l-201 -162q-74 27 -96 103l233 241q69 14 141 0z" />
    <glyph glyph-name="tildecomb" unicode="&#x303;" 
d="M-279 1317q70 0 97 86q96 0 162 -55q-23 -100 -88.5 -157.5t-137 -57.5t-159 38.5t-113.5 38.5q-71 0 -98 -92q-43 0 -92.5 15.5t-71.5 42.5q20 102 86.5 161.5t140 58.5t160 -40t114.5 -39z" />
    <glyph glyph-name="uni0304" unicode="&#x304;" 
d="M-649 1249q0 55 12 90h580q10 -47 10 -90t-10 -90h-580q-12 35 -12 90z" />
    <glyph glyph-name="uni0306" unicode="&#x306;" 
d="M-361 1083q-155 0 -238 91.5t-83 214.5q68 29 156 18q29 -158 170 -158q72 0 112.5 42t48.5 116q94 10 154 -18q0 -121 -82.5 -213.5t-237.5 -92.5z" />
    <glyph glyph-name="uni0307" unicode="&#x307;" 
d="M-238 1114q-61 0 -105 43t-44 104.5t44 104.5t105 43t105.5 -43t44.5 -104.5t-44.5 -104.5t-105.5 -43z" />
    <glyph glyph-name="uni0308" unicode="&#x308;" 
d="M-174 1116q-53 0 -92 38t-39 92t38 92t92 38t93 -38t39 -92t-39 -92t-92 -38zM-601 1116q-54 0 -93 38t-39 92t38 92t93 38t93 -38t38 -92t-38 -92t-92 -38z" />
    <glyph glyph-name="uni030A" unicode="&#x30a;" 
d="M-253 1169q36 0 60.5 26t24.5 61.5t-24.5 62.5t-60.5 27t-60.5 -27t-24.5 -63t24.5 -61.5t60.5 -25.5zM-253 1036q-91 0 -156.5 64.5t-65.5 155.5t65.5 156t156.5 65t155.5 -64.5t64.5 -156t-64.5 -156t-155.5 -64.5z" />
    <glyph glyph-name="uni030B" unicode="&#x30b;" 
d="M-311 1063q-61 20 -84 67l186 330q106 -20 158 -121zM-635 1063q-61 23 -84 65l180 334q109 -16 162 -119z" />
    <glyph glyph-name="uni030C" unicode="&#x30c;" 
d="M-430 1087l-223 234q18 82 96 113l203 -162l207 162q72 -27 96 -105l-238 -242q-71 -14 -141 0z" />
    <glyph glyph-name="uni0326" unicode="&#x326;" 
d="M-182.5 -76q59.5 0 98.5 -18q6 -41 6 -76q0 -88 -43 -166t-121 -125q-57 8 -82 62q57 74 58 186q0 59 -21 117q45 20 104.5 20z" />
    <glyph glyph-name="uni0327" unicode="&#x327;" 
d="M-47 -225q0 -104 -77 -148.5t-180.5 -44.5t-162.5 43q4 74 53 121q45 -29 95 -29q80 0 79 60q0 66 -133 69l68 177h137l-35 -99q156 -31 156 -149z" />
    <glyph glyph-name="uni0328" unicode="&#x328;" 
d="M-266 -410q-86 0 -144.5 48.5t-58.5 125.5q0 152 203 302h157q-74 -57 -123 -121t-49 -111q0 -68 72 -67q45 0 103 40q76 -51 75 -133q-88 -84 -235 -84z" />
    <glyph glyph-name="uni0335" unicode="&#x335;" 
d="M-635 983q0 41 12 80h562q12 -37 12 -78t-12 -78h-562q-12 35 -12 76z" />
    <glyph glyph-name="uni0336" unicode="&#x336;" 
d="M-1427 968q0 44 14 79h1360q12 -35 12 -76t-12 -82h-1360q-14 35 -14 79z" />
    <glyph glyph-name="uni0337" unicode="&#x337;" 
d="M-524 520q-63 49 -70 139l514 267q57 -57 68 -142z" />
    <glyph glyph-name="uni0338" unicode="&#x338;" 
d="M-1001 -61q-70 23 -97 96l899 993q72 -27 97 -88z" />
    <glyph glyph-name="Wgrave" unicode="&#x1e80;" horiz-adv-x="1898" 
d="M1730.5 1329q73.5 0 133.5 -22q-172 -770 -396 -1305q-61 -12 -121.5 -12t-129.5 12l-226 772l-33 146l-32 -148l-250 -768q-57 -12 -121.5 -12t-138.5 12q-225 555 -367 1305q82 20 149.5 20t106.5 -6q76 -539 250 -1075l33 143l256 819q47 12 118 12.5t117 -12.5
l242 -819l35 -145q176 530 270 1075q31 8 104.5 8zM1180 1479q-10 -63 -50 -95l-430 154q0 131 105 201z" />
    <glyph glyph-name="wgrave" unicode="&#x1e81;" horiz-adv-x="1542" 
d="M1385.5 973q68.5 0 127.5 -19q-137 -571 -360 -954q-47 -10 -112.5 -10t-112.5 10q-92 174 -164 371q-53 -201 -139 -371q-47 -10 -118 -10t-114 10q-229 381 -360 954q59 18 134.5 18.5t115.5 -5.5q96 -455 229 -756l6 -27q6 20 8 27q90 205 146 442q-31 109 -78 301
q107 33 242 13q96 -487 206 -756l7 -33q4 20 8 33q123 285 219 756q41 6 109.5 6zM977 1151q-18 -63 -66 -92l-389 211q31 129 133 184z" />
    <glyph glyph-name="Wacute" unicode="&#x1e82;" horiz-adv-x="1898" 
d="M1730.5 1329q73.5 0 133.5 -22q-172 -770 -396 -1305q-61 -12 -121.5 -12t-129.5 12l-226 772l-33 146l-32 -148l-250 -768q-57 -12 -121.5 -12t-138.5 12q-225 555 -367 1305q82 20 149.5 20t106.5 -6q76 -539 250 -1075l33 143l256 819q47 12 118 12.5t117 -12.5
l242 -819l35 -145q176 530 270 1075q31 8 104.5 8zM772 1384q-41 35 -47 95l375 260q100 -68 104 -201z" />
    <glyph glyph-name="wacute" unicode="&#x1e83;" horiz-adv-x="1542" 
d="M1385.5 973q68.5 0 127.5 -19q-137 -571 -360 -954q-47 -10 -112.5 -10t-112.5 10q-92 174 -164 371q-53 -201 -139 -371q-47 -10 -118 -10t-114 10q-229 381 -360 954q59 18 134.5 18.5t115.5 -5.5q96 -455 229 -756l6 -27q6 20 8 27q90 205 146 442q-31 109 -78 301
q107 33 242 13q96 -487 206 -756l7 -33q4 20 8 33q123 285 219 756q41 6 109.5 6zM606 1059q-51 35 -65 94l321 301q98 -53 133 -184z" />
    <glyph glyph-name="Wdieresis" unicode="&#x1e84;" horiz-adv-x="1898" 
d="M1730.5 1329q73.5 0 133.5 -22q-172 -770 -396 -1305q-61 -12 -121.5 -12t-129.5 12l-226 772l-33 146l-32 -148l-250 -768q-57 -12 -121.5 -12t-138.5 12q-225 555 -367 1305q82 20 149.5 20t106.5 -6q76 -539 250 -1075l33 143l256 819q47 12 118 12.5t117 -12.5
l242 -819l35 -145q176 530 270 1075q31 8 104.5 8zM1177.5 1434q-53.5 0 -92 37.5t-38.5 91t37.5 91.5t92 38t92.5 -38t38 -91.5t-38 -91t-91.5 -37.5zM744 1434q-54 0 -92 37.5t-38 91t38 91.5t92 38t91 -38t37 -91.5t-37 -91t-91 -37.5z" />
    <glyph glyph-name="wdieresis" unicode="&#x1e85;" horiz-adv-x="1542" 
d="M1385.5 973q68.5 0 127.5 -19q-137 -571 -360 -954q-47 -10 -112.5 -10t-112.5 10q-92 174 -164 371q-53 -201 -139 -371q-47 -10 -118 -10t-114 10q-229 381 -360 954q59 18 134.5 18.5t115.5 -5.5q96 -455 229 -756l6 -27q6 20 8 27q90 205 146 442q-31 109 -78 301
q107 33 242 13q96 -487 206 -756l7 -33q4 20 8 33q123 285 219 756q41 6 109.5 6zM979 1116q-53 0 -92 38t-39 92t38 92t92 38t93 -38t39 -92t-39 -92t-92 -38zM552 1116q-54 0 -93 38t-39 92t38 92t93 38t93 -38t38 -92t-38 -92t-92 -38z" />
    <glyph glyph-name="uni1E9E" unicode="&#x1e9e;" horiz-adv-x="1323" 
d="M1264 338q0 -164 -114 -267t-286 -104q-233 0 -354 129q20 117 123 183q102 -98 229 -99q80 0 124 42t44 106t-34 108q-34 46 -131 100t-143 87t-89 99t-43 150q0 147 125 234q-41 -4 -92 -4q-106 0 -174 -56t-68 -167v-879q-45 -10 -114 -10t-120 10v874q1 203 133 322
t343 119h448q12 -49 12 -105t-12 -112q-117 -6 -177 -52t-60 -124q0 -49 26 -85t101 -79q163 -92 233 -174t70 -246z" />
    <glyph glyph-name="Ygrave" unicode="&#x1ef2;" horiz-adv-x="1222" 
d="M611.5 -12q-56.5 0 -117.5 12v506l-482 803q86 20 144.5 20t119.5 -8l306 -522l39 -86l38 86l299 522q43 8 103.5 8t142.5 -18l-477 -817v-494q-59 -12 -115.5 -12zM831 1479q-10 -63 -49 -95l-430 154q0 131 105 201z" />
    <glyph glyph-name="ygrave" unicode="&#x1ef3;" horiz-adv-x="1058" 
d="M899.5 975q55.5 0 124.5 -25q-92 -465 -263 -789.5t-466 -588.5q-104 29 -148 152q182 176 263 301q-246 397 -375 929q101 33 254 13q82 -381 243 -721q12 -29 17 -41q11 34 16 41q131 272 221 721q58 8 113.5 8zM752 1151q-18 -63 -66 -92l-389 211q31 129 133 184z
" />
    <glyph glyph-name="uni1EF8" unicode="&#x1ef8;" horiz-adv-x="1222" 
d="M611.5 -12q-56.5 0 -117.5 12v506l-482 803q86 20 144.5 20t119.5 -8l306 -522l39 -86l38 86l299 522q43 8 103.5 8t142.5 -18l-477 -817v-494q-59 -12 -115.5 -12zM455.5 1683q76.5 0 167 -38.5t116.5 -38.5q76 0 97 88q106 0 161 -56q-20 -100 -86.5 -158.5t-139 -58.5
t-165 37t-119.5 37q-80 0 -100 -86q-43 0 -91 15.5t-71 41.5q20 102 87 159.5t143.5 57.5z" />
    <glyph glyph-name="uni1EF9" unicode="&#x1ef9;" horiz-adv-x="1058" 
d="M899.5 975q55.5 0 124.5 -25q-92 -465 -263 -789.5t-466 -588.5q-104 29 -148 152q182 176 263 301q-246 397 -375 929q101 33 254 13q82 -381 243 -721q12 -29 17 -41q11 34 16 41q131 272 221 721q58 8 113.5 8zM664 1317q70 0 96 86q96 0 162 -55
q-23 -100 -88.5 -157.5t-137 -57.5t-158.5 38.5t-114 38.5q-71 0 -98 -92q-43 0 -92.5 15.5t-71.5 42.5q20 102 86.5 161.5t140.5 58.5t160 -40t115 -39z" />
    <glyph glyph-name="endash" unicode="&#x2013;" horiz-adv-x="1167" 
d="M123 511q0 50 12 85h897q12 -39 12 -84t-12 -84h-897q-12 33 -12 83z" />
    <glyph glyph-name="emdash" unicode="&#x2014;" horiz-adv-x="2189" 
d="M123 512q0 45 14 86h1917q10 -47 10 -86t-10 -86h-1917q-14 41 -14 86z" />
    <glyph glyph-name="quoteleft" unicode="&#x2018;" horiz-adv-x="440" 
d="M210 920q-64 0 -101 14q-17 38 -17 130t55 188t125 153q25 -3 51 -19t33 -38q-63 -84 -63 -246q0 -102 31 -160q-50 -22 -114 -22z" />
    <glyph glyph-name="quoteright" unicode="&#x2019;" horiz-adv-x="425" 
d="M147 1223q0 98 -28 159q51 23 113 23t100 -14q16 -39 16 -131t-55 -188q-55 -97 -125 -152q-24 2 -50 18t-34 39q63 82 63 246z" />
    <glyph glyph-name="quotesinglbase" unicode="&#x201a;" horiz-adv-x="452" 
d="M226 227q64 0 96 -14q16 -39 16 -131t-55 -188q-55 -97 -125 -150q-27 2 -53 18t-33 39q66 82 65 246q0 92 -31 160q56 20 120 20z" />
    <glyph glyph-name="quotedblleft" unicode="&#x201c;" horiz-adv-x="761" 
d="M530 920q-64 0 -100 14q-16 38 -16 130t55 188t127 153q24 -3 50 -19t34 -38q-63 -84 -64 -246q0 -98 29 -160q-51 -22 -115 -22zM208 920q-64 0 -99 14q-17 38 -17 130t54 188t124 153q25 -3 52 -19t34 -38q-66 -84 -65 -246q0 -94 31 -160q-50 -22 -114 -22z" />
    <glyph glyph-name="quotedblright" unicode="&#x201d;" horiz-adv-x="751" 
d="M496 913q-27 3 -53 19t-33 39q66 82 65 246q0 92 -31 159q50 20 116 20t97 -14q17 -39 17 -130q0 -90 -54 -188t-124 -151zM350 1252q0 -92 -55 -188t-125 -151q-24 3 -50 19t-34 39q63 82 64 246q0 98 -31 159q55 20 119 20t96 -14q16 -39 16 -130z" />
    <glyph glyph-name="quotedblbase" unicode="&#x201e;" horiz-adv-x="774" 
d="M550 227q66 0 95 -14q17 -39 17 -131t-56 -188q-56 -97 -125 -150q-25 2 -51 18t-33 39q63 82 64 246q0 96 -29 160q52 20 118 20zM135 47q0 96 -29 160q56 20 120 20t96 -14q16 -39 16 -131t-55 -188q-55 -97 -125 -150q-27 2 -52 18t-32 39q61 82 61 246z" />
    <glyph glyph-name="dagger" unicode="&#x2020;" horiz-adv-x="1024" 
d="M928 1014q0 -59 -13 -115l-301 21v-1244q-45 -12 -102 -12t-106 12v1244l-297 -21q-26 115 0 217l297 -20v379q57 10 105 10t103 -10v-379l301 20q13 -43 13 -102z" />
    <glyph glyph-name="daggerdbl" unicode="&#x2021;" horiz-adv-x="1024" 
d="M512 -336q-57 0 -106 12v377l-297 -20q-12 53 -13 108q0 55 13 109l297 -21v691l-297 -21q-26 115 0 217l297 -20v379q57 10 105 10t103 -10v-379l301 20q27 -99 0 -217l-301 21v-691l301 21q27 -104 0 -217l-301 20v-377q-45 -12 -102 -12z" />
    <glyph glyph-name="bullet" unicode="&#x2022;" horiz-adv-x="751" 
d="M376 324q-95 0 -164 68t-69 162q0 95 69 164q69 68 164 68t163 -68q67 -68 67 -164q0 -95 -67 -163q-68 -67 -163 -67z" />
    <glyph glyph-name="ellipsis" unicode="&#x2026;" horiz-adv-x="1210" 
d="M983 -29q-53 0 -92 39t-39 93q0 55 38 93t92 38t93 -38t39 -92t-39 -94q-39 -39 -92 -39zM613 -29q-54 0 -93 39t-39 93q0 55 39 93t93 38t93 -38q38 -38 38 -92t-39 -94q-38 -39 -92 -39zM228 -29q-54 0 -93 39t-39 93q0 55 38 93t93 38t94 -38q37 -38 37 -92t-38 -94
q-38 -39 -92 -39z" />
    <glyph glyph-name="perthousand" unicode="&#x2030;" horiz-adv-x="2267" 
d="M1894 109q72 0 109 46t37 123q0 78 -37 124t-109 46t-108 -46q-36 -48 -37 -124q1 -76 37 -123q36 -46 108 -46zM1184 109q72 0 108 46t35 123q0 78 -36 124q-35 46 -107 46t-109 -46q-37 -48 -37 -124t37 -123q37 -46 109 -46zM1894 -33q-143 0 -225 86q-82 85 -82 225
t82 225t225 85q144 0 226 -86t82 -224t-82 -225q-83 -86 -226 -86zM1184 -33q-143 0 -227 86q-83 87 -83 225t82 224t226 86t227 -86q82 -86 82 -224t-82 -224t-225 -87zM370 756q72 0 108 46t36 123t-36 124t-108 47t-110 -47q-37 -47 -37 -124t37 -123t110 -46zM676 926
q0 -140 -81 -226t-225 -86t-227 86q-82 86 -82 226t82 224q83 85 227 85t225 -85t81 -224zM244 -96l893 1380q90 18 170 0l-895 -1380q-90 -23 -168 0z" />
    <glyph glyph-name="guilsinglleft" unicode="&#x2039;" horiz-adv-x="579" 
d="M375 174l-307 344l303 350q68 -12 98 -67l-162 -279l162 -284q-24 -52 -94 -64z" />
    <glyph glyph-name="guilsinglright" unicode="&#x203a;" horiz-adv-x="579" 
d="M207 174q-70 12 -96 64l161 280l-163 283q29 55 94 67l307 -348z" />
    <glyph glyph-name="fraction" unicode="&#x2044;" horiz-adv-x="1138" 
d="M0 -96l965 1458q88 18 174 0l-963 -1458q-90 -20 -176 0z" />
    <glyph glyph-name="Euro" unicode="&#x20ac;" horiz-adv-x="1314" 
d="M865 -31q-241 0 -399 131t-208 361h-188q-8 45 -8 69t8 68h170q-2 20 -2 66t2 69h-134q-8 31 -8 69t8 68h154q55 222 217 354t384 132t366 -103q-29 -121 -115 -174q-104 68 -235 68q-293 0 -371 -277h375q8 -30 8 -68t-8 -69h-400q-2 -23 -2 -69t2 -66h365q6 -33 6 -68
t-6 -69h-340q41 -137 135 -210q95 -73 237 -73t248 78q98 -63 117 -174q-137 -113 -378 -113z" />
    <glyph glyph-name="trademark" unicode="&#x2122;" horiz-adv-x="1591" 
d="M649 1280q0 -39 -6 -76h-194v-575q-47 -6 -89 -6t-88 6v575h-200q-6 37 -6 76t6 82h571q6 -43 6 -82zM1348 1368q42 0 100 -8v-729q-49 -6 -89 -6t-79 6v291l10 127l-135 -328q-33 -8 -83 -8t-85 8l-139 330l10 -129v-291q-37 -6 -78 -6t-90 6v729q60 8 106 8t91 -4
l176 -401l16 -54l15 54l163 401q49 4 91 4z" />
    <glyph glyph-name="minus" unicode="&#x2212;" horiz-adv-x="1144" 
d="M129 486q0 52 10 85h869q10 -45 10 -85t-10 -85h-869q-10 33 -10 85z" />
    <glyph glyph-name="approxequal" unicode="&#x2248;" horiz-adv-x="1110" 
d="M382 397q72 0 175 -44q102 -44 170 -44t139 97q88 -20 123 -93q-45 -86 -118 -134t-153 -48t-182 45q-101 45 -149 45q-92 0 -149 -92q-33 10 -68 36t-49 56q45 82 117 129t144 47zM382 778q72 0 175 -44q102 -44 170 -44t139 96q88 -20 123 -94q-47 -84 -120 -132
t-153 -48t-180 44q-101 44 -149 44q-94 0 -151 -90q-31 8 -66 35t-49 57q45 82 117 129t144 47z" />
    <glyph glyph-name="notequal" unicode="&#x2260;" horiz-adv-x="1144" 
d="M1016 285q0 -39 -10 -86h-498l-141 -242q-68 18 -125 78l96 164h-201q-8 39 -8 87t8 83h301l131 223h-432q-8 39 -8 86t8 86h535l125 213q78 -23 125 -76l-80 -137h164q10 -47 10 -86t-10 -86h-267l-131 -223h398q10 -45 10 -84z" />
    <glyph glyph-name="dotlessj" unicode="&#xf6be;" horiz-adv-x="526" 
d="M391 -33q-1 -177 -103 -275t-258 -98t-243 82q4 46 35 92t74 68q63 -45 118 -45q143 0 144 170v1006q48 10 116 10t117 -10v-1000z" />
    <glyph glyph-name="uniF8FF" unicode="&#xf8ff;" horiz-adv-x="2971" 
d="M2253 31q8 0 8 6t-8 6h-15v-12h15zM2238 23v-19h-10v47h23q20 0 20 -14t-14 -14l12 -19h-12l-8 19h-11zM2212 27q0 -37 37 -37t37 37t-37 36q-37 1 -37 -36zM2200 27q0 47 49 47t49 -47t-49 -47t-49 47zM1448 223q0 47 -43 47t-43 -63q0 -29 10 -60q30 -1 53 23t23 53z
M1921 223h82q6 55 -35 56q-47 0 -47 -56zM2191 260q0 -43 -6 -72h-254q23 -36 98 -36t117 24v-153q-47 -33 -159 -33q-289 0 -289 250q0 122 66 190t185 68q118 0 180 -62t62 -176zM1501 498q76 0 120 -60t44 -172q0 -276 -281 -276q2 -31 2 -80h-243q0 291 20 577h160
q14 -86 14 -155q35 166 164 166zM877 487h213q20 -106 20 -277t-69 -242t-242 -70q-125 0 -181 34v170q49 -32 118 -32q136 1 136 57q-33 -23 -100 -23q-184 0 -184 170v27h-113l6 -133q12 -8 35 -8t33 10v-150q-39 -30 -135 -30t-133 35t-37 113t6 163h-37v164l240 59
l-2 -37h362v-243q0 -33 6 -44t25 -12q33 0 33 56v243zM2562 764q0 57 -45 57t-45 -57t45 -57t45 57zM799 764q0 57 -47 57t-47 -57t47 -57t47 57zM2519 1053q248 0 248 -255t-251 -255t-251 255t254 255zM1708 553q0 358 21 489h163q12 -90 13 -155q4 31 13 61t49 68
q39 37 113 37q74 1 108 -51t38 -166l6 -283h-233l4 190q0 59 -31 60q-37 0 -37 -60l7 -190h-234zM1012 813v-260h-170l-17 125q-24 -135 -153 -135q-188 0 -189 233q0 276 275 277q254 0 254 -240zM1032 854v162l244 61l2 -35h364q20 -131 21 -489h-242q0 188 6 301h-124
l6 -133q9 -8 33 -8t34 10v-152q-29 -31 -139 -30q-168 0 -168 135l8 178h-45zM449 553h-244q0 274 18 643h205q21 -410 21 -643zM1415 1195q0 52 36 89t89 37t90 -37t37 -90t-37 -89t-90 -36t-89 37t-36 89z" />
    <glyph glyph-name="A.ss01" horiz-adv-x="1261" 
d="M410 512h432q-80 233 -183 465l-34 84l-33 -84q-108 -242 -182 -465zM146.5 -8q-66.5 0 -119.5 22q197 715 483 1301q47 12 119 12t119 -12q287 -596 487 -1301q-61 -23 -131.5 -22.5t-110.5 8.5q-29 119 -88 315h-557q-43 -143 -86 -315q-49 -8 -115.5 -8z" />
    <glyph glyph-name="Aacute.ss01" horiz-adv-x="1261" 
d="M410 512h432q-80 233 -183 465l-34 84l-33 -84q-108 -242 -182 -465zM146.5 -8q-66.5 0 -119.5 22q197 715 483 1301q47 12 119 12t119 -12q287 -596 487 -1301q-61 -23 -131.5 -22.5t-110.5 8.5q-29 119 -88 315h-557q-43 -143 -86 -315q-49 -8 -115.5 -8zM442 1384
q-41 35 -47 95l375 260q100 -68 104 -201z" />
    <glyph glyph-name="Abreve.ss01" horiz-adv-x="1261" 
d="M410 512h432q-80 233 -183 465l-34 84l-33 -84q-108 -242 -182 -465zM146.5 -8q-66.5 0 -119.5 22q197 715 483 1301q47 12 119 12t119 -12q287 -596 487 -1301q-61 -23 -131.5 -22.5t-110.5 8.5q-29 119 -88 315h-557q-43 -143 -86 -315q-49 -8 -115.5 -8zM631 1405
q-145 0 -230.5 82t-85.5 196q66 27 150 17q31 -123 172 -123q63 0 109.5 31.5t54.5 91.5q84 10 145 -17q0 -111 -85 -194.5t-230 -83.5z" />
    <glyph glyph-name="Acircumflex.ss01" horiz-adv-x="1261" 
d="M410 512h432q-80 233 -183 465l-34 84l-33 -84q-108 -242 -182 -465zM146.5 -8q-66.5 0 -119.5 22q197 715 483 1301q47 12 119 12t119 -12q287 -596 487 -1301q-61 -23 -131.5 -22.5t-110.5 8.5q-29 119 -88 315h-557q-43 -143 -86 -315q-49 -8 -115.5 -8zM397 1403
q-59 37 -71 108l235 193q70 18 141 0l238 -188q-14 -72 -74 -113l-241 139z" />
    <glyph glyph-name="Adieresis.ss01" horiz-adv-x="1261" 
d="M410 512h432q-80 233 -183 465l-34 84l-33 -84q-108 -242 -182 -465zM146.5 -8q-66.5 0 -119.5 22q197 715 483 1301q47 12 119 12t119 -12q287 -596 487 -1301q-61 -23 -131.5 -22.5t-110.5 8.5q-29 119 -88 315h-557q-43 -143 -86 -315q-49 -8 -115.5 -8zM848 1434
q-53 0 -92 37.5t-39 91t38 91.5t92 38t92 -38t38 -91.5t-38 -91t-91 -37.5zM415 1434q-54 0 -92 37.5t-38 91t37.5 91.5t92 38t91.5 -38t37 -91.5t-37 -91t-91 -37.5z" />
    <glyph glyph-name="Agrave.ss01" horiz-adv-x="1261" 
d="M410 512h432q-80 233 -183 465l-34 84l-33 -84q-108 -242 -182 -465zM146.5 -8q-66.5 0 -119.5 22q197 715 483 1301q47 12 119 12t119 -12q287 -596 487 -1301q-61 -23 -131.5 -22.5t-110.5 8.5q-29 119 -88 315h-557q-43 -143 -86 -315q-49 -8 -115.5 -8zM850 1479
q-10 -63 -49 -95l-430 154q0 131 104 201z" />
    <glyph glyph-name="Amacron.ss01" horiz-adv-x="1261" 
d="M410 512h432q-80 233 -183 465l-34 84l-33 -84q-108 -242 -182 -465zM146.5 -8q-66.5 0 -119.5 22q197 715 483 1301q47 12 119 12t119 -12q287 -596 487 -1301q-61 -23 -131.5 -22.5t-110.5 8.5q-29 119 -88 315h-557q-43 -143 -86 -315q-49 -8 -115.5 -8zM324 1553
q0 30 12 87h592q12 -39 12 -84t-12 -86h-592q-12 53 -12 83z" />
    <glyph glyph-name="Aogonek.ss01" horiz-adv-x="1261" 
d="M410 512h432q-80 233 -183 465l-34 84l-33 -84q-108 -242 -182 -465zM1094 -162q0 -76 81 -76q38 0 95 41q76 -51 76 -133q-88 -84 -236 -84q-88 0 -145.5 48.5t-57.5 129.5q0 123 117 232q-10 0 -31 4q-29 119 -88 315h-557q-43 -143 -86 -315q-49 -8 -115.5 -8
t-119.5 22q197 715 483 1301q47 12 119 12t119 -12q287 -596 487 -1301q-141 -80 -141 -176z" />
    <glyph glyph-name="Aring.ss01" horiz-adv-x="1261" 
d="M410 512h432q-80 233 -183 465l-34 84l-33 -84q-108 -242 -182 -465zM146.5 -8q-66.5 0 -119.5 22q197 715 483 1301q47 12 119 12t119 -12q287 -596 487 -1301q-61 -23 -131.5 -22.5t-110.5 8.5q-29 119 -88 315h-557q-43 -143 -86 -315q-49 -8 -115.5 -8zM631 1655
q-37 0 -59.5 -25.5t-22.5 -61.5t23.5 -61.5t58.5 -25.5t58.5 25.5t23.5 61.5t-22.5 61.5t-59.5 25.5zM632 1348q-91 0 -155.5 64.5t-64.5 155.5t64.5 155.5t155.5 64.5t154.5 -64.5t63.5 -155.5t-63.5 -155.5t-154.5 -64.5z" />
    <glyph glyph-name="Atilde.ss01" horiz-adv-x="1261" 
d="M410 512h432q-80 233 -183 465l-34 84l-33 -84q-108 -242 -182 -465zM146.5 -8q-66.5 0 -119.5 22q197 715 483 1301q47 12 119 12t119 -12q287 -596 487 -1301q-61 -23 -131.5 -22.5t-110.5 8.5q-29 119 -88 315h-557q-43 -143 -86 -315q-49 -8 -115.5 -8zM476 1683
q77 0 167 -38.5t117 -38.5q76 0 96 88q106 0 162 -56q-20 -100 -87 -158.5t-139.5 -58.5t-164.5 37t-119 37q-80 0 -100 -86q-43 0 -91.5 15.5t-70.5 41.5q20 102 86.5 159.5t143.5 57.5z" />
    <glyph glyph-name="E.ss01" horiz-adv-x="1015" 
d="M600.5 -29q-237.5 0 -376 96.5t-138.5 292.5q0 238 219 332q-164 92 -164 289q0 162 116 264.5t314.5 102.5t341.5 -93q-10 -113 -94 -180q-119 61 -230 61.5t-166.5 -46t-55.5 -129.5q0 -182 268 -183h110q34 -91 0 -188h-135q-281 0 -280 -207q0 -96 65.5 -150.5
t188.5 -54.5q176 0 297 90q86 -51 104 -176q-147 -121 -384.5 -121z" />
    <glyph glyph-name="Eacute.ss01" horiz-adv-x="1015" 
d="M600.5 -29q-237.5 0 -376 96.5t-138.5 292.5q0 238 219 332q-164 92 -164 289q0 162 116 264.5t314.5 102.5t341.5 -93q-10 -113 -94 -180q-119 61 -230 61.5t-166.5 -46t-55.5 -129.5q0 -182 268 -183h110q34 -91 0 -188h-135q-281 0 -280 -207q0 -96 65.5 -150.5
t188.5 -54.5q176 0 297 90q86 -51 104 -176q-147 -121 -384.5 -121zM367 1384q-41 35 -48 95l375 260q100 -68 105 -201z" />
    <glyph glyph-name="Ecaron.ss01" horiz-adv-x="1015" 
d="M600.5 -29q-237.5 0 -376 96.5t-138.5 292.5q0 238 219 332q-164 92 -164 289q0 162 116 264.5t314.5 102.5t341.5 -93q-10 -113 -94 -180q-119 61 -230 61.5t-166.5 -46t-55.5 -129.5q0 -182 268 -183h110q34 -91 0 -188h-135q-281 0 -280 -207q0 -96 65.5 -150.5
t188.5 -54.5q176 0 297 90q86 -51 104 -176q-147 -121 -384.5 -121zM629 1417q-72 -18 -142 0l-237 191q16 72 74 110l241 -139l228 139q59 -33 71 -106z" />
    <glyph glyph-name="Ecircumflex.ss01" horiz-adv-x="1015" 
d="M600.5 -29q-237.5 0 -376 96.5t-138.5 292.5q0 238 219 332q-164 92 -164 289q0 162 116 264.5t314.5 102.5t341.5 -93q-10 -113 -94 -180q-119 61 -230 61.5t-166.5 -46t-55.5 -129.5q0 -182 268 -183h110q34 -91 0 -188h-135q-281 0 -280 -207q0 -96 65.5 -150.5
t188.5 -54.5q176 0 297 90q86 -51 104 -176q-147 -121 -384.5 -121zM322 1403q-59 37 -72 108l235 193q72 18 142 0l237 -188q-14 -72 -73 -113l-242 139z" />
    <glyph glyph-name="Edieresis.ss01" horiz-adv-x="1015" 
d="M600.5 -29q-237.5 0 -376 96.5t-138.5 292.5q0 238 219 332q-164 92 -164 289q0 162 116 264.5t314.5 102.5t341.5 -93q-10 -113 -94 -180q-119 61 -230 61.5t-166.5 -46t-55.5 -129.5q0 -182 268 -183h110q34 -91 0 -188h-135q-281 0 -280 -207q0 -96 65.5 -150.5
t188.5 -54.5q176 0 297 90q86 -51 104 -176q-147 -121 -384.5 -121zM772 1434q-53 0 -92 37.5t-39 91t38 91.5t92 38t92 -38t38 -91.5t-38 -91t-91 -37.5zM339 1434q-54 0 -92 37.5t-38 91t38 91.5t92 38t91 -38t37 -91.5t-37 -91t-91 -37.5z" />
    <glyph glyph-name="Edotaccent.ss01" horiz-adv-x="1015" 
d="M600.5 -29q-237.5 0 -376 96.5t-138.5 292.5q0 238 219 332q-164 92 -164 289q0 162 116 264.5t314.5 102.5t341.5 -93q-10 -113 -94 -180q-119 61 -230 61.5t-166.5 -46t-55.5 -129.5q0 -182 268 -183h110q34 -91 0 -188h-135q-281 0 -280 -207q0 -96 65.5 -150.5
t188.5 -54.5q176 0 297 90q86 -51 104 -176q-147 -121 -384.5 -121zM556 1417q-60 0 -103 42t-43 103.5t43 103.5t103 42t103 -42t43 -103.5t-43 -103.5t-103 -42z" />
    <glyph glyph-name="Egrave.ss01" horiz-adv-x="1015" 
d="M600.5 -29q-237.5 0 -376 96.5t-138.5 292.5q0 238 219 332q-164 92 -164 289q0 162 116 264.5t314.5 102.5t341.5 -93q-10 -113 -94 -180q-119 61 -230 61.5t-166.5 -46t-55.5 -129.5q0 -182 268 -183h110q34 -91 0 -188h-135q-281 0 -280 -207q0 -96 65.5 -150.5
t188.5 -54.5q176 0 297 90q86 -51 104 -176q-147 -121 -384.5 -121zM774 1479q-10 -63 -49 -95l-430 154q0 131 104 201z" />
    <glyph glyph-name="Emacron.ss01" horiz-adv-x="1015" 
d="M600.5 -29q-237.5 0 -376 96.5t-138.5 292.5q0 238 219 332q-164 92 -164 289q0 162 116 264.5t314.5 102.5t341.5 -93q-10 -113 -94 -180q-119 61 -230 61.5t-166.5 -46t-55.5 -129.5q0 -182 268 -183h110q34 -91 0 -188h-135q-281 0 -280 -207q0 -96 65.5 -150.5
t188.5 -54.5q176 0 297 90q86 -51 104 -176q-147 -121 -384.5 -121zM248 1553q0 30 12 87h592q12 -39 12 -84t-12 -86h-592q-12 53 -12 83z" />
    <glyph glyph-name="Eogonek.ss01" horiz-adv-x="1015" 
d="M788 -410q-86 0 -144 48.5t-58 125.5q0 111 102 213q-49 -6 -104 -6q-221 0 -359.5 96.5t-138.5 292.5q0 238 219 332q-164 92 -164 289q0 162 116 264.5t314.5 102.5t341.5 -93q-10 -113 -94 -180q-119 61 -230 61.5t-166.5 -46t-55.5 -129.5q0 -182 268 -183h110
q34 -91 0 -188h-135q-281 0 -280 -207q0 -96 65.5 -150.5t188.5 -54.5q176 0 297 90q86 -51 104 -176q-23 -18 -47 -33q-164 -133 -164 -225q0 -68 72 -67q47 -1 102 40q76 -51 76 -133q-88 -84 -236 -84z" />
    <glyph glyph-name="Q.ss02" horiz-adv-x="1507" 
d="M754 184q59 0 108 13l-100 139q66 78 174 117l111 -152q129 135 129 354t-115 350.5t-307.5 131.5t-307 -131.5t-114.5 -344.5t116 -345t306 -132zM1425 659q0 -344 -241 -542l145 -197q-27 -45 -74 -81t-100 -44l-156 215q-115 -43 -245 -43q-293 0 -482.5 194.5
t-189.5 496.5t189.5 499t483.5 197t482 -194t188 -501z" />
    <glyph glyph-name="a.ss01" horiz-adv-x="1185" 
d="M578 170q122 0 204 100v484q-88 37 -176 37q-133 0 -214 -88.5t-81 -233.5t72.5 -222t194.5 -77zM1014 317q0 -72 22.5 -103.5t83.5 -59.5q-4 -117 -96 -183q-131 29 -182 111q-125 -113 -321 -113t-320.5 127t-124.5 361.5t148.5 387t387 152.5t402.5 -116v-564z" />
    <glyph glyph-name="aacute.ss01" horiz-adv-x="1185" 
d="M578 170q122 0 204 100v484q-88 37 -176 37q-133 0 -214 -88.5t-81 -233.5t72.5 -222t194.5 -77zM1014 317q0 -72 22.5 -103.5t83.5 -59.5q-4 -117 -96 -183q-131 29 -182 111q-125 -113 -321 -113t-320.5 127t-124.5 361.5t148.5 387t387 152.5t402.5 -116v-564z
M422 1059q-51 35 -66 94l322 301q98 -53 133 -184z" />
    <glyph glyph-name="abreve.ss01" horiz-adv-x="1185" 
d="M578 170q122 0 204 100v484q-88 37 -176 37q-133 0 -214 -88.5t-81 -233.5t72.5 -222t194.5 -77zM1014 317q0 -72 22.5 -103.5t83.5 -59.5q-4 -117 -96 -183q-131 29 -182 111q-125 -113 -321 -113t-320.5 127t-124.5 361.5t148.5 387t387 152.5t402.5 -116v-564z
M581 1083q-155 0 -238 91.5t-83 214.5q68 29 156 18q29 -158 170 -158q72 0 112.5 42t49.5 116q94 10 153 -18q0 -121 -82.5 -213.5t-237.5 -92.5z" />
    <glyph glyph-name="acircumflex.ss01" horiz-adv-x="1185" 
d="M578 170q122 0 204 100v484q-88 37 -176 37q-133 0 -214 -88.5t-81 -233.5t72.5 -222t194.5 -77zM1014 317q0 -72 22.5 -103.5t83.5 -59.5q-4 -117 -96 -183q-131 29 -182 111q-125 -113 -321 -113t-320.5 127t-124.5 361.5t148.5 387t387 152.5t402.5 -116v-564z
M373 1075q-74 27 -97 103l234 241q72 14 141 0l228 -233q-23 -80 -99 -113l-207 164z" />
    <glyph glyph-name="adieresis.ss01" horiz-adv-x="1185" 
d="M578 170q122 0 204 100v484q-88 37 -176 37q-133 0 -214 -88.5t-81 -233.5t72.5 -222t194.5 -77zM1014 317q0 -72 22.5 -103.5t83.5 -59.5q-4 -117 -96 -183q-131 29 -182 111q-125 -113 -321 -113t-320.5 127t-124.5 361.5t148.5 387t387 152.5t402.5 -116v-564z
M794.5 1116q-53.5 0 -92 38t-38.5 92t37.5 92t92 38t93.5 -38t39 -92t-39 -92t-92.5 -38zM368 1116q-54 0 -93 38t-39 92t37.5 92t93 38t93.5 -38t38 -92t-38 -92t-92 -38z" />
    <glyph glyph-name="agrave.ss01" horiz-adv-x="1185" 
d="M578 170q122 0 204 100v484q-88 37 -176 37q-133 0 -214 -88.5t-81 -233.5t72.5 -222t194.5 -77zM1014 317q0 -72 22.5 -103.5t83.5 -59.5q-4 -117 -96 -183q-131 29 -182 111q-125 -113 -321 -113t-320.5 127t-124.5 361.5t148.5 387t387 152.5t402.5 -116v-564z
M791 1151q-18 -63 -66 -92l-389 211q31 129 133 184z" />
    <glyph glyph-name="amacron.ss01" horiz-adv-x="1185" 
d="M578 170q122 0 204 100v484q-88 37 -176 37q-133 0 -214 -88.5t-81 -233.5t72.5 -222t194.5 -77zM1014 317q0 -72 22.5 -103.5t83.5 -59.5q-4 -117 -96 -183q-131 29 -182 111q-125 -113 -321 -113t-320.5 127t-124.5 361.5t148.5 387t387 152.5t402.5 -116v-564z
M279 1249q0 55 12 90h579q10 -47 10 -90t-10 -90h-579q-12 35 -12 90z" />
    <glyph glyph-name="aogonek.ss01" horiz-adv-x="1189" 
d="M313 472q-1 -146 69 -224t195 -78t209 100v482q-82 41 -198 41t-196 -88q-79 -87 -79 -233zM897 -414q-89 0 -151 52t-62 131q0 168 207 274q-29 23 -45 43q-123 -117 -323 -117q-201 0 -323 128q-122 129 -122 363t147 386t388 152t405 -117v-576q0 -55 24 -81t78 -36
q-4 -131 -55 -194q-96 -25 -144 -69t-49 -91q0 -72 76 -72q48 0 99 41q78 -47 77 -131q-82 -86 -227 -86z" />
    <glyph glyph-name="aring.ss01" horiz-adv-x="1185" 
d="M578 170q122 0 204 100v484q-88 37 -176 37q-133 0 -214 -88.5t-81 -233.5t72.5 -222t194.5 -77zM1014 317q0 -72 22.5 -103.5t83.5 -59.5q-4 -117 -96 -183q-131 29 -182 111q-125 -113 -321 -113t-320.5 127t-124.5 361.5t148.5 387t387 152.5t402.5 -116v-564z
M581 1346q-36 0 -60.5 -27t-24.5 -63t24.5 -61.5t60.5 -25.5t60.5 26t24.5 61.5t-24.5 62.5t-60.5 27zM581 1036q-91 0 -157 64.5t-66 155.5t65.5 156t157 65t156 -64.5t64.5 -156t-64.5 -156t-155.5 -64.5z" />
    <glyph glyph-name="atilde.ss01" horiz-adv-x="1185" 
d="M578 170q122 0 204 100v484q-88 37 -176 37q-133 0 -214 -88.5t-81 -233.5t72.5 -222t194.5 -77zM1014 317q0 -72 22.5 -103.5t83.5 -59.5q-4 -117 -96 -183q-131 29 -182 111q-125 -113 -321 -113t-320.5 127t-124.5 361.5t148.5 387t387 152.5t402.5 -116v-564z
M702 1317q70 0 97 86q96 0 162 -55q-23 -100 -88.5 -157.5t-137 -57.5t-159 38.5t-113.5 38.5q-71 0 -98 -92q-43 0 -92.5 15.5t-71.5 42.5q20 102 86.5 161.5t140 58.5t160 -40t114.5 -39z" />
    <glyph glyph-name="e.ss01" horiz-adv-x="1056" 
d="M564 807q-93 0 -159.5 -61.5t-85.5 -172.5q102 -33 222 -28q115 0 159.5 31.5t44.5 91t-44 99.5t-137 40zM76 461.5q0 238.5 143 386t343 147.5t305.5 -89t105.5 -224q0 -297 -430 -297q-121 0 -228 33q27 -252 285 -252q66 0 127 22.5t82 35.5t70 50q82 -59 98 -163
q-160 -141 -391.5 -141.5t-370.5 126.5t-139 365.5z" />
    <glyph glyph-name="eacute.ss01" horiz-adv-x="1056" 
d="M564 807q-93 0 -159.5 -61.5t-85.5 -172.5q102 -33 222 -28q115 0 159.5 31.5t44.5 91t-44 99.5t-137 40zM76 461.5q0 238.5 143 386t343 147.5t305.5 -89t105.5 -224q0 -297 -430 -297q-121 0 -228 33q27 -252 285 -252q66 0 127 22.5t82 35.5t70 50q82 -59 98 -163
q-160 -141 -391.5 -141.5t-370.5 126.5t-139 365.5zM395 1059q-51 35 -65 94l321 301q98 -53 133 -184z" />
    <glyph glyph-name="ecaron.ss01" horiz-adv-x="1056" 
d="M564 807q-93 0 -159.5 -61.5t-85.5 -172.5q102 -33 222 -28q115 0 159.5 31.5t44.5 91t-44 99.5t-137 40zM76 461.5q0 238.5 143 386t343 147.5t305.5 -89t105.5 -224q0 -297 -430 -297q-121 0 -228 33q27 -252 285 -252q66 0 127 22.5t82 35.5t70 50q82 -59 98 -163
q-160 -141 -391.5 -141.5t-370.5 126.5t-139 365.5zM618 1087q-70 -14 -141 0l-223 234q18 82 96 113l203 -162l207 162q72 -27 96 -105z" />
    <glyph glyph-name="ecircumflex.ss01" horiz-adv-x="1056" 
d="M564 807q-93 0 -159.5 -61.5t-85.5 -172.5q102 -33 222 -28q115 0 159.5 31.5t44.5 91t-44 99.5t-137 40zM76 461.5q0 238.5 143 386t343 147.5t305.5 -89t105.5 -224q0 -297 -430 -297q-121 0 -228 33q27 -252 285 -252q66 0 127 22.5t82 35.5t70 50q82 -59 98 -163
q-160 -141 -391.5 -141.5t-370.5 126.5t-139 365.5zM346 1075q-74 27 -96 103l233 241q70 14 142 0l227 -233q-23 -80 -98 -113l-207 164z" />
    <glyph glyph-name="edieresis.ss01" horiz-adv-x="1056" 
d="M564 807q-93 0 -159.5 -61.5t-85.5 -172.5q102 -33 222 -28q115 0 159.5 31.5t44.5 91t-44 99.5t-137 40zM76 461.5q0 238.5 143 386t343 147.5t305.5 -89t105.5 -224q0 -297 -430 -297q-121 0 -228 33q27 -252 285 -252q66 0 127 22.5t82 35.5t70 50q82 -59 98 -163
q-160 -141 -391.5 -141.5t-370.5 126.5t-139 365.5zM768 1116q-53 0 -92 38t-39 92t38 92t92 38t93 -38t39 -92t-39 -92t-92 -38zM341 1116q-54 0 -93 38t-39 92t38 92t93 38t93 -38t38 -92t-38 -92t-92 -38z" />
    <glyph glyph-name="edotaccent.ss01" horiz-adv-x="1056" 
d="M564 807q-93 0 -159.5 -61.5t-85.5 -172.5q102 -33 222 -28q115 0 159.5 31.5t44.5 91t-44 99.5t-137 40zM76 461.5q0 238.5 143 386t343 147.5t305.5 -89t105.5 -224q0 -297 -430 -297q-121 0 -228 33q27 -252 285 -252q66 0 127 22.5t82 35.5t70 50q82 -59 98 -163
q-160 -141 -391.5 -141.5t-370.5 126.5t-139 365.5zM553 1114q-61 0 -105.5 43t-44.5 104.5t44.5 104.5t105.5 43t105 -43t44 -104.5t-44 -104.5t-105 -43z" />
    <glyph glyph-name="egrave.ss01" horiz-adv-x="1056" 
d="M564 807q-93 0 -159.5 -61.5t-85.5 -172.5q102 -33 222 -28q115 0 159.5 31.5t44.5 91t-44 99.5t-137 40zM76 461.5q0 238.5 143 386t343 147.5t305.5 -89t105.5 -224q0 -297 -430 -297q-121 0 -228 33q27 -252 285 -252q66 0 127 22.5t82 35.5t70 50q82 -59 98 -163
q-160 -141 -391.5 -141.5t-370.5 126.5t-139 365.5zM766 1151q-18 -63 -66 -92l-389 211q31 129 133 184z" />
    <glyph glyph-name="emacron.ss01" horiz-adv-x="1056" 
d="M564 807q-93 0 -159.5 -61.5t-85.5 -172.5q102 -33 222 -28q115 0 159.5 31.5t44.5 91t-44 99.5t-137 40zM76 461.5q0 238.5 143 386t343 147.5t305.5 -89t105.5 -224q0 -297 -430 -297q-121 0 -228 33q27 -252 285 -252q66 0 127 22.5t82 35.5t70 50q82 -59 98 -163
q-160 -141 -391.5 -141.5t-370.5 126.5t-139 365.5zM252 1249q0 55 12 90h580q10 -47 10 -90t-10 -90h-580q-12 35 -12 90z" />
    <glyph glyph-name="eogonek.ss01" horiz-adv-x="1056" 
d="M564 807q-93 0 -159.5 -61.5t-85.5 -172.5q102 -33 222 -28q115 0 159.5 31.5t44.5 91t-44 99.5t-137 40zM758 -410q-86 0 -144.5 48.5t-58.5 125.5q0 106 98 209q-53 -4 -80 -4q-219 0 -358 127t-139 365.5t143 386t343 147.5t305.5 -89t105.5 -224q0 -297 -430 -297
q-121 0 -228 33q27 -252 285 -252q66 0 127 22.5t81.5 36t70.5 49.5q82 -59 98 -163q-31 -29 -74 -56q-68 -53 -114 -114.5t-46 -106.5q0 -68 72 -67q46 -1 103 40q76 -51 75 -133q-88 -84 -235 -84z" />
    <glyph glyph-name="g.ss01" horiz-adv-x="1138" 
d="M375 -115q0 -112 133 -112t201.5 66.5t68.5 174.5v70q-61 -23 -131 -29q-272 -29 -272 -170zM583.5 799q-110.5 0 -191.5 -79t-81 -204t79 -196.5t193.5 -71.5t194.5 45v461q-84 45 -194.5 45zM604.5 999q229.5 0 405.5 -133v-831q0 -203 -136.5 -323t-359.5 -120
q-162 0 -259 71t-97 196q0 154 182 241q-121 53 -192.5 159t-71.5 251q0 217 149.5 353t379 136z" />
    <glyph glyph-name="gbreve.ss01" horiz-adv-x="1138" 
d="M375 -115q0 -112 133 -112t201.5 66.5t68.5 174.5v70q-61 -23 -131 -29q-272 -29 -272 -170zM583.5 799q-110.5 0 -191.5 -79t-81 -204t79 -196.5t193.5 -71.5t194.5 45v461q-84 45 -194.5 45zM604.5 999q229.5 0 405.5 -133v-831q0 -203 -136.5 -323t-359.5 -120
q-162 0 -259 71t-97 196q0 154 182 241q-121 53 -192.5 159t-71.5 251q0 217 149.5 353t379 136zM566 1083q-155 0 -237.5 91.5t-82.5 214.5q68 29 155 18q29 -158 170 -158q72 0 113 42t49 116q94 10 154 -18q0 -121 -83 -213.5t-238 -92.5z" />
    <glyph glyph-name="gcommaaccent.ss01" horiz-adv-x="1138" 
d="M375 -115q0 -112 133 -112t201.5 66.5t68.5 174.5v70q-61 -23 -131 -29q-272 -29 -272 -170zM583.5 799q-110.5 0 -191.5 -79t-81 -204t79 -196.5t193.5 -71.5t194.5 45v461q-84 45 -194.5 45zM604.5 999q229.5 0 405.5 -133v-831q0 -203 -136.5 -323t-359.5 -120
q-162 0 -259 71t-97 196q0 154 182 241q-121 53 -192.5 159t-71.5 251q0 217 149.5 353t379 136zM559 1040q-59 0 -98 19q-6 39 -6 76q0 88 43 165.5t120 124.5q57 -8 82 -61q-57 -74 -57 -186q0 -59 21 -117q-46 -21 -105 -21z" />
    <glyph glyph-name="gdotaccent.ss01" horiz-adv-x="1138" 
d="M375 -115q0 -112 133 -112t201.5 66.5t68.5 174.5v70q-61 -23 -131 -29q-272 -29 -272 -170zM583.5 799q-110.5 0 -191.5 -79t-81 -204t79 -196.5t193.5 -71.5t194.5 45v461q-84 45 -194.5 45zM604.5 999q229.5 0 405.5 -133v-831q0 -203 -136.5 -323t-359.5 -120
q-162 0 -259 71t-97 196q0 154 182 241q-121 53 -192.5 159t-71.5 251q0 217 149.5 353t379 136zM565 1114q-61 0 -105 43t-44 104.5t44 104.5t105 43t105.5 -43t44.5 -104.5t-44.5 -104.5t-105.5 -43z" />
    <glyph glyph-name="k.ss01" horiz-adv-x="1132" 
d="M930.5 -14q-78.5 0 -127.5 6l-228 309q-39 51 -38 133q266 45 266 207q0 66 -45 105.5t-119 39.5q-123 0 -198.5 -75.5t-75.5 -186.5v-524q-47 -10 -114 -10t-118 10v1343q122 25 232 0v-475q129 125 303 125t269 -83t95 -224q0 -238 -223 -330l274 -350
q-74 -20 -152.5 -20z" />
    <glyph glyph-name="kcommaaccent.ss01" horiz-adv-x="1132" 
d="M536 -76q58 0 99 -18q6 -41 6 -76q0 -88 -43 -166t-121 -125q-57 8 -82 62q57 74 58 186q0 59 -21 117q46 20 104 20zM930.5 -14q-78.5 0 -127.5 6l-228 309q-39 51 -38 133q266 45 266 207q0 66 -45 105.5t-119 39.5q-123 0 -198.5 -75.5t-75.5 -186.5v-524
q-47 -10 -114 -10t-118 10v1343q122 25 232 0v-475q129 125 303 125t269 -83t95 -224q0 -238 -223 -330l274 -350q-74 -20 -152.5 -20z" />
    <glyph glyph-name="l.ss01" horiz-adv-x="641" 
d="M422 -23q-135 0 -215 68t-80 205v1096q66 10 118 10t113 -10v-1059q0 -104 97 -105q49 0 90 43q80 -57 96 -168q-84 -80 -219 -80z" />
    <glyph glyph-name="lacute.ss01" horiz-adv-x="641" 
d="M422 -23q-135 0 -215 68t-80 205v1096q66 10 118 10t113 -10v-1059q0 -104 97 -105q49 0 90 43q80 -57 96 -168q-84 -80 -219 -80zM63 1384q-41 35 -47 95l375 260q100 -68 105 -201z" />
    <glyph glyph-name="lcaron.ss01" horiz-adv-x="641" 
d="M422 -23q-135 0 -215 68t-80 205v1096q66 10 118 10t113 -10v-1059q0 -104 97 -105q49 0 90 43q80 -57 96 -168q-84 -80 -219 -80zM496 1291.5q0 105.5 -25 164.5q41 23 102 23t97 -21q10 -41 10 -110.5t-39 -158.5t-100 -142q-57 8 -86 49q41 90 41 195.5z" />
    <glyph glyph-name="lcommaaccent.ss01" horiz-adv-x="641" 
d="M307 -213q0 59 -20 117q45 20 104 20t98 -18q6 -39 6.5 -101.5t-42.5 -140.5t-121 -125q-57 8 -82 62q57 74 57 186zM422 -23q-135 0 -215 68t-80 205v1096q66 10 118 10t113 -10v-1059q0 -104 97 -105q49 0 90 43q80 -57 96 -168q-84 -80 -219 -80z" />
    <glyph glyph-name="ldot.ss01" horiz-adv-x="669" 
d="M560 545q-58 0 -100 42t-42 99t42 99t100 42t99 -41t41 -100t-41 -100t-99 -41zM422 -23q-135 0 -215 68t-80 205v1096q66 10 118 10t113 -10v-1059q0 -104 97 -105q49 0 90 43q80 -57 96 -168q-84 -80 -219 -80z" />
    <glyph glyph-name="lslash.ss01" horiz-adv-x="641" 
d="M422 -23q-135 0 -215 68t-80 205v303l-109 -55q-63 49 -69 139l178 92v617q66 10 118 10t113 -10v-496l105 53q57 -57 67 -141l-172 -88v-387q0 -104 97 -105q49 0 90 43q80 -57 96 -168q-84 -80 -219 -80z" />
    <glyph glyph-name="y.ss01" horiz-adv-x="1146" 
d="M526 -227q121 0 188.5 67.5t67.5 173.5v68q-70 -20 -155 -31q-248 -35 -248 -164q0 -114 147 -114zM898 975q50 0 116 -10v-930q0 -203 -137.5 -323t-352.5 -120q-168 0 -267 67t-99 189q0 158 184 246q-221 78 -221 326v545q68 10 119 10t112 -10v-465
q0 -127 49.5 -186.5t176.5 -59.5t204 49v662q66 10 116 10z" />
    <glyph glyph-name="yacute.ss01" horiz-adv-x="1146" 
d="M526 -227q121 0 188.5 67.5t67.5 173.5v68q-70 -20 -155 -31q-248 -35 -248 -164q0 -114 147 -114zM898 975q50 0 116 -10v-930q0 -203 -137.5 -323t-352.5 -120q-168 0 -267 67t-99 189q0 158 184 246q-221 78 -221 326v545q68 10 119 10t112 -10v-465
q0 -127 49.5 -186.5t176.5 -59.5t204 49v662q66 10 116 10zM414 1059q-51 35 -66 94l322 301q98 -53 133 -184z" />
    <glyph glyph-name="ycircumflex.ss01" horiz-adv-x="1146" 
d="M526 -227q121 0 188.5 67.5t67.5 173.5v68q-70 -20 -155 -31q-248 -35 -248 -164q0 -114 147 -114zM898 975q50 0 116 -10v-930q0 -203 -137.5 -323t-352.5 -120q-168 0 -267 67t-99 189q0 158 184 246q-221 78 -221 326v545q68 10 119 10t112 -10v-465
q0 -127 49.5 -186.5t176.5 -59.5t204 49v662q66 10 116 10zM365 1075q-74 27 -97 103l234 241q72 14 141 0l227 -233q-23 -80 -98 -113l-207 164z" />
    <glyph glyph-name="ydieresis.ss01" horiz-adv-x="1146" 
d="M526 -227q121 0 188.5 67.5t67.5 173.5v68q-70 -20 -155 -31q-248 -35 -248 -164q0 -114 147 -114zM898 975q50 0 116 -10v-930q0 -203 -137.5 -323t-352.5 -120q-168 0 -267 67t-99 189q0 158 184 246q-221 78 -221 326v545q68 10 119 10t112 -10v-465
q0 -127 49.5 -186.5t176.5 -59.5t204 49v662q66 10 116 10zM786.5 1116q-53.5 0 -92.5 38t-39 92t38 92t92 38t93.5 -38t39.5 -92t-39 -92t-92.5 -38zM359 1116q-54 0 -93 38t-39 92t38 92t93 38t93 -38t38 -92t-38 -92t-92 -38z" />
    <glyph glyph-name="ygrave.ss01" horiz-adv-x="1146" 
d="M526 -227q121 0 188.5 67.5t67.5 173.5v68q-70 -20 -155 -31q-248 -35 -248 -164q0 -114 147 -114zM898 975q50 0 116 -10v-930q0 -203 -137.5 -323t-352.5 -120q-168 0 -267 67t-99 189q0 158 184 246q-221 78 -221 326v545q68 10 119 10t112 -10v-465
q0 -127 49.5 -186.5t176.5 -59.5t204 49v662q66 10 116 10zM784 1151q-18 -63 -65 -92l-389 211q31 129 133 184z" />
    <glyph glyph-name="a.ss02" horiz-adv-x="1069" 
d="M512 418q-213 0 -213 -137.5t169 -137.5q87 0 150.5 63.5t63.5 211.5h-170zM408 -33q-152 0 -248.5 81t-96.5 224t113 222t324 81h182v52q0 170 -211 170q-150 0 -264 -95q-84 51 -107 154q53 53 162 97t234 44q188 0 302.5 -95t114.5 -306v-336q0 -47 22 -69.5t77 -38.5
q4 -121 -62 -183q-98 6 -150 37t-77 96h-14q-106 -135 -301 -135z" />
    <glyph glyph-name="aacute.ss02" horiz-adv-x="1069" 
d="M512 418q-213 0 -213 -137.5t169 -137.5q87 0 150.5 63.5t63.5 211.5h-170zM408 -33q-152 0 -248.5 81t-96.5 224t113 222t324 81h182v52q0 170 -211 170q-150 0 -264 -95q-84 51 -107 154q53 53 162 97t234 44q188 0 302.5 -95t114.5 -306v-336q0 -47 22 -69.5t77 -38.5
q4 -121 -62 -183q-98 6 -150 37t-77 96h-14q-106 -135 -301 -135zM322 1059q-51 35 -66 94l322 301q98 -53 133 -184z" />
    <glyph glyph-name="abreve.ss02" horiz-adv-x="1069" 
d="M512 418q-213 0 -213 -137.5t169 -137.5q87 0 150.5 63.5t63.5 211.5h-170zM408 -33q-152 0 -248.5 81t-96.5 224t113 222t324 81h182v52q0 170 -211 170q-150 0 -264 -95q-84 51 -107 154q53 53 162 97t234 44q188 0 302.5 -95t114.5 -306v-336q0 -47 22 -69.5t77 -38.5
q4 -121 -62 -183q-98 6 -150 37t-77 96h-14q-106 -135 -301 -135zM480 1083q-155 0 -237.5 91.5t-82.5 214.5q68 29 155 18q29 -158 170 -158q72 0 113 42t49 116q94 10 154 -18q0 -121 -83 -213.5t-238 -92.5z" />
    <glyph glyph-name="acircumflex.ss02" horiz-adv-x="1069" 
d="M512 418q-213 0 -213 -137.5t169 -137.5q87 0 150.5 63.5t63.5 211.5h-170zM408 -33q-152 0 -248.5 81t-96.5 224t113 222t324 81h182v52q0 170 -211 170q-150 0 -264 -95q-84 51 -107 154q53 53 162 97t234 44q188 0 302.5 -95t114.5 -306v-336q0 -47 22 -69.5t77 -38.5
q4 -121 -62 -183q-98 6 -150 37t-77 96h-14q-106 -135 -301 -135zM272 1075q-74 27 -96 103l234 241q70 14 141 0l227 -233q-23 -80 -98 -113l-207 164z" />
    <glyph glyph-name="adieresis.ss02" horiz-adv-x="1069" 
d="M512 418q-213 0 -213 -137.5t169 -137.5q87 0 150.5 63.5t63.5 211.5h-170zM408 -33q-152 0 -248.5 81t-96.5 224t113 222t324 81h182v52q0 170 -211 170q-150 0 -264 -95q-84 51 -107 154q53 53 162 97t234 44q188 0 302.5 -95t114.5 -306v-336q0 -47 22 -69.5t77 -38.5
q4 -121 -62 -183q-98 6 -150 37t-77 96h-14q-106 -135 -301 -135zM694.5 1116q-53.5 0 -92.5 38t-39 92t38 92t92 38t93 -38t39 -92t-38.5 -92t-92 -38zM267 1116q-54 0 -93 38t-39 92t38 92t93 38t93 -38t38 -92t-38 -92t-92 -38z" />
    <glyph glyph-name="agrave.ss02" horiz-adv-x="1069" 
d="M512 418q-213 0 -213 -137.5t169 -137.5q87 0 150.5 63.5t63.5 211.5h-170zM408 -33q-152 0 -248.5 81t-96.5 224t113 222t324 81h182v52q0 170 -211 170q-150 0 -264 -95q-84 51 -107 154q53 53 162 97t234 44q188 0 302.5 -95t114.5 -306v-336q0 -47 22 -69.5t77 -38.5
q4 -121 -62 -183q-98 6 -150 37t-77 96h-14q-106 -135 -301 -135zM690 1151q-18 -63 -65 -92l-389 211q31 129 133 184z" />
    <glyph glyph-name="amacron.ss02" horiz-adv-x="1069" 
d="M512 418q-213 0 -213 -137.5t169 -137.5q87 0 150.5 63.5t63.5 211.5h-170zM408 -33q-152 0 -248.5 81t-96.5 224t113 222t324 81h182v52q0 170 -211 170q-150 0 -264 -95q-84 51 -107 154q53 53 162 97t234 44q188 0 302.5 -95t114.5 -306v-336q0 -47 22 -69.5t77 -38.5
q4 -121 -62 -183q-98 6 -150 37t-77 96h-14q-106 -135 -301 -135zM178 1249q0 55 12 90h580q10 -47 10 -90t-10 -90h-580q-12 35 -12 90z" />
    <glyph glyph-name="aogonek.ss02" horiz-adv-x="1069" 
d="M297 283q0 -65 42 -103q41 -38 99 -37t92 11q152 46 152 264h-170q-117 -2 -166 -36t-49 -99zM809 -414q-91 0 -151 52t-60 135q0 156 190 258q-37 23 -67 71h-8q-113 -135 -283 -135t-268 80t-98 224q0 143 111 223q112 80 317 79l190 2v54q0 168 -211 168
q-150 0 -264 -95q-82 51 -109 154q53 51 162 96t234 45q188 0 304 -95t115 -306v-297q0 -55 23 -82t80 -35q6 -117 -47 -194q-93 -18 -139 -64t-46 -90q0 -72 76 -72q45 0 94 39q82 -45 82 -129q-82 -86 -227 -86z" />
    <glyph glyph-name="aring.ss02" horiz-adv-x="1069" 
d="M512 418q-213 0 -213 -137.5t169 -137.5q87 0 150.5 63.5t63.5 211.5h-170zM408 -33q-152 0 -248.5 81t-96.5 224t113 222t324 81h182v52q0 170 -211 170q-150 0 -264 -95q-84 51 -107 154q53 53 162 97t234 44q188 0 302.5 -95t114.5 -306v-336q0 -47 22 -69.5t77 -38.5
q4 -121 -62 -183q-98 6 -150 37t-77 96h-14q-106 -135 -301 -135zM480 1346q-36 0 -60.5 -27t-24.5 -63t24.5 -61.5t60.5 -25.5t60.5 26t24.5 61.5t-24.5 62.5t-60.5 27zM480 1036q-91 0 -156.5 64.5t-65.5 155.5t65.5 156t156.5 65t155.5 -64.5t64.5 -156t-64.5 -156
t-155.5 -64.5z" />
    <glyph glyph-name="atilde.ss02" horiz-adv-x="1069" 
d="M512 418q-213 0 -213 -137.5t169 -137.5q87 0 150.5 63.5t63.5 211.5h-170zM408 -33q-152 0 -248.5 81t-96.5 224t113 222t324 81h182v52q0 170 -211 170q-150 0 -264 -95q-84 51 -107 154q53 53 162 97t234 44q188 0 302.5 -95t114.5 -306v-336q0 -47 22 -69.5t77 -38.5
q4 -121 -62 -183q-98 6 -150 37t-77 96h-14q-106 -135 -301 -135zM602 1317q70 0 96 86q96 0 162 -55q-23 -100 -88 -157.5t-136.5 -57.5t-159 38.5t-114.5 38.5q-71 0 -98 -92q-43 0 -92 15.5t-72 42.5q20 102 87 161.5t140.5 58.5t159.5 -40t115 -39z" />
    <glyph glyph-name="e.ss02" horiz-adv-x="1069" 
d="M550.5 805q-108.5 0 -172 -79t-67.5 -212l445 139q-4 51 -50.5 101.5t-155 50.5zM76 476q0 232 139 376.5t346 144.5t321.5 -127t121.5 -311l-674 -207q61 -190 270 -190q136 -1 283 108q78 -53 98 -159q-164 -141 -392 -141.5t-370.5 137t-142.5 369.5z" />
    <glyph glyph-name="eacute.ss02" horiz-adv-x="1069" 
d="M550.5 805q-108.5 0 -172 -79t-67.5 -212l445 139q-4 51 -50.5 101.5t-155 50.5zM76 476q0 232 139 376.5t346 144.5t321.5 -127t121.5 -311l-674 -207q61 -190 270 -190q136 -1 283 108q78 -53 98 -159q-164 -141 -392 -141.5t-370.5 137t-142.5 369.5zM381 1059
q-51 35 -66 94l322 301q98 -53 133 -184z" />
    <glyph glyph-name="ecaron.ss02" horiz-adv-x="1069" 
d="M550.5 805q-108.5 0 -172 -79t-67.5 -212l445 139q-4 51 -50.5 101.5t-155 50.5zM76 476q0 232 139 376.5t346 144.5t321.5 -127t121.5 -311l-674 -207q61 -190 270 -190q136 -1 283 108q78 -53 98 -159q-164 -141 -392 -141.5t-370.5 137t-142.5 369.5zM606 1087
q-70 -14 -141 0l-223 234q18 82 96 113l203 -162l207 162q72 -27 96 -105z" />
    <glyph glyph-name="ecircumflex.ss02" horiz-adv-x="1069" 
d="M550.5 805q-108.5 0 -172 -79t-67.5 -212l445 139q-4 51 -50.5 101.5t-155 50.5zM76 476q0 232 139 376.5t346 144.5t321.5 -127t121.5 -311l-674 -207q61 -190 270 -190q136 -1 283 108q78 -53 98 -159q-164 -141 -392 -141.5t-370.5 137t-142.5 369.5zM334 1075
q-74 27 -96 103l233 241q70 14 141 0l228 -233q-23 -80 -99 -113l-206 164z" />
    <glyph glyph-name="edieresis.ss02" horiz-adv-x="1069" 
d="M550.5 805q-108.5 0 -172 -79t-67.5 -212l445 139q-4 51 -50.5 101.5t-155 50.5zM76 476q0 232 139 376.5t346 144.5t321.5 -127t121.5 -311l-674 -207q61 -190 270 -190q136 -1 283 108q78 -53 98 -159q-164 -141 -392 -141.5t-370.5 137t-142.5 369.5zM753.5 1116
q-53.5 0 -92 38t-38.5 92t37.5 92t92 38t93.5 -38t39 -92t-39 -92t-92.5 -38zM327 1116q-54 0 -93 38t-39 92t37.5 92t93 38t93.5 -38t38 -92t-38 -92t-92 -38z" />
    <glyph glyph-name="edotaccent.ss02" horiz-adv-x="1069" 
d="M550.5 805q-108.5 0 -172 -79t-67.5 -212l445 139q-4 51 -50.5 101.5t-155 50.5zM76 476q0 232 139 376.5t346 144.5t321.5 -127t121.5 -311l-674 -207q61 -190 270 -190q136 -1 283 108q78 -53 98 -159q-164 -141 -392 -141.5t-370.5 137t-142.5 369.5zM541 1114
q-61 0 -105.5 43t-44.5 104.5t44 104.5t105.5 43t105.5 -43t44 -104.5t-44 -104.5t-105 -43z" />
    <glyph glyph-name="egrave.ss02" horiz-adv-x="1069" 
d="M550.5 805q-108.5 0 -172 -79t-67.5 -212l445 139q-4 51 -50.5 101.5t-155 50.5zM76 476q0 232 139 376.5t346 144.5t321.5 -127t121.5 -311l-674 -207q61 -190 270 -190q136 -1 283 108q78 -53 98 -159q-164 -141 -392 -141.5t-370.5 137t-142.5 369.5zM752 1151
q-18 -63 -66 -92l-389 211q31 129 133 184z" />
    <glyph glyph-name="emacron.ss02" horiz-adv-x="1069" 
d="M550.5 805q-108.5 0 -172 -79t-67.5 -212l445 139q-4 51 -50.5 101.5t-155 50.5zM76 476q0 232 139 376.5t346 144.5t321.5 -127t121.5 -311l-674 -207q61 -190 270 -190q136 -1 283 108q78 -53 98 -159q-164 -141 -392 -141.5t-370.5 137t-142.5 369.5zM240 1249
q0 55 12 90h579q10 -47 10 -90t-10 -90h-579q-12 35 -12 90z" />
    <glyph glyph-name="eogonek.ss02" horiz-adv-x="1069" 
d="M550.5 805q-108.5 0 -172 -79t-67.5 -212l445 139q-4 51 -50.5 101.5t-155 50.5zM760 -410q-86 0 -144.5 48.5t-58.5 125.5q0 106 98 209q-49 -4 -73 -4q-221 0 -363.5 137.5t-142.5 369.5t139 376.5t346 144.5t321.5 -127t121.5 -311l-674 -207q61 -190 270 -190
q135 0 283 108q78 -53 98 -159q-33 -29 -72 -52q-164 -133 -164 -225q0 -68 72 -67q48 -1 103 40q76 -51 75 -133q-88 -84 -235 -84z" />
    <glyph glyph-name="g.ss02" horiz-adv-x="1075" 
d="M524 805q-96 0 -152.5 -48t-56.5 -136q0 -174 195 -175q94 0 152.5 47.5t61.5 139.5t-46 172h-154zM510 268q-80 0 -152 17q-37 -37 -36 -72q0 -59 84 -59h260q305 0 305 -250q0 -150 -121 -236t-309.5 -86t-300 36t-162.5 79q23 109 104 160q123 -96 347.5 -96.5
t224.5 116.5q0 45 -33 65.5t-107 20.5h-206q-285 0 -285 195q0 98 100 182q-135 92 -135 267.5t121 277.5t313 102h170q86 0 133 23.5t78 83.5q103 -27 156 -101q-51 -119 -176 -170q63 -90 59 -213q-4 -152 -124 -247t-308 -95z" />
    <glyph glyph-name="gbreve.ss02" horiz-adv-x="1075" 
d="M524 805q-96 0 -152.5 -48t-56.5 -136q0 -174 195 -175q94 0 152.5 47.5t61.5 139.5t-46 172h-154zM510 268q-80 0 -152 17q-37 -37 -36 -72q0 -59 84 -59h260q305 0 305 -250q0 -150 -121 -236t-309.5 -86t-300 36t-162.5 79q23 109 104 160q123 -96 347.5 -96.5
t224.5 116.5q0 45 -33 65.5t-107 20.5h-206q-285 0 -285 195q0 98 100 182q-135 92 -135 267.5t121 277.5t313 102h170q86 0 133 23.5t78 83.5q103 -27 156 -101q-51 -119 -176 -170q63 -90 59 -213q-4 -152 -124 -247t-308 -95zM521 1083q-155 0 -237.5 91.5t-82.5 214.5
q68 29 155 18q29 -158 170 -158q72 0 113 42t49 116q94 10 154 -18q0 -121 -83 -213.5t-238 -92.5z" />
    <glyph glyph-name="gcommaaccent.ss02" horiz-adv-x="1075" 
d="M524 805q-96 0 -152.5 -48t-56.5 -136q0 -174 195 -175q94 0 152.5 47.5t61.5 139.5t-46 172h-154zM510 268q-80 0 -152 17q-37 -37 -36 -72q0 -59 84 -59h260q305 0 305 -250q0 -150 -121 -236t-309.5 -86t-300 36t-162.5 79q23 109 104 160q123 -96 347.5 -96.5
t224.5 116.5q0 45 -33 65.5t-107 20.5h-206q-285 0 -285 195q0 98 100 182q-135 92 -135 267.5t121 277.5t313 102h170q86 0 133 23.5t78 83.5q103 -27 156 -101q-51 -119 -176 -170q63 -90 59 -213q-4 -152 -124 -247t-308 -95zM513 1040q-58 0 -99 19q-6 39 -6 76
q0 88 43 165.5t120 124.5q57 -8 82 -61q-57 -74 -57 -186q0 -59 20 -117q-45 -21 -103 -21z" />
    <glyph glyph-name="gdotaccent.ss02" horiz-adv-x="1075" 
d="M524 805q-96 0 -152.5 -48t-56.5 -136q0 -174 195 -175q94 0 152.5 47.5t61.5 139.5t-46 172h-154zM510 268q-80 0 -152 17q-37 -37 -36 -72q0 -59 84 -59h260q305 0 305 -250q0 -150 -121 -236t-309.5 -86t-300 36t-162.5 79q23 109 104 160q123 -96 347.5 -96.5
t224.5 116.5q0 45 -33 65.5t-107 20.5h-206q-285 0 -285 195q0 98 100 182q-135 92 -135 267.5t121 277.5t313 102h170q86 0 133 23.5t78 83.5q103 -27 156 -101q-51 -119 -176 -170q63 -90 59 -213q-4 -152 -124 -247t-308 -95zM520 1114q-61 0 -105 43t-44 104.5t44 104.5
t105 43t105.5 -43t44.5 -104.5t-44.5 -104.5t-105.5 -43z" />
    <glyph glyph-name="w.ss02" horiz-adv-x="1538" 
d="M1368.5 975q55.5 0 120.5 -21q-109 -578 -322 -954q-43 -10 -107.5 -10t-111.5 10q-121 236 -180 561q-68 -334 -186 -561q-43 -10 -108.5 -10t-108.5 10q-223 406 -314 954q99 32 238 13q74 -485 188 -740q2 -4 4 -13t4 -15l11 28q104 281 161 721q49 8 109.5 8
t114.5 -8q61 -459 172 -721l12 -34q2 6 6 17t6 17q94 209 178 740q58 8 113.5 8z" />
    <glyph glyph-name="wacute.ss02" horiz-adv-x="1538" 
d="M1368.5 975q55.5 0 120.5 -21q-109 -578 -322 -954q-43 -10 -107.5 -10t-111.5 10q-121 236 -180 561q-68 -334 -186 -561q-43 -10 -108.5 -10t-108.5 10q-223 406 -314 954q99 32 238 13q74 -485 188 -740q2 -4 4 -13t4 -15l11 28q104 281 161 721q49 8 109.5 8
t114.5 -8q61 -459 172 -721l12 -34q2 6 6 17t6 17q94 209 178 740q58 8 113.5 8zM610 1059q-51 35 -65 94l321 301q98 -53 133 -184z" />
    <glyph glyph-name="wcircumflex.ss02" horiz-adv-x="1538" 
d="M1368.5 975q55.5 0 120.5 -21q-109 -578 -322 -954q-43 -10 -107.5 -10t-111.5 10q-121 236 -180 561q-68 -334 -186 -561q-43 -10 -108.5 -10t-108.5 10q-223 406 -314 954q99 32 238 13q74 -485 188 -740q2 -4 4 -13t4 -15l11 28q104 281 161 721q49 8 109.5 8
t114.5 -8q61 -459 172 -721l12 -34q2 6 6 17t6 17q94 209 178 740q58 8 113.5 8zM561 1075q-74 27 -96 103l233 241q72 14 142 0l227 -233q-23 -80 -98 -113l-207 164z" />
    <glyph glyph-name="wdieresis.ss02" horiz-adv-x="1538" 
d="M1368.5 975q55.5 0 120.5 -21q-109 -578 -322 -954q-43 -10 -107.5 -10t-111.5 10q-121 236 -180 561q-68 -334 -186 -561q-43 -10 -108.5 -10t-108.5 10q-223 406 -314 954q99 32 238 13q74 -485 188 -740q2 -4 4 -13t4 -15l11 28q104 281 161 721q49 8 109.5 8
t114.5 -8q61 -459 172 -721l12 -34q2 6 6 17t6 17q94 209 178 740q58 8 113.5 8zM983 1116q-53 0 -92 38t-39 92t38 92t92 38t93 -38t39 -92t-39 -92t-92 -38zM556 1116q-54 0 -93 38t-39 92t38 92t93 38t93 -38t38 -92t-38 -92t-92 -38z" />
    <glyph glyph-name="wgrave.ss02" horiz-adv-x="1538" 
d="M1368.5 975q55.5 0 120.5 -21q-109 -578 -322 -954q-43 -10 -107.5 -10t-111.5 10q-121 236 -180 561q-68 -334 -186 -561q-43 -10 -108.5 -10t-108.5 10q-223 406 -314 954q99 32 238 13q74 -485 188 -740q2 -4 4 -13t4 -15l11 28q104 281 161 721q49 8 109.5 8
t114.5 -8q61 -459 172 -721l12 -34q2 6 6 17t6 17q94 209 178 740q58 8 113.5 8zM979 1151q-18 -63 -66 -92l-389 211q31 129 133 184z" />
    <glyph glyph-name="y.ss02" horiz-adv-x="1146" 
d="M898 975q50 0 116 -10v-924q0 -207 -133 -328t-351 -121q-285 0 -434 164q23 109 135 152q113 -123 291 -123q131 0 195.5 62.5t64.5 166.5v66q-115 -47 -237 -47q-209 0 -316.5 104.5t-107.5 280.5v547q68 10 119 10t112 -10v-480q0 -127 49.5 -186t174.5 -59t206 51
v674q66 10 116 10z" />
    <glyph glyph-name="yacute.ss02" horiz-adv-x="1146" 
d="M898 975q50 0 116 -10v-924q0 -207 -133 -328t-351 -121q-285 0 -434 164q23 109 135 152q113 -123 291 -123q131 0 195.5 62.5t64.5 166.5v66q-115 -47 -237 -47q-209 0 -316.5 104.5t-107.5 280.5v547q68 10 119 10t112 -10v-480q0 -127 49.5 -186t174.5 -59t206 51
v674q66 10 116 10zM414 1059q-51 35 -66 94l322 301q98 -53 133 -184z" />
    <glyph glyph-name="ycircumflex.ss02" horiz-adv-x="1146" 
d="M898 975q50 0 116 -10v-924q0 -207 -133 -328t-351 -121q-285 0 -434 164q23 109 135 152q113 -123 291 -123q131 0 195.5 62.5t64.5 166.5v66q-115 -47 -237 -47q-209 0 -316.5 104.5t-107.5 280.5v547q68 10 119 10t112 -10v-480q0 -127 49.5 -186t174.5 -59t206 51
v674q66 10 116 10zM365 1075q-74 27 -97 103l234 241q72 14 141 0l227 -233q-23 -80 -98 -113l-207 164z" />
    <glyph glyph-name="ydieresis.ss02" horiz-adv-x="1146" 
d="M898 975q50 0 116 -10v-924q0 -207 -133 -328t-351 -121q-285 0 -434 164q23 109 135 152q113 -123 291 -123q131 0 195.5 62.5t64.5 166.5v66q-115 -47 -237 -47q-209 0 -316.5 104.5t-107.5 280.5v547q68 10 119 10t112 -10v-480q0 -127 49.5 -186t174.5 -59t206 51
v674q66 10 116 10zM786.5 1116q-53.5 0 -92.5 38t-39 92t38 92t92 38t93.5 -38t39.5 -92t-39 -92t-92.5 -38zM359 1116q-54 0 -93 38t-39 92t38 92t93 38t93 -38t38 -92t-38 -92t-92 -38z" />
    <glyph glyph-name="ygrave.ss02" horiz-adv-x="1146" 
d="M898 975q50 0 116 -10v-924q0 -207 -133 -328t-351 -121q-285 0 -434 164q23 109 135 152q113 -123 291 -123q131 0 195.5 62.5t64.5 166.5v66q-115 -47 -237 -47q-209 0 -316.5 104.5t-107.5 280.5v547q68 10 119 10t112 -10v-480q0 -127 49.5 -186t174.5 -59t206 51
v674q66 10 116 10zM782 1151q-18 -63 -65 -92l-389 211q31 129 133 184z" />
    <glyph glyph-name="a.ss03" horiz-adv-x="1050" 
d="M299 287q0 -137 211 -137q106 0 201 32v226h-242q-170 0 -170 -121zM496 997q203 0 324.5 -95t121.5 -306v-530q-203 -96 -428 -96q-451 -1 -451 311q0 137 105.5 213.5t286.5 74.5h256v41q0 184 -232 185q-150 0 -272 -93q-84 51 -107 154q55 53 162 97t234 44z" />
    <glyph glyph-name="aacute.ss03" horiz-adv-x="1050" 
d="M299 287q0 -137 211 -137q106 0 201 32v226h-242q-170 0 -170 -121zM496 997q203 0 324.5 -95t121.5 -306v-530q-203 -96 -428 -96q-451 -1 -451 311q0 137 105.5 213.5t286.5 74.5h256v41q0 184 -232 185q-150 0 -272 -93q-84 51 -107 154q55 53 162 97t234 44z
M352 1059q-51 35 -65 94l321 301q98 -53 133 -184z" />
    <glyph glyph-name="abreve.ss03" horiz-adv-x="1050" 
d="M299 287q0 -137 211 -137q106 0 201 32v226h-242q-170 0 -170 -121zM496 997q203 0 324.5 -95t121.5 -306v-530q-203 -96 -428 -96q-451 -1 -451 311q0 137 105.5 213.5t286.5 74.5h256v41q0 184 -232 185q-150 0 -272 -93q-84 51 -107 154q55 53 162 97t234 44z
M513 1083q-155 0 -237.5 91.5t-82.5 214.5q68 29 155 18q29 -158 170 -158q72 0 113 42t49 116q94 10 154 -18q0 -121 -83 -213.5t-238 -92.5z" />
    <glyph glyph-name="acircumflex.ss03" horiz-adv-x="1050" 
d="M299 287q0 -137 211 -137q106 0 201 32v226h-242q-170 0 -170 -121zM496 997q203 0 324.5 -95t121.5 -306v-530q-203 -96 -428 -96q-451 -1 -451 311q0 137 105.5 213.5t286.5 74.5h256v41q0 184 -232 185q-150 0 -272 -93q-84 51 -107 154q55 53 162 97t234 44z
M305 1075q-74 27 -96 103l233 241q70 14 142 0l227 -233q-23 -80 -98 -113l-207 164z" />
    <glyph glyph-name="adieresis.ss03" horiz-adv-x="1050" 
d="M299 287q0 -137 211 -137q106 0 201 32v226h-242q-170 0 -170 -121zM496 997q203 0 324.5 -95t121.5 -306v-530q-203 -96 -428 -96q-451 -1 -451 311q0 137 105.5 213.5t286.5 74.5h256v41q0 184 -232 185q-150 0 -272 -93q-84 51 -107 154q55 53 162 97t234 44z
M725 1116q-53 0 -92 38t-39 92t38 92t92 38t93 -38t39 -92t-39 -92t-92 -38zM298 1116q-54 0 -93 38t-39 92t38 92t93 38t93 -38t38 -92t-38 -92t-92 -38z" />
    <glyph glyph-name="agrave.ss03" horiz-adv-x="1050" 
d="M299 287q0 -137 211 -137q106 0 201 32v226h-242q-170 0 -170 -121zM496 997q203 0 324.5 -95t121.5 -306v-530q-203 -96 -428 -96q-451 -1 -451 311q0 137 105.5 213.5t286.5 74.5h256v41q0 184 -232 185q-150 0 -272 -93q-84 51 -107 154q55 53 162 97t234 44z
M723 1151q-18 -63 -66 -92l-389 211q31 129 133 184z" />
    <glyph glyph-name="amacron.ss03" horiz-adv-x="1050" 
d="M299 287q0 -137 211 -137q106 0 201 32v226h-242q-170 0 -170 -121zM496 997q203 0 324.5 -95t121.5 -306v-530q-203 -96 -428 -96q-451 -1 -451 311q0 137 105.5 213.5t286.5 74.5h256v41q0 184 -232 185q-150 0 -272 -93q-84 51 -107 154q55 53 162 97t234 44z
M211 1249q0 55 12 90h580q10 -47 10 -90t-10 -90h-580q-12 35 -12 90z" />
    <glyph glyph-name="aogonek.ss03" horiz-adv-x="1050" 
d="M299 287q0 -137 211 -137q106 0 201 32v226h-242q-170 0 -170 -121zM784 -410q-86 0 -144 48.5t-58 125.5q0 113 110 224q-94 -18 -198 -19q-205 0 -318 79t-113 224.5t105.5 222t286.5 74.5h256v41q0 184 -232 185q-150 0 -272 -93q-84 51 -107 154q55 53 162 97t234 44
q203 0 324.5 -95t121.5 -306v-530q-74 -57 -123 -121t-49 -111q0 -68 72 -67q47 -1 102 40q76 -51 76 -133q-88 -84 -236 -84z" />
    <glyph glyph-name="aring.ss03" horiz-adv-x="1050" 
d="M299 287q0 -137 211 -137q106 0 201 32v226h-242q-170 0 -170 -121zM496 997q203 0 324.5 -95t121.5 -306v-530q-203 -96 -428 -96q-451 -1 -451 311q0 137 105.5 213.5t286.5 74.5h256v41q0 184 -232 185q-150 0 -272 -93q-84 51 -107 154q55 53 162 97t234 44z
M513 1346q-36 0 -60.5 -27t-24.5 -63t24.5 -61.5t60.5 -25.5t60.5 26t24.5 61.5t-24.5 62.5t-60.5 27zM513 1036q-91 0 -156.5 64.5t-65.5 155.5t65.5 156t156.5 65t155.5 -64.5t64.5 -156t-64.5 -156t-155.5 -64.5z" />
    <glyph glyph-name="atilde.ss03" horiz-adv-x="1050" 
d="M299 287q0 -137 211 -137q106 0 201 32v226h-242q-170 0 -170 -121zM496 997q203 0 324.5 -95t121.5 -306v-530q-203 -96 -428 -96q-451 -1 -451 311q0 137 105.5 213.5t286.5 74.5h256v41q0 184 -232 185q-150 0 -272 -93q-84 51 -107 154q55 53 162 97t234 44z
M635 1317q70 0 96 86q96 0 162 -55q-23 -100 -88.5 -157.5t-137 -57.5t-158.5 38.5t-114 38.5q-71 0 -98 -92q-43 0 -92 15.5t-72 42.5q20 102 87 161.5t140.5 58.5t159.5 -40t115 -39z" />
    <glyph glyph-name="e.ss03" horiz-adv-x="1060" 
d="M621 571q127 0 127 111q0 57 -47.5 91t-120.5 34q-111 0 -182 -67t-83 -169h306zM592 166q70 0 129 16.5t86 31.5t70 46q86 -59 100 -158q-168 -133 -399.5 -133t-366.5 134.5t-135 368.5t146.5 379.5t363.5 145.5q180 0 288.5 -91t106.5 -226q0 -268 -340 -268l-326 -2
q14 -115 85 -179.5t192 -64.5z" />
    <glyph glyph-name="eacute.ss03" horiz-adv-x="1060" 
d="M621 571q127 0 127 111q0 57 -47.5 91t-120.5 34q-111 0 -182 -67t-83 -169h306zM592 166q70 0 129 16.5t86 31.5t70 46q86 -59 100 -158q-168 -133 -399.5 -133t-366.5 134.5t-135 368.5t146.5 379.5t363.5 145.5q180 0 288.5 -91t106.5 -226q0 -268 -340 -268l-326 -2
q14 -115 85 -179.5t192 -64.5zM383 1059q-51 35 -66 94l322 301q98 -53 133 -184z" />
    <glyph glyph-name="ecaron.ss03" horiz-adv-x="1060" 
d="M621 571q127 0 127 111q0 57 -47.5 91t-120.5 34q-111 0 -182 -67t-83 -169h306zM592 166q70 0 129 16.5t86 31.5t70 46q86 -59 100 -158q-168 -133 -399.5 -133t-366.5 134.5t-135 368.5t146.5 379.5t363.5 145.5q180 0 288.5 -91t106.5 -226q0 -268 -340 -268l-326 -2
q14 -115 85 -179.5t192 -64.5zM608 1087q-72 -14 -141 0l-223 234q18 82 96 113l203 -162l207 162q72 -27 96 -105z" />
    <glyph glyph-name="ecircumflex.ss03" horiz-adv-x="1060" 
d="M621 571q127 0 127 111q0 57 -47.5 91t-120.5 34q-111 0 -182 -67t-83 -169h306zM592 166q70 0 129 16.5t86 31.5t70 46q86 -59 100 -158q-168 -133 -399.5 -133t-366.5 134.5t-135 368.5t146.5 379.5t363.5 145.5q180 0 288.5 -91t106.5 -226q0 -268 -340 -268l-326 -2
q14 -115 85 -179.5t192 -64.5zM336 1075q-74 27 -96 103l233 241q72 14 141 0l228 -233q-23 -80 -99 -113l-206 164z" />
    <glyph glyph-name="edieresis.ss03" horiz-adv-x="1060" 
d="M621 571q127 0 127 111q0 57 -47.5 91t-120.5 34q-111 0 -182 -67t-83 -169h306zM592 166q70 0 129 16.5t86 31.5t70 46q86 -59 100 -158q-168 -133 -399.5 -133t-366.5 134.5t-135 368.5t146.5 379.5t363.5 145.5q180 0 288.5 -91t106.5 -226q0 -268 -340 -268l-326 -2
q14 -115 85 -179.5t192 -64.5zM755.5 1116q-53.5 0 -92 38t-38.5 92t37.5 92t92 38t93.5 -38t39 -92t-39 -92t-92.5 -38zM329 1116q-54 0 -93 38t-39 92t37.5 92t93 38t93.5 -38t38 -92t-38 -92t-92 -38z" />
    <glyph glyph-name="edotaccent.ss03" horiz-adv-x="1060" 
d="M621 571q127 0 127 111q0 57 -47.5 91t-120.5 34q-111 0 -182 -67t-83 -169h306zM592 166q70 0 129 16.5t86 31.5t70 46q86 -59 100 -158q-168 -133 -399.5 -133t-366.5 134.5t-135 368.5t146.5 379.5t363.5 145.5q180 0 288.5 -91t106.5 -226q0 -268 -340 -268l-326 -2
q14 -115 85 -179.5t192 -64.5zM541 1114q-61 0 -105.5 43t-44.5 104.5t44 104.5t105.5 43t105.5 -43t44 -104.5t-44 -104.5t-105 -43z" />
    <glyph glyph-name="egrave.ss03" horiz-adv-x="1060" 
d="M621 571q127 0 127 111q0 57 -47.5 91t-120.5 34q-111 0 -182 -67t-83 -169h306zM592 166q70 0 129 16.5t86 31.5t70 46q86 -59 100 -158q-168 -133 -399.5 -133t-366.5 134.5t-135 368.5t146.5 379.5t363.5 145.5q180 0 288.5 -91t106.5 -226q0 -268 -340 -268l-326 -2
q14 -115 85 -179.5t192 -64.5zM754 1151q-18 -63 -66 -92l-389 211q31 129 133 184z" />
    <glyph glyph-name="emacron.ss03" horiz-adv-x="1060" 
d="M621 571q127 0 127 111q0 57 -47.5 91t-120.5 34q-111 0 -182 -67t-83 -169h306zM592 166q70 0 129 16.5t86 31.5t70 46q86 -59 100 -158q-168 -133 -399.5 -133t-366.5 134.5t-135 368.5t146.5 379.5t363.5 145.5q180 0 288.5 -91t106.5 -226q0 -268 -340 -268l-326 -2
q14 -115 85 -179.5t192 -64.5zM242 1249q0 55 12 90h580q10 -47 10 -90t-10 -90h-580q-12 35 -12 90z" />
    <glyph glyph-name="eogonek.ss03" horiz-adv-x="1060" 
d="M561.5 807q-92.5 0 -163 -66.5t-83.5 -169.5h306q127 0 127 111q0 57 -47 91t-139.5 34zM766 -410q-86 0 -144.5 48.5t-58.5 138t99 196.5q-57 -4 -93 -4q-223 0 -358 134.5t-135 368.5t146.5 379.5t363.5 145.5q180 0 288.5 -91t106.5 -226q0 -268 -340 -268l-326 -2
q14 -115 85 -179.5t192 -64.5q70 0 129 16.5t86 31.5t70 46q86 -59 100 -158q-41 -33 -64 -45q-162 -127 -161 -223q0 -68 71 -67q46 -1 103 40q76 -51 75 -133q-88 -84 -235 -84z" />
    <glyph glyph-name="g.ss03" horiz-adv-x="1110" 
d="M512 350q102 0 164 66q122 130 4 381h-152q-102 0 -167.5 -55t-68.5 -162.5t57.5 -168.5t162.5 -61zM1001 18.5q0 -186.5 -135 -307.5t-348 -121q-150 0 -264.5 57.5t-181.5 151.5q41 111 149 148q117 -158 295 -158q127 0 192.5 66.5t65.5 168t-69 166.5
q-94 -37 -191 -36q-211 0 -329.5 115.5t-118.5 302.5t137 305t334 118h157q92 0 141.5 21.5t82.5 93.5q110 -25 167 -111q-53 -133 -192 -184q76 -106 70 -244q0 -135 -89 -249q127 -117 127 -303.5z" />
    <glyph glyph-name="gbreve.ss03" horiz-adv-x="1110" 
d="M512 350q102 0 164 66q122 130 4 381h-152q-102 0 -167.5 -55t-68.5 -162.5t57.5 -168.5t162.5 -61zM1001 18.5q0 -186.5 -135 -307.5t-348 -121q-150 0 -264.5 57.5t-181.5 151.5q41 111 149 148q117 -158 295 -158q127 0 192.5 66.5t65.5 168t-69 166.5
q-94 -37 -191 -36q-211 0 -329.5 115.5t-118.5 302.5t137 305t334 118h157q92 0 141.5 21.5t82.5 93.5q110 -25 167 -111q-53 -133 -192 -184q76 -106 70 -244q0 -135 -89 -249q127 -117 127 -303.5zM534 1083q-155 0 -238 91.5t-83 214.5q68 29 156 18q29 -158 170 -158
q72 0 112.5 42t48.5 116q94 10 154 -18q0 -121 -82.5 -213.5t-237.5 -92.5z" />
    <glyph glyph-name="gcommaaccent.ss03" horiz-adv-x="1110" 
d="M512 350q102 0 164 66q122 130 4 381h-152q-102 0 -167.5 -55t-68.5 -162.5t57.5 -168.5t162.5 -61zM1001 18.5q0 -186.5 -135 -307.5t-348 -121q-150 0 -264.5 57.5t-181.5 151.5q41 111 149 148q117 -158 295 -158q127 0 192.5 66.5t65.5 168t-69 166.5
q-94 -37 -191 -36q-211 0 -329.5 115.5t-118.5 302.5t137 305t334 118h157q92 0 141.5 21.5t82.5 93.5q110 -25 167 -111q-53 -133 -192 -184q76 -106 70 -244q0 -135 -89 -249q127 -117 127 -303.5zM526 1040q-59 0 -98 19q-6 39 -6 76q0 88 43 165.5t121 124.5
q57 -8 82 -61q-57 -74 -58 -186q0 -59 21 -117q-46 -21 -105 -21z" />
    <glyph glyph-name="gdotaccent.ss03" horiz-adv-x="1110" 
d="M512 350q102 0 164 66q122 130 4 381h-152q-102 0 -167.5 -55t-68.5 -162.5t57.5 -168.5t162.5 -61zM1001 18.5q0 -186.5 -135 -307.5t-348 -121q-150 0 -264.5 57.5t-181.5 151.5q41 111 149 148q117 -158 295 -158q127 0 192.5 66.5t65.5 168t-69 166.5
q-94 -37 -191 -36q-211 0 -329.5 115.5t-118.5 302.5t137 305t334 118h157q92 0 141.5 21.5t82.5 93.5q110 -25 167 -111q-53 -133 -192 -184q76 -106 70 -244q0 -135 -89 -249q127 -117 127 -303.5zM533 1114q-61 0 -105.5 43t-44.5 104.5t44 104.5t105.5 43t105.5 -43
t44 -104.5t-44 -104.5t-105 -43z" />
    <glyph glyph-name="g.ss04" horiz-adv-x="1095" 
d="M330 594q0 -178 192 -178q193 0 201 186q4 94 -35 176l-147 2q-211 4 -211 -186zM522 217h-110q-43 0 -69 -24.5t-26 -62.5t26 -61.5t69 -23.5h534q30 -106 0 -207h-526q-324 0 -324 256q0 143 131 221q-123 100 -123 275.5t124 286t319 106.5l151 -4q90 -2 139.5 20.5
t80.5 85.5q114 -32 165 -114q-51 -119 -184 -174q51 -88 49 -209q-2 -154 -120.5 -262.5t-305.5 -108.5z" />
    <glyph glyph-name="gbreve.ss04" horiz-adv-x="1095" 
d="M330 594q0 -178 192 -178q193 0 201 186q4 94 -35 176l-147 2q-211 4 -211 -186zM522 217h-110q-43 0 -69 -24.5t-26 -62.5t26 -61.5t69 -23.5h534q30 -106 0 -207h-526q-324 0 -324 256q0 143 131 221q-123 100 -123 275.5t124 286t319 106.5l151 -4q90 -2 139.5 20.5
t80.5 85.5q114 -32 165 -114q-51 -119 -184 -174q51 -88 49 -209q-2 -154 -120.5 -262.5t-305.5 -108.5zM538 1083q-155 0 -238 91.5t-83 214.5q68 29 156 18q29 -158 170 -158q72 0 112.5 42t49.5 116q94 10 153 -18q0 -121 -82.5 -213.5t-237.5 -92.5z" />
    <glyph glyph-name="gcommaaccent.ss04" horiz-adv-x="1095" 
d="M330 594q0 -178 192 -178q193 0 201 186q4 94 -35 176l-147 2q-211 4 -211 -186zM522 217h-110q-43 0 -69 -24.5t-26 -62.5t26 -61.5t69 -23.5h534q30 -106 0 -207h-526q-324 0 -324 256q0 143 131 221q-123 100 -123 275.5t124 286t319 106.5l151 -4q90 -2 139.5 20.5
t80.5 85.5q114 -32 165 -114q-51 -119 -184 -174q51 -88 49 -209q-2 -154 -120.5 -262.5t-305.5 -108.5zM529 1040q-58 0 -99 19q-6 39 -6 76q0 88 43 165.5t121 124.5q57 -8 82 -61q-57 -74 -58 -186q0 -59 21 -117q-46 -21 -104 -21z" />
    <glyph glyph-name="gdotaccent.ss04" horiz-adv-x="1095" 
d="M330 594q0 -178 192 -178q193 0 201 186q4 94 -35 176l-147 2q-211 4 -211 -186zM522 217h-110q-43 0 -69 -24.5t-26 -62.5t26 -61.5t69 -23.5h534q30 -106 0 -207h-526q-324 0 -324 256q0 143 131 221q-123 100 -123 275.5t124 286t319 106.5l151 -4q90 -2 139.5 20.5
t80.5 85.5q114 -32 165 -114q-51 -119 -184 -174q51 -88 49 -209q-2 -154 -120.5 -262.5t-305.5 -108.5zM535 1114q-61 0 -105.5 43t-44.5 104.5t44 104.5t105.5 43t105.5 -43t44 -104.5t-44 -104.5t-105 -43z" />
    <glyph glyph-name="zero.osf" horiz-adv-x="1259" 
d="M631 174q151 0 223 100t72 270t-73 270q-73 99 -223 99t-222 -99t-72 -269q0 -171 72 -271t223 -100zM630 -33q-255 0 -398 161q-142 161 -142 419t142 419q142 160 398 160t398 -162q141 -162 141 -418q0 -257 -142 -418t-397 -161z" />
    <glyph glyph-name="one.osf" horiz-adv-x="704" 
d="M458 1118q44 0 85 -10v-1108q-47 -10 -115 -10t-117 10v834l-192 -91q-82 74 -88 197l342 168q41 10 85 10z" />
    <glyph glyph-name="two.osf" horiz-adv-x="1042" 
d="M96 72q0 111 144 219q272 211 349 294t77 162t-50 121t-137 43q-135 0 -268 -125q-102 29 -145 144q70 84 180 141t235 57q186 0 304 -95t118 -265t-116 -293q-62 -68 -119 -113t-166 -122l-72 -41l78 8h450q14 -41 14 -101t-14 -106h-852q-10 35 -10 72z" />
    <glyph glyph-name="three.osf" horiz-adv-x="1011" 
d="M928 188q0 -180 -137 -283t-330 -104q-260 0 -406 142q23 117 123 170q70 -59 131 -86t155 -27t159 52q63 52 63 150t-70 150q-70 51 -229 51q-14 41 -14 93t16 88q246 0 246 182q0 70 -48 113t-128 43q-139 0 -248 -101q-98 35 -129 133q131 172 389 172q172 0 283 -89
t110 -240q1 -181 -149 -279q213 -86 213 -330z" />
    <glyph glyph-name="four.osf" horiz-adv-x="1140" 
d="M680 264v471l2 58l-35 -56l-338 -473h371zM1081 162q0 -41 -10 -99h-172v-256q-49 -8 -109 -8t-110 8v256h-619q-18 41 -18 103t49 129l578 801q58 10 118 10t111 -10v-832h174q8 -61 8 -102z" />
    <glyph glyph-name="five.osf" horiz-adv-x="1042" 
d="M466 -199q-234 0 -380 131q29 119 119 179q109 -102 274 -103q121 0 185 58t63 164q0 108 -80 157t-291 49h-225v662h764q10 -66 10 -118t-8 -95h-549v-240h39q303 0 438 -98t135 -305t-130 -324t-364 -117z" />
    <glyph glyph-name="six.osf" horiz-adv-x="1087" 
d="M561 166q109 0 173 58t65 172q0 114 -70 166q-71 52 -187 52t-229 -90q-2 -16 -2 -49q1 -145 71 -227t179 -82zM610 813q186 -1 298 -109t112 -304t-129 -314t-343 -119q-214 0 -340 136t-126 380q0 328 220 564t546 313q78 -51 78 -201q-457 -119 -572 -428
q117 82 256 82z" />
    <glyph glyph-name="seven.osf" horiz-adv-x="997" 
d="M952 1026q0 -104 -43 -186l-551 -1071q-135 18 -196 98l532 1014h-631q-10 57 -10 105t10 110h879q10 -31 10 -70z" />
    <glyph glyph-name="eight.osf" horiz-adv-x="1071" 
d="M538 147q93 0 154 41q62 41 62 129q0 89 -58 139t-184 111q-2 2 -8 4t-10 4q-174 -102 -175 -251q0 -86 63 -132t156 -45zM731 1008q0 76 -54 121t-144 45q-89 0 -143 -44t-54 -116q0 -74 54 -123t165 -105q2 0 2 -1t2 -1q88 48 130 98t42 126zM532 -37q-190 0 -316 81
t-126 255q0 213 238 367q-213 137 -213 331q-2 160 116 263q119 102 307 102t301 -90q112 -90 111 -250q0 -203 -211 -328q115 -68 177 -148t62 -203q0 -124 -67 -215q-123 -165 -379 -165z" />
    <glyph glyph-name="nine.osf" horiz-adv-x="1075" 
d="M283 700q0 -102 63 -156t156 -55q150 0 252 72q-2 166 -71 263q-69 98 -174 98t-165 -60t-61 -162zM456 289q-170 1 -283 109q-114 108 -114 297t127 310t339 121t336 -154t124 -419q0 -733 -768 -752q-29 57 -29 111t7 90q292 13 403 107t141 266q-113 -86 -283 -86z
" />
    <glyph glyph-name="zero.tf" horiz-adv-x="1144" 
d="M331 654q0 -484 241 -484t241 484t-240 485q-242 -1 -242 -485zM1067 658q0 -320 -127 -506t-369 -185q-241 -1 -367 185t-126 506t127 505t369 185t368 -186q125 -184 125 -504z" />
    <glyph glyph-name="one.tf" horiz-adv-x="1144" 
d="M1036 108q0 -34 -12 -108h-809q-12 53 -12 103t12 100h305v841l-291 -129q-35 25 -61 81q-27 56 -29 116l443 211q45 10 96 10t76 -10v-1120h270q12 -61 12 -95z" />
    <glyph glyph-name="two.tf" horiz-adv-x="1144" 
d="M1038 110q0 -56 -16 -110h-883q-10 35 -10 74q0 94 82 176q334 348 426 465t92 211t-50 149q-49 55 -135 55q-142 0 -231 -70q-29 -24 -69 -65q-104 37 -148 150q74 86 192 144t255 59q195 0 315 -102t119 -294q0 -118 -78 -260q-29 -51 -101 -134t-135 -147l-151 -151
l-51 -47l76 6h485q16 -53 16 -109z" />
    <glyph glyph-name="three.tf" horiz-adv-x="1144" 
d="M115 1216q0 44 14 105h842q2 -12 2 -35q0 -98 -62 -170l-243 -274q139 -18 245 -116t107 -286q0 -233 -144 -353t-364 -120q-136 0 -240 41t-157 94q29 117 118 181q133 -109 269 -109t209 64q71 64 71 187q0 125 -78 189t-260 64h-92l-6 41q0 49 60 121l233 264h-510
q-14 68 -14 112z" />
    <glyph glyph-name="four.tf" horiz-adv-x="1144" 
d="M1059 417q0 -48 -12 -102h-144v-315q-47 -8 -109 -8t-114 8v315h-555q-39 86 -34 155t48 173l320 721q111 -10 217 -66l-295 -673q-31 -74 -31 -103h330v289q66 10 116 10t107 -10v-289h146q10 -57 10 -105z" />
    <glyph glyph-name="five.tf" horiz-adv-x="1144" 
d="M522 -33q-244 0 -391 127q27 123 117 182q127 -98 271 -98t214 65t70 177q0 229 -279 229q-63 -1 -160 -25q-98 -24 -140 -24t-62 10v711h790q23 -106 2 -215h-575v-270q82 29 174 28q237 0 359 -114t122 -324q0 -211 -134 -335t-378 -124z" />
    <glyph glyph-name="six.tf" horiz-adv-x="1144" 
d="M829 408q1 226 -251 225q-116 0 -234 -78q-2 -20 -2 -66q0 -151 70 -237t180 -86t174 61q63 61 63 181zM647 836q188 0 301 -110t113 -312t-133 -325q-133 -124 -349 -124t-345 140q-128 140 -128 380q0 191 64 351q114 288 417 444q134 70 283 98q63 -63 68 -207
q-327 -68 -466 -248q-58 -75 -91 -173q123 86 266 86z" />
    <glyph glyph-name="seven.tf" horiz-adv-x="1144" 
d="M115 1206q0 51 10 109h915q14 -29 14 -99t-44 -161l-574 -1100q-133 10 -203 106l549 1033h-657q-10 61 -10 112z" />
    <glyph glyph-name="eight.tf" horiz-adv-x="1144" 
d="M573 154q221 0 222 190q0 90 -75 142q-52 37 -128 72q-76 36 -92 46q-143 -115 -144 -260q0 -98 62 -144t155 -46zM571 1171q-84 0 -134 -43q-50 -42 -50 -114t53 -117t178 -106l25 -13q117 100 117 221q0 82 -52 127q-53 45 -137 45zM1020 356q0 -196 -128 -292
t-323 -96t-321 86q-126 87 -127 265q0 209 215 373q-174 115 -175 288t113 275q114 103 302 103t298 -95t109 -253q0 -185 -176 -322q101 -63 157 -140t56 -192z" />
    <glyph glyph-name="nine.tf" horiz-adv-x="1144" 
d="M576 666q112 0 219 61v12q0 207 -66 311t-186 103q-94 0 -160 -67q-66 -68 -66 -182t74 -176q73 -62 185 -62zM564 1358q212 0 336 -159t124 -458q0 -441 -223 -615q-206 -161 -553 -161q-31 55 -31 113t8 88q311 6 418 100t137 275q-121 -74 -250 -74q-198 0 -318 116
q-120 115 -120 317t130 330t342 128z" />
    <glyph glyph-name="currency.osf" horiz-adv-x="1249" 
d="M623 254q113 0 193 81t79 197q0 116 -79 198q-78 81 -192 81t-193 -81t-79 -198q0 -118 79 -198t192 -80zM1122 532q0 -148 -82 -276l111 -113q-55 -100 -154 -151l-112 114q-119 -74 -260 -74t-260 74l-113 -114q-94 51 -154 151l111 115q-80 122 -80 272t82 275
l-113 115q57 98 154 153l115 -117q121 72 260 72t256 -72l114 117q92 -47 154 -153l-111 -113q82 -127 82 -275z" />
    <glyph glyph-name="dollar.osf" horiz-adv-x="1003" 
d="M575 174q141 25 142 129q0 49 -28 81t-114 46v-256zM303 776q0 -42 27 -68t110 -42v223q-137 -21 -137 -113zM934 326q0 -148 -96 -240t-263 -109v-213q-20 -4 -65 -4t-70 4v211q-240 18 -374 144q25 115 118 168q109 -92 256 -113v268q-162 16 -257 96t-97 216
q0 137 94 225t260 106v201q25 4 70 4t65 -4v-199q203 -14 330 -116q-14 -115 -110 -166q-96 70 -220 84v-242q359 -39 359 -321z" />
    <glyph glyph-name="sterling.osf" horiz-adv-x="1056" 
d="M141 0q0 84 41 216t43 235h-133q-12 41 -12 79t12 80h119q-10 61 -10 121q0 176 115 287q116 110 315 110t336 -124q-25 -119 -133 -175q-90 90 -203 91q-201 0 -201 -191q0 -37 12 -119h308q14 -47 14 -82t-14 -77h-295q-4 -135 -47 -254h548q30 -93 0 -197h-815z" />
    <glyph glyph-name="yen.osf" horiz-adv-x="1157" 
d="M692 420v-107h244q8 -31 8 -67t-8 -68h-244v-178q-47 -10 -116 -10t-119 10v178h-248q-8 31 -8 68t8 67h248v107h-248q-8 32 -8 68t8 67h176l-336 530q161 33 279 11l237 -416l23 -47l20 47l254 416q48 8 108 8t142 -19l-340 -530h164q8 -31 8 -67t-8 -68h-244z" />
    <glyph glyph-name="ampersand.ss02" horiz-adv-x="1323" 
d="M307 383q1 -93 65 -153t196 -60t208 86l-330 344q-139 -59 -139 -217zM548 -31q-226 1 -348 107t-122 291q0 129 64 225q65 96 171 149q-111 125 -111 262t107 233q106 96 281 95q175 0 307 -108q-29 -106 -117 -158q-92 80 -180 80t-135 -40t-47 -113t110 -189l301 -322
v303h410q27 -90 0 -178h-217v-182q-2 -68 -18 -129l264 -283q-37 -18 -117 -23t-117 -1l-127 131q-133 -150 -359 -150z" />
    <glyph glyph-name="caroncomb.alt" 
d="M-242 1291.5q0 105.5 -24 164.5q41 23 102 23t96 -21q32 -132 -28 -269q-40 -89 -101 -142q-57 8 -86 49q41 90 41 195.5z" />
    <glyph glyph-name="gravecomb.case" 
d="M-86 1384l-430 154q0 131 104 201l375 -260q-10 -64 -49 -95z" />
    <glyph glyph-name="acutecomb.case" 
d="M-477 1384q-41 35 -47 95l374 260q100 -68 105 -201z" />
    <glyph glyph-name="tildecomb.case" 
d="M-568.5 1683q76.5 0 167 -38.5t116.5 -38.5q76 0 97 88q106 0 161 -56q-20 -100 -86.5 -158.5t-139 -58.5t-165 37t-119.5 37q-80 0 -100 -86q-43 0 -91 15.5t-71 41.5q20 102 87 159.5t143.5 57.5z" />
    <glyph glyph-name="acute.case" horiz-adv-x="557" 
d="M82 1384q-41 35 -47 95l375 260q100 -68 104 -201z" />
    <glyph glyph-name="breve.case" horiz-adv-x="739" 
d="M369 1405q-145 0 -230.5 82t-85.5 196q66 27 150 17q31 -123 172 -123q66 0 110.5 31.5t53.5 91.5q84 10 145 -17q0 -111 -85 -194.5t-230 -83.5z" />
    <glyph glyph-name="caron.case" horiz-adv-x="716" 
d="M289 1417l-240 191q16 72 74 110l244 -139l227 139q55 -33 72 -106l-238 -195q-71 -18 -139 0z" />
    <glyph glyph-name="circumflex.case" horiz-adv-x="712" 
d="M121 1403q-59 39 -72 108l238 193q68 18 139 0l240 -188q-14 -72 -74 -113l-244 139z" />
    <glyph glyph-name="dieresis.case" horiz-adv-x="774" 
d="M604 1434q-53 0 -92 37.5t-39 91t38 91.5t92 38t92 -38t38 -91.5t-38 -91t-91 -37.5zM171 1434q-54 0 -92 37.5t-38 91t38 91.5t92 38t91 -38t37 -91.5t-37 -91t-91 -37.5z" />
    <glyph glyph-name="dotaccent.case" horiz-adv-x="415" 
d="M208 1417q-60 0 -103.5 42t-43.5 103.5t43 103.5t103.5 42t103.5 -42t43 -103.5t-43 -103.5t-103 -42z" />
    <glyph glyph-name="grave.case" horiz-adv-x="565" 
d="M473 1384l-430 154q0 131 104 201l375 -260q-10 -64 -49 -95z" />
    <glyph glyph-name="hungarumlaut.case" horiz-adv-x="786" 
d="M465 1360q-55 23 -78 74l215 295q115 -23 150 -136zM113 1360q-55 23 -78 74l215 295q115 -23 149 -136z" />
    <glyph glyph-name="macron.case" horiz-adv-x="706" 
d="M45 1553q0 30 12 87h592q27 -86 0 -170h-592q-12 53 -12 83z" />
    <glyph glyph-name="ring.case" horiz-adv-x="520" 
d="M260 1481q35 0 58.5 25.5t23.5 61.5t-22.5 61.5t-59.5 25.5t-59.5 -25.5t-22.5 -61.5t23.5 -61.5t58.5 -25.5zM261 1348q-91 0 -155.5 64.5t-64.5 155.5t64.5 155.5t155.5 64.5t154.5 -64.5t63.5 -155.5t-63.5 -155.5t-154.5 -64.5z" />
    <glyph glyph-name="tilde.case" horiz-adv-x="819" 
d="M250.5 1683q76.5 0 167 -38.5t117.5 -38.5q76 0 96 88q106 0 162 -56q-20 -100 -87 -158.5t-139.5 -58.5t-165 37t-118.5 37q-81 0 -101 -86q-43 0 -91 15.5t-71 41.5q20 102 87 159.5t143.5 57.5z" />
    <glyph glyph-name="IJacute" horiz-adv-x="1099" 
d="M549 -219q-96 0 -172 35t-119 82q27 129 129 178q72 -80 156 -80q164 0 164 180v1137q45 12 117 12t120 -12v-1135q0 -190 -108 -294q-109 -103 -287 -103zM268 211q-51 0 -123 10v1092q55 14 117 14t119 -14v-1092q-62 -10 -113 -10zM659 1368q-45 31 -53 92l363 273
q104 -66 112 -197zM111 1368q-41 29 -54 92l363 273q104 -66 112 -197z" />
    <glyph glyph-name="ijacute" horiz-adv-x="1015" 
d="M881 -27q1 -183 -105 -281t-265 -98t-249 87q25 109 109 157q55 -49 129 -49q150 0 149 180v998q49 10 116 10t116 -10v-994zM252 -10q-68 0 -117 10v969q49 10 116 10t116 -10v-969q-47 -10 -115 -10zM606 1059q-47 31 -61 88l319 307q98 -53 133 -184zM113 1059
q-45 29 -64 88l320 307q102 -55 133 -184z" />
    <glyph glyph-name="slashlong" horiz-adv-x="1183" 
d="M182 -61q-70 23 -96 96l899 993q72 -27 96 -88z" />
    <glyph glyph-name="slashshort" horiz-adv-x="610" 
d="M86 520q-63 49 -70 139l514 267q57 -57 68 -142z" />
    <glyph glyph-name="stroke" horiz-adv-x="684" 
d="M49 983q0 41 12 80h562q12 -37 12 -78t-12 -78h-562q-12 35 -12 76z" />
    <glyph glyph-name="caronalt" horiz-adv-x="329" 
d="M88 1292q0 106 -25 164q41 23 103 23t96 -21q10 -40 10 -110t-39 -159t-100 -142q-57 8 -86 49q41 90 41 196z" />
    <glyph glyph-name="slashlong.case" horiz-adv-x="1433" 
d="M178 -66q-102 31 -139 134l1212 1323q98 -31 140 -125z" />
    <glyph glyph-name="slashshort.case" horiz-adv-x="694" 
d="M117 508q-27 20 -48 65q-22 45 -26 82l539 281q66 -66 71 -150z" />
    <glyph glyph-name="i.loclTRK" horiz-adv-x="501" 
d="M251.5 -10q-67.5 0 -116.5 10v969q49 10 116.5 10t115.5 -10v-969q-48 -10 -115.5 -10zM250 1116q-61 0 -105.5 43t-44.5 104.5t44 104.5t105.5 43t105.5 -43t44 -104.5t-44 -104.5t-105 -43z" />
    <glyph glyph-name="uni1EF9.ss01" horiz-adv-x="1146" 
d="M526 -227q121 0 188.5 67.5t67.5 173.5v68q-70 -20 -155 -31q-248 -35 -248 -164q0 -114 147 -114zM898 975q50 0 116 -10v-930q0 -203 -137.5 -323t-352.5 -120q-168 0 -267 67t-99 189q0 158 184 246q-221 78 -221 326v545q68 10 119 10t112 -10v-465
q0 -127 49.5 -186.5t176.5 -59.5t204 49v662q66 10 116 10zM696 1317q70 0 97 86q96 0 161 -55q-23 -100 -88 -157.5t-136.5 -57.5t-159 38.5t-113.5 38.5q-72 0 -99 -92q-43 0 -92 15.5t-71 42.5q20 102 86.5 161.5t140 58.5t160 -40t114.5 -39z" />
    <glyph glyph-name="uni1EF9.ss02" horiz-adv-x="1146" 
d="M898 975q50 0 116 -10v-924q0 -207 -133 -328t-351 -121q-285 0 -434 164q23 109 135 152q113 -123 291 -123q131 0 195.5 62.5t64.5 166.5v66q-115 -47 -237 -47q-209 0 -316.5 104.5t-107.5 280.5v547q68 10 119 10t112 -10v-480q0 -127 49.5 -186t174.5 -59t206 51
v674q66 10 116 10zM694 1317q70 0 97 86q96 0 161 -55q-23 -100 -88 -157.5t-136.5 -57.5t-159 38.5t-113.5 38.5q-72 0 -99 -92q-43 0 -92 15.5t-71 42.5q20 102 86.5 161.5t140 58.5t160 -40t114.5 -39z" />
    <glyph glyph-name="cent.osf" horiz-adv-x="1024" 
d="M313 521q1 -105 53 -184t152 -104v578q-100 -23 -152 -104t-53 -186zM586 -188q-42 0 -68 6v211q-200 23 -320 151t-120 336q0 207 122 341t318 157v213q37 8 69 8t68 -8v-213q186 -16 289 -127q-29 -102 -127 -154q-68 68 -162 82v-586q90 12 172 86q92 -53 119 -155
q-111 -115 -291 -133v-209q-27 -6 -69 -6z" />
    <glyph glyph-name="Euro.osf" horiz-adv-x="1155" 
d="M203 502v45q0 39 2 57h-99q-8 45 -8 69t8 68h121q47 181 181 283t332 102t329 -98q-29 -104 -113 -166q-92 61 -213 62q-209 0 -276 -183h281q8 -31 8 -69t-8 -68h-308q-2 -18 -2 -53t2 -49h269q8 -31 8 -69t-8 -68h-244q61 -193 272 -193q142 0 234 72q82 -57 106 -172
q-123 -102 -336 -102t-346 102t-174 293h-153q-8 45 -8 69t8 68h135z" />
    <glyph glyph-name="uni0308.case" 
d="M-170 1434q-53 0 -92 37.5t-39 91t38 91.5t92 38t92 -38t38 -91.5t-38 -91t-91 -37.5zM-603 1434q-54 0 -92 37.5t-38 91t38 91.5t92 38t91 -38t37 -91.5t-37 -91t-91 -37.5z" />
    <glyph glyph-name="uni0307.case" 
d="M-208 1417q-60 0 -103 42t-43 103.5t43 103.5t103 42t103.5 -42t43.5 -103.5t-43.5 -103.5t-103.5 -42z" />
    <glyph glyph-name="uni030B.case" 
d="M-326 1360q-55 23 -77 74l215 295q115 -23 149 -136zM-678 1360q-55 23 -78 74l215 295q115 -23 150 -136z" />
    <glyph glyph-name="uni0302.case" 
d="M-598 1403q-59 37 -72 108l236 193q70 18 141 0l238 -188q-14 -72 -74 -113l-242 139z" />
    <glyph glyph-name="uni030C.case" 
d="M-430 1417l-238 191q16 72 74 110l242 -139l227 139q59 -33 72 -106l-236 -195q-71 -18 -141 0z" />
    <glyph glyph-name="uni0306.case" 
d="M-373 1405q-145 0 -230 82t-85 196q66 27 149 17q31 -123 172 -123q63 0 109.5 31.5t54.5 91.5q84 10 146 -17q0 -111 -85.5 -194.5t-230.5 -83.5z" />
    <glyph glyph-name="uni030A.case" 
d="M-254 1481q35 0 58.5 25.5t23.5 61.5t-22.5 61.5t-59.5 25.5t-59.5 -25.5t-22.5 -61.5t23.5 -61.5t58.5 -25.5zM-253 1348q-91 0 -155.5 64.5t-64.5 155.5t64.5 155.5t155.5 64.5t154.5 -64.5t63.5 -155.5t-63.5 -155.5t-154.5 -64.5z" />
    <glyph glyph-name="uni0304.case" 
d="M-47 1556q0 -45 -12 -86h-592q-12 53 -12.5 83t12.5 87h592q12 -39 12 -84z" />
    <glyph glyph-name="uni0337.case" 
d="M-578 508q-27 20 -48 65t-25 82l538 281q66 -66 72 -150z" />
    <glyph glyph-name="uni0338.case" 
d="M-1255 -66q-102 31 -140 134l1213 1323q98 -31 139 -125z" />
    </font>
</defs>
</svg>
