<?xml version="1.0" encoding="UTF-8" standalone="no"?>
<svg width="180px" height="52px" viewBox="0 0 180 52" version="1.1" xmlns="http://www.w3.org/2000/svg" xmlns:xlink="http://www.w3.org/1999/xlink">
    <!-- Generator: Sketch 3.8.2 (29753) - http://www.bohemiancoding.com/sketch -->
    <title>appstore.svg</title>
    <desc>Created with Sketch.</desc>
    <defs></defs>
    <g id="Symbols" stroke="none" stroke-width="1" fill="none" fill-rule="evenodd">
        <g id="App_promo_section" transform="translate(-80.000000, -281.000000)">
            <g id="app">
                <g id="_badges" transform="translate(80.000000, 280.000000)">
                    <g id="appstore.svg" transform="translate(0.000000, 1.000000)">
                        <g id="Page-1">
                            <path d="M179.694993,46.6118 C179.694993,49.4684 177.384267,51.7823 174.526193,51.7823 L5.37539259,51.7823 C2.51866667,51.7823 0.199851852,49.4684 0.199851852,46.6118 L0.199851852,5.37875 C0.199851852,2.5235 2.51866667,0.2015 5.37539259,0.2015 L174.524844,0.2015 C177.384267,0.2015 179.693644,2.5235 179.693644,5.37875 L179.694993,46.6118 Z" id="Fill-3" fill="#000000"></path>
                            <path d="M39.6170074,25.7084 C39.5779111,21.35735 43.1747704,19.24055 43.3392444,19.142 C41.3021926,16.16795 38.1448296,15.7616 37.0353037,15.7292 C34.3834963,15.44975 31.8112296,17.31815 30.4603852,17.31815 C29.0825778,17.31815 27.0023852,15.7562 24.7604148,15.8021 C21.8753778,15.84665 19.1763852,17.5193 17.6961185,20.1167 C14.6412148,25.41275 16.9195852,33.1955 19.8464148,37.47635 C21.3105037,39.5729 23.0213037,41.9138 25.2605778,41.83145 C27.4513185,41.741 28.2696444,40.43285 30.913363,40.43285 C33.5328148,40.43285 34.3012593,41.83145 36.5850222,41.7788 C38.9361926,41.741 40.4164593,39.6728 41.8293185,37.55735 C43.5212444,35.15435 44.2007111,32.7878 44.2276741,32.6663 C44.1724,32.6474 39.6614963,30.92345 39.6170074,25.7084" id="Fill-5" fill="#FFFFFF"></path>
                            <path d="M35.3029333,12.9131 C36.4812148,11.43755 37.2874074,9.4301 37.0636148,7.39295 C35.3582074,7.46855 33.225437,8.5742 31.9972741,10.01735 C30.9106667,11.28905 29.94,13.37345 30.1907556,15.33365 C32.1064741,15.47675 34.0734222,14.3657 35.3029333,12.9131" id="Fill-7" fill="#FFFFFF"></path>
                            <path d="M63.2594815,35.14085 L62.1984889,31.8617 C62.0865926,31.5269 61.8762815,30.7385 61.5662074,29.49515 L61.5284593,29.49515 C61.4044296,30.02975 61.2062519,30.81815 60.9339259,31.8617 L59.8918074,35.14085 L63.2594815,35.14085 Z M66.9237481,40.3748 L64.784237,40.3748 L63.6113481,36.6866 L59.5372444,36.6866 L58.4209778,40.3748 L56.3380889,40.3748 L60.3757926,27.81845 L62.8685185,27.81845 L66.9237481,40.3748 Z" id="Fill-9" fill="#FFFFFF"></path>
                            <path d="M75.2782222,35.8118 C75.2782222,34.93025 75.0800444,34.20395 74.6823407,33.6329 C74.248237,33.0362 73.665837,32.73785 72.9337926,32.73785 C72.4376741,32.73785 71.9873926,32.90255 71.5856444,33.23195 C71.1825481,33.56 70.9183111,33.992 70.7942815,34.5266 C70.7322667,34.775 70.7012593,34.9802 70.7012593,35.14085 L70.7012593,36.65015 C70.7012593,37.3076 70.9021333,37.8638 71.3065778,38.3174 C71.7096741,38.771 72.2341037,38.99645 72.8785185,38.99645 C73.6348296,38.99645 74.2239704,38.70485 74.6459407,38.12165 C75.066563,37.5371 75.2782222,36.7676 75.2782222,35.8118 M77.3247111,35.7362 C77.3247111,37.2779 76.9081333,38.49425 76.0776741,39.38795 C75.3334963,40.1831 74.4100148,40.58 73.3058815,40.58 C72.1154667,40.58 71.2593926,40.15205 70.7390074,39.2948 L70.7012593,39.2948 L70.7012593,44.06435 L68.6925185,44.06435 L68.6925185,34.3025 C68.6925185,33.3332 68.6669037,32.34095 68.6183704,31.3217 L70.3857926,31.3217 L70.4976889,32.7554 L70.535437,32.7554 C71.2054667,31.6754 72.2219704,31.1354 73.5862963,31.1354 C74.6526815,31.1354 75.5424593,31.5566 76.2556296,32.4017 C76.9674519,33.2468 77.3247111,34.35785 77.3247111,35.7362" id="Fill-11" fill="#FFFFFF"></path>
                            <path d="M85.6967111,35.8118 C85.6967111,34.93025 85.4985333,34.20395 85.1008296,33.6329 C84.6667259,33.0362 84.0843259,32.73785 83.3522815,32.73785 C82.856163,32.73785 82.4058815,32.90255 82.0041333,33.23195 C81.601037,33.56 81.3368,33.992 81.2127704,34.5266 C81.1507556,34.775 81.1197481,34.9802 81.1197481,35.14085 L81.1197481,36.65015 C81.1197481,37.3076 81.3206222,37.8638 81.7250667,38.3174 C82.128163,38.771 82.6525926,38.99645 83.2970074,38.99645 C84.0533185,38.99645 84.6424593,38.70485 85.0644296,38.12165 C85.4850519,37.5371 85.6967111,36.7676 85.6967111,35.8118 M87.7432,35.7362 C87.7432,37.2779 87.3266222,38.49425 86.496163,39.38795 C85.7519852,40.1831 84.8285037,40.58 83.7243704,40.58 C82.5339556,40.58 81.6778815,40.15205 81.1574963,39.2948 L81.1197481,39.2948 L81.1197481,44.06435 L79.1110074,44.06435 L79.1110074,34.3025 C79.1110074,33.3332 79.0853926,32.34095 79.0368593,31.3217 L80.8042815,31.3217 L80.9161778,32.7554 L80.9539259,32.7554 C81.6239556,31.6754 82.6404593,31.1354 84.0047852,31.1354 C85.0711704,31.1354 85.9609481,31.5566 86.6741185,32.4017 C87.3859407,33.2468 87.7432,34.35785 87.7432,35.7362" id="Fill-13" fill="#FFFFFF"></path>
                            <path d="M99.4087259,36.854 C99.4087259,37.9232 99.0379852,38.7926 98.2951556,39.46355 C97.4795259,40.1966 96.3389926,40.5611 94.8802963,40.5611 C93.5294519,40.5611 92.4468889,40.30055 91.6299111,39.77945 L92.0936741,38.10275 C92.975363,38.63735 93.9419852,38.90465 94.9975852,38.90465 C95.7538963,38.90465 96.343037,38.7332 96.7650074,38.3903 C97.1883259,38.04875 97.3999852,37.5911 97.3999852,37.0187 C97.3999852,36.5084 97.2260741,36.08045 96.8782519,35.7308 C96.5304296,35.3825 95.9534222,35.05985 95.1485778,34.76015 C92.9524444,33.9407 91.8550519,32.7392 91.8550519,31.15835 C91.8550519,30.1256 92.2392741,29.2805 93.0077185,28.6217 C93.776163,27.96155 94.8007556,27.63215 96.0774519,27.63215 C97.2179852,27.63215 98.1684296,27.8306 98.9233926,28.2275 L98.4205333,29.86775 C97.7154519,29.483 96.9146519,29.28995 96.0221778,29.28995 C95.3144,29.28995 94.7630074,29.4641 94.3653037,29.8124 C94.030963,30.12155 93.8624444,30.5009 93.8624444,30.9491 C93.8624444,31.4459 94.0552296,31.85495 94.4394519,32.1776 C94.7737926,32.47595 95.3818074,32.7986 96.2648444,33.1469 C97.3447111,33.5816 98.1374222,34.09055 98.6456741,34.6751 C99.1539259,35.25965 99.4087259,35.9846 99.4087259,36.854" id="Fill-15" fill="#FFFFFF"></path>
                            <path d="M106.216874,32.831 L104.001867,32.831 L104.001867,37.22795 C104.001867,38.34575 104.391481,38.90465 105.173407,38.90465 C105.534711,38.90465 105.831304,38.8736 106.065881,38.8115 L106.121156,40.3397 C105.726148,40.4882 105.204415,40.56245 104.56,40.56245 C103.764593,40.56245 103.145793,40.3208 102.698207,39.83615 C102.253319,39.35285 102.029526,38.5388 102.029526,37.39535 L102.029526,32.831 L100.708341,32.831 L100.708341,31.3217 L102.029526,31.3217 L102.029526,29.6639 L104.001867,29.0672 L104.001867,31.3217 L106.216874,31.3217 L106.216874,32.831" id="Fill-17" fill="#FFFFFF"></path>
                            <path d="M114.327333,35.8388 C114.327333,35.0045 114.14803,34.289 113.788074,33.6896 C113.367452,32.96735 112.763481,32.60555 111.984252,32.60555 C111.175363,32.60555 110.561956,32.96735 110.141333,33.6896 C109.782726,34.28765 109.602074,35.01665 109.602074,35.87525 C109.602074,36.7109 109.784074,37.4264 110.141333,38.02445 C110.575437,38.7467 111.183452,39.1085 111.966726,39.1085 C112.73517,39.1085 113.336444,38.7413 113.770548,38.0069 C114.139941,37.39535 114.327333,36.6731 114.327333,35.8388 M116.410222,35.774 C116.410222,37.1645 116.015215,38.3066 115.219807,39.20165 C114.390696,40.121 113.283867,40.58 111.907407,40.58 C110.58083,40.58 109.523881,40.1399 108.736563,39.25835 C107.949244,38.3768 107.554237,37.2644 107.554237,35.92385 C107.554237,34.51985 107.96003,33.371 108.772963,32.47595 C109.584548,31.58225 110.679244,31.1354 112.057052,31.1354 C113.38363,31.1354 114.450015,31.5755 115.256207,32.45705 C116.026,33.3143 116.410222,34.41995 116.410222,35.774" id="Fill-19" fill="#FFFFFF"></path>
                            <path d="M123.405763,33.09155 C123.208933,33.05375 122.997274,33.03485 122.773481,33.03485 C122.065704,33.03485 121.519704,33.30215 121.135481,33.83675 C120.801141,34.30925 120.632622,34.9046 120.632622,35.6255 L120.632622,40.37615 L118.623881,40.37615 L118.642756,34.17155 C118.642756,33.12935 118.618489,32.1776 118.568607,31.3217 L120.317156,31.3217 L120.391304,33.05375 L120.449274,33.05375 C120.659585,32.4584 120.993926,31.9805 121.452296,31.62005 C121.899881,31.2974 122.38117,31.13675 122.902904,31.13675 C123.090296,31.13675 123.258815,31.1489 123.405763,31.1732 L123.405763,33.09155 Z" id="Fill-21" fill="#FFFFFF"></path>
                            <path d="M130.641274,34.89785 C130.654756,34.3025 130.522637,33.7868 130.251659,33.3521 C129.903837,32.7932 129.36997,32.51375 128.650059,32.51375 C127.992163,32.51375 127.459644,32.78645 127.051156,33.33185 C126.714119,33.76655 126.517289,34.289 126.453926,34.8965 L130.641274,34.8965 L130.641274,34.89785 Z M132.558341,35.4203 C132.558341,35.78075 132.531378,36.0845 132.484193,36.33425 L126.453926,36.33425 C126.480889,37.22795 126.772089,37.91105 127.330222,38.38355 C127.838474,38.80475 128.493674,39.0167 129.299867,39.0167 C130.195037,39.0167 131.006622,38.87495 131.738667,38.58875 L132.054133,39.986 C131.198059,40.3586 130.186948,40.5449 129.0208,40.5449 C127.620074,40.5449 126.519985,40.1318 125.719185,39.3056 C124.921081,38.48075 124.520681,37.37105 124.520681,35.98055 C124.520681,34.61435 124.891422,33.47765 125.636948,32.5718 C126.416178,31.6025 127.471778,31.1192 128.799704,31.1192 C130.100667,31.1192 131.087511,31.6025 131.756193,32.5718 C132.292756,33.33995 132.558341,34.29035 132.558341,35.4203 L132.558341,35.4203 Z" id="Fill-23" fill="#FFFFFF"></path>
                            <polygon id="Fill-25" fill="#FFFFFF" points="134.027822 36.09125 138.662756 36.09125 138.662756 34.6751 134.027822 34.6751"></polygon>
                            <path d="M147.367748,35.7929 C147.367748,34.91135 147.170919,34.1891 146.773215,33.63155 C146.339111,33.0227 145.748622,32.7176 145.005793,32.7176 C144.508326,32.7176 144.063437,32.8796 143.665733,33.2009 C143.26803,33.5249 143.002444,33.9542 142.864933,34.48745 C142.815052,34.69805 142.790785,34.90865 142.790785,35.1206 L142.790785,36.70415 C142.790785,37.32515 142.9984,37.8584 143.412281,38.3066 C143.828859,38.7548 144.346548,38.97755 144.965348,38.97755 C145.723007,38.97755 146.313496,38.6927 146.734119,38.1203 C147.156089,37.5506 147.367748,36.773 147.367748,35.7929 M149.412889,35.7173 C149.412889,37.2455 148.992267,38.46185 148.148326,39.36905 C147.4028,40.17635 146.491452,40.57865 145.412933,40.57865 C144.122756,40.57865 143.175007,40.04405 142.566993,38.9762 L142.530593,38.9762 L142.417348,40.37345 L140.7052,40.37345 C140.755081,39.6404 140.782044,38.82635 140.782044,37.93265 L140.782044,27.1637 L142.790785,27.1637 L142.790785,32.642 L142.827185,32.642 C143.421719,31.6349 144.382948,31.1327 145.710874,31.1327 C146.804222,31.1327 147.694,31.55255 148.380207,32.3909 C149.066415,33.22925 149.412889,34.33895 149.412889,35.7173" id="Fill-27" fill="#FFFFFF"></path>
                            <path d="M158.120578,27.52145 L155.86917,30.22145 L154.473837,30.22145 L156.075437,27.52145 L158.120578,27.52145 Z M157.841511,35.8388 C157.841511,35.0045 157.662207,34.289 157.302252,33.6896 C156.88163,32.96735 156.277659,32.60555 155.49843,32.60555 C154.689541,32.60555 154.076133,32.96735 153.655511,33.6896 C153.296904,34.28765 153.116252,35.01665 153.116252,35.87525 C153.116252,36.7109 153.298252,37.4264 153.655511,38.02445 C154.089615,38.7467 154.69763,39.1085 155.480904,39.1085 C156.249348,39.1085 156.850622,38.7413 157.284726,38.0069 C157.655467,37.39535 157.841511,36.6731 157.841511,35.8388 L157.841511,35.8388 Z M159.9244,35.774 C159.9244,37.1645 159.529393,38.3066 158.733985,39.20165 C157.904874,40.121 156.798044,40.58 155.421585,40.58 C154.095007,40.58 153.038059,40.1399 152.250741,39.25835 C151.463422,38.3768 151.068415,37.2644 151.068415,35.92385 C151.068415,34.51985 151.474207,33.371 152.287141,32.47595 C153.098726,31.58225 154.193422,31.1354 155.57123,31.1354 C156.897807,31.1354 157.964193,31.5755 158.770385,32.45705 C159.540178,33.3143 159.9244,34.41995 159.9244,35.774 L159.9244,35.774 Z" id="Fill-28" fill="#FFFFFF"></path>
                            <polygon id="Fill-29" fill="#FFFFFF" points="162.139407 40.3748 164.148148 40.3748 164.148148 27.1664 162.139407 27.1664"></polygon>
                            <polygon id="Fill-30" fill="#FFFFFF" points="62.8900889 21.31955 57.8817185 21.31955 57.8817185 12.4946 59.2945778 12.4946 59.2945778 20.12885 62.8900889 20.12885"></polygon>
                            <path d="M68.6696,17.4707 C68.679037,17.05085 68.5860148,16.68905 68.3959259,16.38395 C68.150563,15.9911 67.7771259,15.794 67.2715704,15.794 C66.8091556,15.794 66.4343704,15.9857 66.1458667,16.37045 C65.9112889,16.6769 65.7724296,17.04275 65.7279407,17.4707 L68.6696,17.4707 Z M70.0177481,17.83655 C70.0177481,18.09035 69.9988741,18.30365 69.9651704,18.4778 L65.7279407,18.4778 C65.7454667,19.1069 65.949037,19.58615 66.3413481,19.91825 C66.6999556,20.21525 67.1610222,20.36375 67.7272444,20.36375 C68.3554815,20.36375 68.9270963,20.26385 69.4407407,20.0627 L69.661837,21.0455 C69.060563,21.3074 68.3500889,21.43835 67.5304148,21.43835 C66.5462667,21.43835 65.7710815,21.1481 65.2089037,20.5676 C64.6467259,19.9871 64.3663111,19.20815 64.3663111,18.23075 C64.3663111,17.2709 64.6265037,16.4717 65.1509333,15.8345 C65.6996296,15.1541 66.439763,14.8139 67.3726815,14.8139 C68.2880741,14.8139 68.9810222,15.1541 69.4515259,15.8345 C69.8303556,16.3745 70.0177481,17.04275 70.0177481,17.83655 L70.0177481,17.83655 Z" id="Fill-31" fill="#FFFFFF"></path>
                            <path d="M75.2741778,16.0154 L73.7184148,16.0154 L73.7184148,19.1069 C73.7184148,19.8926 73.993437,20.28545 74.5421333,20.28545 C74.7955852,20.28545 75.0045481,20.26385 75.1703704,20.2193 L75.2081185,21.29255 C74.9290519,21.39785 74.5623556,21.4505 74.1107259,21.4505 C73.5525926,21.4505 73.1171407,21.2804 72.8030222,20.9402 C72.4889037,20.6 72.3311704,20.0276 72.3311704,19.22435 L72.3311704,16.0154 L71.4036444,16.0154 L71.4036444,14.9543 L72.3311704,14.9543 L72.3311704,13.78925 L73.7170667,13.37075 L73.7170667,14.9543 L75.2728296,14.9543 L75.2728296,16.0154 L75.2741778,16.0154 Z" id="Fill-32" fill="#FFFFFF"></path>
                            <path d="M81.8531407,13.3451 C81.8531407,13.55435 81.7857333,13.72985 81.6522667,13.8689 C81.5174519,14.0093 81.3475852,14.07815 81.1399704,14.07815 C80.9431407,14.07815 80.7746222,14.0066 80.6425037,13.86215 C80.5076889,13.7177 80.4416296,13.54625 80.4416296,13.3451 C80.4416296,13.14395 80.5103852,12.9725 80.6478963,12.82805 C80.7867556,12.68495 80.9552741,12.61205 81.1534519,12.61205 C81.3610667,12.61205 81.5295852,12.68495 81.6590074,12.82805 C81.7884296,12.9725 81.8531407,13.14395 81.8531407,13.3451 M81.564637,18.13085 C81.564637,17.5436 81.4379111,17.04005 81.1871556,16.6202 C80.8919111,16.1126 80.4712889,15.8588 79.9239407,15.8588 C79.3590667,15.8588 78.9290074,16.1126 78.633763,16.6202 C78.3816593,17.04005 78.2562815,17.5517 78.2562815,18.1565 C78.2562815,18.74375 78.3830074,19.2473 78.633763,19.66715 C78.9384444,20.17475 79.3631111,20.42855 79.9104593,20.42855 C80.4470222,20.42855 80.8703407,20.1707 81.1736741,19.65365 C81.4338667,19.2257 81.564637,18.7181 81.564637,18.13085 M79.3927704,13.3451 C79.3927704,13.55435 79.325363,13.72985 79.1932444,13.8689 C79.0584296,14.0093 78.8926074,14.07815 78.6944296,14.07815 C78.4868148,14.07815 78.3169481,14.0066 78.1821333,13.86215 C78.0473185,13.7177 77.9826074,13.54625 77.9826074,13.3451 C77.9826074,13.14395 78.051363,12.9725 78.1888741,12.82805 C78.3277333,12.68495 78.4989481,12.61205 78.7079111,12.61205 C78.9060889,12.61205 79.070563,12.68495 79.1999852,12.82805 C79.3280593,12.9725 79.3927704,13.14395 79.3927704,13.3451 M83.0300741,18.08495 C83.0300741,19.0637 82.7510074,19.8656 82.1942222,20.4947 C81.6118222,21.14135 80.8379852,21.464 79.871363,21.464 C78.9411407,21.464 78.1996593,21.15485 77.6469185,20.53385 C77.0941778,19.9142 76.8191556,19.13255 76.8191556,18.19025 C76.8191556,17.20475 77.1036148,16.3961 77.6738815,15.76835 C78.2428,15.13925 79.0112444,14.82605 79.9765185,14.82605 C80.9067407,14.82605 81.654963,15.1352 82.2211852,15.75485 C82.7590963,16.35695 83.0300741,17.13455 83.0300741,18.08495" id="Fill-33" fill="#FFFFFF"></path>
                            <polygon id="Fill-34" fill="#FFFFFF" points="85.1197037 21.31955 86.532563 21.31955 86.532563 12.0356 85.1197037 12.0356"></polygon>
                            <path d="M92.2460148,16.0154 L90.6902519,16.0154 L90.6902519,19.1069 C90.6902519,19.8926 90.9652741,20.28545 91.5139704,20.28545 C91.7674222,20.28545 91.9763852,20.26385 92.1422074,20.2193 L92.1786074,21.29255 C91.8995407,21.39785 91.5341926,21.4505 91.0812148,21.4505 C90.5230815,21.4505 90.0876296,21.2804 89.7735111,20.9402 C89.4593926,20.6 89.3016593,20.0276 89.3016593,19.22435 L89.3016593,16.0154 L88.3741333,16.0154 L88.3741333,14.9543 L89.3016593,14.9543 L89.3016593,13.78925 L90.6875556,13.37075 L90.6875556,14.9543 L92.2433185,14.9543 L92.2433185,16.0154 L92.2460148,16.0154 Z" id="Fill-35" fill="#FFFFFF"></path>
                            <path d="M99.7268889,21.31955 L98.3126815,21.31955 L98.3126815,17.70155 C98.3126815,16.5608 97.8866667,15.98975 97.0332889,15.98975 C96.3780889,15.98975 95.9305037,16.3205 95.6851407,16.982 C95.6433481,17.12105 95.6190815,17.29115 95.6190815,17.49095 L95.6190815,21.3182 L94.2075704,21.3182 L94.2075704,12.0356 L95.6190815,12.0356 L95.6190815,15.87095 L95.6460444,15.87095 C96.0909333,15.173 96.7286074,14.8247 97.5550222,14.8247 C98.1401185,14.8247 98.6241037,15.0164 99.0083259,15.40115 C99.4869185,15.8804 99.7268889,16.5932 99.7268889,17.5355 L99.7268889,21.31955" id="Fill-36" fill="#FFFFFF"></path>
                            <path d="M106.095541,17.4707 C106.10363,17.05085 106.011956,16.68905 105.821867,16.38395 C105.576504,15.9911 105.203067,15.794 104.697511,15.794 C104.233748,15.794 103.860311,15.9857 103.570459,16.37045 C103.335881,16.6769 103.197022,17.04275 103.153881,17.4707 L106.095541,17.4707 Z M107.443689,17.83655 C107.443689,18.09035 107.424815,18.30365 107.391111,18.4778 L103.153881,18.4778 C103.170059,19.1069 103.374978,19.58615 103.767289,19.91825 C104.125896,20.21525 104.585615,20.36375 105.151837,20.36375 C105.781422,20.36375 106.353037,20.26385 106.865333,20.0627 L107.08643,21.0455 C106.486504,21.3074 105.774681,21.43835 104.956356,21.43835 C103.972207,21.43835 103.197022,21.1481 102.633496,20.5676 C102.072667,19.9871 101.790904,19.20815 101.790904,18.23075 C101.790904,17.2709 102.051096,16.4717 102.575526,15.8345 C103.12557,15.1541 103.865704,14.8139 104.797274,14.8139 C105.714015,14.8139 106.405615,15.1541 106.877467,15.8345 C107.254948,16.3745 107.443689,17.04275 107.443689,17.83655 L107.443689,17.83655 Z" id="Fill-37" fill="#FFFFFF"></path>
                            <path d="M112.700119,16.0154 L111.144356,16.0154 L111.144356,19.1069 C111.144356,19.8926 111.41803,20.28545 111.968074,20.28545 C112.221526,20.28545 112.429141,20.26385 112.594963,20.2193 L112.634059,21.29255 C112.354993,21.39785 111.988296,21.4505 111.536667,21.4505 C110.978533,21.4505 110.541733,21.2804 110.227615,20.9402 C109.914844,20.6 109.755763,20.0276 109.755763,19.22435 L109.755763,16.0154 L108.828237,16.0154 L108.828237,14.9543 L109.755763,14.9543 L109.755763,13.78925 L111.143007,13.37075 L111.143007,14.9543 L112.69877,14.9543 L112.69877,16.0154 L112.700119,16.0154 Z" id="Fill-38" fill="#FFFFFF"></path>
                            <path d="M119.996296,12.2057 L118.609052,14.0525 L117.761067,14.0525 L118.727689,12.2057 L119.996296,12.2057 Z M117.995644,12.2057 L116.6084,14.0525 L115.760415,14.0525 L116.727037,12.2057 L117.995644,12.2057 Z M119.001363,18.13085 C119.001363,17.5436 118.874637,17.04005 118.622533,16.6202 C118.327289,16.1126 117.90397,15.8588 117.356622,15.8588 C116.787704,15.8588 116.356296,16.1126 116.061052,16.6202 C115.8076,17.04005 115.682222,17.5517 115.682222,18.1565 C115.682222,18.74375 115.808948,19.2473 116.061052,19.66715 C116.367081,20.17475 116.793096,20.42855 117.343141,20.42855 C117.8824,20.42855 118.30437,20.1707 118.609052,19.65365 C118.871941,19.2257 119.001363,18.7181 119.001363,18.13085 L119.001363,18.13085 Z M120.468148,18.08495 C120.468148,19.0637 120.189081,19.8656 119.630948,20.4947 C119.045852,21.14135 118.269319,21.464 117.302696,21.464 C116.36843,21.464 115.6256,21.15485 115.072859,20.53385 C114.520119,19.9142 114.243748,19.13255 114.243748,18.19025 C114.243748,17.20475 114.528207,16.3961 115.099822,15.76835 C115.671437,15.1406 116.439881,14.82605 117.406504,14.82605 C118.34077,14.82605 119.088993,15.1352 119.657911,15.75485 C120.195822,16.35695 120.468148,17.13455 120.468148,18.08495 L120.468148,18.08495 Z" id="Fill-39" fill="#FFFFFF"></path>
                            <path d="M129.659822,19.13255 L129.659822,18.1511 C128.098667,18.1241 127.319437,18.55205 127.319437,19.4336 C127.319437,19.7657 127.411111,20.0141 127.593111,20.18015 C127.775111,20.3462 128.004296,20.42855 128.280667,20.42855 C128.593437,20.42855 128.880593,20.33 129.147526,20.13425 C129.410415,19.93715 129.573541,19.6874 129.634207,19.38095 C129.651733,19.3121 129.659822,19.2284 129.659822,19.13255 M131.123911,21.31955 L129.855304,21.31955 L129.752844,20.5865 L129.713748,20.5865 C129.276948,21.17105 128.658148,21.464 127.857348,21.464 C127.254726,21.464 126.769393,21.27095 126.404044,20.88755 C126.0724,20.53925 125.909274,20.1059 125.909274,19.59155 C125.909274,18.81395 126.23283,18.2213 126.883985,17.8109 C127.531096,17.4005 128.445141,17.19935 129.622074,17.2088 L129.622074,17.09 C129.622074,16.25165 129.182578,15.83315 128.304933,15.83315 C127.678044,15.83315 127.125304,15.9911 126.646711,16.3043 L126.359556,15.3755 C126.951393,15.00965 127.679393,14.82605 128.539511,14.82605 C130.203126,14.82605 131.033585,15.70355 131.033585,17.45855 L131.033585,19.80215 C131.032237,20.438 131.063244,20.94425 131.123911,21.31955" id="Fill-40" fill="#FFFFFF"></path>
                            <path d="M138.041259,21.31955 L132.86437,21.31955 L132.86437,20.4947 L135.400237,17.15615 C135.55797,16.9469 135.845126,16.6013 136.2644,16.1207 L136.2644,16.09505 L133.11243,16.09505 L133.11243,14.95565 L137.9752,14.95565 L137.9752,15.83315 L135.491911,19.1204 C135.212844,19.47815 134.925689,19.82375 134.627748,20.1545 L134.627748,20.1815 L138.039911,20.1815 L138.039911,21.31955 L138.041259,21.31955 Z" id="Fill-41" fill="#FFFFFF"></path>
                        </g>
                    </g>
                </g>
            </g>
        </g>
    </g>
</svg>