<?xml version="1.0" standalone="no"?>
<!DOCTYPE svg PUBLIC "-//W3C//DTD SVG 20010904//EN"
 "http://www.w3.org/TR/2001/REC-SVG-20010904/DTD/svg10.dtd">
<svg version="1.0" xmlns="http://www.w3.org/2000/svg"
 width="370.000000pt" height="370.000000pt" viewBox="0 0 370.000000 370.000000"
 preserveAspectRatio="xMidYMid meet">
<metadata>
Created by potrace 1.11, written by Peter Selinger 2001-2013
</metadata>
<g transform="translate(0.000000,370.000000) scale(0.100000,-0.100000)"
fill="#000000" stroke="none">
<path d="M1690 3693 c-112 -16 -220 -40 -307 -68 -384 -126 -708 -409 -883
-771 -40 -83 -104 -262 -114 -319 -3 -16 -7 -39 -10 -51 -27 -123 -28 -510 -1
-554 2 -3 6 -26 10 -50 12 -80 75 -252 136 -371 103 -199 256 -380 429 -508
47 -35 92 -70 100 -80 8 -9 58 -65 110 -126 52 -60 97 -112 100 -115 3 -3 32
-36 65 -75 33 -38 65 -75 70 -81 10 -11 99 -112 143 -163 12 -14 86 -101 165
-193 l142 -167 45 47 c25 26 70 77 100 112 78 92 104 121 115 134 16 17 465
535 510 589 22 26 76 74 120 106 264 194 463 477 553 791 33 112 36 127 53
265 11 85 7 279 -7 385 -18 135 -93 354 -167 490 -228 417 -669 717 -1132 769
-78 8 -295 11 -345 4z m91 -236 c1 -12 3 -31 4 -42 1 -11 6 -60 9 -110 4 -49
12 -93 18 -96 8 -5 78 -1 85 5 0 0 4 42 9 91 4 50 8 101 9 115 2 14 3 33 4 43
1 16 8 17 64 12 487 -46 920 -393 1082 -867 61 -181 81 -435 49 -623 -81 -462
-410 -848 -854 -999 -80 -27 -151 -44 -215 -52 -22 -3 -50 -7 -63 -10 -32 -6
-217 -6 -272 1 -216 28 -399 95 -572 211 -288 192 -491 504 -552 849 -26 147
-14 421 23 538 6 18 18 57 27 87 24 80 104 237 165 327 101 146 277 302 439
390 120 64 292 123 406 139 27 3 50 7 51 8 1 0 20 2 42 3 36 2 41 0 42 -20z"/>
<path d="M2099 3371 c-12 -25 -37 -79 -55 -118 l-33 -73 26 -14 27 -14 73 104
c40 57 73 105 73 108 0 2 -20 15 -44 29 l-45 25 -22 -47z"/>
<path d="M1545 3388 c-16 -10 -36 -23 -44 -27 -11 -7 2 -32 59 -114 l73 -106
28 15 29 14 -23 47 c-12 26 -38 80 -57 119 l-35 71 -30 -19z"/>
<path d="M1775 3100 c-159 -36 -260 -201 -219 -358 63 -240 369 -299 516 -100
111 149 53 364 -118 440 -48 21 -131 29 -179 18z"/>
<path d="M2463 2929 c-44 -28 -33 -41 16 -22 26 10 38 20 34 29 -7 18 -12 18
-50 -7z"/>
<path d="M2339 2913 c-1 -5 -2 -60 -4 -123 -2 -63 -4 -123 -4 -132 -1 -10 -7
-15 -14 -12 -7 2 -47 -35 -92 -86 -44 -50 -89 -93 -101 -96 -11 -3 -122 -6
-246 -7 l-225 -3 -44 -36 c-47 -39 -66 -56 -168 -146 -35 -31 -72 -63 -83 -70
-18 -13 -19 -25 -14 -165 2 -84 5 -157 5 -163 1 -14 131 -13 132 1 0 5 2 18 4
27 2 9 6 35 9 56 3 22 7 51 10 64 3 12 8 39 10 58 5 34 14 45 93 100 45 33 60
37 60 18 0 -7 4 -78 8 -158 7 -139 8 -204 6 -261 -1 -18 -46 -82 -140 -200
l-140 -174 54 -55 c47 -47 56 -52 67 -39 7 8 53 51 103 95 49 43 112 100 140
125 80 74 125 112 129 108 2 -2 29 -81 60 -176 54 -163 58 -172 79 -164 12 4
47 16 78 26 l56 17 -23 110 c-13 60 -26 121 -29 136 -3 15 -27 126 -54 247
-37 163 -48 235 -46 280 4 62 15 158 19 162 2 3 26 6 121 18 102 12 94 6 183
152 71 115 81 138 68 145 -14 8 -16 33 -16 168 l0 160 -25 0 c-14 0 -25 -3
-26 -7z"/>
<path d="M2458 2849 c-23 -14 4 -27 62 -31 51 -3 55 -1 58 20 3 22 1 23 -52
21 -30 -1 -61 -6 -68 -10z"/>
<path d="M2440 2774 c0 -5 15 -19 32 -31 24 -17 34 -19 40 -10 4 6 2 17 -5 24
-15 15 -67 28 -67 17z"/>
</g>
</svg>
